G04 #@! TF.GenerationSoftware,KiCad,Pcbnew,5.1.5-52549c5~84~ubuntu18.04.1*
G04 #@! TF.CreationDate,2020-03-10T18:12:46+05:30*
G04 #@! TF.ProjectId,scale_hx711,7363616c-655f-4687-9837-31312e6b6963,rev?*
G04 #@! TF.SameCoordinates,Original*
G04 #@! TF.FileFunction,Soldermask,Top*
G04 #@! TF.FilePolarity,Negative*
%FSLAX46Y46*%
G04 Gerber Fmt 4.6, Leading zero omitted, Abs format (unit mm)*
G04 Created by KiCad (PCBNEW 5.1.5-52549c5~84~ubuntu18.04.1) date 2020-03-10 18:12:46*
%MOMM*%
%LPD*%
G04 APERTURE LIST*
%ADD10C,0.100000*%
G04 APERTURE END LIST*
D10*
G36*
X77318433Y-45634893D02*
G01*
X77408657Y-45652839D01*
X77514267Y-45696585D01*
X77663621Y-45758449D01*
X77663622Y-45758450D01*
X77893086Y-45911772D01*
X78088228Y-46106914D01*
X78190675Y-46260237D01*
X78241551Y-46336379D01*
X78347161Y-46591344D01*
X78401000Y-46862012D01*
X78401000Y-47137988D01*
X78347161Y-47408656D01*
X78241551Y-47663621D01*
X78241550Y-47663622D01*
X78088228Y-47893086D01*
X77893086Y-48088228D01*
X77739763Y-48190675D01*
X77663621Y-48241551D01*
X77514267Y-48303415D01*
X77408657Y-48347161D01*
X77318433Y-48365107D01*
X77137988Y-48401000D01*
X76862012Y-48401000D01*
X76681567Y-48365107D01*
X76591343Y-48347161D01*
X76485733Y-48303415D01*
X76336379Y-48241551D01*
X76260237Y-48190675D01*
X76106914Y-48088228D01*
X75911772Y-47893086D01*
X75758450Y-47663622D01*
X75758449Y-47663621D01*
X75652839Y-47408656D01*
X75599000Y-47137988D01*
X75599000Y-46862012D01*
X75652839Y-46591344D01*
X75758449Y-46336379D01*
X75809325Y-46260237D01*
X75911772Y-46106914D01*
X76106914Y-45911772D01*
X76336378Y-45758450D01*
X76336379Y-45758449D01*
X76485733Y-45696585D01*
X76591343Y-45652839D01*
X76681567Y-45634893D01*
X76862012Y-45599000D01*
X77137988Y-45599000D01*
X77318433Y-45634893D01*
G37*
G36*
X13318433Y-45634893D02*
G01*
X13408657Y-45652839D01*
X13514267Y-45696585D01*
X13663621Y-45758449D01*
X13663622Y-45758450D01*
X13893086Y-45911772D01*
X14088228Y-46106914D01*
X14190675Y-46260237D01*
X14241551Y-46336379D01*
X14347161Y-46591344D01*
X14401000Y-46862012D01*
X14401000Y-47137988D01*
X14347161Y-47408656D01*
X14241551Y-47663621D01*
X14241550Y-47663622D01*
X14088228Y-47893086D01*
X13893086Y-48088228D01*
X13739763Y-48190675D01*
X13663621Y-48241551D01*
X13514267Y-48303415D01*
X13408657Y-48347161D01*
X13318433Y-48365107D01*
X13137988Y-48401000D01*
X12862012Y-48401000D01*
X12681567Y-48365107D01*
X12591343Y-48347161D01*
X12485733Y-48303415D01*
X12336379Y-48241551D01*
X12260237Y-48190675D01*
X12106914Y-48088228D01*
X11911772Y-47893086D01*
X11758450Y-47663622D01*
X11758449Y-47663621D01*
X11652839Y-47408656D01*
X11599000Y-47137988D01*
X11599000Y-46862012D01*
X11652839Y-46591344D01*
X11758449Y-46336379D01*
X11809325Y-46260237D01*
X11911772Y-46106914D01*
X12106914Y-45911772D01*
X12336378Y-45758450D01*
X12336379Y-45758449D01*
X12485733Y-45696585D01*
X12591343Y-45652839D01*
X12681567Y-45634893D01*
X12862012Y-45599000D01*
X13137988Y-45599000D01*
X13318433Y-45634893D01*
G37*
G36*
X64127617Y-43683420D02*
G01*
X64208399Y-43707925D01*
X64250335Y-43720646D01*
X64363424Y-43781094D01*
X64462554Y-43862447D01*
X64543906Y-43961575D01*
X64604354Y-44074664D01*
X64614040Y-44106596D01*
X64641580Y-44197382D01*
X64651000Y-44293027D01*
X64651000Y-44906973D01*
X64641580Y-45002618D01*
X64614040Y-45093404D01*
X64604354Y-45125336D01*
X64543906Y-45238425D01*
X64462554Y-45337554D01*
X64363425Y-45418906D01*
X64250336Y-45479354D01*
X64218404Y-45489040D01*
X64127618Y-45516580D01*
X64000000Y-45529149D01*
X63872383Y-45516580D01*
X63781597Y-45489040D01*
X63749665Y-45479354D01*
X63636576Y-45418906D01*
X63537447Y-45337554D01*
X63456096Y-45238427D01*
X63456095Y-45238425D01*
X63395647Y-45125336D01*
X63395645Y-45125333D01*
X63383237Y-45084427D01*
X63358420Y-45002618D01*
X63349000Y-44906973D01*
X63349000Y-44293028D01*
X63358420Y-44197383D01*
X63395645Y-44074669D01*
X63395646Y-44074665D01*
X63456094Y-43961576D01*
X63537447Y-43862446D01*
X63636575Y-43781094D01*
X63749664Y-43720646D01*
X63791600Y-43707925D01*
X63872382Y-43683420D01*
X64000000Y-43670851D01*
X64127617Y-43683420D01*
G37*
G36*
X66127617Y-43683420D02*
G01*
X66208399Y-43707925D01*
X66250335Y-43720646D01*
X66363424Y-43781094D01*
X66462554Y-43862447D01*
X66543906Y-43961575D01*
X66604354Y-44074664D01*
X66614040Y-44106596D01*
X66641580Y-44197382D01*
X66651000Y-44293027D01*
X66651000Y-44906973D01*
X66641580Y-45002618D01*
X66614040Y-45093404D01*
X66604354Y-45125336D01*
X66543906Y-45238425D01*
X66462554Y-45337554D01*
X66363425Y-45418906D01*
X66250336Y-45479354D01*
X66218404Y-45489040D01*
X66127618Y-45516580D01*
X66000000Y-45529149D01*
X65872383Y-45516580D01*
X65781597Y-45489040D01*
X65749665Y-45479354D01*
X65636576Y-45418906D01*
X65537447Y-45337554D01*
X65456096Y-45238427D01*
X65456095Y-45238425D01*
X65395647Y-45125336D01*
X65395645Y-45125333D01*
X65383237Y-45084427D01*
X65358420Y-45002618D01*
X65349000Y-44906973D01*
X65349000Y-44293028D01*
X65358420Y-44197383D01*
X65395645Y-44074669D01*
X65395646Y-44074665D01*
X65456094Y-43961576D01*
X65537447Y-43862446D01*
X65636575Y-43781094D01*
X65749664Y-43720646D01*
X65791600Y-43707925D01*
X65872382Y-43683420D01*
X66000000Y-43670851D01*
X66127617Y-43683420D01*
G37*
G36*
X68127617Y-43683420D02*
G01*
X68208399Y-43707925D01*
X68250335Y-43720646D01*
X68363424Y-43781094D01*
X68462554Y-43862447D01*
X68543906Y-43961575D01*
X68604354Y-44074664D01*
X68614040Y-44106596D01*
X68641580Y-44197382D01*
X68651000Y-44293027D01*
X68651000Y-44906973D01*
X68641580Y-45002618D01*
X68614040Y-45093404D01*
X68604354Y-45125336D01*
X68543906Y-45238425D01*
X68462554Y-45337554D01*
X68363425Y-45418906D01*
X68250336Y-45479354D01*
X68218404Y-45489040D01*
X68127618Y-45516580D01*
X68000000Y-45529149D01*
X67872383Y-45516580D01*
X67781597Y-45489040D01*
X67749665Y-45479354D01*
X67636576Y-45418906D01*
X67537447Y-45337554D01*
X67456096Y-45238427D01*
X67456095Y-45238425D01*
X67395647Y-45125336D01*
X67395645Y-45125333D01*
X67383237Y-45084427D01*
X67358420Y-45002618D01*
X67349000Y-44906973D01*
X67349000Y-44293028D01*
X67358420Y-44197383D01*
X67395645Y-44074669D01*
X67395646Y-44074665D01*
X67456094Y-43961576D01*
X67537447Y-43862446D01*
X67636575Y-43781094D01*
X67749664Y-43720646D01*
X67791600Y-43707925D01*
X67872382Y-43683420D01*
X68000000Y-43670851D01*
X68127617Y-43683420D01*
G37*
G36*
X62491242Y-43678404D02*
G01*
X62528337Y-43689657D01*
X62562515Y-43707925D01*
X62592481Y-43732519D01*
X62617075Y-43762485D01*
X62635343Y-43796663D01*
X62646596Y-43833758D01*
X62651000Y-43878474D01*
X62651000Y-45321526D01*
X62646596Y-45366242D01*
X62635343Y-45403337D01*
X62617075Y-45437515D01*
X62592481Y-45467481D01*
X62562515Y-45492075D01*
X62528337Y-45510343D01*
X62491242Y-45521596D01*
X62446526Y-45526000D01*
X61553474Y-45526000D01*
X61508758Y-45521596D01*
X61471663Y-45510343D01*
X61437485Y-45492075D01*
X61407519Y-45467481D01*
X61382925Y-45437515D01*
X61364657Y-45403337D01*
X61353404Y-45366242D01*
X61349000Y-45321526D01*
X61349000Y-43878474D01*
X61353404Y-43833758D01*
X61364657Y-43796663D01*
X61382925Y-43762485D01*
X61407519Y-43732519D01*
X61437485Y-43707925D01*
X61471663Y-43689657D01*
X61508758Y-43678404D01*
X61553474Y-43674000D01*
X62446526Y-43674000D01*
X62491242Y-43678404D01*
G37*
G36*
X54211766Y-42801899D02*
G01*
X54343888Y-42856626D01*
X54343890Y-42856627D01*
X54462798Y-42936079D01*
X54563921Y-43037202D01*
X54563922Y-43037204D01*
X54643374Y-43156112D01*
X54698101Y-43288234D01*
X54726000Y-43428494D01*
X54726000Y-43571506D01*
X54698101Y-43711766D01*
X54663810Y-43794551D01*
X54643373Y-43843890D01*
X54563921Y-43962798D01*
X54462798Y-44063921D01*
X54343890Y-44143373D01*
X54343889Y-44143374D01*
X54343888Y-44143374D01*
X54211766Y-44198101D01*
X54071506Y-44226000D01*
X53928494Y-44226000D01*
X53788234Y-44198101D01*
X53656112Y-44143374D01*
X53656111Y-44143374D01*
X53656110Y-44143373D01*
X53537202Y-44063921D01*
X53436079Y-43962798D01*
X53356627Y-43843890D01*
X53336190Y-43794551D01*
X53301899Y-43711766D01*
X53274000Y-43571506D01*
X53274000Y-43428494D01*
X53301899Y-43288234D01*
X53356626Y-43156112D01*
X53436078Y-43037204D01*
X53436079Y-43037202D01*
X53537202Y-42936079D01*
X53656110Y-42856627D01*
X53656112Y-42856626D01*
X53788234Y-42801899D01*
X53928494Y-42774000D01*
X54071506Y-42774000D01*
X54211766Y-42801899D01*
G37*
G36*
X56211766Y-42801899D02*
G01*
X56343888Y-42856626D01*
X56343890Y-42856627D01*
X56462798Y-42936079D01*
X56563921Y-43037202D01*
X56563922Y-43037204D01*
X56643374Y-43156112D01*
X56698101Y-43288234D01*
X56726000Y-43428494D01*
X56726000Y-43571506D01*
X56698101Y-43711766D01*
X56663810Y-43794551D01*
X56643373Y-43843890D01*
X56563921Y-43962798D01*
X56462798Y-44063921D01*
X56343890Y-44143373D01*
X56343889Y-44143374D01*
X56343888Y-44143374D01*
X56211766Y-44198101D01*
X56071506Y-44226000D01*
X55928494Y-44226000D01*
X55788234Y-44198101D01*
X55656112Y-44143374D01*
X55656111Y-44143374D01*
X55656110Y-44143373D01*
X55537202Y-44063921D01*
X55436079Y-43962798D01*
X55356627Y-43843890D01*
X55336190Y-43794551D01*
X55301899Y-43711766D01*
X55274000Y-43571506D01*
X55274000Y-43428494D01*
X55301899Y-43288234D01*
X55356626Y-43156112D01*
X55436078Y-43037204D01*
X55436079Y-43037202D01*
X55537202Y-42936079D01*
X55656110Y-42856627D01*
X55656112Y-42856626D01*
X55788234Y-42801899D01*
X55928494Y-42774000D01*
X56071506Y-42774000D01*
X56211766Y-42801899D01*
G37*
G36*
X58726000Y-44226000D02*
G01*
X57274000Y-44226000D01*
X57274000Y-42774000D01*
X58726000Y-42774000D01*
X58726000Y-44226000D01*
G37*
G36*
X56211766Y-40801899D02*
G01*
X56343888Y-40856626D01*
X56343890Y-40856627D01*
X56462798Y-40936079D01*
X56563921Y-41037202D01*
X56563922Y-41037204D01*
X56643374Y-41156112D01*
X56698101Y-41288234D01*
X56726000Y-41428494D01*
X56726000Y-41571506D01*
X56698101Y-41711766D01*
X56643374Y-41843888D01*
X56643373Y-41843890D01*
X56563921Y-41962798D01*
X56462798Y-42063921D01*
X56343890Y-42143373D01*
X56343889Y-42143374D01*
X56343888Y-42143374D01*
X56211766Y-42198101D01*
X56071506Y-42226000D01*
X55928494Y-42226000D01*
X55788234Y-42198101D01*
X55656112Y-42143374D01*
X55656111Y-42143374D01*
X55656110Y-42143373D01*
X55537202Y-42063921D01*
X55436079Y-41962798D01*
X55356627Y-41843890D01*
X55356626Y-41843888D01*
X55301899Y-41711766D01*
X55274000Y-41571506D01*
X55274000Y-41428494D01*
X55301899Y-41288234D01*
X55356626Y-41156112D01*
X55436078Y-41037204D01*
X55436079Y-41037202D01*
X55537202Y-40936079D01*
X55656110Y-40856627D01*
X55656112Y-40856626D01*
X55788234Y-40801899D01*
X55928494Y-40774000D01*
X56071506Y-40774000D01*
X56211766Y-40801899D01*
G37*
G36*
X58211766Y-40801899D02*
G01*
X58343888Y-40856626D01*
X58343890Y-40856627D01*
X58462798Y-40936079D01*
X58563921Y-41037202D01*
X58563922Y-41037204D01*
X58643374Y-41156112D01*
X58698101Y-41288234D01*
X58726000Y-41428494D01*
X58726000Y-41571506D01*
X58698101Y-41711766D01*
X58643374Y-41843888D01*
X58643373Y-41843890D01*
X58563921Y-41962798D01*
X58462798Y-42063921D01*
X58343890Y-42143373D01*
X58343889Y-42143374D01*
X58343888Y-42143374D01*
X58211766Y-42198101D01*
X58071506Y-42226000D01*
X57928494Y-42226000D01*
X57788234Y-42198101D01*
X57656112Y-42143374D01*
X57656111Y-42143374D01*
X57656110Y-42143373D01*
X57537202Y-42063921D01*
X57436079Y-41962798D01*
X57356627Y-41843890D01*
X57356626Y-41843888D01*
X57301899Y-41711766D01*
X57274000Y-41571506D01*
X57274000Y-41428494D01*
X57301899Y-41288234D01*
X57356626Y-41156112D01*
X57436078Y-41037204D01*
X57436079Y-41037202D01*
X57537202Y-40936079D01*
X57656110Y-40856627D01*
X57656112Y-40856626D01*
X57788234Y-40801899D01*
X57928494Y-40774000D01*
X58071506Y-40774000D01*
X58211766Y-40801899D01*
G37*
G36*
X54211766Y-40801899D02*
G01*
X54343888Y-40856626D01*
X54343890Y-40856627D01*
X54462798Y-40936079D01*
X54563921Y-41037202D01*
X54563922Y-41037204D01*
X54643374Y-41156112D01*
X54698101Y-41288234D01*
X54726000Y-41428494D01*
X54726000Y-41571506D01*
X54698101Y-41711766D01*
X54643374Y-41843888D01*
X54643373Y-41843890D01*
X54563921Y-41962798D01*
X54462798Y-42063921D01*
X54343890Y-42143373D01*
X54343889Y-42143374D01*
X54343888Y-42143374D01*
X54211766Y-42198101D01*
X54071506Y-42226000D01*
X53928494Y-42226000D01*
X53788234Y-42198101D01*
X53656112Y-42143374D01*
X53656111Y-42143374D01*
X53656110Y-42143373D01*
X53537202Y-42063921D01*
X53436079Y-41962798D01*
X53356627Y-41843890D01*
X53356626Y-41843888D01*
X53301899Y-41711766D01*
X53274000Y-41571506D01*
X53274000Y-41428494D01*
X53301899Y-41288234D01*
X53356626Y-41156112D01*
X53436078Y-41037204D01*
X53436079Y-41037202D01*
X53537202Y-40936079D01*
X53656110Y-40856627D01*
X53656112Y-40856626D01*
X53788234Y-40801899D01*
X53928494Y-40774000D01*
X54071506Y-40774000D01*
X54211766Y-40801899D01*
G37*
G36*
X55511766Y-37701899D02*
G01*
X55643888Y-37756626D01*
X55643890Y-37756627D01*
X55762798Y-37836079D01*
X55863921Y-37937202D01*
X55863922Y-37937204D01*
X55943374Y-38056112D01*
X55998101Y-38188234D01*
X56026000Y-38328494D01*
X56026000Y-38471506D01*
X55998101Y-38611766D01*
X55943374Y-38743888D01*
X55943373Y-38743890D01*
X55863921Y-38862798D01*
X55762798Y-38963921D01*
X55643890Y-39043373D01*
X55643889Y-39043374D01*
X55643888Y-39043374D01*
X55511766Y-39098101D01*
X55371506Y-39126000D01*
X55228494Y-39126000D01*
X55088234Y-39098101D01*
X54956112Y-39043374D01*
X54956111Y-39043374D01*
X54956110Y-39043373D01*
X54837202Y-38963921D01*
X54736079Y-38862798D01*
X54656627Y-38743890D01*
X54656626Y-38743888D01*
X54601899Y-38611766D01*
X54574000Y-38471506D01*
X54574000Y-38328494D01*
X54601899Y-38188234D01*
X54656626Y-38056112D01*
X54736078Y-37937204D01*
X54736079Y-37937202D01*
X54837202Y-37836079D01*
X54956110Y-37756627D01*
X54956112Y-37756626D01*
X55088234Y-37701899D01*
X55228494Y-37674000D01*
X55371506Y-37674000D01*
X55511766Y-37701899D01*
G37*
G36*
X57511766Y-37701899D02*
G01*
X57643888Y-37756626D01*
X57643890Y-37756627D01*
X57762798Y-37836079D01*
X57863921Y-37937202D01*
X57863922Y-37937204D01*
X57943374Y-38056112D01*
X57998101Y-38188234D01*
X58026000Y-38328494D01*
X58026000Y-38471506D01*
X57998101Y-38611766D01*
X57943374Y-38743888D01*
X57943373Y-38743890D01*
X57863921Y-38862798D01*
X57762798Y-38963921D01*
X57643890Y-39043373D01*
X57643889Y-39043374D01*
X57643888Y-39043374D01*
X57511766Y-39098101D01*
X57371506Y-39126000D01*
X57228494Y-39126000D01*
X57088234Y-39098101D01*
X56956112Y-39043374D01*
X56956111Y-39043374D01*
X56956110Y-39043373D01*
X56837202Y-38963921D01*
X56736079Y-38862798D01*
X56656627Y-38743890D01*
X56656626Y-38743888D01*
X56601899Y-38611766D01*
X56574000Y-38471506D01*
X56574000Y-38328494D01*
X56601899Y-38188234D01*
X56656626Y-38056112D01*
X56736078Y-37937204D01*
X56736079Y-37937202D01*
X56837202Y-37836079D01*
X56956110Y-37756627D01*
X56956112Y-37756626D01*
X57088234Y-37701899D01*
X57228494Y-37674000D01*
X57371506Y-37674000D01*
X57511766Y-37701899D01*
G37*
G36*
X60026000Y-39126000D02*
G01*
X58574000Y-39126000D01*
X58574000Y-37674000D01*
X60026000Y-37674000D01*
X60026000Y-39126000D01*
G37*
G36*
X53511766Y-37701899D02*
G01*
X53643888Y-37756626D01*
X53643890Y-37756627D01*
X53762798Y-37836079D01*
X53863921Y-37937202D01*
X53863922Y-37937204D01*
X53943374Y-38056112D01*
X53998101Y-38188234D01*
X54026000Y-38328494D01*
X54026000Y-38471506D01*
X53998101Y-38611766D01*
X53943374Y-38743888D01*
X53943373Y-38743890D01*
X53863921Y-38862798D01*
X53762798Y-38963921D01*
X53643890Y-39043373D01*
X53643889Y-39043374D01*
X53643888Y-39043374D01*
X53511766Y-39098101D01*
X53371506Y-39126000D01*
X53228494Y-39126000D01*
X53088234Y-39098101D01*
X52956112Y-39043374D01*
X52956111Y-39043374D01*
X52956110Y-39043373D01*
X52837202Y-38963921D01*
X52736079Y-38862798D01*
X52656627Y-38743890D01*
X52656626Y-38743888D01*
X52601899Y-38611766D01*
X52574000Y-38471506D01*
X52574000Y-38328494D01*
X52601899Y-38188234D01*
X52656626Y-38056112D01*
X52736078Y-37937204D01*
X52736079Y-37937202D01*
X52837202Y-37836079D01*
X52956110Y-37756627D01*
X52956112Y-37756626D01*
X53088234Y-37701899D01*
X53228494Y-37674000D01*
X53371506Y-37674000D01*
X53511766Y-37701899D01*
G37*
G36*
X63551000Y-35201000D02*
G01*
X60449000Y-35201000D01*
X60449000Y-33099000D01*
X63551000Y-33099000D01*
X63551000Y-35201000D01*
G37*
G36*
X78833642Y-31579781D02*
G01*
X78974897Y-31638291D01*
X78979416Y-31640163D01*
X79110608Y-31727822D01*
X79222178Y-31839392D01*
X79309837Y-31970584D01*
X79309838Y-31970586D01*
X79370219Y-32116358D01*
X79401000Y-32271107D01*
X79401000Y-32428893D01*
X79370219Y-32583642D01*
X79309838Y-32729414D01*
X79309837Y-32729416D01*
X79222178Y-32860608D01*
X79110608Y-32972178D01*
X78979416Y-33059837D01*
X78979415Y-33059838D01*
X78979414Y-33059838D01*
X78833642Y-33120219D01*
X78678893Y-33151000D01*
X78521107Y-33151000D01*
X78366358Y-33120219D01*
X78220586Y-33059838D01*
X78220585Y-33059838D01*
X78220584Y-33059837D01*
X78089392Y-32972178D01*
X77977822Y-32860608D01*
X77890163Y-32729416D01*
X77890162Y-32729414D01*
X77829781Y-32583642D01*
X77799000Y-32428893D01*
X77799000Y-32271107D01*
X77829781Y-32116358D01*
X77890162Y-31970586D01*
X77890163Y-31970584D01*
X77977822Y-31839392D01*
X78089392Y-31727822D01*
X78220584Y-31640163D01*
X78225103Y-31638291D01*
X78366358Y-31579781D01*
X78521107Y-31549000D01*
X78678893Y-31549000D01*
X78833642Y-31579781D01*
G37*
G36*
X57551000Y-32801000D02*
G01*
X55449000Y-32801000D01*
X55449000Y-32199000D01*
X57551000Y-32199000D01*
X57551000Y-32801000D01*
G37*
G36*
X51551000Y-32801000D02*
G01*
X49449000Y-32801000D01*
X49449000Y-32199000D01*
X51551000Y-32199000D01*
X51551000Y-32801000D01*
G37*
G36*
X76060721Y-30620174D02*
G01*
X76160995Y-30661709D01*
X76160996Y-30661710D01*
X76251242Y-30722010D01*
X76327990Y-30798758D01*
X76327991Y-30798760D01*
X76388291Y-30889005D01*
X76429826Y-30989279D01*
X76451000Y-31095730D01*
X76451000Y-31204270D01*
X76429826Y-31310721D01*
X76388291Y-31410995D01*
X76364954Y-31445921D01*
X76327990Y-31501242D01*
X76251242Y-31577990D01*
X76248560Y-31579782D01*
X76160995Y-31638291D01*
X76060721Y-31679826D01*
X75954270Y-31701000D01*
X75845730Y-31701000D01*
X75739279Y-31679826D01*
X75639005Y-31638291D01*
X75551440Y-31579782D01*
X75548758Y-31577990D01*
X75472010Y-31501242D01*
X75435046Y-31445921D01*
X75411709Y-31410995D01*
X75370174Y-31310721D01*
X75349000Y-31204270D01*
X75349000Y-31095730D01*
X75370174Y-30989279D01*
X75411709Y-30889005D01*
X75472009Y-30798760D01*
X75472010Y-30798758D01*
X75548758Y-30722010D01*
X75639004Y-30661710D01*
X75639005Y-30661709D01*
X75739279Y-30620174D01*
X75845730Y-30599000D01*
X75954270Y-30599000D01*
X76060721Y-30620174D01*
G37*
G36*
X68334618Y-30152965D02*
G01*
X68367433Y-30162919D01*
X68397665Y-30179079D01*
X68424170Y-30200830D01*
X68445921Y-30227335D01*
X68462081Y-30257567D01*
X68472035Y-30290382D01*
X68476000Y-30330640D01*
X68476000Y-31294360D01*
X68472035Y-31334618D01*
X68462081Y-31367433D01*
X68445921Y-31397665D01*
X68424170Y-31424170D01*
X68397665Y-31445921D01*
X68367433Y-31462081D01*
X68334618Y-31472035D01*
X68294360Y-31476000D01*
X67705640Y-31476000D01*
X67665382Y-31472035D01*
X67632567Y-31462081D01*
X67602335Y-31445921D01*
X67575830Y-31424170D01*
X67554079Y-31397665D01*
X67537919Y-31367433D01*
X67527965Y-31334618D01*
X67524000Y-31294360D01*
X67524000Y-30330640D01*
X67527965Y-30290382D01*
X67537919Y-30257567D01*
X67554079Y-30227335D01*
X67575830Y-30200830D01*
X67602335Y-30179079D01*
X67632567Y-30162919D01*
X67665382Y-30152965D01*
X67705640Y-30149000D01*
X68294360Y-30149000D01*
X68334618Y-30152965D01*
G37*
G36*
X65281938Y-30141716D02*
G01*
X65302557Y-30147971D01*
X65321553Y-30158124D01*
X65338208Y-30171792D01*
X65351876Y-30188447D01*
X65362029Y-30207443D01*
X65368284Y-30228062D01*
X65371000Y-30255640D01*
X65371000Y-30714360D01*
X65368284Y-30741938D01*
X65362029Y-30762557D01*
X65351876Y-30781553D01*
X65338208Y-30798208D01*
X65321553Y-30811876D01*
X65302557Y-30822029D01*
X65281938Y-30828284D01*
X65254360Y-30831000D01*
X64745640Y-30831000D01*
X64718062Y-30828284D01*
X64697443Y-30822029D01*
X64678447Y-30811876D01*
X64661792Y-30798208D01*
X64648124Y-30781553D01*
X64637971Y-30762557D01*
X64631716Y-30741938D01*
X64629000Y-30714360D01*
X64629000Y-30255640D01*
X64631716Y-30228062D01*
X64637971Y-30207443D01*
X64648124Y-30188447D01*
X64661792Y-30171792D01*
X64678447Y-30158124D01*
X64697443Y-30147971D01*
X64718062Y-30141716D01*
X64745640Y-30139000D01*
X65254360Y-30139000D01*
X65281938Y-30141716D01*
G37*
G36*
X57551000Y-30301000D02*
G01*
X55449000Y-30301000D01*
X55449000Y-29699000D01*
X57551000Y-29699000D01*
X57551000Y-30301000D01*
G37*
G36*
X51551000Y-30251000D02*
G01*
X49449000Y-30251000D01*
X49449000Y-29649000D01*
X51551000Y-29649000D01*
X51551000Y-30251000D01*
G37*
G36*
X65281938Y-29171716D02*
G01*
X65302557Y-29177971D01*
X65321553Y-29188124D01*
X65338208Y-29201792D01*
X65351876Y-29218447D01*
X65362029Y-29237443D01*
X65368284Y-29258062D01*
X65371000Y-29285640D01*
X65371000Y-29744360D01*
X65368284Y-29771938D01*
X65362029Y-29792557D01*
X65351876Y-29811553D01*
X65338208Y-29828208D01*
X65321553Y-29841876D01*
X65302557Y-29852029D01*
X65281938Y-29858284D01*
X65254360Y-29861000D01*
X64745640Y-29861000D01*
X64718062Y-29858284D01*
X64697443Y-29852029D01*
X64678447Y-29841876D01*
X64661792Y-29828208D01*
X64648124Y-29811553D01*
X64637971Y-29792557D01*
X64631716Y-29771938D01*
X64629000Y-29744360D01*
X64629000Y-29285640D01*
X64631716Y-29258062D01*
X64637971Y-29237443D01*
X64648124Y-29218447D01*
X64661792Y-29201792D01*
X64678447Y-29188124D01*
X64697443Y-29177971D01*
X64718062Y-29171716D01*
X64745640Y-29169000D01*
X65254360Y-29169000D01*
X65281938Y-29171716D01*
G37*
G36*
X68334618Y-28527965D02*
G01*
X68367433Y-28537919D01*
X68397665Y-28554079D01*
X68424170Y-28575830D01*
X68445921Y-28602335D01*
X68462081Y-28632567D01*
X68472035Y-28665382D01*
X68476000Y-28705640D01*
X68476000Y-29669360D01*
X68472035Y-29709618D01*
X68462081Y-29742433D01*
X68445921Y-29772665D01*
X68424170Y-29799170D01*
X68397665Y-29820921D01*
X68367433Y-29837081D01*
X68334618Y-29847035D01*
X68294360Y-29851000D01*
X67705640Y-29851000D01*
X67665382Y-29847035D01*
X67632567Y-29837081D01*
X67602335Y-29820921D01*
X67575830Y-29799170D01*
X67554079Y-29772665D01*
X67537919Y-29742433D01*
X67527965Y-29709618D01*
X67524000Y-29669360D01*
X67524000Y-28705640D01*
X67527965Y-28665382D01*
X67537919Y-28632567D01*
X67554079Y-28602335D01*
X67575830Y-28575830D01*
X67602335Y-28554079D01*
X67632567Y-28537919D01*
X67665382Y-28527965D01*
X67705640Y-28524000D01*
X68294360Y-28524000D01*
X68334618Y-28527965D01*
G37*
G36*
X51551000Y-27801000D02*
G01*
X49449000Y-27801000D01*
X49449000Y-27199000D01*
X51551000Y-27199000D01*
X51551000Y-27801000D01*
G37*
G36*
X57551000Y-27801000D02*
G01*
X55449000Y-27801000D01*
X55449000Y-27199000D01*
X57551000Y-27199000D01*
X57551000Y-27801000D01*
G37*
G36*
X63601000Y-26901000D02*
G01*
X60499000Y-26901000D01*
X60499000Y-24799000D01*
X63601000Y-24799000D01*
X63601000Y-26901000D01*
G37*
G36*
X76060721Y-25820174D02*
G01*
X76160995Y-25861709D01*
X76160996Y-25861710D01*
X76251242Y-25922010D01*
X76327990Y-25998758D01*
X76327991Y-25998760D01*
X76388291Y-26089005D01*
X76429826Y-26189279D01*
X76451000Y-26295730D01*
X76451000Y-26404270D01*
X76429826Y-26510721D01*
X76388291Y-26610995D01*
X76388290Y-26610996D01*
X76327990Y-26701242D01*
X76251242Y-26777990D01*
X76205812Y-26808345D01*
X76160995Y-26838291D01*
X76060721Y-26879826D01*
X75954270Y-26901000D01*
X75845730Y-26901000D01*
X75739279Y-26879826D01*
X75639005Y-26838291D01*
X75594188Y-26808345D01*
X75548758Y-26777990D01*
X75472010Y-26701242D01*
X75411710Y-26610996D01*
X75411709Y-26610995D01*
X75370174Y-26510721D01*
X75349000Y-26404270D01*
X75349000Y-26295730D01*
X75370174Y-26189279D01*
X75411709Y-26089005D01*
X75472009Y-25998760D01*
X75472010Y-25998758D01*
X75548758Y-25922010D01*
X75639004Y-25861710D01*
X75639005Y-25861709D01*
X75739279Y-25820174D01*
X75845730Y-25799000D01*
X75954270Y-25799000D01*
X76060721Y-25820174D01*
G37*
G36*
X78833642Y-24379781D02*
G01*
X78979414Y-24440162D01*
X78979416Y-24440163D01*
X79110608Y-24527822D01*
X79222178Y-24639392D01*
X79309837Y-24770584D01*
X79309838Y-24770586D01*
X79370219Y-24916358D01*
X79401000Y-25071107D01*
X79401000Y-25228893D01*
X79370219Y-25383642D01*
X79309838Y-25529414D01*
X79309837Y-25529416D01*
X79222178Y-25660608D01*
X79110608Y-25772178D01*
X78979416Y-25859837D01*
X78979415Y-25859838D01*
X78979414Y-25859838D01*
X78833642Y-25920219D01*
X78678893Y-25951000D01*
X78521107Y-25951000D01*
X78366358Y-25920219D01*
X78220586Y-25859838D01*
X78220585Y-25859838D01*
X78220584Y-25859837D01*
X78089392Y-25772178D01*
X77977822Y-25660608D01*
X77890163Y-25529416D01*
X77890162Y-25529414D01*
X77829781Y-25383642D01*
X77799000Y-25228893D01*
X77799000Y-25071107D01*
X77829781Y-24916358D01*
X77890162Y-24770586D01*
X77890163Y-24770584D01*
X77977822Y-24639392D01*
X78089392Y-24527822D01*
X78220584Y-24440163D01*
X78220586Y-24440162D01*
X78366358Y-24379781D01*
X78521107Y-24349000D01*
X78678893Y-24349000D01*
X78833642Y-24379781D01*
G37*
G36*
X78766242Y-20353404D02*
G01*
X78803337Y-20364657D01*
X78837515Y-20382925D01*
X78867481Y-20407519D01*
X78892075Y-20437485D01*
X78910343Y-20471663D01*
X78921596Y-20508758D01*
X78926000Y-20553474D01*
X78926000Y-21446526D01*
X78921596Y-21491242D01*
X78910343Y-21528337D01*
X78892075Y-21562515D01*
X78867481Y-21592481D01*
X78837515Y-21617075D01*
X78803337Y-21635343D01*
X78766242Y-21646596D01*
X78721526Y-21651000D01*
X77278474Y-21651000D01*
X77233758Y-21646596D01*
X77196663Y-21635343D01*
X77162485Y-21617075D01*
X77132519Y-21592481D01*
X77107925Y-21562515D01*
X77089657Y-21528337D01*
X77078404Y-21491242D01*
X77074000Y-21446526D01*
X77074000Y-20553474D01*
X77078404Y-20508758D01*
X77089657Y-20471663D01*
X77107925Y-20437485D01*
X77132519Y-20407519D01*
X77162485Y-20382925D01*
X77196663Y-20364657D01*
X77233758Y-20353404D01*
X77278474Y-20349000D01*
X78721526Y-20349000D01*
X78766242Y-20353404D01*
G37*
G36*
X78338855Y-18352140D02*
G01*
X78402618Y-18358420D01*
X78493404Y-18385960D01*
X78525336Y-18395646D01*
X78638425Y-18456094D01*
X78737554Y-18537446D01*
X78818906Y-18636575D01*
X78879354Y-18749664D01*
X78879355Y-18749668D01*
X78916580Y-18872382D01*
X78929149Y-19000000D01*
X78916580Y-19127618D01*
X78889040Y-19218404D01*
X78879354Y-19250336D01*
X78818906Y-19363425D01*
X78737554Y-19462554D01*
X78638425Y-19543906D01*
X78525336Y-19604354D01*
X78493404Y-19614040D01*
X78402618Y-19641580D01*
X78338855Y-19647860D01*
X78306974Y-19651000D01*
X77693026Y-19651000D01*
X77661145Y-19647860D01*
X77597382Y-19641580D01*
X77506596Y-19614040D01*
X77474664Y-19604354D01*
X77361575Y-19543906D01*
X77262446Y-19462554D01*
X77181094Y-19363425D01*
X77120646Y-19250336D01*
X77110960Y-19218404D01*
X77083420Y-19127618D01*
X77070851Y-19000000D01*
X77083420Y-18872382D01*
X77120645Y-18749668D01*
X77120646Y-18749664D01*
X77181094Y-18636575D01*
X77262446Y-18537446D01*
X77361575Y-18456094D01*
X77474664Y-18395646D01*
X77506596Y-18385960D01*
X77597382Y-18358420D01*
X77661145Y-18352140D01*
X77693026Y-18349000D01*
X78306974Y-18349000D01*
X78338855Y-18352140D01*
G37*
G36*
X77318433Y-11634893D02*
G01*
X77408657Y-11652839D01*
X77514267Y-11696585D01*
X77663621Y-11758449D01*
X77663622Y-11758450D01*
X77893086Y-11911772D01*
X78088228Y-12106914D01*
X78190675Y-12260237D01*
X78241551Y-12336379D01*
X78347161Y-12591344D01*
X78401000Y-12862012D01*
X78401000Y-13137988D01*
X78347161Y-13408656D01*
X78241551Y-13663621D01*
X78241550Y-13663622D01*
X78088228Y-13893086D01*
X77893086Y-14088228D01*
X77739763Y-14190675D01*
X77663621Y-14241551D01*
X77514267Y-14303415D01*
X77408657Y-14347161D01*
X77318433Y-14365107D01*
X77137988Y-14401000D01*
X76862012Y-14401000D01*
X76681567Y-14365107D01*
X76591343Y-14347161D01*
X76485733Y-14303415D01*
X76336379Y-14241551D01*
X76260237Y-14190675D01*
X76106914Y-14088228D01*
X75911772Y-13893086D01*
X75758450Y-13663622D01*
X75758449Y-13663621D01*
X75652839Y-13408656D01*
X75599000Y-13137988D01*
X75599000Y-12862012D01*
X75652839Y-12591344D01*
X75758449Y-12336379D01*
X75809325Y-12260237D01*
X75911772Y-12106914D01*
X76106914Y-11911772D01*
X76336378Y-11758450D01*
X76336379Y-11758449D01*
X76485733Y-11696585D01*
X76591343Y-11652839D01*
X76681567Y-11634893D01*
X76862012Y-11599000D01*
X77137988Y-11599000D01*
X77318433Y-11634893D01*
G37*
G36*
X13318433Y-11634893D02*
G01*
X13408657Y-11652839D01*
X13514267Y-11696585D01*
X13663621Y-11758449D01*
X13663622Y-11758450D01*
X13893086Y-11911772D01*
X14088228Y-12106914D01*
X14190675Y-12260237D01*
X14241551Y-12336379D01*
X14347161Y-12591344D01*
X14401000Y-12862012D01*
X14401000Y-13137988D01*
X14347161Y-13408656D01*
X14241551Y-13663621D01*
X14241550Y-13663622D01*
X14088228Y-13893086D01*
X13893086Y-14088228D01*
X13739763Y-14190675D01*
X13663621Y-14241551D01*
X13514267Y-14303415D01*
X13408657Y-14347161D01*
X13318433Y-14365107D01*
X13137988Y-14401000D01*
X12862012Y-14401000D01*
X12681567Y-14365107D01*
X12591343Y-14347161D01*
X12485733Y-14303415D01*
X12336379Y-14241551D01*
X12260237Y-14190675D01*
X12106914Y-14088228D01*
X11911772Y-13893086D01*
X11758450Y-13663622D01*
X11758449Y-13663621D01*
X11652839Y-13408656D01*
X11599000Y-13137988D01*
X11599000Y-12862012D01*
X11652839Y-12591344D01*
X11758449Y-12336379D01*
X11809325Y-12260237D01*
X11911772Y-12106914D01*
X12106914Y-11911772D01*
X12336378Y-11758450D01*
X12336379Y-11758449D01*
X12485733Y-11696585D01*
X12591343Y-11652839D01*
X12681567Y-11634893D01*
X12862012Y-11599000D01*
X13137988Y-11599000D01*
X13318433Y-11634893D01*
G37*
M02*
