G04 #@! TF.GenerationSoftware,KiCad,Pcbnew,5.1.5-52549c5~84~ubuntu18.04.1*
G04 #@! TF.CreationDate,2020-03-09T11:52:29+05:30*
G04 #@! TF.ProjectId,scale_hx711,7363616c-655f-4687-9837-31312e6b6963,rev?*
G04 #@! TF.SameCoordinates,Original*
G04 #@! TF.FileFunction,Paste,Top*
G04 #@! TF.FilePolarity,Positive*
%FSLAX46Y46*%
G04 Gerber Fmt 4.6, Leading zero omitted, Abs format (unit mm)*
G04 Created by KiCad (PCBNEW 5.1.5-52549c5~84~ubuntu18.04.1) date 2020-03-09 11:52:29*
%MOMM*%
%LPD*%
G04 APERTURE LIST*
%ADD10C,0.100000*%
%ADD11R,3.000000X2.000000*%
%ADD12R,2.000000X0.500000*%
G04 APERTURE END LIST*
D10*
G36*
X65186958Y-29220710D02*
G01*
X65201276Y-29222834D01*
X65215317Y-29226351D01*
X65228946Y-29231228D01*
X65242031Y-29237417D01*
X65254447Y-29244858D01*
X65266073Y-29253481D01*
X65276798Y-29263202D01*
X65286519Y-29273927D01*
X65295142Y-29285553D01*
X65302583Y-29297969D01*
X65308772Y-29311054D01*
X65313649Y-29324683D01*
X65317166Y-29338724D01*
X65319290Y-29353042D01*
X65320000Y-29367500D01*
X65320000Y-29662500D01*
X65319290Y-29676958D01*
X65317166Y-29691276D01*
X65313649Y-29705317D01*
X65308772Y-29718946D01*
X65302583Y-29732031D01*
X65295142Y-29744447D01*
X65286519Y-29756073D01*
X65276798Y-29766798D01*
X65266073Y-29776519D01*
X65254447Y-29785142D01*
X65242031Y-29792583D01*
X65228946Y-29798772D01*
X65215317Y-29803649D01*
X65201276Y-29807166D01*
X65186958Y-29809290D01*
X65172500Y-29810000D01*
X64827500Y-29810000D01*
X64813042Y-29809290D01*
X64798724Y-29807166D01*
X64784683Y-29803649D01*
X64771054Y-29798772D01*
X64757969Y-29792583D01*
X64745553Y-29785142D01*
X64733927Y-29776519D01*
X64723202Y-29766798D01*
X64713481Y-29756073D01*
X64704858Y-29744447D01*
X64697417Y-29732031D01*
X64691228Y-29718946D01*
X64686351Y-29705317D01*
X64682834Y-29691276D01*
X64680710Y-29676958D01*
X64680000Y-29662500D01*
X64680000Y-29367500D01*
X64680710Y-29353042D01*
X64682834Y-29338724D01*
X64686351Y-29324683D01*
X64691228Y-29311054D01*
X64697417Y-29297969D01*
X64704858Y-29285553D01*
X64713481Y-29273927D01*
X64723202Y-29263202D01*
X64733927Y-29253481D01*
X64745553Y-29244858D01*
X64757969Y-29237417D01*
X64771054Y-29231228D01*
X64784683Y-29226351D01*
X64798724Y-29222834D01*
X64813042Y-29220710D01*
X64827500Y-29220000D01*
X65172500Y-29220000D01*
X65186958Y-29220710D01*
G37*
G36*
X65186958Y-30190710D02*
G01*
X65201276Y-30192834D01*
X65215317Y-30196351D01*
X65228946Y-30201228D01*
X65242031Y-30207417D01*
X65254447Y-30214858D01*
X65266073Y-30223481D01*
X65276798Y-30233202D01*
X65286519Y-30243927D01*
X65295142Y-30255553D01*
X65302583Y-30267969D01*
X65308772Y-30281054D01*
X65313649Y-30294683D01*
X65317166Y-30308724D01*
X65319290Y-30323042D01*
X65320000Y-30337500D01*
X65320000Y-30632500D01*
X65319290Y-30646958D01*
X65317166Y-30661276D01*
X65313649Y-30675317D01*
X65308772Y-30688946D01*
X65302583Y-30702031D01*
X65295142Y-30714447D01*
X65286519Y-30726073D01*
X65276798Y-30736798D01*
X65266073Y-30746519D01*
X65254447Y-30755142D01*
X65242031Y-30762583D01*
X65228946Y-30768772D01*
X65215317Y-30773649D01*
X65201276Y-30777166D01*
X65186958Y-30779290D01*
X65172500Y-30780000D01*
X64827500Y-30780000D01*
X64813042Y-30779290D01*
X64798724Y-30777166D01*
X64784683Y-30773649D01*
X64771054Y-30768772D01*
X64757969Y-30762583D01*
X64745553Y-30755142D01*
X64733927Y-30746519D01*
X64723202Y-30736798D01*
X64713481Y-30726073D01*
X64704858Y-30714447D01*
X64697417Y-30702031D01*
X64691228Y-30688946D01*
X64686351Y-30675317D01*
X64682834Y-30661276D01*
X64680710Y-30646958D01*
X64680000Y-30632500D01*
X64680000Y-30337500D01*
X64680710Y-30323042D01*
X64682834Y-30308724D01*
X64686351Y-30294683D01*
X64691228Y-30281054D01*
X64697417Y-30267969D01*
X64704858Y-30255553D01*
X64713481Y-30243927D01*
X64723202Y-30233202D01*
X64733927Y-30223481D01*
X64745553Y-30214858D01*
X64757969Y-30207417D01*
X64771054Y-30201228D01*
X64784683Y-30196351D01*
X64798724Y-30192834D01*
X64813042Y-30190710D01*
X64827500Y-30190000D01*
X65172500Y-30190000D01*
X65186958Y-30190710D01*
G37*
G36*
X68233329Y-28576023D02*
G01*
X68253957Y-28579083D01*
X68274185Y-28584150D01*
X68293820Y-28591176D01*
X68312672Y-28600092D01*
X68330559Y-28610813D01*
X68347309Y-28623235D01*
X68362760Y-28637240D01*
X68376765Y-28652691D01*
X68389187Y-28669441D01*
X68399908Y-28687328D01*
X68408824Y-28706180D01*
X68415850Y-28725815D01*
X68420917Y-28746043D01*
X68423977Y-28766671D01*
X68425000Y-28787500D01*
X68425000Y-29587500D01*
X68423977Y-29608329D01*
X68420917Y-29628957D01*
X68415850Y-29649185D01*
X68408824Y-29668820D01*
X68399908Y-29687672D01*
X68389187Y-29705559D01*
X68376765Y-29722309D01*
X68362760Y-29737760D01*
X68347309Y-29751765D01*
X68330559Y-29764187D01*
X68312672Y-29774908D01*
X68293820Y-29783824D01*
X68274185Y-29790850D01*
X68253957Y-29795917D01*
X68233329Y-29798977D01*
X68212500Y-29800000D01*
X67787500Y-29800000D01*
X67766671Y-29798977D01*
X67746043Y-29795917D01*
X67725815Y-29790850D01*
X67706180Y-29783824D01*
X67687328Y-29774908D01*
X67669441Y-29764187D01*
X67652691Y-29751765D01*
X67637240Y-29737760D01*
X67623235Y-29722309D01*
X67610813Y-29705559D01*
X67600092Y-29687672D01*
X67591176Y-29668820D01*
X67584150Y-29649185D01*
X67579083Y-29628957D01*
X67576023Y-29608329D01*
X67575000Y-29587500D01*
X67575000Y-28787500D01*
X67576023Y-28766671D01*
X67579083Y-28746043D01*
X67584150Y-28725815D01*
X67591176Y-28706180D01*
X67600092Y-28687328D01*
X67610813Y-28669441D01*
X67623235Y-28652691D01*
X67637240Y-28637240D01*
X67652691Y-28623235D01*
X67669441Y-28610813D01*
X67687328Y-28600092D01*
X67706180Y-28591176D01*
X67725815Y-28584150D01*
X67746043Y-28579083D01*
X67766671Y-28576023D01*
X67787500Y-28575000D01*
X68212500Y-28575000D01*
X68233329Y-28576023D01*
G37*
G36*
X68233329Y-30201023D02*
G01*
X68253957Y-30204083D01*
X68274185Y-30209150D01*
X68293820Y-30216176D01*
X68312672Y-30225092D01*
X68330559Y-30235813D01*
X68347309Y-30248235D01*
X68362760Y-30262240D01*
X68376765Y-30277691D01*
X68389187Y-30294441D01*
X68399908Y-30312328D01*
X68408824Y-30331180D01*
X68415850Y-30350815D01*
X68420917Y-30371043D01*
X68423977Y-30391671D01*
X68425000Y-30412500D01*
X68425000Y-31212500D01*
X68423977Y-31233329D01*
X68420917Y-31253957D01*
X68415850Y-31274185D01*
X68408824Y-31293820D01*
X68399908Y-31312672D01*
X68389187Y-31330559D01*
X68376765Y-31347309D01*
X68362760Y-31362760D01*
X68347309Y-31376765D01*
X68330559Y-31389187D01*
X68312672Y-31399908D01*
X68293820Y-31408824D01*
X68274185Y-31415850D01*
X68253957Y-31420917D01*
X68233329Y-31423977D01*
X68212500Y-31425000D01*
X67787500Y-31425000D01*
X67766671Y-31423977D01*
X67746043Y-31420917D01*
X67725815Y-31415850D01*
X67706180Y-31408824D01*
X67687328Y-31399908D01*
X67669441Y-31389187D01*
X67652691Y-31376765D01*
X67637240Y-31362760D01*
X67623235Y-31347309D01*
X67610813Y-31330559D01*
X67600092Y-31312672D01*
X67591176Y-31293820D01*
X67584150Y-31274185D01*
X67579083Y-31253957D01*
X67576023Y-31233329D01*
X67575000Y-31212500D01*
X67575000Y-30412500D01*
X67576023Y-30391671D01*
X67579083Y-30371043D01*
X67584150Y-30350815D01*
X67591176Y-30331180D01*
X67600092Y-30312328D01*
X67610813Y-30294441D01*
X67623235Y-30277691D01*
X67637240Y-30262240D01*
X67652691Y-30248235D01*
X67669441Y-30235813D01*
X67687328Y-30225092D01*
X67706180Y-30216176D01*
X67725815Y-30209150D01*
X67746043Y-30204083D01*
X67766671Y-30201023D01*
X67787500Y-30200000D01*
X68212500Y-30200000D01*
X68233329Y-30201023D01*
G37*
D11*
X62000000Y-34150000D03*
X62050000Y-25850000D03*
D12*
X56500000Y-32500000D03*
X56500000Y-30000000D03*
X56500000Y-27500000D03*
X50500000Y-27500000D03*
X50500000Y-29950000D03*
X50500000Y-32500000D03*
M02*
