G04 #@! TF.GenerationSoftware,KiCad,Pcbnew,5.1.5-52549c5~84~ubuntu18.04.1*
G04 #@! TF.CreationDate,2020-03-09T11:52:29+05:30*
G04 #@! TF.ProjectId,scale_hx711,7363616c-655f-4687-9837-31312e6b6963,rev?*
G04 #@! TF.SameCoordinates,Original*
G04 #@! TF.FileFunction,Paste,Bot*
G04 #@! TF.FilePolarity,Positive*
%FSLAX46Y46*%
G04 Gerber Fmt 4.6, Leading zero omitted, Abs format (unit mm)*
G04 Created by KiCad (PCBNEW 5.1.5-52549c5~84~ubuntu18.04.1) date 2020-03-09 11:52:29*
%MOMM*%
%LPD*%
G04 APERTURE LIST*
%ADD10C,0.100000*%
%ADD11R,1.000000X1.000000*%
%ADD12R,1.800000X2.200000*%
%ADD13R,0.300000X1.300000*%
%ADD14R,1.200000X0.400000*%
%ADD15R,0.700000X1.300000*%
%ADD16R,3.500000X1.600000*%
%ADD17R,0.900000X0.800000*%
%ADD18R,0.800000X0.900000*%
%ADD19R,1.200000X0.500000*%
%ADD20R,1.600000X0.900000*%
%ADD21R,1.600000X0.500000*%
%ADD22R,0.500000X1.600000*%
%ADD23R,1.560000X0.650000*%
%ADD24R,0.650000X1.060000*%
%ADD25R,1.000000X1.800000*%
%ADD26R,1.600000X3.500000*%
%ADD27R,1.060000X0.650000*%
G04 APERTURE END LIST*
D10*
G36*
X38527691Y-38276053D02*
G01*
X38548926Y-38279203D01*
X38569750Y-38284419D01*
X38589962Y-38291651D01*
X38609368Y-38300830D01*
X38627781Y-38311866D01*
X38645024Y-38324654D01*
X38660930Y-38339070D01*
X38675346Y-38354976D01*
X38688134Y-38372219D01*
X38699170Y-38390632D01*
X38708349Y-38410038D01*
X38715581Y-38430250D01*
X38720797Y-38451074D01*
X38723947Y-38472309D01*
X38725000Y-38493750D01*
X38725000Y-39006250D01*
X38723947Y-39027691D01*
X38720797Y-39048926D01*
X38715581Y-39069750D01*
X38708349Y-39089962D01*
X38699170Y-39109368D01*
X38688134Y-39127781D01*
X38675346Y-39145024D01*
X38660930Y-39160930D01*
X38645024Y-39175346D01*
X38627781Y-39188134D01*
X38609368Y-39199170D01*
X38589962Y-39208349D01*
X38569750Y-39215581D01*
X38548926Y-39220797D01*
X38527691Y-39223947D01*
X38506250Y-39225000D01*
X38068750Y-39225000D01*
X38047309Y-39223947D01*
X38026074Y-39220797D01*
X38005250Y-39215581D01*
X37985038Y-39208349D01*
X37965632Y-39199170D01*
X37947219Y-39188134D01*
X37929976Y-39175346D01*
X37914070Y-39160930D01*
X37899654Y-39145024D01*
X37886866Y-39127781D01*
X37875830Y-39109368D01*
X37866651Y-39089962D01*
X37859419Y-39069750D01*
X37854203Y-39048926D01*
X37851053Y-39027691D01*
X37850000Y-39006250D01*
X37850000Y-38493750D01*
X37851053Y-38472309D01*
X37854203Y-38451074D01*
X37859419Y-38430250D01*
X37866651Y-38410038D01*
X37875830Y-38390632D01*
X37886866Y-38372219D01*
X37899654Y-38354976D01*
X37914070Y-38339070D01*
X37929976Y-38324654D01*
X37947219Y-38311866D01*
X37965632Y-38300830D01*
X37985038Y-38291651D01*
X38005250Y-38284419D01*
X38026074Y-38279203D01*
X38047309Y-38276053D01*
X38068750Y-38275000D01*
X38506250Y-38275000D01*
X38527691Y-38276053D01*
G37*
G36*
X36952691Y-38276053D02*
G01*
X36973926Y-38279203D01*
X36994750Y-38284419D01*
X37014962Y-38291651D01*
X37034368Y-38300830D01*
X37052781Y-38311866D01*
X37070024Y-38324654D01*
X37085930Y-38339070D01*
X37100346Y-38354976D01*
X37113134Y-38372219D01*
X37124170Y-38390632D01*
X37133349Y-38410038D01*
X37140581Y-38430250D01*
X37145797Y-38451074D01*
X37148947Y-38472309D01*
X37150000Y-38493750D01*
X37150000Y-39006250D01*
X37148947Y-39027691D01*
X37145797Y-39048926D01*
X37140581Y-39069750D01*
X37133349Y-39089962D01*
X37124170Y-39109368D01*
X37113134Y-39127781D01*
X37100346Y-39145024D01*
X37085930Y-39160930D01*
X37070024Y-39175346D01*
X37052781Y-39188134D01*
X37034368Y-39199170D01*
X37014962Y-39208349D01*
X36994750Y-39215581D01*
X36973926Y-39220797D01*
X36952691Y-39223947D01*
X36931250Y-39225000D01*
X36493750Y-39225000D01*
X36472309Y-39223947D01*
X36451074Y-39220797D01*
X36430250Y-39215581D01*
X36410038Y-39208349D01*
X36390632Y-39199170D01*
X36372219Y-39188134D01*
X36354976Y-39175346D01*
X36339070Y-39160930D01*
X36324654Y-39145024D01*
X36311866Y-39127781D01*
X36300830Y-39109368D01*
X36291651Y-39089962D01*
X36284419Y-39069750D01*
X36279203Y-39048926D01*
X36276053Y-39027691D01*
X36275000Y-39006250D01*
X36275000Y-38493750D01*
X36276053Y-38472309D01*
X36279203Y-38451074D01*
X36284419Y-38430250D01*
X36291651Y-38410038D01*
X36300830Y-38390632D01*
X36311866Y-38372219D01*
X36324654Y-38354976D01*
X36339070Y-38339070D01*
X36354976Y-38324654D01*
X36372219Y-38311866D01*
X36390632Y-38300830D01*
X36410038Y-38291651D01*
X36430250Y-38284419D01*
X36451074Y-38279203D01*
X36472309Y-38276053D01*
X36493750Y-38275000D01*
X36931250Y-38275000D01*
X36952691Y-38276053D01*
G37*
G36*
X71499504Y-24126204D02*
G01*
X71523773Y-24129804D01*
X71547571Y-24135765D01*
X71570671Y-24144030D01*
X71592849Y-24154520D01*
X71613893Y-24167133D01*
X71633598Y-24181747D01*
X71651777Y-24198223D01*
X71668253Y-24216402D01*
X71682867Y-24236107D01*
X71695480Y-24257151D01*
X71705970Y-24279329D01*
X71714235Y-24302429D01*
X71720196Y-24326227D01*
X71723796Y-24350496D01*
X71725000Y-24375000D01*
X71725000Y-25625000D01*
X71723796Y-25649504D01*
X71720196Y-25673773D01*
X71714235Y-25697571D01*
X71705970Y-25720671D01*
X71695480Y-25742849D01*
X71682867Y-25763893D01*
X71668253Y-25783598D01*
X71651777Y-25801777D01*
X71633598Y-25818253D01*
X71613893Y-25832867D01*
X71592849Y-25845480D01*
X71570671Y-25855970D01*
X71547571Y-25864235D01*
X71523773Y-25870196D01*
X71499504Y-25873796D01*
X71475000Y-25875000D01*
X70725000Y-25875000D01*
X70700496Y-25873796D01*
X70676227Y-25870196D01*
X70652429Y-25864235D01*
X70629329Y-25855970D01*
X70607151Y-25845480D01*
X70586107Y-25832867D01*
X70566402Y-25818253D01*
X70548223Y-25801777D01*
X70531747Y-25783598D01*
X70517133Y-25763893D01*
X70504520Y-25742849D01*
X70494030Y-25720671D01*
X70485765Y-25697571D01*
X70479804Y-25673773D01*
X70476204Y-25649504D01*
X70475000Y-25625000D01*
X70475000Y-24375000D01*
X70476204Y-24350496D01*
X70479804Y-24326227D01*
X70485765Y-24302429D01*
X70494030Y-24279329D01*
X70504520Y-24257151D01*
X70517133Y-24236107D01*
X70531747Y-24216402D01*
X70548223Y-24198223D01*
X70566402Y-24181747D01*
X70586107Y-24167133D01*
X70607151Y-24154520D01*
X70629329Y-24144030D01*
X70652429Y-24135765D01*
X70676227Y-24129804D01*
X70700496Y-24126204D01*
X70725000Y-24125000D01*
X71475000Y-24125000D01*
X71499504Y-24126204D01*
G37*
G36*
X74299504Y-24126204D02*
G01*
X74323773Y-24129804D01*
X74347571Y-24135765D01*
X74370671Y-24144030D01*
X74392849Y-24154520D01*
X74413893Y-24167133D01*
X74433598Y-24181747D01*
X74451777Y-24198223D01*
X74468253Y-24216402D01*
X74482867Y-24236107D01*
X74495480Y-24257151D01*
X74505970Y-24279329D01*
X74514235Y-24302429D01*
X74520196Y-24326227D01*
X74523796Y-24350496D01*
X74525000Y-24375000D01*
X74525000Y-25625000D01*
X74523796Y-25649504D01*
X74520196Y-25673773D01*
X74514235Y-25697571D01*
X74505970Y-25720671D01*
X74495480Y-25742849D01*
X74482867Y-25763893D01*
X74468253Y-25783598D01*
X74451777Y-25801777D01*
X74433598Y-25818253D01*
X74413893Y-25832867D01*
X74392849Y-25845480D01*
X74370671Y-25855970D01*
X74347571Y-25864235D01*
X74323773Y-25870196D01*
X74299504Y-25873796D01*
X74275000Y-25875000D01*
X73525000Y-25875000D01*
X73500496Y-25873796D01*
X73476227Y-25870196D01*
X73452429Y-25864235D01*
X73429329Y-25855970D01*
X73407151Y-25845480D01*
X73386107Y-25832867D01*
X73366402Y-25818253D01*
X73348223Y-25801777D01*
X73331747Y-25783598D01*
X73317133Y-25763893D01*
X73304520Y-25742849D01*
X73294030Y-25720671D01*
X73285765Y-25697571D01*
X73279804Y-25673773D01*
X73276204Y-25649504D01*
X73275000Y-25625000D01*
X73275000Y-24375000D01*
X73276204Y-24350496D01*
X73279804Y-24326227D01*
X73285765Y-24302429D01*
X73294030Y-24279329D01*
X73304520Y-24257151D01*
X73317133Y-24236107D01*
X73331747Y-24216402D01*
X73348223Y-24198223D01*
X73366402Y-24181747D01*
X73386107Y-24167133D01*
X73407151Y-24154520D01*
X73429329Y-24144030D01*
X73452429Y-24135765D01*
X73476227Y-24129804D01*
X73500496Y-24126204D01*
X73525000Y-24125000D01*
X74275000Y-24125000D01*
X74299504Y-24126204D01*
G37*
G36*
X36952691Y-33326053D02*
G01*
X36973926Y-33329203D01*
X36994750Y-33334419D01*
X37014962Y-33341651D01*
X37034368Y-33350830D01*
X37052781Y-33361866D01*
X37070024Y-33374654D01*
X37085930Y-33389070D01*
X37100346Y-33404976D01*
X37113134Y-33422219D01*
X37124170Y-33440632D01*
X37133349Y-33460038D01*
X37140581Y-33480250D01*
X37145797Y-33501074D01*
X37148947Y-33522309D01*
X37150000Y-33543750D01*
X37150000Y-34056250D01*
X37148947Y-34077691D01*
X37145797Y-34098926D01*
X37140581Y-34119750D01*
X37133349Y-34139962D01*
X37124170Y-34159368D01*
X37113134Y-34177781D01*
X37100346Y-34195024D01*
X37085930Y-34210930D01*
X37070024Y-34225346D01*
X37052781Y-34238134D01*
X37034368Y-34249170D01*
X37014962Y-34258349D01*
X36994750Y-34265581D01*
X36973926Y-34270797D01*
X36952691Y-34273947D01*
X36931250Y-34275000D01*
X36493750Y-34275000D01*
X36472309Y-34273947D01*
X36451074Y-34270797D01*
X36430250Y-34265581D01*
X36410038Y-34258349D01*
X36390632Y-34249170D01*
X36372219Y-34238134D01*
X36354976Y-34225346D01*
X36339070Y-34210930D01*
X36324654Y-34195024D01*
X36311866Y-34177781D01*
X36300830Y-34159368D01*
X36291651Y-34139962D01*
X36284419Y-34119750D01*
X36279203Y-34098926D01*
X36276053Y-34077691D01*
X36275000Y-34056250D01*
X36275000Y-33543750D01*
X36276053Y-33522309D01*
X36279203Y-33501074D01*
X36284419Y-33480250D01*
X36291651Y-33460038D01*
X36300830Y-33440632D01*
X36311866Y-33422219D01*
X36324654Y-33404976D01*
X36339070Y-33389070D01*
X36354976Y-33374654D01*
X36372219Y-33361866D01*
X36390632Y-33350830D01*
X36410038Y-33341651D01*
X36430250Y-33334419D01*
X36451074Y-33329203D01*
X36472309Y-33326053D01*
X36493750Y-33325000D01*
X36931250Y-33325000D01*
X36952691Y-33326053D01*
G37*
G36*
X38527691Y-33326053D02*
G01*
X38548926Y-33329203D01*
X38569750Y-33334419D01*
X38589962Y-33341651D01*
X38609368Y-33350830D01*
X38627781Y-33361866D01*
X38645024Y-33374654D01*
X38660930Y-33389070D01*
X38675346Y-33404976D01*
X38688134Y-33422219D01*
X38699170Y-33440632D01*
X38708349Y-33460038D01*
X38715581Y-33480250D01*
X38720797Y-33501074D01*
X38723947Y-33522309D01*
X38725000Y-33543750D01*
X38725000Y-34056250D01*
X38723947Y-34077691D01*
X38720797Y-34098926D01*
X38715581Y-34119750D01*
X38708349Y-34139962D01*
X38699170Y-34159368D01*
X38688134Y-34177781D01*
X38675346Y-34195024D01*
X38660930Y-34210930D01*
X38645024Y-34225346D01*
X38627781Y-34238134D01*
X38609368Y-34249170D01*
X38589962Y-34258349D01*
X38569750Y-34265581D01*
X38548926Y-34270797D01*
X38527691Y-34273947D01*
X38506250Y-34275000D01*
X38068750Y-34275000D01*
X38047309Y-34273947D01*
X38026074Y-34270797D01*
X38005250Y-34265581D01*
X37985038Y-34258349D01*
X37965632Y-34249170D01*
X37947219Y-34238134D01*
X37929976Y-34225346D01*
X37914070Y-34210930D01*
X37899654Y-34195024D01*
X37886866Y-34177781D01*
X37875830Y-34159368D01*
X37866651Y-34139962D01*
X37859419Y-34119750D01*
X37854203Y-34098926D01*
X37851053Y-34077691D01*
X37850000Y-34056250D01*
X37850000Y-33543750D01*
X37851053Y-33522309D01*
X37854203Y-33501074D01*
X37859419Y-33480250D01*
X37866651Y-33460038D01*
X37875830Y-33440632D01*
X37886866Y-33422219D01*
X37899654Y-33404976D01*
X37914070Y-33389070D01*
X37929976Y-33374654D01*
X37947219Y-33361866D01*
X37965632Y-33350830D01*
X37985038Y-33341651D01*
X38005250Y-33334419D01*
X38026074Y-33329203D01*
X38047309Y-33326053D01*
X38068750Y-33325000D01*
X38506250Y-33325000D01*
X38527691Y-33326053D01*
G37*
G36*
X41936958Y-29290710D02*
G01*
X41951276Y-29292834D01*
X41965317Y-29296351D01*
X41978946Y-29301228D01*
X41992031Y-29307417D01*
X42004447Y-29314858D01*
X42016073Y-29323481D01*
X42026798Y-29333202D01*
X42036519Y-29343927D01*
X42045142Y-29355553D01*
X42052583Y-29367969D01*
X42058772Y-29381054D01*
X42063649Y-29394683D01*
X42067166Y-29408724D01*
X42069290Y-29423042D01*
X42070000Y-29437500D01*
X42070000Y-29732500D01*
X42069290Y-29746958D01*
X42067166Y-29761276D01*
X42063649Y-29775317D01*
X42058772Y-29788946D01*
X42052583Y-29802031D01*
X42045142Y-29814447D01*
X42036519Y-29826073D01*
X42026798Y-29836798D01*
X42016073Y-29846519D01*
X42004447Y-29855142D01*
X41992031Y-29862583D01*
X41978946Y-29868772D01*
X41965317Y-29873649D01*
X41951276Y-29877166D01*
X41936958Y-29879290D01*
X41922500Y-29880000D01*
X41577500Y-29880000D01*
X41563042Y-29879290D01*
X41548724Y-29877166D01*
X41534683Y-29873649D01*
X41521054Y-29868772D01*
X41507969Y-29862583D01*
X41495553Y-29855142D01*
X41483927Y-29846519D01*
X41473202Y-29836798D01*
X41463481Y-29826073D01*
X41454858Y-29814447D01*
X41447417Y-29802031D01*
X41441228Y-29788946D01*
X41436351Y-29775317D01*
X41432834Y-29761276D01*
X41430710Y-29746958D01*
X41430000Y-29732500D01*
X41430000Y-29437500D01*
X41430710Y-29423042D01*
X41432834Y-29408724D01*
X41436351Y-29394683D01*
X41441228Y-29381054D01*
X41447417Y-29367969D01*
X41454858Y-29355553D01*
X41463481Y-29343927D01*
X41473202Y-29333202D01*
X41483927Y-29323481D01*
X41495553Y-29314858D01*
X41507969Y-29307417D01*
X41521054Y-29301228D01*
X41534683Y-29296351D01*
X41548724Y-29292834D01*
X41563042Y-29290710D01*
X41577500Y-29290000D01*
X41922500Y-29290000D01*
X41936958Y-29290710D01*
G37*
G36*
X41936958Y-28320710D02*
G01*
X41951276Y-28322834D01*
X41965317Y-28326351D01*
X41978946Y-28331228D01*
X41992031Y-28337417D01*
X42004447Y-28344858D01*
X42016073Y-28353481D01*
X42026798Y-28363202D01*
X42036519Y-28373927D01*
X42045142Y-28385553D01*
X42052583Y-28397969D01*
X42058772Y-28411054D01*
X42063649Y-28424683D01*
X42067166Y-28438724D01*
X42069290Y-28453042D01*
X42070000Y-28467500D01*
X42070000Y-28762500D01*
X42069290Y-28776958D01*
X42067166Y-28791276D01*
X42063649Y-28805317D01*
X42058772Y-28818946D01*
X42052583Y-28832031D01*
X42045142Y-28844447D01*
X42036519Y-28856073D01*
X42026798Y-28866798D01*
X42016073Y-28876519D01*
X42004447Y-28885142D01*
X41992031Y-28892583D01*
X41978946Y-28898772D01*
X41965317Y-28903649D01*
X41951276Y-28907166D01*
X41936958Y-28909290D01*
X41922500Y-28910000D01*
X41577500Y-28910000D01*
X41563042Y-28909290D01*
X41548724Y-28907166D01*
X41534683Y-28903649D01*
X41521054Y-28898772D01*
X41507969Y-28892583D01*
X41495553Y-28885142D01*
X41483927Y-28876519D01*
X41473202Y-28866798D01*
X41463481Y-28856073D01*
X41454858Y-28844447D01*
X41447417Y-28832031D01*
X41441228Y-28818946D01*
X41436351Y-28805317D01*
X41432834Y-28791276D01*
X41430710Y-28776958D01*
X41430000Y-28762500D01*
X41430000Y-28467500D01*
X41430710Y-28453042D01*
X41432834Y-28438724D01*
X41436351Y-28424683D01*
X41441228Y-28411054D01*
X41447417Y-28397969D01*
X41454858Y-28385553D01*
X41463481Y-28373927D01*
X41473202Y-28363202D01*
X41483927Y-28353481D01*
X41495553Y-28344858D01*
X41507969Y-28337417D01*
X41521054Y-28331228D01*
X41534683Y-28326351D01*
X41548724Y-28322834D01*
X41563042Y-28320710D01*
X41577500Y-28320000D01*
X41922500Y-28320000D01*
X41936958Y-28320710D01*
G37*
G36*
X37176958Y-32080710D02*
G01*
X37191276Y-32082834D01*
X37205317Y-32086351D01*
X37218946Y-32091228D01*
X37232031Y-32097417D01*
X37244447Y-32104858D01*
X37256073Y-32113481D01*
X37266798Y-32123202D01*
X37276519Y-32133927D01*
X37285142Y-32145553D01*
X37292583Y-32157969D01*
X37298772Y-32171054D01*
X37303649Y-32184683D01*
X37307166Y-32198724D01*
X37309290Y-32213042D01*
X37310000Y-32227500D01*
X37310000Y-32572500D01*
X37309290Y-32586958D01*
X37307166Y-32601276D01*
X37303649Y-32615317D01*
X37298772Y-32628946D01*
X37292583Y-32642031D01*
X37285142Y-32654447D01*
X37276519Y-32666073D01*
X37266798Y-32676798D01*
X37256073Y-32686519D01*
X37244447Y-32695142D01*
X37232031Y-32702583D01*
X37218946Y-32708772D01*
X37205317Y-32713649D01*
X37191276Y-32717166D01*
X37176958Y-32719290D01*
X37162500Y-32720000D01*
X36867500Y-32720000D01*
X36853042Y-32719290D01*
X36838724Y-32717166D01*
X36824683Y-32713649D01*
X36811054Y-32708772D01*
X36797969Y-32702583D01*
X36785553Y-32695142D01*
X36773927Y-32686519D01*
X36763202Y-32676798D01*
X36753481Y-32666073D01*
X36744858Y-32654447D01*
X36737417Y-32642031D01*
X36731228Y-32628946D01*
X36726351Y-32615317D01*
X36722834Y-32601276D01*
X36720710Y-32586958D01*
X36720000Y-32572500D01*
X36720000Y-32227500D01*
X36720710Y-32213042D01*
X36722834Y-32198724D01*
X36726351Y-32184683D01*
X36731228Y-32171054D01*
X36737417Y-32157969D01*
X36744858Y-32145553D01*
X36753481Y-32133927D01*
X36763202Y-32123202D01*
X36773927Y-32113481D01*
X36785553Y-32104858D01*
X36797969Y-32097417D01*
X36811054Y-32091228D01*
X36824683Y-32086351D01*
X36838724Y-32082834D01*
X36853042Y-32080710D01*
X36867500Y-32080000D01*
X37162500Y-32080000D01*
X37176958Y-32080710D01*
G37*
G36*
X38146958Y-32080710D02*
G01*
X38161276Y-32082834D01*
X38175317Y-32086351D01*
X38188946Y-32091228D01*
X38202031Y-32097417D01*
X38214447Y-32104858D01*
X38226073Y-32113481D01*
X38236798Y-32123202D01*
X38246519Y-32133927D01*
X38255142Y-32145553D01*
X38262583Y-32157969D01*
X38268772Y-32171054D01*
X38273649Y-32184683D01*
X38277166Y-32198724D01*
X38279290Y-32213042D01*
X38280000Y-32227500D01*
X38280000Y-32572500D01*
X38279290Y-32586958D01*
X38277166Y-32601276D01*
X38273649Y-32615317D01*
X38268772Y-32628946D01*
X38262583Y-32642031D01*
X38255142Y-32654447D01*
X38246519Y-32666073D01*
X38236798Y-32676798D01*
X38226073Y-32686519D01*
X38214447Y-32695142D01*
X38202031Y-32702583D01*
X38188946Y-32708772D01*
X38175317Y-32713649D01*
X38161276Y-32717166D01*
X38146958Y-32719290D01*
X38132500Y-32720000D01*
X37837500Y-32720000D01*
X37823042Y-32719290D01*
X37808724Y-32717166D01*
X37794683Y-32713649D01*
X37781054Y-32708772D01*
X37767969Y-32702583D01*
X37755553Y-32695142D01*
X37743927Y-32686519D01*
X37733202Y-32676798D01*
X37723481Y-32666073D01*
X37714858Y-32654447D01*
X37707417Y-32642031D01*
X37701228Y-32628946D01*
X37696351Y-32615317D01*
X37692834Y-32601276D01*
X37690710Y-32586958D01*
X37690000Y-32572500D01*
X37690000Y-32227500D01*
X37690710Y-32213042D01*
X37692834Y-32198724D01*
X37696351Y-32184683D01*
X37701228Y-32171054D01*
X37707417Y-32157969D01*
X37714858Y-32145553D01*
X37723481Y-32133927D01*
X37733202Y-32123202D01*
X37743927Y-32113481D01*
X37755553Y-32104858D01*
X37767969Y-32097417D01*
X37781054Y-32091228D01*
X37794683Y-32086351D01*
X37808724Y-32082834D01*
X37823042Y-32080710D01*
X37837500Y-32080000D01*
X38132500Y-32080000D01*
X38146958Y-32080710D01*
G37*
G36*
X44436958Y-28320710D02*
G01*
X44451276Y-28322834D01*
X44465317Y-28326351D01*
X44478946Y-28331228D01*
X44492031Y-28337417D01*
X44504447Y-28344858D01*
X44516073Y-28353481D01*
X44526798Y-28363202D01*
X44536519Y-28373927D01*
X44545142Y-28385553D01*
X44552583Y-28397969D01*
X44558772Y-28411054D01*
X44563649Y-28424683D01*
X44567166Y-28438724D01*
X44569290Y-28453042D01*
X44570000Y-28467500D01*
X44570000Y-28762500D01*
X44569290Y-28776958D01*
X44567166Y-28791276D01*
X44563649Y-28805317D01*
X44558772Y-28818946D01*
X44552583Y-28832031D01*
X44545142Y-28844447D01*
X44536519Y-28856073D01*
X44526798Y-28866798D01*
X44516073Y-28876519D01*
X44504447Y-28885142D01*
X44492031Y-28892583D01*
X44478946Y-28898772D01*
X44465317Y-28903649D01*
X44451276Y-28907166D01*
X44436958Y-28909290D01*
X44422500Y-28910000D01*
X44077500Y-28910000D01*
X44063042Y-28909290D01*
X44048724Y-28907166D01*
X44034683Y-28903649D01*
X44021054Y-28898772D01*
X44007969Y-28892583D01*
X43995553Y-28885142D01*
X43983927Y-28876519D01*
X43973202Y-28866798D01*
X43963481Y-28856073D01*
X43954858Y-28844447D01*
X43947417Y-28832031D01*
X43941228Y-28818946D01*
X43936351Y-28805317D01*
X43932834Y-28791276D01*
X43930710Y-28776958D01*
X43930000Y-28762500D01*
X43930000Y-28467500D01*
X43930710Y-28453042D01*
X43932834Y-28438724D01*
X43936351Y-28424683D01*
X43941228Y-28411054D01*
X43947417Y-28397969D01*
X43954858Y-28385553D01*
X43963481Y-28373927D01*
X43973202Y-28363202D01*
X43983927Y-28353481D01*
X43995553Y-28344858D01*
X44007969Y-28337417D01*
X44021054Y-28331228D01*
X44034683Y-28326351D01*
X44048724Y-28322834D01*
X44063042Y-28320710D01*
X44077500Y-28320000D01*
X44422500Y-28320000D01*
X44436958Y-28320710D01*
G37*
G36*
X44436958Y-29290710D02*
G01*
X44451276Y-29292834D01*
X44465317Y-29296351D01*
X44478946Y-29301228D01*
X44492031Y-29307417D01*
X44504447Y-29314858D01*
X44516073Y-29323481D01*
X44526798Y-29333202D01*
X44536519Y-29343927D01*
X44545142Y-29355553D01*
X44552583Y-29367969D01*
X44558772Y-29381054D01*
X44563649Y-29394683D01*
X44567166Y-29408724D01*
X44569290Y-29423042D01*
X44570000Y-29437500D01*
X44570000Y-29732500D01*
X44569290Y-29746958D01*
X44567166Y-29761276D01*
X44563649Y-29775317D01*
X44558772Y-29788946D01*
X44552583Y-29802031D01*
X44545142Y-29814447D01*
X44536519Y-29826073D01*
X44526798Y-29836798D01*
X44516073Y-29846519D01*
X44504447Y-29855142D01*
X44492031Y-29862583D01*
X44478946Y-29868772D01*
X44465317Y-29873649D01*
X44451276Y-29877166D01*
X44436958Y-29879290D01*
X44422500Y-29880000D01*
X44077500Y-29880000D01*
X44063042Y-29879290D01*
X44048724Y-29877166D01*
X44034683Y-29873649D01*
X44021054Y-29868772D01*
X44007969Y-29862583D01*
X43995553Y-29855142D01*
X43983927Y-29846519D01*
X43973202Y-29836798D01*
X43963481Y-29826073D01*
X43954858Y-29814447D01*
X43947417Y-29802031D01*
X43941228Y-29788946D01*
X43936351Y-29775317D01*
X43932834Y-29761276D01*
X43930710Y-29746958D01*
X43930000Y-29732500D01*
X43930000Y-29437500D01*
X43930710Y-29423042D01*
X43932834Y-29408724D01*
X43936351Y-29394683D01*
X43941228Y-29381054D01*
X43947417Y-29367969D01*
X43954858Y-29355553D01*
X43963481Y-29343927D01*
X43973202Y-29333202D01*
X43983927Y-29323481D01*
X43995553Y-29314858D01*
X44007969Y-29307417D01*
X44021054Y-29301228D01*
X44034683Y-29296351D01*
X44048724Y-29292834D01*
X44063042Y-29290710D01*
X44077500Y-29290000D01*
X44422500Y-29290000D01*
X44436958Y-29290710D01*
G37*
G36*
X64799504Y-22126204D02*
G01*
X64823773Y-22129804D01*
X64847571Y-22135765D01*
X64870671Y-22144030D01*
X64892849Y-22154520D01*
X64913893Y-22167133D01*
X64933598Y-22181747D01*
X64951777Y-22198223D01*
X64968253Y-22216402D01*
X64982867Y-22236107D01*
X64995480Y-22257151D01*
X65005970Y-22279329D01*
X65014235Y-22302429D01*
X65020196Y-22326227D01*
X65023796Y-22350496D01*
X65025000Y-22375000D01*
X65025000Y-23625000D01*
X65023796Y-23649504D01*
X65020196Y-23673773D01*
X65014235Y-23697571D01*
X65005970Y-23720671D01*
X64995480Y-23742849D01*
X64982867Y-23763893D01*
X64968253Y-23783598D01*
X64951777Y-23801777D01*
X64933598Y-23818253D01*
X64913893Y-23832867D01*
X64892849Y-23845480D01*
X64870671Y-23855970D01*
X64847571Y-23864235D01*
X64823773Y-23870196D01*
X64799504Y-23873796D01*
X64775000Y-23875000D01*
X64025000Y-23875000D01*
X64000496Y-23873796D01*
X63976227Y-23870196D01*
X63952429Y-23864235D01*
X63929329Y-23855970D01*
X63907151Y-23845480D01*
X63886107Y-23832867D01*
X63866402Y-23818253D01*
X63848223Y-23801777D01*
X63831747Y-23783598D01*
X63817133Y-23763893D01*
X63804520Y-23742849D01*
X63794030Y-23720671D01*
X63785765Y-23697571D01*
X63779804Y-23673773D01*
X63776204Y-23649504D01*
X63775000Y-23625000D01*
X63775000Y-22375000D01*
X63776204Y-22350496D01*
X63779804Y-22326227D01*
X63785765Y-22302429D01*
X63794030Y-22279329D01*
X63804520Y-22257151D01*
X63817133Y-22236107D01*
X63831747Y-22216402D01*
X63848223Y-22198223D01*
X63866402Y-22181747D01*
X63886107Y-22167133D01*
X63907151Y-22154520D01*
X63929329Y-22144030D01*
X63952429Y-22135765D01*
X63976227Y-22129804D01*
X64000496Y-22126204D01*
X64025000Y-22125000D01*
X64775000Y-22125000D01*
X64799504Y-22126204D01*
G37*
G36*
X61999504Y-22126204D02*
G01*
X62023773Y-22129804D01*
X62047571Y-22135765D01*
X62070671Y-22144030D01*
X62092849Y-22154520D01*
X62113893Y-22167133D01*
X62133598Y-22181747D01*
X62151777Y-22198223D01*
X62168253Y-22216402D01*
X62182867Y-22236107D01*
X62195480Y-22257151D01*
X62205970Y-22279329D01*
X62214235Y-22302429D01*
X62220196Y-22326227D01*
X62223796Y-22350496D01*
X62225000Y-22375000D01*
X62225000Y-23625000D01*
X62223796Y-23649504D01*
X62220196Y-23673773D01*
X62214235Y-23697571D01*
X62205970Y-23720671D01*
X62195480Y-23742849D01*
X62182867Y-23763893D01*
X62168253Y-23783598D01*
X62151777Y-23801777D01*
X62133598Y-23818253D01*
X62113893Y-23832867D01*
X62092849Y-23845480D01*
X62070671Y-23855970D01*
X62047571Y-23864235D01*
X62023773Y-23870196D01*
X61999504Y-23873796D01*
X61975000Y-23875000D01*
X61225000Y-23875000D01*
X61200496Y-23873796D01*
X61176227Y-23870196D01*
X61152429Y-23864235D01*
X61129329Y-23855970D01*
X61107151Y-23845480D01*
X61086107Y-23832867D01*
X61066402Y-23818253D01*
X61048223Y-23801777D01*
X61031747Y-23783598D01*
X61017133Y-23763893D01*
X61004520Y-23742849D01*
X60994030Y-23720671D01*
X60985765Y-23697571D01*
X60979804Y-23673773D01*
X60976204Y-23649504D01*
X60975000Y-23625000D01*
X60975000Y-22375000D01*
X60976204Y-22350496D01*
X60979804Y-22326227D01*
X60985765Y-22302429D01*
X60994030Y-22279329D01*
X61004520Y-22257151D01*
X61017133Y-22236107D01*
X61031747Y-22216402D01*
X61048223Y-22198223D01*
X61066402Y-22181747D01*
X61086107Y-22167133D01*
X61107151Y-22154520D01*
X61129329Y-22144030D01*
X61152429Y-22135765D01*
X61176227Y-22129804D01*
X61200496Y-22126204D01*
X61225000Y-22125000D01*
X61975000Y-22125000D01*
X61999504Y-22126204D01*
G37*
G36*
X69899504Y-19776204D02*
G01*
X69923773Y-19779804D01*
X69947571Y-19785765D01*
X69970671Y-19794030D01*
X69992849Y-19804520D01*
X70013893Y-19817133D01*
X70033598Y-19831747D01*
X70051777Y-19848223D01*
X70068253Y-19866402D01*
X70082867Y-19886107D01*
X70095480Y-19907151D01*
X70105970Y-19929329D01*
X70114235Y-19952429D01*
X70120196Y-19976227D01*
X70123796Y-20000496D01*
X70125000Y-20025000D01*
X70125000Y-20775000D01*
X70123796Y-20799504D01*
X70120196Y-20823773D01*
X70114235Y-20847571D01*
X70105970Y-20870671D01*
X70095480Y-20892849D01*
X70082867Y-20913893D01*
X70068253Y-20933598D01*
X70051777Y-20951777D01*
X70033598Y-20968253D01*
X70013893Y-20982867D01*
X69992849Y-20995480D01*
X69970671Y-21005970D01*
X69947571Y-21014235D01*
X69923773Y-21020196D01*
X69899504Y-21023796D01*
X69875000Y-21025000D01*
X68625000Y-21025000D01*
X68600496Y-21023796D01*
X68576227Y-21020196D01*
X68552429Y-21014235D01*
X68529329Y-21005970D01*
X68507151Y-20995480D01*
X68486107Y-20982867D01*
X68466402Y-20968253D01*
X68448223Y-20951777D01*
X68431747Y-20933598D01*
X68417133Y-20913893D01*
X68404520Y-20892849D01*
X68394030Y-20870671D01*
X68385765Y-20847571D01*
X68379804Y-20823773D01*
X68376204Y-20799504D01*
X68375000Y-20775000D01*
X68375000Y-20025000D01*
X68376204Y-20000496D01*
X68379804Y-19976227D01*
X68385765Y-19952429D01*
X68394030Y-19929329D01*
X68404520Y-19907151D01*
X68417133Y-19886107D01*
X68431747Y-19866402D01*
X68448223Y-19848223D01*
X68466402Y-19831747D01*
X68486107Y-19817133D01*
X68507151Y-19804520D01*
X68529329Y-19794030D01*
X68552429Y-19785765D01*
X68576227Y-19779804D01*
X68600496Y-19776204D01*
X68625000Y-19775000D01*
X69875000Y-19775000D01*
X69899504Y-19776204D01*
G37*
G36*
X69899504Y-16976204D02*
G01*
X69923773Y-16979804D01*
X69947571Y-16985765D01*
X69970671Y-16994030D01*
X69992849Y-17004520D01*
X70013893Y-17017133D01*
X70033598Y-17031747D01*
X70051777Y-17048223D01*
X70068253Y-17066402D01*
X70082867Y-17086107D01*
X70095480Y-17107151D01*
X70105970Y-17129329D01*
X70114235Y-17152429D01*
X70120196Y-17176227D01*
X70123796Y-17200496D01*
X70125000Y-17225000D01*
X70125000Y-17975000D01*
X70123796Y-17999504D01*
X70120196Y-18023773D01*
X70114235Y-18047571D01*
X70105970Y-18070671D01*
X70095480Y-18092849D01*
X70082867Y-18113893D01*
X70068253Y-18133598D01*
X70051777Y-18151777D01*
X70033598Y-18168253D01*
X70013893Y-18182867D01*
X69992849Y-18195480D01*
X69970671Y-18205970D01*
X69947571Y-18214235D01*
X69923773Y-18220196D01*
X69899504Y-18223796D01*
X69875000Y-18225000D01*
X68625000Y-18225000D01*
X68600496Y-18223796D01*
X68576227Y-18220196D01*
X68552429Y-18214235D01*
X68529329Y-18205970D01*
X68507151Y-18195480D01*
X68486107Y-18182867D01*
X68466402Y-18168253D01*
X68448223Y-18151777D01*
X68431747Y-18133598D01*
X68417133Y-18113893D01*
X68404520Y-18092849D01*
X68394030Y-18070671D01*
X68385765Y-18047571D01*
X68379804Y-18023773D01*
X68376204Y-17999504D01*
X68375000Y-17975000D01*
X68375000Y-17225000D01*
X68376204Y-17200496D01*
X68379804Y-17176227D01*
X68385765Y-17152429D01*
X68394030Y-17129329D01*
X68404520Y-17107151D01*
X68417133Y-17086107D01*
X68431747Y-17066402D01*
X68448223Y-17048223D01*
X68466402Y-17031747D01*
X68486107Y-17017133D01*
X68507151Y-17004520D01*
X68529329Y-16994030D01*
X68552429Y-16985765D01*
X68576227Y-16979804D01*
X68600496Y-16976204D01*
X68625000Y-16975000D01*
X69875000Y-16975000D01*
X69899504Y-16976204D01*
G37*
G36*
X67249504Y-10626204D02*
G01*
X67273773Y-10629804D01*
X67297571Y-10635765D01*
X67320671Y-10644030D01*
X67342849Y-10654520D01*
X67363893Y-10667133D01*
X67383598Y-10681747D01*
X67401777Y-10698223D01*
X67418253Y-10716402D01*
X67432867Y-10736107D01*
X67445480Y-10757151D01*
X67455970Y-10779329D01*
X67464235Y-10802429D01*
X67470196Y-10826227D01*
X67473796Y-10850496D01*
X67475000Y-10875000D01*
X67475000Y-12125000D01*
X67473796Y-12149504D01*
X67470196Y-12173773D01*
X67464235Y-12197571D01*
X67455970Y-12220671D01*
X67445480Y-12242849D01*
X67432867Y-12263893D01*
X67418253Y-12283598D01*
X67401777Y-12301777D01*
X67383598Y-12318253D01*
X67363893Y-12332867D01*
X67342849Y-12345480D01*
X67320671Y-12355970D01*
X67297571Y-12364235D01*
X67273773Y-12370196D01*
X67249504Y-12373796D01*
X67225000Y-12375000D01*
X66475000Y-12375000D01*
X66450496Y-12373796D01*
X66426227Y-12370196D01*
X66402429Y-12364235D01*
X66379329Y-12355970D01*
X66357151Y-12345480D01*
X66336107Y-12332867D01*
X66316402Y-12318253D01*
X66298223Y-12301777D01*
X66281747Y-12283598D01*
X66267133Y-12263893D01*
X66254520Y-12242849D01*
X66244030Y-12220671D01*
X66235765Y-12197571D01*
X66229804Y-12173773D01*
X66226204Y-12149504D01*
X66225000Y-12125000D01*
X66225000Y-10875000D01*
X66226204Y-10850496D01*
X66229804Y-10826227D01*
X66235765Y-10802429D01*
X66244030Y-10779329D01*
X66254520Y-10757151D01*
X66267133Y-10736107D01*
X66281747Y-10716402D01*
X66298223Y-10698223D01*
X66316402Y-10681747D01*
X66336107Y-10667133D01*
X66357151Y-10654520D01*
X66379329Y-10644030D01*
X66402429Y-10635765D01*
X66426227Y-10629804D01*
X66450496Y-10626204D01*
X66475000Y-10625000D01*
X67225000Y-10625000D01*
X67249504Y-10626204D01*
G37*
G36*
X70049504Y-10626204D02*
G01*
X70073773Y-10629804D01*
X70097571Y-10635765D01*
X70120671Y-10644030D01*
X70142849Y-10654520D01*
X70163893Y-10667133D01*
X70183598Y-10681747D01*
X70201777Y-10698223D01*
X70218253Y-10716402D01*
X70232867Y-10736107D01*
X70245480Y-10757151D01*
X70255970Y-10779329D01*
X70264235Y-10802429D01*
X70270196Y-10826227D01*
X70273796Y-10850496D01*
X70275000Y-10875000D01*
X70275000Y-12125000D01*
X70273796Y-12149504D01*
X70270196Y-12173773D01*
X70264235Y-12197571D01*
X70255970Y-12220671D01*
X70245480Y-12242849D01*
X70232867Y-12263893D01*
X70218253Y-12283598D01*
X70201777Y-12301777D01*
X70183598Y-12318253D01*
X70163893Y-12332867D01*
X70142849Y-12345480D01*
X70120671Y-12355970D01*
X70097571Y-12364235D01*
X70073773Y-12370196D01*
X70049504Y-12373796D01*
X70025000Y-12375000D01*
X69275000Y-12375000D01*
X69250496Y-12373796D01*
X69226227Y-12370196D01*
X69202429Y-12364235D01*
X69179329Y-12355970D01*
X69157151Y-12345480D01*
X69136107Y-12332867D01*
X69116402Y-12318253D01*
X69098223Y-12301777D01*
X69081747Y-12283598D01*
X69067133Y-12263893D01*
X69054520Y-12242849D01*
X69044030Y-12220671D01*
X69035765Y-12197571D01*
X69029804Y-12173773D01*
X69026204Y-12149504D01*
X69025000Y-12125000D01*
X69025000Y-10875000D01*
X69026204Y-10850496D01*
X69029804Y-10826227D01*
X69035765Y-10802429D01*
X69044030Y-10779329D01*
X69054520Y-10757151D01*
X69067133Y-10736107D01*
X69081747Y-10716402D01*
X69098223Y-10698223D01*
X69116402Y-10681747D01*
X69136107Y-10667133D01*
X69157151Y-10654520D01*
X69179329Y-10644030D01*
X69202429Y-10635765D01*
X69226227Y-10629804D01*
X69250496Y-10626204D01*
X69275000Y-10625000D01*
X70025000Y-10625000D01*
X70049504Y-10626204D01*
G37*
G36*
X43185779Y-18776144D02*
G01*
X43208834Y-18779563D01*
X43231443Y-18785227D01*
X43253387Y-18793079D01*
X43274457Y-18803044D01*
X43294448Y-18815026D01*
X43313168Y-18828910D01*
X43330438Y-18844562D01*
X43346090Y-18861832D01*
X43359974Y-18880552D01*
X43371956Y-18900543D01*
X43381921Y-18921613D01*
X43389773Y-18943557D01*
X43395437Y-18966166D01*
X43398856Y-18989221D01*
X43400000Y-19012500D01*
X43400000Y-19487500D01*
X43398856Y-19510779D01*
X43395437Y-19533834D01*
X43389773Y-19556443D01*
X43381921Y-19578387D01*
X43371956Y-19599457D01*
X43359974Y-19619448D01*
X43346090Y-19638168D01*
X43330438Y-19655438D01*
X43313168Y-19671090D01*
X43294448Y-19684974D01*
X43274457Y-19696956D01*
X43253387Y-19706921D01*
X43231443Y-19714773D01*
X43208834Y-19720437D01*
X43185779Y-19723856D01*
X43162500Y-19725000D01*
X42587500Y-19725000D01*
X42564221Y-19723856D01*
X42541166Y-19720437D01*
X42518557Y-19714773D01*
X42496613Y-19706921D01*
X42475543Y-19696956D01*
X42455552Y-19684974D01*
X42436832Y-19671090D01*
X42419562Y-19655438D01*
X42403910Y-19638168D01*
X42390026Y-19619448D01*
X42378044Y-19599457D01*
X42368079Y-19578387D01*
X42360227Y-19556443D01*
X42354563Y-19533834D01*
X42351144Y-19510779D01*
X42350000Y-19487500D01*
X42350000Y-19012500D01*
X42351144Y-18989221D01*
X42354563Y-18966166D01*
X42360227Y-18943557D01*
X42368079Y-18921613D01*
X42378044Y-18900543D01*
X42390026Y-18880552D01*
X42403910Y-18861832D01*
X42419562Y-18844562D01*
X42436832Y-18828910D01*
X42455552Y-18815026D01*
X42475543Y-18803044D01*
X42496613Y-18793079D01*
X42518557Y-18785227D01*
X42541166Y-18779563D01*
X42564221Y-18776144D01*
X42587500Y-18775000D01*
X43162500Y-18775000D01*
X43185779Y-18776144D01*
G37*
G36*
X44935779Y-18776144D02*
G01*
X44958834Y-18779563D01*
X44981443Y-18785227D01*
X45003387Y-18793079D01*
X45024457Y-18803044D01*
X45044448Y-18815026D01*
X45063168Y-18828910D01*
X45080438Y-18844562D01*
X45096090Y-18861832D01*
X45109974Y-18880552D01*
X45121956Y-18900543D01*
X45131921Y-18921613D01*
X45139773Y-18943557D01*
X45145437Y-18966166D01*
X45148856Y-18989221D01*
X45150000Y-19012500D01*
X45150000Y-19487500D01*
X45148856Y-19510779D01*
X45145437Y-19533834D01*
X45139773Y-19556443D01*
X45131921Y-19578387D01*
X45121956Y-19599457D01*
X45109974Y-19619448D01*
X45096090Y-19638168D01*
X45080438Y-19655438D01*
X45063168Y-19671090D01*
X45044448Y-19684974D01*
X45024457Y-19696956D01*
X45003387Y-19706921D01*
X44981443Y-19714773D01*
X44958834Y-19720437D01*
X44935779Y-19723856D01*
X44912500Y-19725000D01*
X44337500Y-19725000D01*
X44314221Y-19723856D01*
X44291166Y-19720437D01*
X44268557Y-19714773D01*
X44246613Y-19706921D01*
X44225543Y-19696956D01*
X44205552Y-19684974D01*
X44186832Y-19671090D01*
X44169562Y-19655438D01*
X44153910Y-19638168D01*
X44140026Y-19619448D01*
X44128044Y-19599457D01*
X44118079Y-19578387D01*
X44110227Y-19556443D01*
X44104563Y-19533834D01*
X44101144Y-19510779D01*
X44100000Y-19487500D01*
X44100000Y-19012500D01*
X44101144Y-18989221D01*
X44104563Y-18966166D01*
X44110227Y-18943557D01*
X44118079Y-18921613D01*
X44128044Y-18900543D01*
X44140026Y-18880552D01*
X44153910Y-18861832D01*
X44169562Y-18844562D01*
X44186832Y-18828910D01*
X44205552Y-18815026D01*
X44225543Y-18803044D01*
X44246613Y-18793079D01*
X44268557Y-18785227D01*
X44291166Y-18779563D01*
X44314221Y-18776144D01*
X44337500Y-18775000D01*
X44912500Y-18775000D01*
X44935779Y-18776144D01*
G37*
G36*
X38760779Y-28451144D02*
G01*
X38783834Y-28454563D01*
X38806443Y-28460227D01*
X38828387Y-28468079D01*
X38849457Y-28478044D01*
X38869448Y-28490026D01*
X38888168Y-28503910D01*
X38905438Y-28519562D01*
X38921090Y-28536832D01*
X38934974Y-28555552D01*
X38946956Y-28575543D01*
X38956921Y-28596613D01*
X38964773Y-28618557D01*
X38970437Y-28641166D01*
X38973856Y-28664221D01*
X38975000Y-28687500D01*
X38975000Y-29262500D01*
X38973856Y-29285779D01*
X38970437Y-29308834D01*
X38964773Y-29331443D01*
X38956921Y-29353387D01*
X38946956Y-29374457D01*
X38934974Y-29394448D01*
X38921090Y-29413168D01*
X38905438Y-29430438D01*
X38888168Y-29446090D01*
X38869448Y-29459974D01*
X38849457Y-29471956D01*
X38828387Y-29481921D01*
X38806443Y-29489773D01*
X38783834Y-29495437D01*
X38760779Y-29498856D01*
X38737500Y-29500000D01*
X38262500Y-29500000D01*
X38239221Y-29498856D01*
X38216166Y-29495437D01*
X38193557Y-29489773D01*
X38171613Y-29481921D01*
X38150543Y-29471956D01*
X38130552Y-29459974D01*
X38111832Y-29446090D01*
X38094562Y-29430438D01*
X38078910Y-29413168D01*
X38065026Y-29394448D01*
X38053044Y-29374457D01*
X38043079Y-29353387D01*
X38035227Y-29331443D01*
X38029563Y-29308834D01*
X38026144Y-29285779D01*
X38025000Y-29262500D01*
X38025000Y-28687500D01*
X38026144Y-28664221D01*
X38029563Y-28641166D01*
X38035227Y-28618557D01*
X38043079Y-28596613D01*
X38053044Y-28575543D01*
X38065026Y-28555552D01*
X38078910Y-28536832D01*
X38094562Y-28519562D01*
X38111832Y-28503910D01*
X38130552Y-28490026D01*
X38150543Y-28478044D01*
X38171613Y-28468079D01*
X38193557Y-28460227D01*
X38216166Y-28454563D01*
X38239221Y-28451144D01*
X38262500Y-28450000D01*
X38737500Y-28450000D01*
X38760779Y-28451144D01*
G37*
G36*
X38760779Y-30201144D02*
G01*
X38783834Y-30204563D01*
X38806443Y-30210227D01*
X38828387Y-30218079D01*
X38849457Y-30228044D01*
X38869448Y-30240026D01*
X38888168Y-30253910D01*
X38905438Y-30269562D01*
X38921090Y-30286832D01*
X38934974Y-30305552D01*
X38946956Y-30325543D01*
X38956921Y-30346613D01*
X38964773Y-30368557D01*
X38970437Y-30391166D01*
X38973856Y-30414221D01*
X38975000Y-30437500D01*
X38975000Y-31012500D01*
X38973856Y-31035779D01*
X38970437Y-31058834D01*
X38964773Y-31081443D01*
X38956921Y-31103387D01*
X38946956Y-31124457D01*
X38934974Y-31144448D01*
X38921090Y-31163168D01*
X38905438Y-31180438D01*
X38888168Y-31196090D01*
X38869448Y-31209974D01*
X38849457Y-31221956D01*
X38828387Y-31231921D01*
X38806443Y-31239773D01*
X38783834Y-31245437D01*
X38760779Y-31248856D01*
X38737500Y-31250000D01*
X38262500Y-31250000D01*
X38239221Y-31248856D01*
X38216166Y-31245437D01*
X38193557Y-31239773D01*
X38171613Y-31231921D01*
X38150543Y-31221956D01*
X38130552Y-31209974D01*
X38111832Y-31196090D01*
X38094562Y-31180438D01*
X38078910Y-31163168D01*
X38065026Y-31144448D01*
X38053044Y-31124457D01*
X38043079Y-31103387D01*
X38035227Y-31081443D01*
X38029563Y-31058834D01*
X38026144Y-31035779D01*
X38025000Y-31012500D01*
X38025000Y-30437500D01*
X38026144Y-30414221D01*
X38029563Y-30391166D01*
X38035227Y-30368557D01*
X38043079Y-30346613D01*
X38053044Y-30325543D01*
X38065026Y-30305552D01*
X38078910Y-30286832D01*
X38094562Y-30269562D01*
X38111832Y-30253910D01*
X38130552Y-30240026D01*
X38150543Y-30228044D01*
X38171613Y-30218079D01*
X38193557Y-30210227D01*
X38216166Y-30204563D01*
X38239221Y-30201144D01*
X38262500Y-30200000D01*
X38737500Y-30200000D01*
X38760779Y-30201144D01*
G37*
G36*
X36385779Y-28451144D02*
G01*
X36408834Y-28454563D01*
X36431443Y-28460227D01*
X36453387Y-28468079D01*
X36474457Y-28478044D01*
X36494448Y-28490026D01*
X36513168Y-28503910D01*
X36530438Y-28519562D01*
X36546090Y-28536832D01*
X36559974Y-28555552D01*
X36571956Y-28575543D01*
X36581921Y-28596613D01*
X36589773Y-28618557D01*
X36595437Y-28641166D01*
X36598856Y-28664221D01*
X36600000Y-28687500D01*
X36600000Y-29262500D01*
X36598856Y-29285779D01*
X36595437Y-29308834D01*
X36589773Y-29331443D01*
X36581921Y-29353387D01*
X36571956Y-29374457D01*
X36559974Y-29394448D01*
X36546090Y-29413168D01*
X36530438Y-29430438D01*
X36513168Y-29446090D01*
X36494448Y-29459974D01*
X36474457Y-29471956D01*
X36453387Y-29481921D01*
X36431443Y-29489773D01*
X36408834Y-29495437D01*
X36385779Y-29498856D01*
X36362500Y-29500000D01*
X35887500Y-29500000D01*
X35864221Y-29498856D01*
X35841166Y-29495437D01*
X35818557Y-29489773D01*
X35796613Y-29481921D01*
X35775543Y-29471956D01*
X35755552Y-29459974D01*
X35736832Y-29446090D01*
X35719562Y-29430438D01*
X35703910Y-29413168D01*
X35690026Y-29394448D01*
X35678044Y-29374457D01*
X35668079Y-29353387D01*
X35660227Y-29331443D01*
X35654563Y-29308834D01*
X35651144Y-29285779D01*
X35650000Y-29262500D01*
X35650000Y-28687500D01*
X35651144Y-28664221D01*
X35654563Y-28641166D01*
X35660227Y-28618557D01*
X35668079Y-28596613D01*
X35678044Y-28575543D01*
X35690026Y-28555552D01*
X35703910Y-28536832D01*
X35719562Y-28519562D01*
X35736832Y-28503910D01*
X35755552Y-28490026D01*
X35775543Y-28478044D01*
X35796613Y-28468079D01*
X35818557Y-28460227D01*
X35841166Y-28454563D01*
X35864221Y-28451144D01*
X35887500Y-28450000D01*
X36362500Y-28450000D01*
X36385779Y-28451144D01*
G37*
G36*
X36385779Y-30201144D02*
G01*
X36408834Y-30204563D01*
X36431443Y-30210227D01*
X36453387Y-30218079D01*
X36474457Y-30228044D01*
X36494448Y-30240026D01*
X36513168Y-30253910D01*
X36530438Y-30269562D01*
X36546090Y-30286832D01*
X36559974Y-30305552D01*
X36571956Y-30325543D01*
X36581921Y-30346613D01*
X36589773Y-30368557D01*
X36595437Y-30391166D01*
X36598856Y-30414221D01*
X36600000Y-30437500D01*
X36600000Y-31012500D01*
X36598856Y-31035779D01*
X36595437Y-31058834D01*
X36589773Y-31081443D01*
X36581921Y-31103387D01*
X36571956Y-31124457D01*
X36559974Y-31144448D01*
X36546090Y-31163168D01*
X36530438Y-31180438D01*
X36513168Y-31196090D01*
X36494448Y-31209974D01*
X36474457Y-31221956D01*
X36453387Y-31231921D01*
X36431443Y-31239773D01*
X36408834Y-31245437D01*
X36385779Y-31248856D01*
X36362500Y-31250000D01*
X35887500Y-31250000D01*
X35864221Y-31248856D01*
X35841166Y-31245437D01*
X35818557Y-31239773D01*
X35796613Y-31231921D01*
X35775543Y-31221956D01*
X35755552Y-31209974D01*
X35736832Y-31196090D01*
X35719562Y-31180438D01*
X35703910Y-31163168D01*
X35690026Y-31144448D01*
X35678044Y-31124457D01*
X35668079Y-31103387D01*
X35660227Y-31081443D01*
X35654563Y-31058834D01*
X35651144Y-31035779D01*
X35650000Y-31012500D01*
X35650000Y-30437500D01*
X35651144Y-30414221D01*
X35654563Y-30391166D01*
X35660227Y-30368557D01*
X35668079Y-30346613D01*
X35678044Y-30325543D01*
X35690026Y-30305552D01*
X35703910Y-30286832D01*
X35719562Y-30269562D01*
X35736832Y-30253910D01*
X35755552Y-30240026D01*
X35775543Y-30228044D01*
X35796613Y-30218079D01*
X35818557Y-30210227D01*
X35841166Y-30204563D01*
X35864221Y-30201144D01*
X35887500Y-30200000D01*
X36362500Y-30200000D01*
X36385779Y-30201144D01*
G37*
G36*
X23260779Y-26351144D02*
G01*
X23283834Y-26354563D01*
X23306443Y-26360227D01*
X23328387Y-26368079D01*
X23349457Y-26378044D01*
X23369448Y-26390026D01*
X23388168Y-26403910D01*
X23405438Y-26419562D01*
X23421090Y-26436832D01*
X23434974Y-26455552D01*
X23446956Y-26475543D01*
X23456921Y-26496613D01*
X23464773Y-26518557D01*
X23470437Y-26541166D01*
X23473856Y-26564221D01*
X23475000Y-26587500D01*
X23475000Y-27162500D01*
X23473856Y-27185779D01*
X23470437Y-27208834D01*
X23464773Y-27231443D01*
X23456921Y-27253387D01*
X23446956Y-27274457D01*
X23434974Y-27294448D01*
X23421090Y-27313168D01*
X23405438Y-27330438D01*
X23388168Y-27346090D01*
X23369448Y-27359974D01*
X23349457Y-27371956D01*
X23328387Y-27381921D01*
X23306443Y-27389773D01*
X23283834Y-27395437D01*
X23260779Y-27398856D01*
X23237500Y-27400000D01*
X22762500Y-27400000D01*
X22739221Y-27398856D01*
X22716166Y-27395437D01*
X22693557Y-27389773D01*
X22671613Y-27381921D01*
X22650543Y-27371956D01*
X22630552Y-27359974D01*
X22611832Y-27346090D01*
X22594562Y-27330438D01*
X22578910Y-27313168D01*
X22565026Y-27294448D01*
X22553044Y-27274457D01*
X22543079Y-27253387D01*
X22535227Y-27231443D01*
X22529563Y-27208834D01*
X22526144Y-27185779D01*
X22525000Y-27162500D01*
X22525000Y-26587500D01*
X22526144Y-26564221D01*
X22529563Y-26541166D01*
X22535227Y-26518557D01*
X22543079Y-26496613D01*
X22553044Y-26475543D01*
X22565026Y-26455552D01*
X22578910Y-26436832D01*
X22594562Y-26419562D01*
X22611832Y-26403910D01*
X22630552Y-26390026D01*
X22650543Y-26378044D01*
X22671613Y-26368079D01*
X22693557Y-26360227D01*
X22716166Y-26354563D01*
X22739221Y-26351144D01*
X22762500Y-26350000D01*
X23237500Y-26350000D01*
X23260779Y-26351144D01*
G37*
G36*
X23260779Y-24601144D02*
G01*
X23283834Y-24604563D01*
X23306443Y-24610227D01*
X23328387Y-24618079D01*
X23349457Y-24628044D01*
X23369448Y-24640026D01*
X23388168Y-24653910D01*
X23405438Y-24669562D01*
X23421090Y-24686832D01*
X23434974Y-24705552D01*
X23446956Y-24725543D01*
X23456921Y-24746613D01*
X23464773Y-24768557D01*
X23470437Y-24791166D01*
X23473856Y-24814221D01*
X23475000Y-24837500D01*
X23475000Y-25412500D01*
X23473856Y-25435779D01*
X23470437Y-25458834D01*
X23464773Y-25481443D01*
X23456921Y-25503387D01*
X23446956Y-25524457D01*
X23434974Y-25544448D01*
X23421090Y-25563168D01*
X23405438Y-25580438D01*
X23388168Y-25596090D01*
X23369448Y-25609974D01*
X23349457Y-25621956D01*
X23328387Y-25631921D01*
X23306443Y-25639773D01*
X23283834Y-25645437D01*
X23260779Y-25648856D01*
X23237500Y-25650000D01*
X22762500Y-25650000D01*
X22739221Y-25648856D01*
X22716166Y-25645437D01*
X22693557Y-25639773D01*
X22671613Y-25631921D01*
X22650543Y-25621956D01*
X22630552Y-25609974D01*
X22611832Y-25596090D01*
X22594562Y-25580438D01*
X22578910Y-25563168D01*
X22565026Y-25544448D01*
X22553044Y-25524457D01*
X22543079Y-25503387D01*
X22535227Y-25481443D01*
X22529563Y-25458834D01*
X22526144Y-25435779D01*
X22525000Y-25412500D01*
X22525000Y-24837500D01*
X22526144Y-24814221D01*
X22529563Y-24791166D01*
X22535227Y-24768557D01*
X22543079Y-24746613D01*
X22553044Y-24725543D01*
X22565026Y-24705552D01*
X22578910Y-24686832D01*
X22594562Y-24669562D01*
X22611832Y-24653910D01*
X22630552Y-24640026D01*
X22650543Y-24628044D01*
X22671613Y-24618079D01*
X22693557Y-24610227D01*
X22716166Y-24604563D01*
X22739221Y-24601144D01*
X22762500Y-24600000D01*
X23237500Y-24600000D01*
X23260779Y-24601144D01*
G37*
G36*
X24760779Y-25601144D02*
G01*
X24783834Y-25604563D01*
X24806443Y-25610227D01*
X24828387Y-25618079D01*
X24849457Y-25628044D01*
X24869448Y-25640026D01*
X24888168Y-25653910D01*
X24905438Y-25669562D01*
X24921090Y-25686832D01*
X24934974Y-25705552D01*
X24946956Y-25725543D01*
X24956921Y-25746613D01*
X24964773Y-25768557D01*
X24970437Y-25791166D01*
X24973856Y-25814221D01*
X24975000Y-25837500D01*
X24975000Y-26412500D01*
X24973856Y-26435779D01*
X24970437Y-26458834D01*
X24964773Y-26481443D01*
X24956921Y-26503387D01*
X24946956Y-26524457D01*
X24934974Y-26544448D01*
X24921090Y-26563168D01*
X24905438Y-26580438D01*
X24888168Y-26596090D01*
X24869448Y-26609974D01*
X24849457Y-26621956D01*
X24828387Y-26631921D01*
X24806443Y-26639773D01*
X24783834Y-26645437D01*
X24760779Y-26648856D01*
X24737500Y-26650000D01*
X24262500Y-26650000D01*
X24239221Y-26648856D01*
X24216166Y-26645437D01*
X24193557Y-26639773D01*
X24171613Y-26631921D01*
X24150543Y-26621956D01*
X24130552Y-26609974D01*
X24111832Y-26596090D01*
X24094562Y-26580438D01*
X24078910Y-26563168D01*
X24065026Y-26544448D01*
X24053044Y-26524457D01*
X24043079Y-26503387D01*
X24035227Y-26481443D01*
X24029563Y-26458834D01*
X24026144Y-26435779D01*
X24025000Y-26412500D01*
X24025000Y-25837500D01*
X24026144Y-25814221D01*
X24029563Y-25791166D01*
X24035227Y-25768557D01*
X24043079Y-25746613D01*
X24053044Y-25725543D01*
X24065026Y-25705552D01*
X24078910Y-25686832D01*
X24094562Y-25669562D01*
X24111832Y-25653910D01*
X24130552Y-25640026D01*
X24150543Y-25628044D01*
X24171613Y-25618079D01*
X24193557Y-25610227D01*
X24216166Y-25604563D01*
X24239221Y-25601144D01*
X24262500Y-25600000D01*
X24737500Y-25600000D01*
X24760779Y-25601144D01*
G37*
G36*
X24760779Y-27351144D02*
G01*
X24783834Y-27354563D01*
X24806443Y-27360227D01*
X24828387Y-27368079D01*
X24849457Y-27378044D01*
X24869448Y-27390026D01*
X24888168Y-27403910D01*
X24905438Y-27419562D01*
X24921090Y-27436832D01*
X24934974Y-27455552D01*
X24946956Y-27475543D01*
X24956921Y-27496613D01*
X24964773Y-27518557D01*
X24970437Y-27541166D01*
X24973856Y-27564221D01*
X24975000Y-27587500D01*
X24975000Y-28162500D01*
X24973856Y-28185779D01*
X24970437Y-28208834D01*
X24964773Y-28231443D01*
X24956921Y-28253387D01*
X24946956Y-28274457D01*
X24934974Y-28294448D01*
X24921090Y-28313168D01*
X24905438Y-28330438D01*
X24888168Y-28346090D01*
X24869448Y-28359974D01*
X24849457Y-28371956D01*
X24828387Y-28381921D01*
X24806443Y-28389773D01*
X24783834Y-28395437D01*
X24760779Y-28398856D01*
X24737500Y-28400000D01*
X24262500Y-28400000D01*
X24239221Y-28398856D01*
X24216166Y-28395437D01*
X24193557Y-28389773D01*
X24171613Y-28381921D01*
X24150543Y-28371956D01*
X24130552Y-28359974D01*
X24111832Y-28346090D01*
X24094562Y-28330438D01*
X24078910Y-28313168D01*
X24065026Y-28294448D01*
X24053044Y-28274457D01*
X24043079Y-28253387D01*
X24035227Y-28231443D01*
X24029563Y-28208834D01*
X24026144Y-28185779D01*
X24025000Y-28162500D01*
X24025000Y-27587500D01*
X24026144Y-27564221D01*
X24029563Y-27541166D01*
X24035227Y-27518557D01*
X24043079Y-27496613D01*
X24053044Y-27475543D01*
X24065026Y-27455552D01*
X24078910Y-27436832D01*
X24094562Y-27419562D01*
X24111832Y-27403910D01*
X24130552Y-27390026D01*
X24150543Y-27378044D01*
X24171613Y-27368079D01*
X24193557Y-27360227D01*
X24216166Y-27354563D01*
X24239221Y-27351144D01*
X24262500Y-27350000D01*
X24737500Y-27350000D01*
X24760779Y-27351144D01*
G37*
G36*
X33235779Y-30026144D02*
G01*
X33258834Y-30029563D01*
X33281443Y-30035227D01*
X33303387Y-30043079D01*
X33324457Y-30053044D01*
X33344448Y-30065026D01*
X33363168Y-30078910D01*
X33380438Y-30094562D01*
X33396090Y-30111832D01*
X33409974Y-30130552D01*
X33421956Y-30150543D01*
X33431921Y-30171613D01*
X33439773Y-30193557D01*
X33445437Y-30216166D01*
X33448856Y-30239221D01*
X33450000Y-30262500D01*
X33450000Y-30737500D01*
X33448856Y-30760779D01*
X33445437Y-30783834D01*
X33439773Y-30806443D01*
X33431921Y-30828387D01*
X33421956Y-30849457D01*
X33409974Y-30869448D01*
X33396090Y-30888168D01*
X33380438Y-30905438D01*
X33363168Y-30921090D01*
X33344448Y-30934974D01*
X33324457Y-30946956D01*
X33303387Y-30956921D01*
X33281443Y-30964773D01*
X33258834Y-30970437D01*
X33235779Y-30973856D01*
X33212500Y-30975000D01*
X32637500Y-30975000D01*
X32614221Y-30973856D01*
X32591166Y-30970437D01*
X32568557Y-30964773D01*
X32546613Y-30956921D01*
X32525543Y-30946956D01*
X32505552Y-30934974D01*
X32486832Y-30921090D01*
X32469562Y-30905438D01*
X32453910Y-30888168D01*
X32440026Y-30869448D01*
X32428044Y-30849457D01*
X32418079Y-30828387D01*
X32410227Y-30806443D01*
X32404563Y-30783834D01*
X32401144Y-30760779D01*
X32400000Y-30737500D01*
X32400000Y-30262500D01*
X32401144Y-30239221D01*
X32404563Y-30216166D01*
X32410227Y-30193557D01*
X32418079Y-30171613D01*
X32428044Y-30150543D01*
X32440026Y-30130552D01*
X32453910Y-30111832D01*
X32469562Y-30094562D01*
X32486832Y-30078910D01*
X32505552Y-30065026D01*
X32525543Y-30053044D01*
X32546613Y-30043079D01*
X32568557Y-30035227D01*
X32591166Y-30029563D01*
X32614221Y-30026144D01*
X32637500Y-30025000D01*
X33212500Y-30025000D01*
X33235779Y-30026144D01*
G37*
G36*
X34985779Y-30026144D02*
G01*
X35008834Y-30029563D01*
X35031443Y-30035227D01*
X35053387Y-30043079D01*
X35074457Y-30053044D01*
X35094448Y-30065026D01*
X35113168Y-30078910D01*
X35130438Y-30094562D01*
X35146090Y-30111832D01*
X35159974Y-30130552D01*
X35171956Y-30150543D01*
X35181921Y-30171613D01*
X35189773Y-30193557D01*
X35195437Y-30216166D01*
X35198856Y-30239221D01*
X35200000Y-30262500D01*
X35200000Y-30737500D01*
X35198856Y-30760779D01*
X35195437Y-30783834D01*
X35189773Y-30806443D01*
X35181921Y-30828387D01*
X35171956Y-30849457D01*
X35159974Y-30869448D01*
X35146090Y-30888168D01*
X35130438Y-30905438D01*
X35113168Y-30921090D01*
X35094448Y-30934974D01*
X35074457Y-30946956D01*
X35053387Y-30956921D01*
X35031443Y-30964773D01*
X35008834Y-30970437D01*
X34985779Y-30973856D01*
X34962500Y-30975000D01*
X34387500Y-30975000D01*
X34364221Y-30973856D01*
X34341166Y-30970437D01*
X34318557Y-30964773D01*
X34296613Y-30956921D01*
X34275543Y-30946956D01*
X34255552Y-30934974D01*
X34236832Y-30921090D01*
X34219562Y-30905438D01*
X34203910Y-30888168D01*
X34190026Y-30869448D01*
X34178044Y-30849457D01*
X34168079Y-30828387D01*
X34160227Y-30806443D01*
X34154563Y-30783834D01*
X34151144Y-30760779D01*
X34150000Y-30737500D01*
X34150000Y-30262500D01*
X34151144Y-30239221D01*
X34154563Y-30216166D01*
X34160227Y-30193557D01*
X34168079Y-30171613D01*
X34178044Y-30150543D01*
X34190026Y-30130552D01*
X34203910Y-30111832D01*
X34219562Y-30094562D01*
X34236832Y-30078910D01*
X34255552Y-30065026D01*
X34275543Y-30053044D01*
X34296613Y-30043079D01*
X34318557Y-30035227D01*
X34341166Y-30029563D01*
X34364221Y-30026144D01*
X34387500Y-30025000D01*
X34962500Y-30025000D01*
X34985779Y-30026144D01*
G37*
G36*
X34985779Y-28526144D02*
G01*
X35008834Y-28529563D01*
X35031443Y-28535227D01*
X35053387Y-28543079D01*
X35074457Y-28553044D01*
X35094448Y-28565026D01*
X35113168Y-28578910D01*
X35130438Y-28594562D01*
X35146090Y-28611832D01*
X35159974Y-28630552D01*
X35171956Y-28650543D01*
X35181921Y-28671613D01*
X35189773Y-28693557D01*
X35195437Y-28716166D01*
X35198856Y-28739221D01*
X35200000Y-28762500D01*
X35200000Y-29237500D01*
X35198856Y-29260779D01*
X35195437Y-29283834D01*
X35189773Y-29306443D01*
X35181921Y-29328387D01*
X35171956Y-29349457D01*
X35159974Y-29369448D01*
X35146090Y-29388168D01*
X35130438Y-29405438D01*
X35113168Y-29421090D01*
X35094448Y-29434974D01*
X35074457Y-29446956D01*
X35053387Y-29456921D01*
X35031443Y-29464773D01*
X35008834Y-29470437D01*
X34985779Y-29473856D01*
X34962500Y-29475000D01*
X34387500Y-29475000D01*
X34364221Y-29473856D01*
X34341166Y-29470437D01*
X34318557Y-29464773D01*
X34296613Y-29456921D01*
X34275543Y-29446956D01*
X34255552Y-29434974D01*
X34236832Y-29421090D01*
X34219562Y-29405438D01*
X34203910Y-29388168D01*
X34190026Y-29369448D01*
X34178044Y-29349457D01*
X34168079Y-29328387D01*
X34160227Y-29306443D01*
X34154563Y-29283834D01*
X34151144Y-29260779D01*
X34150000Y-29237500D01*
X34150000Y-28762500D01*
X34151144Y-28739221D01*
X34154563Y-28716166D01*
X34160227Y-28693557D01*
X34168079Y-28671613D01*
X34178044Y-28650543D01*
X34190026Y-28630552D01*
X34203910Y-28611832D01*
X34219562Y-28594562D01*
X34236832Y-28578910D01*
X34255552Y-28565026D01*
X34275543Y-28553044D01*
X34296613Y-28543079D01*
X34318557Y-28535227D01*
X34341166Y-28529563D01*
X34364221Y-28526144D01*
X34387500Y-28525000D01*
X34962500Y-28525000D01*
X34985779Y-28526144D01*
G37*
G36*
X33235779Y-28526144D02*
G01*
X33258834Y-28529563D01*
X33281443Y-28535227D01*
X33303387Y-28543079D01*
X33324457Y-28553044D01*
X33344448Y-28565026D01*
X33363168Y-28578910D01*
X33380438Y-28594562D01*
X33396090Y-28611832D01*
X33409974Y-28630552D01*
X33421956Y-28650543D01*
X33431921Y-28671613D01*
X33439773Y-28693557D01*
X33445437Y-28716166D01*
X33448856Y-28739221D01*
X33450000Y-28762500D01*
X33450000Y-29237500D01*
X33448856Y-29260779D01*
X33445437Y-29283834D01*
X33439773Y-29306443D01*
X33431921Y-29328387D01*
X33421956Y-29349457D01*
X33409974Y-29369448D01*
X33396090Y-29388168D01*
X33380438Y-29405438D01*
X33363168Y-29421090D01*
X33344448Y-29434974D01*
X33324457Y-29446956D01*
X33303387Y-29456921D01*
X33281443Y-29464773D01*
X33258834Y-29470437D01*
X33235779Y-29473856D01*
X33212500Y-29475000D01*
X32637500Y-29475000D01*
X32614221Y-29473856D01*
X32591166Y-29470437D01*
X32568557Y-29464773D01*
X32546613Y-29456921D01*
X32525543Y-29446956D01*
X32505552Y-29434974D01*
X32486832Y-29421090D01*
X32469562Y-29405438D01*
X32453910Y-29388168D01*
X32440026Y-29369448D01*
X32428044Y-29349457D01*
X32418079Y-29328387D01*
X32410227Y-29306443D01*
X32404563Y-29283834D01*
X32401144Y-29260779D01*
X32400000Y-29237500D01*
X32400000Y-28762500D01*
X32401144Y-28739221D01*
X32404563Y-28716166D01*
X32410227Y-28693557D01*
X32418079Y-28671613D01*
X32428044Y-28650543D01*
X32440026Y-28630552D01*
X32453910Y-28611832D01*
X32469562Y-28594562D01*
X32486832Y-28578910D01*
X32505552Y-28565026D01*
X32525543Y-28553044D01*
X32546613Y-28543079D01*
X32568557Y-28535227D01*
X32591166Y-28529563D01*
X32614221Y-28526144D01*
X32637500Y-28525000D01*
X33212500Y-28525000D01*
X33235779Y-28526144D01*
G37*
G36*
X33760779Y-24451144D02*
G01*
X33783834Y-24454563D01*
X33806443Y-24460227D01*
X33828387Y-24468079D01*
X33849457Y-24478044D01*
X33869448Y-24490026D01*
X33888168Y-24503910D01*
X33905438Y-24519562D01*
X33921090Y-24536832D01*
X33934974Y-24555552D01*
X33946956Y-24575543D01*
X33956921Y-24596613D01*
X33964773Y-24618557D01*
X33970437Y-24641166D01*
X33973856Y-24664221D01*
X33975000Y-24687500D01*
X33975000Y-25262500D01*
X33973856Y-25285779D01*
X33970437Y-25308834D01*
X33964773Y-25331443D01*
X33956921Y-25353387D01*
X33946956Y-25374457D01*
X33934974Y-25394448D01*
X33921090Y-25413168D01*
X33905438Y-25430438D01*
X33888168Y-25446090D01*
X33869448Y-25459974D01*
X33849457Y-25471956D01*
X33828387Y-25481921D01*
X33806443Y-25489773D01*
X33783834Y-25495437D01*
X33760779Y-25498856D01*
X33737500Y-25500000D01*
X33262500Y-25500000D01*
X33239221Y-25498856D01*
X33216166Y-25495437D01*
X33193557Y-25489773D01*
X33171613Y-25481921D01*
X33150543Y-25471956D01*
X33130552Y-25459974D01*
X33111832Y-25446090D01*
X33094562Y-25430438D01*
X33078910Y-25413168D01*
X33065026Y-25394448D01*
X33053044Y-25374457D01*
X33043079Y-25353387D01*
X33035227Y-25331443D01*
X33029563Y-25308834D01*
X33026144Y-25285779D01*
X33025000Y-25262500D01*
X33025000Y-24687500D01*
X33026144Y-24664221D01*
X33029563Y-24641166D01*
X33035227Y-24618557D01*
X33043079Y-24596613D01*
X33053044Y-24575543D01*
X33065026Y-24555552D01*
X33078910Y-24536832D01*
X33094562Y-24519562D01*
X33111832Y-24503910D01*
X33130552Y-24490026D01*
X33150543Y-24478044D01*
X33171613Y-24468079D01*
X33193557Y-24460227D01*
X33216166Y-24454563D01*
X33239221Y-24451144D01*
X33262500Y-24450000D01*
X33737500Y-24450000D01*
X33760779Y-24451144D01*
G37*
G36*
X33760779Y-26201144D02*
G01*
X33783834Y-26204563D01*
X33806443Y-26210227D01*
X33828387Y-26218079D01*
X33849457Y-26228044D01*
X33869448Y-26240026D01*
X33888168Y-26253910D01*
X33905438Y-26269562D01*
X33921090Y-26286832D01*
X33934974Y-26305552D01*
X33946956Y-26325543D01*
X33956921Y-26346613D01*
X33964773Y-26368557D01*
X33970437Y-26391166D01*
X33973856Y-26414221D01*
X33975000Y-26437500D01*
X33975000Y-27012500D01*
X33973856Y-27035779D01*
X33970437Y-27058834D01*
X33964773Y-27081443D01*
X33956921Y-27103387D01*
X33946956Y-27124457D01*
X33934974Y-27144448D01*
X33921090Y-27163168D01*
X33905438Y-27180438D01*
X33888168Y-27196090D01*
X33869448Y-27209974D01*
X33849457Y-27221956D01*
X33828387Y-27231921D01*
X33806443Y-27239773D01*
X33783834Y-27245437D01*
X33760779Y-27248856D01*
X33737500Y-27250000D01*
X33262500Y-27250000D01*
X33239221Y-27248856D01*
X33216166Y-27245437D01*
X33193557Y-27239773D01*
X33171613Y-27231921D01*
X33150543Y-27221956D01*
X33130552Y-27209974D01*
X33111832Y-27196090D01*
X33094562Y-27180438D01*
X33078910Y-27163168D01*
X33065026Y-27144448D01*
X33053044Y-27124457D01*
X33043079Y-27103387D01*
X33035227Y-27081443D01*
X33029563Y-27058834D01*
X33026144Y-27035779D01*
X33025000Y-27012500D01*
X33025000Y-26437500D01*
X33026144Y-26414221D01*
X33029563Y-26391166D01*
X33035227Y-26368557D01*
X33043079Y-26346613D01*
X33053044Y-26325543D01*
X33065026Y-26305552D01*
X33078910Y-26286832D01*
X33094562Y-26269562D01*
X33111832Y-26253910D01*
X33130552Y-26240026D01*
X33150543Y-26228044D01*
X33171613Y-26218079D01*
X33193557Y-26210227D01*
X33216166Y-26204563D01*
X33239221Y-26201144D01*
X33262500Y-26200000D01*
X33737500Y-26200000D01*
X33760779Y-26201144D01*
G37*
G36*
X35260779Y-26201144D02*
G01*
X35283834Y-26204563D01*
X35306443Y-26210227D01*
X35328387Y-26218079D01*
X35349457Y-26228044D01*
X35369448Y-26240026D01*
X35388168Y-26253910D01*
X35405438Y-26269562D01*
X35421090Y-26286832D01*
X35434974Y-26305552D01*
X35446956Y-26325543D01*
X35456921Y-26346613D01*
X35464773Y-26368557D01*
X35470437Y-26391166D01*
X35473856Y-26414221D01*
X35475000Y-26437500D01*
X35475000Y-27012500D01*
X35473856Y-27035779D01*
X35470437Y-27058834D01*
X35464773Y-27081443D01*
X35456921Y-27103387D01*
X35446956Y-27124457D01*
X35434974Y-27144448D01*
X35421090Y-27163168D01*
X35405438Y-27180438D01*
X35388168Y-27196090D01*
X35369448Y-27209974D01*
X35349457Y-27221956D01*
X35328387Y-27231921D01*
X35306443Y-27239773D01*
X35283834Y-27245437D01*
X35260779Y-27248856D01*
X35237500Y-27250000D01*
X34762500Y-27250000D01*
X34739221Y-27248856D01*
X34716166Y-27245437D01*
X34693557Y-27239773D01*
X34671613Y-27231921D01*
X34650543Y-27221956D01*
X34630552Y-27209974D01*
X34611832Y-27196090D01*
X34594562Y-27180438D01*
X34578910Y-27163168D01*
X34565026Y-27144448D01*
X34553044Y-27124457D01*
X34543079Y-27103387D01*
X34535227Y-27081443D01*
X34529563Y-27058834D01*
X34526144Y-27035779D01*
X34525000Y-27012500D01*
X34525000Y-26437500D01*
X34526144Y-26414221D01*
X34529563Y-26391166D01*
X34535227Y-26368557D01*
X34543079Y-26346613D01*
X34553044Y-26325543D01*
X34565026Y-26305552D01*
X34578910Y-26286832D01*
X34594562Y-26269562D01*
X34611832Y-26253910D01*
X34630552Y-26240026D01*
X34650543Y-26228044D01*
X34671613Y-26218079D01*
X34693557Y-26210227D01*
X34716166Y-26204563D01*
X34739221Y-26201144D01*
X34762500Y-26200000D01*
X35237500Y-26200000D01*
X35260779Y-26201144D01*
G37*
G36*
X35260779Y-24451144D02*
G01*
X35283834Y-24454563D01*
X35306443Y-24460227D01*
X35328387Y-24468079D01*
X35349457Y-24478044D01*
X35369448Y-24490026D01*
X35388168Y-24503910D01*
X35405438Y-24519562D01*
X35421090Y-24536832D01*
X35434974Y-24555552D01*
X35446956Y-24575543D01*
X35456921Y-24596613D01*
X35464773Y-24618557D01*
X35470437Y-24641166D01*
X35473856Y-24664221D01*
X35475000Y-24687500D01*
X35475000Y-25262500D01*
X35473856Y-25285779D01*
X35470437Y-25308834D01*
X35464773Y-25331443D01*
X35456921Y-25353387D01*
X35446956Y-25374457D01*
X35434974Y-25394448D01*
X35421090Y-25413168D01*
X35405438Y-25430438D01*
X35388168Y-25446090D01*
X35369448Y-25459974D01*
X35349457Y-25471956D01*
X35328387Y-25481921D01*
X35306443Y-25489773D01*
X35283834Y-25495437D01*
X35260779Y-25498856D01*
X35237500Y-25500000D01*
X34762500Y-25500000D01*
X34739221Y-25498856D01*
X34716166Y-25495437D01*
X34693557Y-25489773D01*
X34671613Y-25481921D01*
X34650543Y-25471956D01*
X34630552Y-25459974D01*
X34611832Y-25446090D01*
X34594562Y-25430438D01*
X34578910Y-25413168D01*
X34565026Y-25394448D01*
X34553044Y-25374457D01*
X34543079Y-25353387D01*
X34535227Y-25331443D01*
X34529563Y-25308834D01*
X34526144Y-25285779D01*
X34525000Y-25262500D01*
X34525000Y-24687500D01*
X34526144Y-24664221D01*
X34529563Y-24641166D01*
X34535227Y-24618557D01*
X34543079Y-24596613D01*
X34553044Y-24575543D01*
X34565026Y-24555552D01*
X34578910Y-24536832D01*
X34594562Y-24519562D01*
X34611832Y-24503910D01*
X34630552Y-24490026D01*
X34650543Y-24478044D01*
X34671613Y-24468079D01*
X34693557Y-24460227D01*
X34716166Y-24454563D01*
X34739221Y-24451144D01*
X34762500Y-24450000D01*
X35237500Y-24450000D01*
X35260779Y-24451144D01*
G37*
G36*
X37510779Y-26201144D02*
G01*
X37533834Y-26204563D01*
X37556443Y-26210227D01*
X37578387Y-26218079D01*
X37599457Y-26228044D01*
X37619448Y-26240026D01*
X37638168Y-26253910D01*
X37655438Y-26269562D01*
X37671090Y-26286832D01*
X37684974Y-26305552D01*
X37696956Y-26325543D01*
X37706921Y-26346613D01*
X37714773Y-26368557D01*
X37720437Y-26391166D01*
X37723856Y-26414221D01*
X37725000Y-26437500D01*
X37725000Y-27012500D01*
X37723856Y-27035779D01*
X37720437Y-27058834D01*
X37714773Y-27081443D01*
X37706921Y-27103387D01*
X37696956Y-27124457D01*
X37684974Y-27144448D01*
X37671090Y-27163168D01*
X37655438Y-27180438D01*
X37638168Y-27196090D01*
X37619448Y-27209974D01*
X37599457Y-27221956D01*
X37578387Y-27231921D01*
X37556443Y-27239773D01*
X37533834Y-27245437D01*
X37510779Y-27248856D01*
X37487500Y-27250000D01*
X37012500Y-27250000D01*
X36989221Y-27248856D01*
X36966166Y-27245437D01*
X36943557Y-27239773D01*
X36921613Y-27231921D01*
X36900543Y-27221956D01*
X36880552Y-27209974D01*
X36861832Y-27196090D01*
X36844562Y-27180438D01*
X36828910Y-27163168D01*
X36815026Y-27144448D01*
X36803044Y-27124457D01*
X36793079Y-27103387D01*
X36785227Y-27081443D01*
X36779563Y-27058834D01*
X36776144Y-27035779D01*
X36775000Y-27012500D01*
X36775000Y-26437500D01*
X36776144Y-26414221D01*
X36779563Y-26391166D01*
X36785227Y-26368557D01*
X36793079Y-26346613D01*
X36803044Y-26325543D01*
X36815026Y-26305552D01*
X36828910Y-26286832D01*
X36844562Y-26269562D01*
X36861832Y-26253910D01*
X36880552Y-26240026D01*
X36900543Y-26228044D01*
X36921613Y-26218079D01*
X36943557Y-26210227D01*
X36966166Y-26204563D01*
X36989221Y-26201144D01*
X37012500Y-26200000D01*
X37487500Y-26200000D01*
X37510779Y-26201144D01*
G37*
G36*
X37510779Y-24451144D02*
G01*
X37533834Y-24454563D01*
X37556443Y-24460227D01*
X37578387Y-24468079D01*
X37599457Y-24478044D01*
X37619448Y-24490026D01*
X37638168Y-24503910D01*
X37655438Y-24519562D01*
X37671090Y-24536832D01*
X37684974Y-24555552D01*
X37696956Y-24575543D01*
X37706921Y-24596613D01*
X37714773Y-24618557D01*
X37720437Y-24641166D01*
X37723856Y-24664221D01*
X37725000Y-24687500D01*
X37725000Y-25262500D01*
X37723856Y-25285779D01*
X37720437Y-25308834D01*
X37714773Y-25331443D01*
X37706921Y-25353387D01*
X37696956Y-25374457D01*
X37684974Y-25394448D01*
X37671090Y-25413168D01*
X37655438Y-25430438D01*
X37638168Y-25446090D01*
X37619448Y-25459974D01*
X37599457Y-25471956D01*
X37578387Y-25481921D01*
X37556443Y-25489773D01*
X37533834Y-25495437D01*
X37510779Y-25498856D01*
X37487500Y-25500000D01*
X37012500Y-25500000D01*
X36989221Y-25498856D01*
X36966166Y-25495437D01*
X36943557Y-25489773D01*
X36921613Y-25481921D01*
X36900543Y-25471956D01*
X36880552Y-25459974D01*
X36861832Y-25446090D01*
X36844562Y-25430438D01*
X36828910Y-25413168D01*
X36815026Y-25394448D01*
X36803044Y-25374457D01*
X36793079Y-25353387D01*
X36785227Y-25331443D01*
X36779563Y-25308834D01*
X36776144Y-25285779D01*
X36775000Y-25262500D01*
X36775000Y-24687500D01*
X36776144Y-24664221D01*
X36779563Y-24641166D01*
X36785227Y-24618557D01*
X36793079Y-24596613D01*
X36803044Y-24575543D01*
X36815026Y-24555552D01*
X36828910Y-24536832D01*
X36844562Y-24519562D01*
X36861832Y-24503910D01*
X36880552Y-24490026D01*
X36900543Y-24478044D01*
X36921613Y-24468079D01*
X36943557Y-24460227D01*
X36966166Y-24454563D01*
X36989221Y-24451144D01*
X37012500Y-24450000D01*
X37487500Y-24450000D01*
X37510779Y-24451144D01*
G37*
G36*
X39760779Y-26201144D02*
G01*
X39783834Y-26204563D01*
X39806443Y-26210227D01*
X39828387Y-26218079D01*
X39849457Y-26228044D01*
X39869448Y-26240026D01*
X39888168Y-26253910D01*
X39905438Y-26269562D01*
X39921090Y-26286832D01*
X39934974Y-26305552D01*
X39946956Y-26325543D01*
X39956921Y-26346613D01*
X39964773Y-26368557D01*
X39970437Y-26391166D01*
X39973856Y-26414221D01*
X39975000Y-26437500D01*
X39975000Y-27012500D01*
X39973856Y-27035779D01*
X39970437Y-27058834D01*
X39964773Y-27081443D01*
X39956921Y-27103387D01*
X39946956Y-27124457D01*
X39934974Y-27144448D01*
X39921090Y-27163168D01*
X39905438Y-27180438D01*
X39888168Y-27196090D01*
X39869448Y-27209974D01*
X39849457Y-27221956D01*
X39828387Y-27231921D01*
X39806443Y-27239773D01*
X39783834Y-27245437D01*
X39760779Y-27248856D01*
X39737500Y-27250000D01*
X39262500Y-27250000D01*
X39239221Y-27248856D01*
X39216166Y-27245437D01*
X39193557Y-27239773D01*
X39171613Y-27231921D01*
X39150543Y-27221956D01*
X39130552Y-27209974D01*
X39111832Y-27196090D01*
X39094562Y-27180438D01*
X39078910Y-27163168D01*
X39065026Y-27144448D01*
X39053044Y-27124457D01*
X39043079Y-27103387D01*
X39035227Y-27081443D01*
X39029563Y-27058834D01*
X39026144Y-27035779D01*
X39025000Y-27012500D01*
X39025000Y-26437500D01*
X39026144Y-26414221D01*
X39029563Y-26391166D01*
X39035227Y-26368557D01*
X39043079Y-26346613D01*
X39053044Y-26325543D01*
X39065026Y-26305552D01*
X39078910Y-26286832D01*
X39094562Y-26269562D01*
X39111832Y-26253910D01*
X39130552Y-26240026D01*
X39150543Y-26228044D01*
X39171613Y-26218079D01*
X39193557Y-26210227D01*
X39216166Y-26204563D01*
X39239221Y-26201144D01*
X39262500Y-26200000D01*
X39737500Y-26200000D01*
X39760779Y-26201144D01*
G37*
G36*
X39760779Y-24451144D02*
G01*
X39783834Y-24454563D01*
X39806443Y-24460227D01*
X39828387Y-24468079D01*
X39849457Y-24478044D01*
X39869448Y-24490026D01*
X39888168Y-24503910D01*
X39905438Y-24519562D01*
X39921090Y-24536832D01*
X39934974Y-24555552D01*
X39946956Y-24575543D01*
X39956921Y-24596613D01*
X39964773Y-24618557D01*
X39970437Y-24641166D01*
X39973856Y-24664221D01*
X39975000Y-24687500D01*
X39975000Y-25262500D01*
X39973856Y-25285779D01*
X39970437Y-25308834D01*
X39964773Y-25331443D01*
X39956921Y-25353387D01*
X39946956Y-25374457D01*
X39934974Y-25394448D01*
X39921090Y-25413168D01*
X39905438Y-25430438D01*
X39888168Y-25446090D01*
X39869448Y-25459974D01*
X39849457Y-25471956D01*
X39828387Y-25481921D01*
X39806443Y-25489773D01*
X39783834Y-25495437D01*
X39760779Y-25498856D01*
X39737500Y-25500000D01*
X39262500Y-25500000D01*
X39239221Y-25498856D01*
X39216166Y-25495437D01*
X39193557Y-25489773D01*
X39171613Y-25481921D01*
X39150543Y-25471956D01*
X39130552Y-25459974D01*
X39111832Y-25446090D01*
X39094562Y-25430438D01*
X39078910Y-25413168D01*
X39065026Y-25394448D01*
X39053044Y-25374457D01*
X39043079Y-25353387D01*
X39035227Y-25331443D01*
X39029563Y-25308834D01*
X39026144Y-25285779D01*
X39025000Y-25262500D01*
X39025000Y-24687500D01*
X39026144Y-24664221D01*
X39029563Y-24641166D01*
X39035227Y-24618557D01*
X39043079Y-24596613D01*
X39053044Y-24575543D01*
X39065026Y-24555552D01*
X39078910Y-24536832D01*
X39094562Y-24519562D01*
X39111832Y-24503910D01*
X39130552Y-24490026D01*
X39150543Y-24478044D01*
X39171613Y-24468079D01*
X39193557Y-24460227D01*
X39216166Y-24454563D01*
X39239221Y-24451144D01*
X39262500Y-24450000D01*
X39737500Y-24450000D01*
X39760779Y-24451144D01*
G37*
G36*
X66396958Y-36780710D02*
G01*
X66411276Y-36782834D01*
X66425317Y-36786351D01*
X66438946Y-36791228D01*
X66452031Y-36797417D01*
X66464447Y-36804858D01*
X66476073Y-36813481D01*
X66486798Y-36823202D01*
X66496519Y-36833927D01*
X66505142Y-36845553D01*
X66512583Y-36857969D01*
X66518772Y-36871054D01*
X66523649Y-36884683D01*
X66527166Y-36898724D01*
X66529290Y-36913042D01*
X66530000Y-36927500D01*
X66530000Y-37272500D01*
X66529290Y-37286958D01*
X66527166Y-37301276D01*
X66523649Y-37315317D01*
X66518772Y-37328946D01*
X66512583Y-37342031D01*
X66505142Y-37354447D01*
X66496519Y-37366073D01*
X66486798Y-37376798D01*
X66476073Y-37386519D01*
X66464447Y-37395142D01*
X66452031Y-37402583D01*
X66438946Y-37408772D01*
X66425317Y-37413649D01*
X66411276Y-37417166D01*
X66396958Y-37419290D01*
X66382500Y-37420000D01*
X66087500Y-37420000D01*
X66073042Y-37419290D01*
X66058724Y-37417166D01*
X66044683Y-37413649D01*
X66031054Y-37408772D01*
X66017969Y-37402583D01*
X66005553Y-37395142D01*
X65993927Y-37386519D01*
X65983202Y-37376798D01*
X65973481Y-37366073D01*
X65964858Y-37354447D01*
X65957417Y-37342031D01*
X65951228Y-37328946D01*
X65946351Y-37315317D01*
X65942834Y-37301276D01*
X65940710Y-37286958D01*
X65940000Y-37272500D01*
X65940000Y-36927500D01*
X65940710Y-36913042D01*
X65942834Y-36898724D01*
X65946351Y-36884683D01*
X65951228Y-36871054D01*
X65957417Y-36857969D01*
X65964858Y-36845553D01*
X65973481Y-36833927D01*
X65983202Y-36823202D01*
X65993927Y-36813481D01*
X66005553Y-36804858D01*
X66017969Y-36797417D01*
X66031054Y-36791228D01*
X66044683Y-36786351D01*
X66058724Y-36782834D01*
X66073042Y-36780710D01*
X66087500Y-36780000D01*
X66382500Y-36780000D01*
X66396958Y-36780710D01*
G37*
G36*
X65426958Y-36780710D02*
G01*
X65441276Y-36782834D01*
X65455317Y-36786351D01*
X65468946Y-36791228D01*
X65482031Y-36797417D01*
X65494447Y-36804858D01*
X65506073Y-36813481D01*
X65516798Y-36823202D01*
X65526519Y-36833927D01*
X65535142Y-36845553D01*
X65542583Y-36857969D01*
X65548772Y-36871054D01*
X65553649Y-36884683D01*
X65557166Y-36898724D01*
X65559290Y-36913042D01*
X65560000Y-36927500D01*
X65560000Y-37272500D01*
X65559290Y-37286958D01*
X65557166Y-37301276D01*
X65553649Y-37315317D01*
X65548772Y-37328946D01*
X65542583Y-37342031D01*
X65535142Y-37354447D01*
X65526519Y-37366073D01*
X65516798Y-37376798D01*
X65506073Y-37386519D01*
X65494447Y-37395142D01*
X65482031Y-37402583D01*
X65468946Y-37408772D01*
X65455317Y-37413649D01*
X65441276Y-37417166D01*
X65426958Y-37419290D01*
X65412500Y-37420000D01*
X65117500Y-37420000D01*
X65103042Y-37419290D01*
X65088724Y-37417166D01*
X65074683Y-37413649D01*
X65061054Y-37408772D01*
X65047969Y-37402583D01*
X65035553Y-37395142D01*
X65023927Y-37386519D01*
X65013202Y-37376798D01*
X65003481Y-37366073D01*
X64994858Y-37354447D01*
X64987417Y-37342031D01*
X64981228Y-37328946D01*
X64976351Y-37315317D01*
X64972834Y-37301276D01*
X64970710Y-37286958D01*
X64970000Y-37272500D01*
X64970000Y-36927500D01*
X64970710Y-36913042D01*
X64972834Y-36898724D01*
X64976351Y-36884683D01*
X64981228Y-36871054D01*
X64987417Y-36857969D01*
X64994858Y-36845553D01*
X65003481Y-36833927D01*
X65013202Y-36823202D01*
X65023927Y-36813481D01*
X65035553Y-36804858D01*
X65047969Y-36797417D01*
X65061054Y-36791228D01*
X65074683Y-36786351D01*
X65088724Y-36782834D01*
X65103042Y-36780710D01*
X65117500Y-36780000D01*
X65412500Y-36780000D01*
X65426958Y-36780710D01*
G37*
G36*
X70899504Y-36976204D02*
G01*
X70923773Y-36979804D01*
X70947571Y-36985765D01*
X70970671Y-36994030D01*
X70992849Y-37004520D01*
X71013893Y-37017133D01*
X71033598Y-37031747D01*
X71051777Y-37048223D01*
X71068253Y-37066402D01*
X71082867Y-37086107D01*
X71095480Y-37107151D01*
X71105970Y-37129329D01*
X71114235Y-37152429D01*
X71120196Y-37176227D01*
X71123796Y-37200496D01*
X71125000Y-37225000D01*
X71125000Y-37975000D01*
X71123796Y-37999504D01*
X71120196Y-38023773D01*
X71114235Y-38047571D01*
X71105970Y-38070671D01*
X71095480Y-38092849D01*
X71082867Y-38113893D01*
X71068253Y-38133598D01*
X71051777Y-38151777D01*
X71033598Y-38168253D01*
X71013893Y-38182867D01*
X70992849Y-38195480D01*
X70970671Y-38205970D01*
X70947571Y-38214235D01*
X70923773Y-38220196D01*
X70899504Y-38223796D01*
X70875000Y-38225000D01*
X69625000Y-38225000D01*
X69600496Y-38223796D01*
X69576227Y-38220196D01*
X69552429Y-38214235D01*
X69529329Y-38205970D01*
X69507151Y-38195480D01*
X69486107Y-38182867D01*
X69466402Y-38168253D01*
X69448223Y-38151777D01*
X69431747Y-38133598D01*
X69417133Y-38113893D01*
X69404520Y-38092849D01*
X69394030Y-38070671D01*
X69385765Y-38047571D01*
X69379804Y-38023773D01*
X69376204Y-37999504D01*
X69375000Y-37975000D01*
X69375000Y-37225000D01*
X69376204Y-37200496D01*
X69379804Y-37176227D01*
X69385765Y-37152429D01*
X69394030Y-37129329D01*
X69404520Y-37107151D01*
X69417133Y-37086107D01*
X69431747Y-37066402D01*
X69448223Y-37048223D01*
X69466402Y-37031747D01*
X69486107Y-37017133D01*
X69507151Y-37004520D01*
X69529329Y-36994030D01*
X69552429Y-36985765D01*
X69576227Y-36979804D01*
X69600496Y-36976204D01*
X69625000Y-36975000D01*
X70875000Y-36975000D01*
X70899504Y-36976204D01*
G37*
G36*
X70899504Y-39776204D02*
G01*
X70923773Y-39779804D01*
X70947571Y-39785765D01*
X70970671Y-39794030D01*
X70992849Y-39804520D01*
X71013893Y-39817133D01*
X71033598Y-39831747D01*
X71051777Y-39848223D01*
X71068253Y-39866402D01*
X71082867Y-39886107D01*
X71095480Y-39907151D01*
X71105970Y-39929329D01*
X71114235Y-39952429D01*
X71120196Y-39976227D01*
X71123796Y-40000496D01*
X71125000Y-40025000D01*
X71125000Y-40775000D01*
X71123796Y-40799504D01*
X71120196Y-40823773D01*
X71114235Y-40847571D01*
X71105970Y-40870671D01*
X71095480Y-40892849D01*
X71082867Y-40913893D01*
X71068253Y-40933598D01*
X71051777Y-40951777D01*
X71033598Y-40968253D01*
X71013893Y-40982867D01*
X70992849Y-40995480D01*
X70970671Y-41005970D01*
X70947571Y-41014235D01*
X70923773Y-41020196D01*
X70899504Y-41023796D01*
X70875000Y-41025000D01*
X69625000Y-41025000D01*
X69600496Y-41023796D01*
X69576227Y-41020196D01*
X69552429Y-41014235D01*
X69529329Y-41005970D01*
X69507151Y-40995480D01*
X69486107Y-40982867D01*
X69466402Y-40968253D01*
X69448223Y-40951777D01*
X69431747Y-40933598D01*
X69417133Y-40913893D01*
X69404520Y-40892849D01*
X69394030Y-40870671D01*
X69385765Y-40847571D01*
X69379804Y-40823773D01*
X69376204Y-40799504D01*
X69375000Y-40775000D01*
X69375000Y-40025000D01*
X69376204Y-40000496D01*
X69379804Y-39976227D01*
X69385765Y-39952429D01*
X69394030Y-39929329D01*
X69404520Y-39907151D01*
X69417133Y-39886107D01*
X69431747Y-39866402D01*
X69448223Y-39848223D01*
X69466402Y-39831747D01*
X69486107Y-39817133D01*
X69507151Y-39804520D01*
X69529329Y-39794030D01*
X69552429Y-39785765D01*
X69576227Y-39779804D01*
X69600496Y-39776204D01*
X69625000Y-39775000D01*
X70875000Y-39775000D01*
X70899504Y-39776204D01*
G37*
G36*
X63646958Y-36780710D02*
G01*
X63661276Y-36782834D01*
X63675317Y-36786351D01*
X63688946Y-36791228D01*
X63702031Y-36797417D01*
X63714447Y-36804858D01*
X63726073Y-36813481D01*
X63736798Y-36823202D01*
X63746519Y-36833927D01*
X63755142Y-36845553D01*
X63762583Y-36857969D01*
X63768772Y-36871054D01*
X63773649Y-36884683D01*
X63777166Y-36898724D01*
X63779290Y-36913042D01*
X63780000Y-36927500D01*
X63780000Y-37272500D01*
X63779290Y-37286958D01*
X63777166Y-37301276D01*
X63773649Y-37315317D01*
X63768772Y-37328946D01*
X63762583Y-37342031D01*
X63755142Y-37354447D01*
X63746519Y-37366073D01*
X63736798Y-37376798D01*
X63726073Y-37386519D01*
X63714447Y-37395142D01*
X63702031Y-37402583D01*
X63688946Y-37408772D01*
X63675317Y-37413649D01*
X63661276Y-37417166D01*
X63646958Y-37419290D01*
X63632500Y-37420000D01*
X63337500Y-37420000D01*
X63323042Y-37419290D01*
X63308724Y-37417166D01*
X63294683Y-37413649D01*
X63281054Y-37408772D01*
X63267969Y-37402583D01*
X63255553Y-37395142D01*
X63243927Y-37386519D01*
X63233202Y-37376798D01*
X63223481Y-37366073D01*
X63214858Y-37354447D01*
X63207417Y-37342031D01*
X63201228Y-37328946D01*
X63196351Y-37315317D01*
X63192834Y-37301276D01*
X63190710Y-37286958D01*
X63190000Y-37272500D01*
X63190000Y-36927500D01*
X63190710Y-36913042D01*
X63192834Y-36898724D01*
X63196351Y-36884683D01*
X63201228Y-36871054D01*
X63207417Y-36857969D01*
X63214858Y-36845553D01*
X63223481Y-36833927D01*
X63233202Y-36823202D01*
X63243927Y-36813481D01*
X63255553Y-36804858D01*
X63267969Y-36797417D01*
X63281054Y-36791228D01*
X63294683Y-36786351D01*
X63308724Y-36782834D01*
X63323042Y-36780710D01*
X63337500Y-36780000D01*
X63632500Y-36780000D01*
X63646958Y-36780710D01*
G37*
G36*
X62676958Y-36780710D02*
G01*
X62691276Y-36782834D01*
X62705317Y-36786351D01*
X62718946Y-36791228D01*
X62732031Y-36797417D01*
X62744447Y-36804858D01*
X62756073Y-36813481D01*
X62766798Y-36823202D01*
X62776519Y-36833927D01*
X62785142Y-36845553D01*
X62792583Y-36857969D01*
X62798772Y-36871054D01*
X62803649Y-36884683D01*
X62807166Y-36898724D01*
X62809290Y-36913042D01*
X62810000Y-36927500D01*
X62810000Y-37272500D01*
X62809290Y-37286958D01*
X62807166Y-37301276D01*
X62803649Y-37315317D01*
X62798772Y-37328946D01*
X62792583Y-37342031D01*
X62785142Y-37354447D01*
X62776519Y-37366073D01*
X62766798Y-37376798D01*
X62756073Y-37386519D01*
X62744447Y-37395142D01*
X62732031Y-37402583D01*
X62718946Y-37408772D01*
X62705317Y-37413649D01*
X62691276Y-37417166D01*
X62676958Y-37419290D01*
X62662500Y-37420000D01*
X62367500Y-37420000D01*
X62353042Y-37419290D01*
X62338724Y-37417166D01*
X62324683Y-37413649D01*
X62311054Y-37408772D01*
X62297969Y-37402583D01*
X62285553Y-37395142D01*
X62273927Y-37386519D01*
X62263202Y-37376798D01*
X62253481Y-37366073D01*
X62244858Y-37354447D01*
X62237417Y-37342031D01*
X62231228Y-37328946D01*
X62226351Y-37315317D01*
X62222834Y-37301276D01*
X62220710Y-37286958D01*
X62220000Y-37272500D01*
X62220000Y-36927500D01*
X62220710Y-36913042D01*
X62222834Y-36898724D01*
X62226351Y-36884683D01*
X62231228Y-36871054D01*
X62237417Y-36857969D01*
X62244858Y-36845553D01*
X62253481Y-36833927D01*
X62263202Y-36823202D01*
X62273927Y-36813481D01*
X62285553Y-36804858D01*
X62297969Y-36797417D01*
X62311054Y-36791228D01*
X62324683Y-36786351D01*
X62338724Y-36782834D01*
X62353042Y-36780710D01*
X62367500Y-36780000D01*
X62662500Y-36780000D01*
X62676958Y-36780710D01*
G37*
G36*
X74399504Y-34401204D02*
G01*
X74423773Y-34404804D01*
X74447571Y-34410765D01*
X74470671Y-34419030D01*
X74492849Y-34429520D01*
X74513893Y-34442133D01*
X74533598Y-34456747D01*
X74551777Y-34473223D01*
X74568253Y-34491402D01*
X74582867Y-34511107D01*
X74595480Y-34532151D01*
X74605970Y-34554329D01*
X74614235Y-34577429D01*
X74620196Y-34601227D01*
X74623796Y-34625496D01*
X74625000Y-34650000D01*
X74625000Y-35400000D01*
X74623796Y-35424504D01*
X74620196Y-35448773D01*
X74614235Y-35472571D01*
X74605970Y-35495671D01*
X74595480Y-35517849D01*
X74582867Y-35538893D01*
X74568253Y-35558598D01*
X74551777Y-35576777D01*
X74533598Y-35593253D01*
X74513893Y-35607867D01*
X74492849Y-35620480D01*
X74470671Y-35630970D01*
X74447571Y-35639235D01*
X74423773Y-35645196D01*
X74399504Y-35648796D01*
X74375000Y-35650000D01*
X73125000Y-35650000D01*
X73100496Y-35648796D01*
X73076227Y-35645196D01*
X73052429Y-35639235D01*
X73029329Y-35630970D01*
X73007151Y-35620480D01*
X72986107Y-35607867D01*
X72966402Y-35593253D01*
X72948223Y-35576777D01*
X72931747Y-35558598D01*
X72917133Y-35538893D01*
X72904520Y-35517849D01*
X72894030Y-35495671D01*
X72885765Y-35472571D01*
X72879804Y-35448773D01*
X72876204Y-35424504D01*
X72875000Y-35400000D01*
X72875000Y-34650000D01*
X72876204Y-34625496D01*
X72879804Y-34601227D01*
X72885765Y-34577429D01*
X72894030Y-34554329D01*
X72904520Y-34532151D01*
X72917133Y-34511107D01*
X72931747Y-34491402D01*
X72948223Y-34473223D01*
X72966402Y-34456747D01*
X72986107Y-34442133D01*
X73007151Y-34429520D01*
X73029329Y-34419030D01*
X73052429Y-34410765D01*
X73076227Y-34404804D01*
X73100496Y-34401204D01*
X73125000Y-34400000D01*
X74375000Y-34400000D01*
X74399504Y-34401204D01*
G37*
G36*
X74399504Y-31601204D02*
G01*
X74423773Y-31604804D01*
X74447571Y-31610765D01*
X74470671Y-31619030D01*
X74492849Y-31629520D01*
X74513893Y-31642133D01*
X74533598Y-31656747D01*
X74551777Y-31673223D01*
X74568253Y-31691402D01*
X74582867Y-31711107D01*
X74595480Y-31732151D01*
X74605970Y-31754329D01*
X74614235Y-31777429D01*
X74620196Y-31801227D01*
X74623796Y-31825496D01*
X74625000Y-31850000D01*
X74625000Y-32600000D01*
X74623796Y-32624504D01*
X74620196Y-32648773D01*
X74614235Y-32672571D01*
X74605970Y-32695671D01*
X74595480Y-32717849D01*
X74582867Y-32738893D01*
X74568253Y-32758598D01*
X74551777Y-32776777D01*
X74533598Y-32793253D01*
X74513893Y-32807867D01*
X74492849Y-32820480D01*
X74470671Y-32830970D01*
X74447571Y-32839235D01*
X74423773Y-32845196D01*
X74399504Y-32848796D01*
X74375000Y-32850000D01*
X73125000Y-32850000D01*
X73100496Y-32848796D01*
X73076227Y-32845196D01*
X73052429Y-32839235D01*
X73029329Y-32830970D01*
X73007151Y-32820480D01*
X72986107Y-32807867D01*
X72966402Y-32793253D01*
X72948223Y-32776777D01*
X72931747Y-32758598D01*
X72917133Y-32738893D01*
X72904520Y-32717849D01*
X72894030Y-32695671D01*
X72885765Y-32672571D01*
X72879804Y-32648773D01*
X72876204Y-32624504D01*
X72875000Y-32600000D01*
X72875000Y-31850000D01*
X72876204Y-31825496D01*
X72879804Y-31801227D01*
X72885765Y-31777429D01*
X72894030Y-31754329D01*
X72904520Y-31732151D01*
X72917133Y-31711107D01*
X72931747Y-31691402D01*
X72948223Y-31673223D01*
X72966402Y-31656747D01*
X72986107Y-31642133D01*
X73007151Y-31629520D01*
X73029329Y-31619030D01*
X73052429Y-31610765D01*
X73076227Y-31604804D01*
X73100496Y-31601204D01*
X73125000Y-31600000D01*
X74375000Y-31600000D01*
X74399504Y-31601204D01*
G37*
D11*
X42500000Y-21250000D03*
X45000000Y-21250000D03*
X42500000Y-23500000D03*
X45000000Y-23500000D03*
X42500000Y-25750000D03*
X45000000Y-25750000D03*
D12*
X39150000Y-19600000D03*
X23850000Y-19600000D03*
D13*
X25750000Y-22850000D03*
X26250000Y-22850000D03*
X26750000Y-22850000D03*
X27250000Y-22850000D03*
X27750000Y-22850000D03*
X28250000Y-22850000D03*
X28750000Y-22850000D03*
X29250000Y-22850000D03*
X29750000Y-22850000D03*
X30250000Y-22850000D03*
X30750000Y-22850000D03*
X31250000Y-22850000D03*
X31750000Y-22850000D03*
X32250000Y-22850000D03*
X32750000Y-22850000D03*
X33250000Y-22850000D03*
X33750000Y-22850000D03*
X34250000Y-22850000D03*
X34750000Y-22850000D03*
X35250000Y-22850000D03*
X35750000Y-22850000D03*
X36250000Y-22850000D03*
X36750000Y-22850000D03*
X37250000Y-22850000D03*
D14*
X75700000Y-27450000D03*
X75700000Y-28100000D03*
X75700000Y-28750000D03*
X75700000Y-29400000D03*
X75700000Y-30050000D03*
D10*
G36*
X38527691Y-36776053D02*
G01*
X38548926Y-36779203D01*
X38569750Y-36784419D01*
X38589962Y-36791651D01*
X38609368Y-36800830D01*
X38627781Y-36811866D01*
X38645024Y-36824654D01*
X38660930Y-36839070D01*
X38675346Y-36854976D01*
X38688134Y-36872219D01*
X38699170Y-36890632D01*
X38708349Y-36910038D01*
X38715581Y-36930250D01*
X38720797Y-36951074D01*
X38723947Y-36972309D01*
X38725000Y-36993750D01*
X38725000Y-37506250D01*
X38723947Y-37527691D01*
X38720797Y-37548926D01*
X38715581Y-37569750D01*
X38708349Y-37589962D01*
X38699170Y-37609368D01*
X38688134Y-37627781D01*
X38675346Y-37645024D01*
X38660930Y-37660930D01*
X38645024Y-37675346D01*
X38627781Y-37688134D01*
X38609368Y-37699170D01*
X38589962Y-37708349D01*
X38569750Y-37715581D01*
X38548926Y-37720797D01*
X38527691Y-37723947D01*
X38506250Y-37725000D01*
X38068750Y-37725000D01*
X38047309Y-37723947D01*
X38026074Y-37720797D01*
X38005250Y-37715581D01*
X37985038Y-37708349D01*
X37965632Y-37699170D01*
X37947219Y-37688134D01*
X37929976Y-37675346D01*
X37914070Y-37660930D01*
X37899654Y-37645024D01*
X37886866Y-37627781D01*
X37875830Y-37609368D01*
X37866651Y-37589962D01*
X37859419Y-37569750D01*
X37854203Y-37548926D01*
X37851053Y-37527691D01*
X37850000Y-37506250D01*
X37850000Y-36993750D01*
X37851053Y-36972309D01*
X37854203Y-36951074D01*
X37859419Y-36930250D01*
X37866651Y-36910038D01*
X37875830Y-36890632D01*
X37886866Y-36872219D01*
X37899654Y-36854976D01*
X37914070Y-36839070D01*
X37929976Y-36824654D01*
X37947219Y-36811866D01*
X37965632Y-36800830D01*
X37985038Y-36791651D01*
X38005250Y-36784419D01*
X38026074Y-36779203D01*
X38047309Y-36776053D01*
X38068750Y-36775000D01*
X38506250Y-36775000D01*
X38527691Y-36776053D01*
G37*
G36*
X36952691Y-36776053D02*
G01*
X36973926Y-36779203D01*
X36994750Y-36784419D01*
X37014962Y-36791651D01*
X37034368Y-36800830D01*
X37052781Y-36811866D01*
X37070024Y-36824654D01*
X37085930Y-36839070D01*
X37100346Y-36854976D01*
X37113134Y-36872219D01*
X37124170Y-36890632D01*
X37133349Y-36910038D01*
X37140581Y-36930250D01*
X37145797Y-36951074D01*
X37148947Y-36972309D01*
X37150000Y-36993750D01*
X37150000Y-37506250D01*
X37148947Y-37527691D01*
X37145797Y-37548926D01*
X37140581Y-37569750D01*
X37133349Y-37589962D01*
X37124170Y-37609368D01*
X37113134Y-37627781D01*
X37100346Y-37645024D01*
X37085930Y-37660930D01*
X37070024Y-37675346D01*
X37052781Y-37688134D01*
X37034368Y-37699170D01*
X37014962Y-37708349D01*
X36994750Y-37715581D01*
X36973926Y-37720797D01*
X36952691Y-37723947D01*
X36931250Y-37725000D01*
X36493750Y-37725000D01*
X36472309Y-37723947D01*
X36451074Y-37720797D01*
X36430250Y-37715581D01*
X36410038Y-37708349D01*
X36390632Y-37699170D01*
X36372219Y-37688134D01*
X36354976Y-37675346D01*
X36339070Y-37660930D01*
X36324654Y-37645024D01*
X36311866Y-37627781D01*
X36300830Y-37609368D01*
X36291651Y-37589962D01*
X36284419Y-37569750D01*
X36279203Y-37548926D01*
X36276053Y-37527691D01*
X36275000Y-37506250D01*
X36275000Y-36993750D01*
X36276053Y-36972309D01*
X36279203Y-36951074D01*
X36284419Y-36930250D01*
X36291651Y-36910038D01*
X36300830Y-36890632D01*
X36311866Y-36872219D01*
X36324654Y-36854976D01*
X36339070Y-36839070D01*
X36354976Y-36824654D01*
X36372219Y-36811866D01*
X36390632Y-36800830D01*
X36410038Y-36791651D01*
X36430250Y-36784419D01*
X36451074Y-36779203D01*
X36472309Y-36776053D01*
X36493750Y-36775000D01*
X36931250Y-36775000D01*
X36952691Y-36776053D01*
G37*
D15*
X36550000Y-35500000D03*
X38450000Y-35500000D03*
D16*
X48500000Y-14800000D03*
X48500000Y-17200000D03*
D17*
X71525000Y-19975000D03*
X71525000Y-18075000D03*
X73525000Y-19025000D03*
D18*
X42800000Y-15000000D03*
X44700000Y-15000000D03*
X43750000Y-17000000D03*
D17*
X74500000Y-39000000D03*
X72500000Y-38050000D03*
X72500000Y-39950000D03*
D10*
G36*
X71935779Y-22026144D02*
G01*
X71958834Y-22029563D01*
X71981443Y-22035227D01*
X72003387Y-22043079D01*
X72024457Y-22053044D01*
X72044448Y-22065026D01*
X72063168Y-22078910D01*
X72080438Y-22094562D01*
X72096090Y-22111832D01*
X72109974Y-22130552D01*
X72121956Y-22150543D01*
X72131921Y-22171613D01*
X72139773Y-22193557D01*
X72145437Y-22216166D01*
X72148856Y-22239221D01*
X72150000Y-22262500D01*
X72150000Y-22737500D01*
X72148856Y-22760779D01*
X72145437Y-22783834D01*
X72139773Y-22806443D01*
X72131921Y-22828387D01*
X72121956Y-22849457D01*
X72109974Y-22869448D01*
X72096090Y-22888168D01*
X72080438Y-22905438D01*
X72063168Y-22921090D01*
X72044448Y-22934974D01*
X72024457Y-22946956D01*
X72003387Y-22956921D01*
X71981443Y-22964773D01*
X71958834Y-22970437D01*
X71935779Y-22973856D01*
X71912500Y-22975000D01*
X71337500Y-22975000D01*
X71314221Y-22973856D01*
X71291166Y-22970437D01*
X71268557Y-22964773D01*
X71246613Y-22956921D01*
X71225543Y-22946956D01*
X71205552Y-22934974D01*
X71186832Y-22921090D01*
X71169562Y-22905438D01*
X71153910Y-22888168D01*
X71140026Y-22869448D01*
X71128044Y-22849457D01*
X71118079Y-22828387D01*
X71110227Y-22806443D01*
X71104563Y-22783834D01*
X71101144Y-22760779D01*
X71100000Y-22737500D01*
X71100000Y-22262500D01*
X71101144Y-22239221D01*
X71104563Y-22216166D01*
X71110227Y-22193557D01*
X71118079Y-22171613D01*
X71128044Y-22150543D01*
X71140026Y-22130552D01*
X71153910Y-22111832D01*
X71169562Y-22094562D01*
X71186832Y-22078910D01*
X71205552Y-22065026D01*
X71225543Y-22053044D01*
X71246613Y-22043079D01*
X71268557Y-22035227D01*
X71291166Y-22029563D01*
X71314221Y-22026144D01*
X71337500Y-22025000D01*
X71912500Y-22025000D01*
X71935779Y-22026144D01*
G37*
G36*
X73685779Y-22026144D02*
G01*
X73708834Y-22029563D01*
X73731443Y-22035227D01*
X73753387Y-22043079D01*
X73774457Y-22053044D01*
X73794448Y-22065026D01*
X73813168Y-22078910D01*
X73830438Y-22094562D01*
X73846090Y-22111832D01*
X73859974Y-22130552D01*
X73871956Y-22150543D01*
X73881921Y-22171613D01*
X73889773Y-22193557D01*
X73895437Y-22216166D01*
X73898856Y-22239221D01*
X73900000Y-22262500D01*
X73900000Y-22737500D01*
X73898856Y-22760779D01*
X73895437Y-22783834D01*
X73889773Y-22806443D01*
X73881921Y-22828387D01*
X73871956Y-22849457D01*
X73859974Y-22869448D01*
X73846090Y-22888168D01*
X73830438Y-22905438D01*
X73813168Y-22921090D01*
X73794448Y-22934974D01*
X73774457Y-22946956D01*
X73753387Y-22956921D01*
X73731443Y-22964773D01*
X73708834Y-22970437D01*
X73685779Y-22973856D01*
X73662500Y-22975000D01*
X73087500Y-22975000D01*
X73064221Y-22973856D01*
X73041166Y-22970437D01*
X73018557Y-22964773D01*
X72996613Y-22956921D01*
X72975543Y-22946956D01*
X72955552Y-22934974D01*
X72936832Y-22921090D01*
X72919562Y-22905438D01*
X72903910Y-22888168D01*
X72890026Y-22869448D01*
X72878044Y-22849457D01*
X72868079Y-22828387D01*
X72860227Y-22806443D01*
X72854563Y-22783834D01*
X72851144Y-22760779D01*
X72850000Y-22737500D01*
X72850000Y-22262500D01*
X72851144Y-22239221D01*
X72854563Y-22216166D01*
X72860227Y-22193557D01*
X72868079Y-22171613D01*
X72878044Y-22150543D01*
X72890026Y-22130552D01*
X72903910Y-22111832D01*
X72919562Y-22094562D01*
X72936832Y-22078910D01*
X72955552Y-22065026D01*
X72975543Y-22053044D01*
X72996613Y-22043079D01*
X73018557Y-22035227D01*
X73041166Y-22029563D01*
X73064221Y-22026144D01*
X73087500Y-22025000D01*
X73662500Y-22025000D01*
X73685779Y-22026144D01*
G37*
G36*
X64185779Y-24526144D02*
G01*
X64208834Y-24529563D01*
X64231443Y-24535227D01*
X64253387Y-24543079D01*
X64274457Y-24553044D01*
X64294448Y-24565026D01*
X64313168Y-24578910D01*
X64330438Y-24594562D01*
X64346090Y-24611832D01*
X64359974Y-24630552D01*
X64371956Y-24650543D01*
X64381921Y-24671613D01*
X64389773Y-24693557D01*
X64395437Y-24716166D01*
X64398856Y-24739221D01*
X64400000Y-24762500D01*
X64400000Y-25237500D01*
X64398856Y-25260779D01*
X64395437Y-25283834D01*
X64389773Y-25306443D01*
X64381921Y-25328387D01*
X64371956Y-25349457D01*
X64359974Y-25369448D01*
X64346090Y-25388168D01*
X64330438Y-25405438D01*
X64313168Y-25421090D01*
X64294448Y-25434974D01*
X64274457Y-25446956D01*
X64253387Y-25456921D01*
X64231443Y-25464773D01*
X64208834Y-25470437D01*
X64185779Y-25473856D01*
X64162500Y-25475000D01*
X63587500Y-25475000D01*
X63564221Y-25473856D01*
X63541166Y-25470437D01*
X63518557Y-25464773D01*
X63496613Y-25456921D01*
X63475543Y-25446956D01*
X63455552Y-25434974D01*
X63436832Y-25421090D01*
X63419562Y-25405438D01*
X63403910Y-25388168D01*
X63390026Y-25369448D01*
X63378044Y-25349457D01*
X63368079Y-25328387D01*
X63360227Y-25306443D01*
X63354563Y-25283834D01*
X63351144Y-25260779D01*
X63350000Y-25237500D01*
X63350000Y-24762500D01*
X63351144Y-24739221D01*
X63354563Y-24716166D01*
X63360227Y-24693557D01*
X63368079Y-24671613D01*
X63378044Y-24650543D01*
X63390026Y-24630552D01*
X63403910Y-24611832D01*
X63419562Y-24594562D01*
X63436832Y-24578910D01*
X63455552Y-24565026D01*
X63475543Y-24553044D01*
X63496613Y-24543079D01*
X63518557Y-24535227D01*
X63541166Y-24529563D01*
X63564221Y-24526144D01*
X63587500Y-24525000D01*
X64162500Y-24525000D01*
X64185779Y-24526144D01*
G37*
G36*
X62435779Y-24526144D02*
G01*
X62458834Y-24529563D01*
X62481443Y-24535227D01*
X62503387Y-24543079D01*
X62524457Y-24553044D01*
X62544448Y-24565026D01*
X62563168Y-24578910D01*
X62580438Y-24594562D01*
X62596090Y-24611832D01*
X62609974Y-24630552D01*
X62621956Y-24650543D01*
X62631921Y-24671613D01*
X62639773Y-24693557D01*
X62645437Y-24716166D01*
X62648856Y-24739221D01*
X62650000Y-24762500D01*
X62650000Y-25237500D01*
X62648856Y-25260779D01*
X62645437Y-25283834D01*
X62639773Y-25306443D01*
X62631921Y-25328387D01*
X62621956Y-25349457D01*
X62609974Y-25369448D01*
X62596090Y-25388168D01*
X62580438Y-25405438D01*
X62563168Y-25421090D01*
X62544448Y-25434974D01*
X62524457Y-25446956D01*
X62503387Y-25456921D01*
X62481443Y-25464773D01*
X62458834Y-25470437D01*
X62435779Y-25473856D01*
X62412500Y-25475000D01*
X61837500Y-25475000D01*
X61814221Y-25473856D01*
X61791166Y-25470437D01*
X61768557Y-25464773D01*
X61746613Y-25456921D01*
X61725543Y-25446956D01*
X61705552Y-25434974D01*
X61686832Y-25421090D01*
X61669562Y-25405438D01*
X61653910Y-25388168D01*
X61640026Y-25369448D01*
X61628044Y-25349457D01*
X61618079Y-25328387D01*
X61610227Y-25306443D01*
X61604563Y-25283834D01*
X61601144Y-25260779D01*
X61600000Y-25237500D01*
X61600000Y-24762500D01*
X61601144Y-24739221D01*
X61604563Y-24716166D01*
X61610227Y-24693557D01*
X61618079Y-24671613D01*
X61628044Y-24650543D01*
X61640026Y-24630552D01*
X61653910Y-24611832D01*
X61669562Y-24594562D01*
X61686832Y-24578910D01*
X61705552Y-24565026D01*
X61725543Y-24553044D01*
X61746613Y-24543079D01*
X61768557Y-24535227D01*
X61791166Y-24529563D01*
X61814221Y-24526144D01*
X61837500Y-24525000D01*
X62412500Y-24525000D01*
X62435779Y-24526144D01*
G37*
G36*
X64185779Y-20526144D02*
G01*
X64208834Y-20529563D01*
X64231443Y-20535227D01*
X64253387Y-20543079D01*
X64274457Y-20553044D01*
X64294448Y-20565026D01*
X64313168Y-20578910D01*
X64330438Y-20594562D01*
X64346090Y-20611832D01*
X64359974Y-20630552D01*
X64371956Y-20650543D01*
X64381921Y-20671613D01*
X64389773Y-20693557D01*
X64395437Y-20716166D01*
X64398856Y-20739221D01*
X64400000Y-20762500D01*
X64400000Y-21237500D01*
X64398856Y-21260779D01*
X64395437Y-21283834D01*
X64389773Y-21306443D01*
X64381921Y-21328387D01*
X64371956Y-21349457D01*
X64359974Y-21369448D01*
X64346090Y-21388168D01*
X64330438Y-21405438D01*
X64313168Y-21421090D01*
X64294448Y-21434974D01*
X64274457Y-21446956D01*
X64253387Y-21456921D01*
X64231443Y-21464773D01*
X64208834Y-21470437D01*
X64185779Y-21473856D01*
X64162500Y-21475000D01*
X63587500Y-21475000D01*
X63564221Y-21473856D01*
X63541166Y-21470437D01*
X63518557Y-21464773D01*
X63496613Y-21456921D01*
X63475543Y-21446956D01*
X63455552Y-21434974D01*
X63436832Y-21421090D01*
X63419562Y-21405438D01*
X63403910Y-21388168D01*
X63390026Y-21369448D01*
X63378044Y-21349457D01*
X63368079Y-21328387D01*
X63360227Y-21306443D01*
X63354563Y-21283834D01*
X63351144Y-21260779D01*
X63350000Y-21237500D01*
X63350000Y-20762500D01*
X63351144Y-20739221D01*
X63354563Y-20716166D01*
X63360227Y-20693557D01*
X63368079Y-20671613D01*
X63378044Y-20650543D01*
X63390026Y-20630552D01*
X63403910Y-20611832D01*
X63419562Y-20594562D01*
X63436832Y-20578910D01*
X63455552Y-20565026D01*
X63475543Y-20553044D01*
X63496613Y-20543079D01*
X63518557Y-20535227D01*
X63541166Y-20529563D01*
X63564221Y-20526144D01*
X63587500Y-20525000D01*
X64162500Y-20525000D01*
X64185779Y-20526144D01*
G37*
G36*
X62435779Y-20526144D02*
G01*
X62458834Y-20529563D01*
X62481443Y-20535227D01*
X62503387Y-20543079D01*
X62524457Y-20553044D01*
X62544448Y-20565026D01*
X62563168Y-20578910D01*
X62580438Y-20594562D01*
X62596090Y-20611832D01*
X62609974Y-20630552D01*
X62621956Y-20650543D01*
X62631921Y-20671613D01*
X62639773Y-20693557D01*
X62645437Y-20716166D01*
X62648856Y-20739221D01*
X62650000Y-20762500D01*
X62650000Y-21237500D01*
X62648856Y-21260779D01*
X62645437Y-21283834D01*
X62639773Y-21306443D01*
X62631921Y-21328387D01*
X62621956Y-21349457D01*
X62609974Y-21369448D01*
X62596090Y-21388168D01*
X62580438Y-21405438D01*
X62563168Y-21421090D01*
X62544448Y-21434974D01*
X62524457Y-21446956D01*
X62503387Y-21456921D01*
X62481443Y-21464773D01*
X62458834Y-21470437D01*
X62435779Y-21473856D01*
X62412500Y-21475000D01*
X61837500Y-21475000D01*
X61814221Y-21473856D01*
X61791166Y-21470437D01*
X61768557Y-21464773D01*
X61746613Y-21456921D01*
X61725543Y-21446956D01*
X61705552Y-21434974D01*
X61686832Y-21421090D01*
X61669562Y-21405438D01*
X61653910Y-21388168D01*
X61640026Y-21369448D01*
X61628044Y-21349457D01*
X61618079Y-21328387D01*
X61610227Y-21306443D01*
X61604563Y-21283834D01*
X61601144Y-21260779D01*
X61600000Y-21237500D01*
X61600000Y-20762500D01*
X61601144Y-20739221D01*
X61604563Y-20716166D01*
X61610227Y-20693557D01*
X61618079Y-20671613D01*
X61628044Y-20650543D01*
X61640026Y-20630552D01*
X61653910Y-20611832D01*
X61669562Y-20594562D01*
X61686832Y-20578910D01*
X61705552Y-20565026D01*
X61725543Y-20553044D01*
X61746613Y-20543079D01*
X61768557Y-20535227D01*
X61791166Y-20529563D01*
X61814221Y-20526144D01*
X61837500Y-20525000D01*
X62412500Y-20525000D01*
X62435779Y-20526144D01*
G37*
G36*
X42260779Y-10851144D02*
G01*
X42283834Y-10854563D01*
X42306443Y-10860227D01*
X42328387Y-10868079D01*
X42349457Y-10878044D01*
X42369448Y-10890026D01*
X42388168Y-10903910D01*
X42405438Y-10919562D01*
X42421090Y-10936832D01*
X42434974Y-10955552D01*
X42446956Y-10975543D01*
X42456921Y-10996613D01*
X42464773Y-11018557D01*
X42470437Y-11041166D01*
X42473856Y-11064221D01*
X42475000Y-11087500D01*
X42475000Y-11662500D01*
X42473856Y-11685779D01*
X42470437Y-11708834D01*
X42464773Y-11731443D01*
X42456921Y-11753387D01*
X42446956Y-11774457D01*
X42434974Y-11794448D01*
X42421090Y-11813168D01*
X42405438Y-11830438D01*
X42388168Y-11846090D01*
X42369448Y-11859974D01*
X42349457Y-11871956D01*
X42328387Y-11881921D01*
X42306443Y-11889773D01*
X42283834Y-11895437D01*
X42260779Y-11898856D01*
X42237500Y-11900000D01*
X41762500Y-11900000D01*
X41739221Y-11898856D01*
X41716166Y-11895437D01*
X41693557Y-11889773D01*
X41671613Y-11881921D01*
X41650543Y-11871956D01*
X41630552Y-11859974D01*
X41611832Y-11846090D01*
X41594562Y-11830438D01*
X41578910Y-11813168D01*
X41565026Y-11794448D01*
X41553044Y-11774457D01*
X41543079Y-11753387D01*
X41535227Y-11731443D01*
X41529563Y-11708834D01*
X41526144Y-11685779D01*
X41525000Y-11662500D01*
X41525000Y-11087500D01*
X41526144Y-11064221D01*
X41529563Y-11041166D01*
X41535227Y-11018557D01*
X41543079Y-10996613D01*
X41553044Y-10975543D01*
X41565026Y-10955552D01*
X41578910Y-10936832D01*
X41594562Y-10919562D01*
X41611832Y-10903910D01*
X41630552Y-10890026D01*
X41650543Y-10878044D01*
X41671613Y-10868079D01*
X41693557Y-10860227D01*
X41716166Y-10854563D01*
X41739221Y-10851144D01*
X41762500Y-10850000D01*
X42237500Y-10850000D01*
X42260779Y-10851144D01*
G37*
G36*
X42260779Y-12601144D02*
G01*
X42283834Y-12604563D01*
X42306443Y-12610227D01*
X42328387Y-12618079D01*
X42349457Y-12628044D01*
X42369448Y-12640026D01*
X42388168Y-12653910D01*
X42405438Y-12669562D01*
X42421090Y-12686832D01*
X42434974Y-12705552D01*
X42446956Y-12725543D01*
X42456921Y-12746613D01*
X42464773Y-12768557D01*
X42470437Y-12791166D01*
X42473856Y-12814221D01*
X42475000Y-12837500D01*
X42475000Y-13412500D01*
X42473856Y-13435779D01*
X42470437Y-13458834D01*
X42464773Y-13481443D01*
X42456921Y-13503387D01*
X42446956Y-13524457D01*
X42434974Y-13544448D01*
X42421090Y-13563168D01*
X42405438Y-13580438D01*
X42388168Y-13596090D01*
X42369448Y-13609974D01*
X42349457Y-13621956D01*
X42328387Y-13631921D01*
X42306443Y-13639773D01*
X42283834Y-13645437D01*
X42260779Y-13648856D01*
X42237500Y-13650000D01*
X41762500Y-13650000D01*
X41739221Y-13648856D01*
X41716166Y-13645437D01*
X41693557Y-13639773D01*
X41671613Y-13631921D01*
X41650543Y-13621956D01*
X41630552Y-13609974D01*
X41611832Y-13596090D01*
X41594562Y-13580438D01*
X41578910Y-13563168D01*
X41565026Y-13544448D01*
X41553044Y-13524457D01*
X41543079Y-13503387D01*
X41535227Y-13481443D01*
X41529563Y-13458834D01*
X41526144Y-13435779D01*
X41525000Y-13412500D01*
X41525000Y-12837500D01*
X41526144Y-12814221D01*
X41529563Y-12791166D01*
X41535227Y-12768557D01*
X41543079Y-12746613D01*
X41553044Y-12725543D01*
X41565026Y-12705552D01*
X41578910Y-12686832D01*
X41594562Y-12669562D01*
X41611832Y-12653910D01*
X41630552Y-12640026D01*
X41650543Y-12628044D01*
X41671613Y-12618079D01*
X41693557Y-12610227D01*
X41716166Y-12604563D01*
X41739221Y-12601144D01*
X41762500Y-12600000D01*
X42237500Y-12600000D01*
X42260779Y-12601144D01*
G37*
G36*
X44960779Y-12601144D02*
G01*
X44983834Y-12604563D01*
X45006443Y-12610227D01*
X45028387Y-12618079D01*
X45049457Y-12628044D01*
X45069448Y-12640026D01*
X45088168Y-12653910D01*
X45105438Y-12669562D01*
X45121090Y-12686832D01*
X45134974Y-12705552D01*
X45146956Y-12725543D01*
X45156921Y-12746613D01*
X45164773Y-12768557D01*
X45170437Y-12791166D01*
X45173856Y-12814221D01*
X45175000Y-12837500D01*
X45175000Y-13412500D01*
X45173856Y-13435779D01*
X45170437Y-13458834D01*
X45164773Y-13481443D01*
X45156921Y-13503387D01*
X45146956Y-13524457D01*
X45134974Y-13544448D01*
X45121090Y-13563168D01*
X45105438Y-13580438D01*
X45088168Y-13596090D01*
X45069448Y-13609974D01*
X45049457Y-13621956D01*
X45028387Y-13631921D01*
X45006443Y-13639773D01*
X44983834Y-13645437D01*
X44960779Y-13648856D01*
X44937500Y-13650000D01*
X44462500Y-13650000D01*
X44439221Y-13648856D01*
X44416166Y-13645437D01*
X44393557Y-13639773D01*
X44371613Y-13631921D01*
X44350543Y-13621956D01*
X44330552Y-13609974D01*
X44311832Y-13596090D01*
X44294562Y-13580438D01*
X44278910Y-13563168D01*
X44265026Y-13544448D01*
X44253044Y-13524457D01*
X44243079Y-13503387D01*
X44235227Y-13481443D01*
X44229563Y-13458834D01*
X44226144Y-13435779D01*
X44225000Y-13412500D01*
X44225000Y-12837500D01*
X44226144Y-12814221D01*
X44229563Y-12791166D01*
X44235227Y-12768557D01*
X44243079Y-12746613D01*
X44253044Y-12725543D01*
X44265026Y-12705552D01*
X44278910Y-12686832D01*
X44294562Y-12669562D01*
X44311832Y-12653910D01*
X44330552Y-12640026D01*
X44350543Y-12628044D01*
X44371613Y-12618079D01*
X44393557Y-12610227D01*
X44416166Y-12604563D01*
X44439221Y-12601144D01*
X44462500Y-12600000D01*
X44937500Y-12600000D01*
X44960779Y-12601144D01*
G37*
G36*
X44960779Y-10851144D02*
G01*
X44983834Y-10854563D01*
X45006443Y-10860227D01*
X45028387Y-10868079D01*
X45049457Y-10878044D01*
X45069448Y-10890026D01*
X45088168Y-10903910D01*
X45105438Y-10919562D01*
X45121090Y-10936832D01*
X45134974Y-10955552D01*
X45146956Y-10975543D01*
X45156921Y-10996613D01*
X45164773Y-11018557D01*
X45170437Y-11041166D01*
X45173856Y-11064221D01*
X45175000Y-11087500D01*
X45175000Y-11662500D01*
X45173856Y-11685779D01*
X45170437Y-11708834D01*
X45164773Y-11731443D01*
X45156921Y-11753387D01*
X45146956Y-11774457D01*
X45134974Y-11794448D01*
X45121090Y-11813168D01*
X45105438Y-11830438D01*
X45088168Y-11846090D01*
X45069448Y-11859974D01*
X45049457Y-11871956D01*
X45028387Y-11881921D01*
X45006443Y-11889773D01*
X44983834Y-11895437D01*
X44960779Y-11898856D01*
X44937500Y-11900000D01*
X44462500Y-11900000D01*
X44439221Y-11898856D01*
X44416166Y-11895437D01*
X44393557Y-11889773D01*
X44371613Y-11881921D01*
X44350543Y-11871956D01*
X44330552Y-11859974D01*
X44311832Y-11846090D01*
X44294562Y-11830438D01*
X44278910Y-11813168D01*
X44265026Y-11794448D01*
X44253044Y-11774457D01*
X44243079Y-11753387D01*
X44235227Y-11731443D01*
X44229563Y-11708834D01*
X44226144Y-11685779D01*
X44225000Y-11662500D01*
X44225000Y-11087500D01*
X44226144Y-11064221D01*
X44229563Y-11041166D01*
X44235227Y-11018557D01*
X44243079Y-10996613D01*
X44253044Y-10975543D01*
X44265026Y-10955552D01*
X44278910Y-10936832D01*
X44294562Y-10919562D01*
X44311832Y-10903910D01*
X44330552Y-10890026D01*
X44350543Y-10878044D01*
X44371613Y-10868079D01*
X44393557Y-10860227D01*
X44416166Y-10854563D01*
X44439221Y-10851144D01*
X44462500Y-10850000D01*
X44937500Y-10850000D01*
X44960779Y-10851144D01*
G37*
G36*
X66260779Y-39951144D02*
G01*
X66283834Y-39954563D01*
X66306443Y-39960227D01*
X66328387Y-39968079D01*
X66349457Y-39978044D01*
X66369448Y-39990026D01*
X66388168Y-40003910D01*
X66405438Y-40019562D01*
X66421090Y-40036832D01*
X66434974Y-40055552D01*
X66446956Y-40075543D01*
X66456921Y-40096613D01*
X66464773Y-40118557D01*
X66470437Y-40141166D01*
X66473856Y-40164221D01*
X66475000Y-40187500D01*
X66475000Y-40762500D01*
X66473856Y-40785779D01*
X66470437Y-40808834D01*
X66464773Y-40831443D01*
X66456921Y-40853387D01*
X66446956Y-40874457D01*
X66434974Y-40894448D01*
X66421090Y-40913168D01*
X66405438Y-40930438D01*
X66388168Y-40946090D01*
X66369448Y-40959974D01*
X66349457Y-40971956D01*
X66328387Y-40981921D01*
X66306443Y-40989773D01*
X66283834Y-40995437D01*
X66260779Y-40998856D01*
X66237500Y-41000000D01*
X65762500Y-41000000D01*
X65739221Y-40998856D01*
X65716166Y-40995437D01*
X65693557Y-40989773D01*
X65671613Y-40981921D01*
X65650543Y-40971956D01*
X65630552Y-40959974D01*
X65611832Y-40946090D01*
X65594562Y-40930438D01*
X65578910Y-40913168D01*
X65565026Y-40894448D01*
X65553044Y-40874457D01*
X65543079Y-40853387D01*
X65535227Y-40831443D01*
X65529563Y-40808834D01*
X65526144Y-40785779D01*
X65525000Y-40762500D01*
X65525000Y-40187500D01*
X65526144Y-40164221D01*
X65529563Y-40141166D01*
X65535227Y-40118557D01*
X65543079Y-40096613D01*
X65553044Y-40075543D01*
X65565026Y-40055552D01*
X65578910Y-40036832D01*
X65594562Y-40019562D01*
X65611832Y-40003910D01*
X65630552Y-39990026D01*
X65650543Y-39978044D01*
X65671613Y-39968079D01*
X65693557Y-39960227D01*
X65716166Y-39954563D01*
X65739221Y-39951144D01*
X65762500Y-39950000D01*
X66237500Y-39950000D01*
X66260779Y-39951144D01*
G37*
G36*
X66260779Y-38201144D02*
G01*
X66283834Y-38204563D01*
X66306443Y-38210227D01*
X66328387Y-38218079D01*
X66349457Y-38228044D01*
X66369448Y-38240026D01*
X66388168Y-38253910D01*
X66405438Y-38269562D01*
X66421090Y-38286832D01*
X66434974Y-38305552D01*
X66446956Y-38325543D01*
X66456921Y-38346613D01*
X66464773Y-38368557D01*
X66470437Y-38391166D01*
X66473856Y-38414221D01*
X66475000Y-38437500D01*
X66475000Y-39012500D01*
X66473856Y-39035779D01*
X66470437Y-39058834D01*
X66464773Y-39081443D01*
X66456921Y-39103387D01*
X66446956Y-39124457D01*
X66434974Y-39144448D01*
X66421090Y-39163168D01*
X66405438Y-39180438D01*
X66388168Y-39196090D01*
X66369448Y-39209974D01*
X66349457Y-39221956D01*
X66328387Y-39231921D01*
X66306443Y-39239773D01*
X66283834Y-39245437D01*
X66260779Y-39248856D01*
X66237500Y-39250000D01*
X65762500Y-39250000D01*
X65739221Y-39248856D01*
X65716166Y-39245437D01*
X65693557Y-39239773D01*
X65671613Y-39231921D01*
X65650543Y-39221956D01*
X65630552Y-39209974D01*
X65611832Y-39196090D01*
X65594562Y-39180438D01*
X65578910Y-39163168D01*
X65565026Y-39144448D01*
X65553044Y-39124457D01*
X65543079Y-39103387D01*
X65535227Y-39081443D01*
X65529563Y-39058834D01*
X65526144Y-39035779D01*
X65525000Y-39012500D01*
X65525000Y-38437500D01*
X65526144Y-38414221D01*
X65529563Y-38391166D01*
X65535227Y-38368557D01*
X65543079Y-38346613D01*
X65553044Y-38325543D01*
X65565026Y-38305552D01*
X65578910Y-38286832D01*
X65594562Y-38269562D01*
X65611832Y-38253910D01*
X65630552Y-38240026D01*
X65650543Y-38228044D01*
X65671613Y-38218079D01*
X65693557Y-38210227D01*
X65716166Y-38204563D01*
X65739221Y-38201144D01*
X65762500Y-38200000D01*
X66237500Y-38200000D01*
X66260779Y-38201144D01*
G37*
G36*
X68260779Y-39951144D02*
G01*
X68283834Y-39954563D01*
X68306443Y-39960227D01*
X68328387Y-39968079D01*
X68349457Y-39978044D01*
X68369448Y-39990026D01*
X68388168Y-40003910D01*
X68405438Y-40019562D01*
X68421090Y-40036832D01*
X68434974Y-40055552D01*
X68446956Y-40075543D01*
X68456921Y-40096613D01*
X68464773Y-40118557D01*
X68470437Y-40141166D01*
X68473856Y-40164221D01*
X68475000Y-40187500D01*
X68475000Y-40762500D01*
X68473856Y-40785779D01*
X68470437Y-40808834D01*
X68464773Y-40831443D01*
X68456921Y-40853387D01*
X68446956Y-40874457D01*
X68434974Y-40894448D01*
X68421090Y-40913168D01*
X68405438Y-40930438D01*
X68388168Y-40946090D01*
X68369448Y-40959974D01*
X68349457Y-40971956D01*
X68328387Y-40981921D01*
X68306443Y-40989773D01*
X68283834Y-40995437D01*
X68260779Y-40998856D01*
X68237500Y-41000000D01*
X67762500Y-41000000D01*
X67739221Y-40998856D01*
X67716166Y-40995437D01*
X67693557Y-40989773D01*
X67671613Y-40981921D01*
X67650543Y-40971956D01*
X67630552Y-40959974D01*
X67611832Y-40946090D01*
X67594562Y-40930438D01*
X67578910Y-40913168D01*
X67565026Y-40894448D01*
X67553044Y-40874457D01*
X67543079Y-40853387D01*
X67535227Y-40831443D01*
X67529563Y-40808834D01*
X67526144Y-40785779D01*
X67525000Y-40762500D01*
X67525000Y-40187500D01*
X67526144Y-40164221D01*
X67529563Y-40141166D01*
X67535227Y-40118557D01*
X67543079Y-40096613D01*
X67553044Y-40075543D01*
X67565026Y-40055552D01*
X67578910Y-40036832D01*
X67594562Y-40019562D01*
X67611832Y-40003910D01*
X67630552Y-39990026D01*
X67650543Y-39978044D01*
X67671613Y-39968079D01*
X67693557Y-39960227D01*
X67716166Y-39954563D01*
X67739221Y-39951144D01*
X67762500Y-39950000D01*
X68237500Y-39950000D01*
X68260779Y-39951144D01*
G37*
G36*
X68260779Y-38201144D02*
G01*
X68283834Y-38204563D01*
X68306443Y-38210227D01*
X68328387Y-38218079D01*
X68349457Y-38228044D01*
X68369448Y-38240026D01*
X68388168Y-38253910D01*
X68405438Y-38269562D01*
X68421090Y-38286832D01*
X68434974Y-38305552D01*
X68446956Y-38325543D01*
X68456921Y-38346613D01*
X68464773Y-38368557D01*
X68470437Y-38391166D01*
X68473856Y-38414221D01*
X68475000Y-38437500D01*
X68475000Y-39012500D01*
X68473856Y-39035779D01*
X68470437Y-39058834D01*
X68464773Y-39081443D01*
X68456921Y-39103387D01*
X68446956Y-39124457D01*
X68434974Y-39144448D01*
X68421090Y-39163168D01*
X68405438Y-39180438D01*
X68388168Y-39196090D01*
X68369448Y-39209974D01*
X68349457Y-39221956D01*
X68328387Y-39231921D01*
X68306443Y-39239773D01*
X68283834Y-39245437D01*
X68260779Y-39248856D01*
X68237500Y-39250000D01*
X67762500Y-39250000D01*
X67739221Y-39248856D01*
X67716166Y-39245437D01*
X67693557Y-39239773D01*
X67671613Y-39231921D01*
X67650543Y-39221956D01*
X67630552Y-39209974D01*
X67611832Y-39196090D01*
X67594562Y-39180438D01*
X67578910Y-39163168D01*
X67565026Y-39144448D01*
X67553044Y-39124457D01*
X67543079Y-39103387D01*
X67535227Y-39081443D01*
X67529563Y-39058834D01*
X67526144Y-39035779D01*
X67525000Y-39012500D01*
X67525000Y-38437500D01*
X67526144Y-38414221D01*
X67529563Y-38391166D01*
X67535227Y-38368557D01*
X67543079Y-38346613D01*
X67553044Y-38325543D01*
X67565026Y-38305552D01*
X67578910Y-38286832D01*
X67594562Y-38269562D01*
X67611832Y-38253910D01*
X67630552Y-38240026D01*
X67650543Y-38228044D01*
X67671613Y-38218079D01*
X67693557Y-38210227D01*
X67716166Y-38204563D01*
X67739221Y-38201144D01*
X67762500Y-38200000D01*
X68237500Y-38200000D01*
X68260779Y-38201144D01*
G37*
G36*
X64260779Y-38201144D02*
G01*
X64283834Y-38204563D01*
X64306443Y-38210227D01*
X64328387Y-38218079D01*
X64349457Y-38228044D01*
X64369448Y-38240026D01*
X64388168Y-38253910D01*
X64405438Y-38269562D01*
X64421090Y-38286832D01*
X64434974Y-38305552D01*
X64446956Y-38325543D01*
X64456921Y-38346613D01*
X64464773Y-38368557D01*
X64470437Y-38391166D01*
X64473856Y-38414221D01*
X64475000Y-38437500D01*
X64475000Y-39012500D01*
X64473856Y-39035779D01*
X64470437Y-39058834D01*
X64464773Y-39081443D01*
X64456921Y-39103387D01*
X64446956Y-39124457D01*
X64434974Y-39144448D01*
X64421090Y-39163168D01*
X64405438Y-39180438D01*
X64388168Y-39196090D01*
X64369448Y-39209974D01*
X64349457Y-39221956D01*
X64328387Y-39231921D01*
X64306443Y-39239773D01*
X64283834Y-39245437D01*
X64260779Y-39248856D01*
X64237500Y-39250000D01*
X63762500Y-39250000D01*
X63739221Y-39248856D01*
X63716166Y-39245437D01*
X63693557Y-39239773D01*
X63671613Y-39231921D01*
X63650543Y-39221956D01*
X63630552Y-39209974D01*
X63611832Y-39196090D01*
X63594562Y-39180438D01*
X63578910Y-39163168D01*
X63565026Y-39144448D01*
X63553044Y-39124457D01*
X63543079Y-39103387D01*
X63535227Y-39081443D01*
X63529563Y-39058834D01*
X63526144Y-39035779D01*
X63525000Y-39012500D01*
X63525000Y-38437500D01*
X63526144Y-38414221D01*
X63529563Y-38391166D01*
X63535227Y-38368557D01*
X63543079Y-38346613D01*
X63553044Y-38325543D01*
X63565026Y-38305552D01*
X63578910Y-38286832D01*
X63594562Y-38269562D01*
X63611832Y-38253910D01*
X63630552Y-38240026D01*
X63650543Y-38228044D01*
X63671613Y-38218079D01*
X63693557Y-38210227D01*
X63716166Y-38204563D01*
X63739221Y-38201144D01*
X63762500Y-38200000D01*
X64237500Y-38200000D01*
X64260779Y-38201144D01*
G37*
G36*
X64260779Y-39951144D02*
G01*
X64283834Y-39954563D01*
X64306443Y-39960227D01*
X64328387Y-39968079D01*
X64349457Y-39978044D01*
X64369448Y-39990026D01*
X64388168Y-40003910D01*
X64405438Y-40019562D01*
X64421090Y-40036832D01*
X64434974Y-40055552D01*
X64446956Y-40075543D01*
X64456921Y-40096613D01*
X64464773Y-40118557D01*
X64470437Y-40141166D01*
X64473856Y-40164221D01*
X64475000Y-40187500D01*
X64475000Y-40762500D01*
X64473856Y-40785779D01*
X64470437Y-40808834D01*
X64464773Y-40831443D01*
X64456921Y-40853387D01*
X64446956Y-40874457D01*
X64434974Y-40894448D01*
X64421090Y-40913168D01*
X64405438Y-40930438D01*
X64388168Y-40946090D01*
X64369448Y-40959974D01*
X64349457Y-40971956D01*
X64328387Y-40981921D01*
X64306443Y-40989773D01*
X64283834Y-40995437D01*
X64260779Y-40998856D01*
X64237500Y-41000000D01*
X63762500Y-41000000D01*
X63739221Y-40998856D01*
X63716166Y-40995437D01*
X63693557Y-40989773D01*
X63671613Y-40981921D01*
X63650543Y-40971956D01*
X63630552Y-40959974D01*
X63611832Y-40946090D01*
X63594562Y-40930438D01*
X63578910Y-40913168D01*
X63565026Y-40894448D01*
X63553044Y-40874457D01*
X63543079Y-40853387D01*
X63535227Y-40831443D01*
X63529563Y-40808834D01*
X63526144Y-40785779D01*
X63525000Y-40762500D01*
X63525000Y-40187500D01*
X63526144Y-40164221D01*
X63529563Y-40141166D01*
X63535227Y-40118557D01*
X63543079Y-40096613D01*
X63553044Y-40075543D01*
X63565026Y-40055552D01*
X63578910Y-40036832D01*
X63594562Y-40019562D01*
X63611832Y-40003910D01*
X63630552Y-39990026D01*
X63650543Y-39978044D01*
X63671613Y-39968079D01*
X63693557Y-39960227D01*
X63716166Y-39954563D01*
X63739221Y-39951144D01*
X63762500Y-39950000D01*
X64237500Y-39950000D01*
X64260779Y-39951144D01*
G37*
G36*
X62260779Y-39951144D02*
G01*
X62283834Y-39954563D01*
X62306443Y-39960227D01*
X62328387Y-39968079D01*
X62349457Y-39978044D01*
X62369448Y-39990026D01*
X62388168Y-40003910D01*
X62405438Y-40019562D01*
X62421090Y-40036832D01*
X62434974Y-40055552D01*
X62446956Y-40075543D01*
X62456921Y-40096613D01*
X62464773Y-40118557D01*
X62470437Y-40141166D01*
X62473856Y-40164221D01*
X62475000Y-40187500D01*
X62475000Y-40762500D01*
X62473856Y-40785779D01*
X62470437Y-40808834D01*
X62464773Y-40831443D01*
X62456921Y-40853387D01*
X62446956Y-40874457D01*
X62434974Y-40894448D01*
X62421090Y-40913168D01*
X62405438Y-40930438D01*
X62388168Y-40946090D01*
X62369448Y-40959974D01*
X62349457Y-40971956D01*
X62328387Y-40981921D01*
X62306443Y-40989773D01*
X62283834Y-40995437D01*
X62260779Y-40998856D01*
X62237500Y-41000000D01*
X61762500Y-41000000D01*
X61739221Y-40998856D01*
X61716166Y-40995437D01*
X61693557Y-40989773D01*
X61671613Y-40981921D01*
X61650543Y-40971956D01*
X61630552Y-40959974D01*
X61611832Y-40946090D01*
X61594562Y-40930438D01*
X61578910Y-40913168D01*
X61565026Y-40894448D01*
X61553044Y-40874457D01*
X61543079Y-40853387D01*
X61535227Y-40831443D01*
X61529563Y-40808834D01*
X61526144Y-40785779D01*
X61525000Y-40762500D01*
X61525000Y-40187500D01*
X61526144Y-40164221D01*
X61529563Y-40141166D01*
X61535227Y-40118557D01*
X61543079Y-40096613D01*
X61553044Y-40075543D01*
X61565026Y-40055552D01*
X61578910Y-40036832D01*
X61594562Y-40019562D01*
X61611832Y-40003910D01*
X61630552Y-39990026D01*
X61650543Y-39978044D01*
X61671613Y-39968079D01*
X61693557Y-39960227D01*
X61716166Y-39954563D01*
X61739221Y-39951144D01*
X61762500Y-39950000D01*
X62237500Y-39950000D01*
X62260779Y-39951144D01*
G37*
G36*
X62260779Y-38201144D02*
G01*
X62283834Y-38204563D01*
X62306443Y-38210227D01*
X62328387Y-38218079D01*
X62349457Y-38228044D01*
X62369448Y-38240026D01*
X62388168Y-38253910D01*
X62405438Y-38269562D01*
X62421090Y-38286832D01*
X62434974Y-38305552D01*
X62446956Y-38325543D01*
X62456921Y-38346613D01*
X62464773Y-38368557D01*
X62470437Y-38391166D01*
X62473856Y-38414221D01*
X62475000Y-38437500D01*
X62475000Y-39012500D01*
X62473856Y-39035779D01*
X62470437Y-39058834D01*
X62464773Y-39081443D01*
X62456921Y-39103387D01*
X62446956Y-39124457D01*
X62434974Y-39144448D01*
X62421090Y-39163168D01*
X62405438Y-39180438D01*
X62388168Y-39196090D01*
X62369448Y-39209974D01*
X62349457Y-39221956D01*
X62328387Y-39231921D01*
X62306443Y-39239773D01*
X62283834Y-39245437D01*
X62260779Y-39248856D01*
X62237500Y-39250000D01*
X61762500Y-39250000D01*
X61739221Y-39248856D01*
X61716166Y-39245437D01*
X61693557Y-39239773D01*
X61671613Y-39231921D01*
X61650543Y-39221956D01*
X61630552Y-39209974D01*
X61611832Y-39196090D01*
X61594562Y-39180438D01*
X61578910Y-39163168D01*
X61565026Y-39144448D01*
X61553044Y-39124457D01*
X61543079Y-39103387D01*
X61535227Y-39081443D01*
X61529563Y-39058834D01*
X61526144Y-39035779D01*
X61525000Y-39012500D01*
X61525000Y-38437500D01*
X61526144Y-38414221D01*
X61529563Y-38391166D01*
X61535227Y-38368557D01*
X61543079Y-38346613D01*
X61553044Y-38325543D01*
X61565026Y-38305552D01*
X61578910Y-38286832D01*
X61594562Y-38269562D01*
X61611832Y-38253910D01*
X61630552Y-38240026D01*
X61650543Y-38228044D01*
X61671613Y-38218079D01*
X61693557Y-38210227D01*
X61716166Y-38204563D01*
X61739221Y-38201144D01*
X61762500Y-38200000D01*
X62237500Y-38200000D01*
X62260779Y-38201144D01*
G37*
D19*
X48900000Y-43850000D03*
X48900000Y-45250000D03*
D20*
X50750000Y-45800000D03*
D21*
X50750000Y-44900000D03*
X50750000Y-44200000D03*
X50750000Y-43500000D03*
X50750000Y-42800000D03*
X50750000Y-42100000D03*
X50750000Y-41400000D03*
X50750000Y-40700000D03*
X50750000Y-40000000D03*
X50750000Y-39300000D03*
X50750000Y-38600000D03*
X50750000Y-37900000D03*
X50750000Y-37200000D03*
X50750000Y-36500000D03*
X50750000Y-35800000D03*
D22*
X50200000Y-34250000D03*
X49500000Y-34250000D03*
X48800000Y-34250000D03*
X48100000Y-34250000D03*
X47400000Y-34250000D03*
X46700000Y-34250000D03*
X46000000Y-34250000D03*
X45300000Y-34250000D03*
X44600000Y-34250000D03*
X43900000Y-34250000D03*
X43200000Y-34250000D03*
X42500000Y-34250000D03*
D21*
X41250000Y-36500000D03*
X41250000Y-37200000D03*
X41250000Y-37900000D03*
X41250000Y-38600000D03*
X41250000Y-39300000D03*
X41250000Y-40000000D03*
X41250000Y-40700000D03*
X41250000Y-41400000D03*
X41250000Y-42100000D03*
D20*
X41250000Y-45800000D03*
D21*
X41250000Y-42800000D03*
D22*
X41700000Y-34250000D03*
D23*
X66400000Y-24950000D03*
X66400000Y-24000000D03*
X66400000Y-23050000D03*
X69100000Y-23050000D03*
X69100000Y-24950000D03*
X69100000Y-24000000D03*
D24*
X69200000Y-15600000D03*
X68250000Y-15600000D03*
X67300000Y-15600000D03*
X67300000Y-13400000D03*
X69200000Y-13400000D03*
D10*
G36*
X71609703Y-33600722D02*
G01*
X71624264Y-33602882D01*
X71638543Y-33606459D01*
X71652403Y-33611418D01*
X71665710Y-33617712D01*
X71678336Y-33625280D01*
X71690159Y-33634048D01*
X71701066Y-33643934D01*
X71710952Y-33654841D01*
X71719720Y-33666664D01*
X71727288Y-33679290D01*
X71733582Y-33692597D01*
X71738541Y-33706457D01*
X71742118Y-33720736D01*
X71744278Y-33735297D01*
X71745000Y-33750000D01*
X71745000Y-35400000D01*
X71744278Y-35414703D01*
X71742118Y-35429264D01*
X71738541Y-35443543D01*
X71733582Y-35457403D01*
X71727288Y-35470710D01*
X71719720Y-35483336D01*
X71710952Y-35495159D01*
X71701066Y-35506066D01*
X71690159Y-35515952D01*
X71678336Y-35524720D01*
X71665710Y-35532288D01*
X71652403Y-35538582D01*
X71638543Y-35543541D01*
X71624264Y-35547118D01*
X71609703Y-35549278D01*
X71595000Y-35550000D01*
X71295000Y-35550000D01*
X71280297Y-35549278D01*
X71265736Y-35547118D01*
X71251457Y-35543541D01*
X71237597Y-35538582D01*
X71224290Y-35532288D01*
X71211664Y-35524720D01*
X71199841Y-35515952D01*
X71188934Y-35506066D01*
X71179048Y-35495159D01*
X71170280Y-35483336D01*
X71162712Y-35470710D01*
X71156418Y-35457403D01*
X71151459Y-35443543D01*
X71147882Y-35429264D01*
X71145722Y-35414703D01*
X71145000Y-35400000D01*
X71145000Y-33750000D01*
X71145722Y-33735297D01*
X71147882Y-33720736D01*
X71151459Y-33706457D01*
X71156418Y-33692597D01*
X71162712Y-33679290D01*
X71170280Y-33666664D01*
X71179048Y-33654841D01*
X71188934Y-33643934D01*
X71199841Y-33634048D01*
X71211664Y-33625280D01*
X71224290Y-33617712D01*
X71237597Y-33611418D01*
X71251457Y-33606459D01*
X71265736Y-33602882D01*
X71280297Y-33600722D01*
X71295000Y-33600000D01*
X71595000Y-33600000D01*
X71609703Y-33600722D01*
G37*
G36*
X70339703Y-33600722D02*
G01*
X70354264Y-33602882D01*
X70368543Y-33606459D01*
X70382403Y-33611418D01*
X70395710Y-33617712D01*
X70408336Y-33625280D01*
X70420159Y-33634048D01*
X70431066Y-33643934D01*
X70440952Y-33654841D01*
X70449720Y-33666664D01*
X70457288Y-33679290D01*
X70463582Y-33692597D01*
X70468541Y-33706457D01*
X70472118Y-33720736D01*
X70474278Y-33735297D01*
X70475000Y-33750000D01*
X70475000Y-35400000D01*
X70474278Y-35414703D01*
X70472118Y-35429264D01*
X70468541Y-35443543D01*
X70463582Y-35457403D01*
X70457288Y-35470710D01*
X70449720Y-35483336D01*
X70440952Y-35495159D01*
X70431066Y-35506066D01*
X70420159Y-35515952D01*
X70408336Y-35524720D01*
X70395710Y-35532288D01*
X70382403Y-35538582D01*
X70368543Y-35543541D01*
X70354264Y-35547118D01*
X70339703Y-35549278D01*
X70325000Y-35550000D01*
X70025000Y-35550000D01*
X70010297Y-35549278D01*
X69995736Y-35547118D01*
X69981457Y-35543541D01*
X69967597Y-35538582D01*
X69954290Y-35532288D01*
X69941664Y-35524720D01*
X69929841Y-35515952D01*
X69918934Y-35506066D01*
X69909048Y-35495159D01*
X69900280Y-35483336D01*
X69892712Y-35470710D01*
X69886418Y-35457403D01*
X69881459Y-35443543D01*
X69877882Y-35429264D01*
X69875722Y-35414703D01*
X69875000Y-35400000D01*
X69875000Y-33750000D01*
X69875722Y-33735297D01*
X69877882Y-33720736D01*
X69881459Y-33706457D01*
X69886418Y-33692597D01*
X69892712Y-33679290D01*
X69900280Y-33666664D01*
X69909048Y-33654841D01*
X69918934Y-33643934D01*
X69929841Y-33634048D01*
X69941664Y-33625280D01*
X69954290Y-33617712D01*
X69967597Y-33611418D01*
X69981457Y-33606459D01*
X69995736Y-33602882D01*
X70010297Y-33600722D01*
X70025000Y-33600000D01*
X70325000Y-33600000D01*
X70339703Y-33600722D01*
G37*
G36*
X69069703Y-33600722D02*
G01*
X69084264Y-33602882D01*
X69098543Y-33606459D01*
X69112403Y-33611418D01*
X69125710Y-33617712D01*
X69138336Y-33625280D01*
X69150159Y-33634048D01*
X69161066Y-33643934D01*
X69170952Y-33654841D01*
X69179720Y-33666664D01*
X69187288Y-33679290D01*
X69193582Y-33692597D01*
X69198541Y-33706457D01*
X69202118Y-33720736D01*
X69204278Y-33735297D01*
X69205000Y-33750000D01*
X69205000Y-35400000D01*
X69204278Y-35414703D01*
X69202118Y-35429264D01*
X69198541Y-35443543D01*
X69193582Y-35457403D01*
X69187288Y-35470710D01*
X69179720Y-35483336D01*
X69170952Y-35495159D01*
X69161066Y-35506066D01*
X69150159Y-35515952D01*
X69138336Y-35524720D01*
X69125710Y-35532288D01*
X69112403Y-35538582D01*
X69098543Y-35543541D01*
X69084264Y-35547118D01*
X69069703Y-35549278D01*
X69055000Y-35550000D01*
X68755000Y-35550000D01*
X68740297Y-35549278D01*
X68725736Y-35547118D01*
X68711457Y-35543541D01*
X68697597Y-35538582D01*
X68684290Y-35532288D01*
X68671664Y-35524720D01*
X68659841Y-35515952D01*
X68648934Y-35506066D01*
X68639048Y-35495159D01*
X68630280Y-35483336D01*
X68622712Y-35470710D01*
X68616418Y-35457403D01*
X68611459Y-35443543D01*
X68607882Y-35429264D01*
X68605722Y-35414703D01*
X68605000Y-35400000D01*
X68605000Y-33750000D01*
X68605722Y-33735297D01*
X68607882Y-33720736D01*
X68611459Y-33706457D01*
X68616418Y-33692597D01*
X68622712Y-33679290D01*
X68630280Y-33666664D01*
X68639048Y-33654841D01*
X68648934Y-33643934D01*
X68659841Y-33634048D01*
X68671664Y-33625280D01*
X68684290Y-33617712D01*
X68697597Y-33611418D01*
X68711457Y-33606459D01*
X68725736Y-33602882D01*
X68740297Y-33600722D01*
X68755000Y-33600000D01*
X69055000Y-33600000D01*
X69069703Y-33600722D01*
G37*
G36*
X67799703Y-33600722D02*
G01*
X67814264Y-33602882D01*
X67828543Y-33606459D01*
X67842403Y-33611418D01*
X67855710Y-33617712D01*
X67868336Y-33625280D01*
X67880159Y-33634048D01*
X67891066Y-33643934D01*
X67900952Y-33654841D01*
X67909720Y-33666664D01*
X67917288Y-33679290D01*
X67923582Y-33692597D01*
X67928541Y-33706457D01*
X67932118Y-33720736D01*
X67934278Y-33735297D01*
X67935000Y-33750000D01*
X67935000Y-35400000D01*
X67934278Y-35414703D01*
X67932118Y-35429264D01*
X67928541Y-35443543D01*
X67923582Y-35457403D01*
X67917288Y-35470710D01*
X67909720Y-35483336D01*
X67900952Y-35495159D01*
X67891066Y-35506066D01*
X67880159Y-35515952D01*
X67868336Y-35524720D01*
X67855710Y-35532288D01*
X67842403Y-35538582D01*
X67828543Y-35543541D01*
X67814264Y-35547118D01*
X67799703Y-35549278D01*
X67785000Y-35550000D01*
X67485000Y-35550000D01*
X67470297Y-35549278D01*
X67455736Y-35547118D01*
X67441457Y-35543541D01*
X67427597Y-35538582D01*
X67414290Y-35532288D01*
X67401664Y-35524720D01*
X67389841Y-35515952D01*
X67378934Y-35506066D01*
X67369048Y-35495159D01*
X67360280Y-35483336D01*
X67352712Y-35470710D01*
X67346418Y-35457403D01*
X67341459Y-35443543D01*
X67337882Y-35429264D01*
X67335722Y-35414703D01*
X67335000Y-35400000D01*
X67335000Y-33750000D01*
X67335722Y-33735297D01*
X67337882Y-33720736D01*
X67341459Y-33706457D01*
X67346418Y-33692597D01*
X67352712Y-33679290D01*
X67360280Y-33666664D01*
X67369048Y-33654841D01*
X67378934Y-33643934D01*
X67389841Y-33634048D01*
X67401664Y-33625280D01*
X67414290Y-33617712D01*
X67427597Y-33611418D01*
X67441457Y-33606459D01*
X67455736Y-33602882D01*
X67470297Y-33600722D01*
X67485000Y-33600000D01*
X67785000Y-33600000D01*
X67799703Y-33600722D01*
G37*
G36*
X66529703Y-33600722D02*
G01*
X66544264Y-33602882D01*
X66558543Y-33606459D01*
X66572403Y-33611418D01*
X66585710Y-33617712D01*
X66598336Y-33625280D01*
X66610159Y-33634048D01*
X66621066Y-33643934D01*
X66630952Y-33654841D01*
X66639720Y-33666664D01*
X66647288Y-33679290D01*
X66653582Y-33692597D01*
X66658541Y-33706457D01*
X66662118Y-33720736D01*
X66664278Y-33735297D01*
X66665000Y-33750000D01*
X66665000Y-35400000D01*
X66664278Y-35414703D01*
X66662118Y-35429264D01*
X66658541Y-35443543D01*
X66653582Y-35457403D01*
X66647288Y-35470710D01*
X66639720Y-35483336D01*
X66630952Y-35495159D01*
X66621066Y-35506066D01*
X66610159Y-35515952D01*
X66598336Y-35524720D01*
X66585710Y-35532288D01*
X66572403Y-35538582D01*
X66558543Y-35543541D01*
X66544264Y-35547118D01*
X66529703Y-35549278D01*
X66515000Y-35550000D01*
X66215000Y-35550000D01*
X66200297Y-35549278D01*
X66185736Y-35547118D01*
X66171457Y-35543541D01*
X66157597Y-35538582D01*
X66144290Y-35532288D01*
X66131664Y-35524720D01*
X66119841Y-35515952D01*
X66108934Y-35506066D01*
X66099048Y-35495159D01*
X66090280Y-35483336D01*
X66082712Y-35470710D01*
X66076418Y-35457403D01*
X66071459Y-35443543D01*
X66067882Y-35429264D01*
X66065722Y-35414703D01*
X66065000Y-35400000D01*
X66065000Y-33750000D01*
X66065722Y-33735297D01*
X66067882Y-33720736D01*
X66071459Y-33706457D01*
X66076418Y-33692597D01*
X66082712Y-33679290D01*
X66090280Y-33666664D01*
X66099048Y-33654841D01*
X66108934Y-33643934D01*
X66119841Y-33634048D01*
X66131664Y-33625280D01*
X66144290Y-33617712D01*
X66157597Y-33611418D01*
X66171457Y-33606459D01*
X66185736Y-33602882D01*
X66200297Y-33600722D01*
X66215000Y-33600000D01*
X66515000Y-33600000D01*
X66529703Y-33600722D01*
G37*
G36*
X65259703Y-33600722D02*
G01*
X65274264Y-33602882D01*
X65288543Y-33606459D01*
X65302403Y-33611418D01*
X65315710Y-33617712D01*
X65328336Y-33625280D01*
X65340159Y-33634048D01*
X65351066Y-33643934D01*
X65360952Y-33654841D01*
X65369720Y-33666664D01*
X65377288Y-33679290D01*
X65383582Y-33692597D01*
X65388541Y-33706457D01*
X65392118Y-33720736D01*
X65394278Y-33735297D01*
X65395000Y-33750000D01*
X65395000Y-35400000D01*
X65394278Y-35414703D01*
X65392118Y-35429264D01*
X65388541Y-35443543D01*
X65383582Y-35457403D01*
X65377288Y-35470710D01*
X65369720Y-35483336D01*
X65360952Y-35495159D01*
X65351066Y-35506066D01*
X65340159Y-35515952D01*
X65328336Y-35524720D01*
X65315710Y-35532288D01*
X65302403Y-35538582D01*
X65288543Y-35543541D01*
X65274264Y-35547118D01*
X65259703Y-35549278D01*
X65245000Y-35550000D01*
X64945000Y-35550000D01*
X64930297Y-35549278D01*
X64915736Y-35547118D01*
X64901457Y-35543541D01*
X64887597Y-35538582D01*
X64874290Y-35532288D01*
X64861664Y-35524720D01*
X64849841Y-35515952D01*
X64838934Y-35506066D01*
X64829048Y-35495159D01*
X64820280Y-35483336D01*
X64812712Y-35470710D01*
X64806418Y-35457403D01*
X64801459Y-35443543D01*
X64797882Y-35429264D01*
X64795722Y-35414703D01*
X64795000Y-35400000D01*
X64795000Y-33750000D01*
X64795722Y-33735297D01*
X64797882Y-33720736D01*
X64801459Y-33706457D01*
X64806418Y-33692597D01*
X64812712Y-33679290D01*
X64820280Y-33666664D01*
X64829048Y-33654841D01*
X64838934Y-33643934D01*
X64849841Y-33634048D01*
X64861664Y-33625280D01*
X64874290Y-33617712D01*
X64887597Y-33611418D01*
X64901457Y-33606459D01*
X64915736Y-33602882D01*
X64930297Y-33600722D01*
X64945000Y-33600000D01*
X65245000Y-33600000D01*
X65259703Y-33600722D01*
G37*
G36*
X63989703Y-33600722D02*
G01*
X64004264Y-33602882D01*
X64018543Y-33606459D01*
X64032403Y-33611418D01*
X64045710Y-33617712D01*
X64058336Y-33625280D01*
X64070159Y-33634048D01*
X64081066Y-33643934D01*
X64090952Y-33654841D01*
X64099720Y-33666664D01*
X64107288Y-33679290D01*
X64113582Y-33692597D01*
X64118541Y-33706457D01*
X64122118Y-33720736D01*
X64124278Y-33735297D01*
X64125000Y-33750000D01*
X64125000Y-35400000D01*
X64124278Y-35414703D01*
X64122118Y-35429264D01*
X64118541Y-35443543D01*
X64113582Y-35457403D01*
X64107288Y-35470710D01*
X64099720Y-35483336D01*
X64090952Y-35495159D01*
X64081066Y-35506066D01*
X64070159Y-35515952D01*
X64058336Y-35524720D01*
X64045710Y-35532288D01*
X64032403Y-35538582D01*
X64018543Y-35543541D01*
X64004264Y-35547118D01*
X63989703Y-35549278D01*
X63975000Y-35550000D01*
X63675000Y-35550000D01*
X63660297Y-35549278D01*
X63645736Y-35547118D01*
X63631457Y-35543541D01*
X63617597Y-35538582D01*
X63604290Y-35532288D01*
X63591664Y-35524720D01*
X63579841Y-35515952D01*
X63568934Y-35506066D01*
X63559048Y-35495159D01*
X63550280Y-35483336D01*
X63542712Y-35470710D01*
X63536418Y-35457403D01*
X63531459Y-35443543D01*
X63527882Y-35429264D01*
X63525722Y-35414703D01*
X63525000Y-35400000D01*
X63525000Y-33750000D01*
X63525722Y-33735297D01*
X63527882Y-33720736D01*
X63531459Y-33706457D01*
X63536418Y-33692597D01*
X63542712Y-33679290D01*
X63550280Y-33666664D01*
X63559048Y-33654841D01*
X63568934Y-33643934D01*
X63579841Y-33634048D01*
X63591664Y-33625280D01*
X63604290Y-33617712D01*
X63617597Y-33611418D01*
X63631457Y-33606459D01*
X63645736Y-33602882D01*
X63660297Y-33600722D01*
X63675000Y-33600000D01*
X63975000Y-33600000D01*
X63989703Y-33600722D01*
G37*
G36*
X62719703Y-33600722D02*
G01*
X62734264Y-33602882D01*
X62748543Y-33606459D01*
X62762403Y-33611418D01*
X62775710Y-33617712D01*
X62788336Y-33625280D01*
X62800159Y-33634048D01*
X62811066Y-33643934D01*
X62820952Y-33654841D01*
X62829720Y-33666664D01*
X62837288Y-33679290D01*
X62843582Y-33692597D01*
X62848541Y-33706457D01*
X62852118Y-33720736D01*
X62854278Y-33735297D01*
X62855000Y-33750000D01*
X62855000Y-35400000D01*
X62854278Y-35414703D01*
X62852118Y-35429264D01*
X62848541Y-35443543D01*
X62843582Y-35457403D01*
X62837288Y-35470710D01*
X62829720Y-35483336D01*
X62820952Y-35495159D01*
X62811066Y-35506066D01*
X62800159Y-35515952D01*
X62788336Y-35524720D01*
X62775710Y-35532288D01*
X62762403Y-35538582D01*
X62748543Y-35543541D01*
X62734264Y-35547118D01*
X62719703Y-35549278D01*
X62705000Y-35550000D01*
X62405000Y-35550000D01*
X62390297Y-35549278D01*
X62375736Y-35547118D01*
X62361457Y-35543541D01*
X62347597Y-35538582D01*
X62334290Y-35532288D01*
X62321664Y-35524720D01*
X62309841Y-35515952D01*
X62298934Y-35506066D01*
X62289048Y-35495159D01*
X62280280Y-35483336D01*
X62272712Y-35470710D01*
X62266418Y-35457403D01*
X62261459Y-35443543D01*
X62257882Y-35429264D01*
X62255722Y-35414703D01*
X62255000Y-35400000D01*
X62255000Y-33750000D01*
X62255722Y-33735297D01*
X62257882Y-33720736D01*
X62261459Y-33706457D01*
X62266418Y-33692597D01*
X62272712Y-33679290D01*
X62280280Y-33666664D01*
X62289048Y-33654841D01*
X62298934Y-33643934D01*
X62309841Y-33634048D01*
X62321664Y-33625280D01*
X62334290Y-33617712D01*
X62347597Y-33611418D01*
X62361457Y-33606459D01*
X62375736Y-33602882D01*
X62390297Y-33600722D01*
X62405000Y-33600000D01*
X62705000Y-33600000D01*
X62719703Y-33600722D01*
G37*
G36*
X62719703Y-28650722D02*
G01*
X62734264Y-28652882D01*
X62748543Y-28656459D01*
X62762403Y-28661418D01*
X62775710Y-28667712D01*
X62788336Y-28675280D01*
X62800159Y-28684048D01*
X62811066Y-28693934D01*
X62820952Y-28704841D01*
X62829720Y-28716664D01*
X62837288Y-28729290D01*
X62843582Y-28742597D01*
X62848541Y-28756457D01*
X62852118Y-28770736D01*
X62854278Y-28785297D01*
X62855000Y-28800000D01*
X62855000Y-30450000D01*
X62854278Y-30464703D01*
X62852118Y-30479264D01*
X62848541Y-30493543D01*
X62843582Y-30507403D01*
X62837288Y-30520710D01*
X62829720Y-30533336D01*
X62820952Y-30545159D01*
X62811066Y-30556066D01*
X62800159Y-30565952D01*
X62788336Y-30574720D01*
X62775710Y-30582288D01*
X62762403Y-30588582D01*
X62748543Y-30593541D01*
X62734264Y-30597118D01*
X62719703Y-30599278D01*
X62705000Y-30600000D01*
X62405000Y-30600000D01*
X62390297Y-30599278D01*
X62375736Y-30597118D01*
X62361457Y-30593541D01*
X62347597Y-30588582D01*
X62334290Y-30582288D01*
X62321664Y-30574720D01*
X62309841Y-30565952D01*
X62298934Y-30556066D01*
X62289048Y-30545159D01*
X62280280Y-30533336D01*
X62272712Y-30520710D01*
X62266418Y-30507403D01*
X62261459Y-30493543D01*
X62257882Y-30479264D01*
X62255722Y-30464703D01*
X62255000Y-30450000D01*
X62255000Y-28800000D01*
X62255722Y-28785297D01*
X62257882Y-28770736D01*
X62261459Y-28756457D01*
X62266418Y-28742597D01*
X62272712Y-28729290D01*
X62280280Y-28716664D01*
X62289048Y-28704841D01*
X62298934Y-28693934D01*
X62309841Y-28684048D01*
X62321664Y-28675280D01*
X62334290Y-28667712D01*
X62347597Y-28661418D01*
X62361457Y-28656459D01*
X62375736Y-28652882D01*
X62390297Y-28650722D01*
X62405000Y-28650000D01*
X62705000Y-28650000D01*
X62719703Y-28650722D01*
G37*
G36*
X63989703Y-28650722D02*
G01*
X64004264Y-28652882D01*
X64018543Y-28656459D01*
X64032403Y-28661418D01*
X64045710Y-28667712D01*
X64058336Y-28675280D01*
X64070159Y-28684048D01*
X64081066Y-28693934D01*
X64090952Y-28704841D01*
X64099720Y-28716664D01*
X64107288Y-28729290D01*
X64113582Y-28742597D01*
X64118541Y-28756457D01*
X64122118Y-28770736D01*
X64124278Y-28785297D01*
X64125000Y-28800000D01*
X64125000Y-30450000D01*
X64124278Y-30464703D01*
X64122118Y-30479264D01*
X64118541Y-30493543D01*
X64113582Y-30507403D01*
X64107288Y-30520710D01*
X64099720Y-30533336D01*
X64090952Y-30545159D01*
X64081066Y-30556066D01*
X64070159Y-30565952D01*
X64058336Y-30574720D01*
X64045710Y-30582288D01*
X64032403Y-30588582D01*
X64018543Y-30593541D01*
X64004264Y-30597118D01*
X63989703Y-30599278D01*
X63975000Y-30600000D01*
X63675000Y-30600000D01*
X63660297Y-30599278D01*
X63645736Y-30597118D01*
X63631457Y-30593541D01*
X63617597Y-30588582D01*
X63604290Y-30582288D01*
X63591664Y-30574720D01*
X63579841Y-30565952D01*
X63568934Y-30556066D01*
X63559048Y-30545159D01*
X63550280Y-30533336D01*
X63542712Y-30520710D01*
X63536418Y-30507403D01*
X63531459Y-30493543D01*
X63527882Y-30479264D01*
X63525722Y-30464703D01*
X63525000Y-30450000D01*
X63525000Y-28800000D01*
X63525722Y-28785297D01*
X63527882Y-28770736D01*
X63531459Y-28756457D01*
X63536418Y-28742597D01*
X63542712Y-28729290D01*
X63550280Y-28716664D01*
X63559048Y-28704841D01*
X63568934Y-28693934D01*
X63579841Y-28684048D01*
X63591664Y-28675280D01*
X63604290Y-28667712D01*
X63617597Y-28661418D01*
X63631457Y-28656459D01*
X63645736Y-28652882D01*
X63660297Y-28650722D01*
X63675000Y-28650000D01*
X63975000Y-28650000D01*
X63989703Y-28650722D01*
G37*
G36*
X65259703Y-28650722D02*
G01*
X65274264Y-28652882D01*
X65288543Y-28656459D01*
X65302403Y-28661418D01*
X65315710Y-28667712D01*
X65328336Y-28675280D01*
X65340159Y-28684048D01*
X65351066Y-28693934D01*
X65360952Y-28704841D01*
X65369720Y-28716664D01*
X65377288Y-28729290D01*
X65383582Y-28742597D01*
X65388541Y-28756457D01*
X65392118Y-28770736D01*
X65394278Y-28785297D01*
X65395000Y-28800000D01*
X65395000Y-30450000D01*
X65394278Y-30464703D01*
X65392118Y-30479264D01*
X65388541Y-30493543D01*
X65383582Y-30507403D01*
X65377288Y-30520710D01*
X65369720Y-30533336D01*
X65360952Y-30545159D01*
X65351066Y-30556066D01*
X65340159Y-30565952D01*
X65328336Y-30574720D01*
X65315710Y-30582288D01*
X65302403Y-30588582D01*
X65288543Y-30593541D01*
X65274264Y-30597118D01*
X65259703Y-30599278D01*
X65245000Y-30600000D01*
X64945000Y-30600000D01*
X64930297Y-30599278D01*
X64915736Y-30597118D01*
X64901457Y-30593541D01*
X64887597Y-30588582D01*
X64874290Y-30582288D01*
X64861664Y-30574720D01*
X64849841Y-30565952D01*
X64838934Y-30556066D01*
X64829048Y-30545159D01*
X64820280Y-30533336D01*
X64812712Y-30520710D01*
X64806418Y-30507403D01*
X64801459Y-30493543D01*
X64797882Y-30479264D01*
X64795722Y-30464703D01*
X64795000Y-30450000D01*
X64795000Y-28800000D01*
X64795722Y-28785297D01*
X64797882Y-28770736D01*
X64801459Y-28756457D01*
X64806418Y-28742597D01*
X64812712Y-28729290D01*
X64820280Y-28716664D01*
X64829048Y-28704841D01*
X64838934Y-28693934D01*
X64849841Y-28684048D01*
X64861664Y-28675280D01*
X64874290Y-28667712D01*
X64887597Y-28661418D01*
X64901457Y-28656459D01*
X64915736Y-28652882D01*
X64930297Y-28650722D01*
X64945000Y-28650000D01*
X65245000Y-28650000D01*
X65259703Y-28650722D01*
G37*
G36*
X66529703Y-28650722D02*
G01*
X66544264Y-28652882D01*
X66558543Y-28656459D01*
X66572403Y-28661418D01*
X66585710Y-28667712D01*
X66598336Y-28675280D01*
X66610159Y-28684048D01*
X66621066Y-28693934D01*
X66630952Y-28704841D01*
X66639720Y-28716664D01*
X66647288Y-28729290D01*
X66653582Y-28742597D01*
X66658541Y-28756457D01*
X66662118Y-28770736D01*
X66664278Y-28785297D01*
X66665000Y-28800000D01*
X66665000Y-30450000D01*
X66664278Y-30464703D01*
X66662118Y-30479264D01*
X66658541Y-30493543D01*
X66653582Y-30507403D01*
X66647288Y-30520710D01*
X66639720Y-30533336D01*
X66630952Y-30545159D01*
X66621066Y-30556066D01*
X66610159Y-30565952D01*
X66598336Y-30574720D01*
X66585710Y-30582288D01*
X66572403Y-30588582D01*
X66558543Y-30593541D01*
X66544264Y-30597118D01*
X66529703Y-30599278D01*
X66515000Y-30600000D01*
X66215000Y-30600000D01*
X66200297Y-30599278D01*
X66185736Y-30597118D01*
X66171457Y-30593541D01*
X66157597Y-30588582D01*
X66144290Y-30582288D01*
X66131664Y-30574720D01*
X66119841Y-30565952D01*
X66108934Y-30556066D01*
X66099048Y-30545159D01*
X66090280Y-30533336D01*
X66082712Y-30520710D01*
X66076418Y-30507403D01*
X66071459Y-30493543D01*
X66067882Y-30479264D01*
X66065722Y-30464703D01*
X66065000Y-30450000D01*
X66065000Y-28800000D01*
X66065722Y-28785297D01*
X66067882Y-28770736D01*
X66071459Y-28756457D01*
X66076418Y-28742597D01*
X66082712Y-28729290D01*
X66090280Y-28716664D01*
X66099048Y-28704841D01*
X66108934Y-28693934D01*
X66119841Y-28684048D01*
X66131664Y-28675280D01*
X66144290Y-28667712D01*
X66157597Y-28661418D01*
X66171457Y-28656459D01*
X66185736Y-28652882D01*
X66200297Y-28650722D01*
X66215000Y-28650000D01*
X66515000Y-28650000D01*
X66529703Y-28650722D01*
G37*
G36*
X67799703Y-28650722D02*
G01*
X67814264Y-28652882D01*
X67828543Y-28656459D01*
X67842403Y-28661418D01*
X67855710Y-28667712D01*
X67868336Y-28675280D01*
X67880159Y-28684048D01*
X67891066Y-28693934D01*
X67900952Y-28704841D01*
X67909720Y-28716664D01*
X67917288Y-28729290D01*
X67923582Y-28742597D01*
X67928541Y-28756457D01*
X67932118Y-28770736D01*
X67934278Y-28785297D01*
X67935000Y-28800000D01*
X67935000Y-30450000D01*
X67934278Y-30464703D01*
X67932118Y-30479264D01*
X67928541Y-30493543D01*
X67923582Y-30507403D01*
X67917288Y-30520710D01*
X67909720Y-30533336D01*
X67900952Y-30545159D01*
X67891066Y-30556066D01*
X67880159Y-30565952D01*
X67868336Y-30574720D01*
X67855710Y-30582288D01*
X67842403Y-30588582D01*
X67828543Y-30593541D01*
X67814264Y-30597118D01*
X67799703Y-30599278D01*
X67785000Y-30600000D01*
X67485000Y-30600000D01*
X67470297Y-30599278D01*
X67455736Y-30597118D01*
X67441457Y-30593541D01*
X67427597Y-30588582D01*
X67414290Y-30582288D01*
X67401664Y-30574720D01*
X67389841Y-30565952D01*
X67378934Y-30556066D01*
X67369048Y-30545159D01*
X67360280Y-30533336D01*
X67352712Y-30520710D01*
X67346418Y-30507403D01*
X67341459Y-30493543D01*
X67337882Y-30479264D01*
X67335722Y-30464703D01*
X67335000Y-30450000D01*
X67335000Y-28800000D01*
X67335722Y-28785297D01*
X67337882Y-28770736D01*
X67341459Y-28756457D01*
X67346418Y-28742597D01*
X67352712Y-28729290D01*
X67360280Y-28716664D01*
X67369048Y-28704841D01*
X67378934Y-28693934D01*
X67389841Y-28684048D01*
X67401664Y-28675280D01*
X67414290Y-28667712D01*
X67427597Y-28661418D01*
X67441457Y-28656459D01*
X67455736Y-28652882D01*
X67470297Y-28650722D01*
X67485000Y-28650000D01*
X67785000Y-28650000D01*
X67799703Y-28650722D01*
G37*
G36*
X69069703Y-28650722D02*
G01*
X69084264Y-28652882D01*
X69098543Y-28656459D01*
X69112403Y-28661418D01*
X69125710Y-28667712D01*
X69138336Y-28675280D01*
X69150159Y-28684048D01*
X69161066Y-28693934D01*
X69170952Y-28704841D01*
X69179720Y-28716664D01*
X69187288Y-28729290D01*
X69193582Y-28742597D01*
X69198541Y-28756457D01*
X69202118Y-28770736D01*
X69204278Y-28785297D01*
X69205000Y-28800000D01*
X69205000Y-30450000D01*
X69204278Y-30464703D01*
X69202118Y-30479264D01*
X69198541Y-30493543D01*
X69193582Y-30507403D01*
X69187288Y-30520710D01*
X69179720Y-30533336D01*
X69170952Y-30545159D01*
X69161066Y-30556066D01*
X69150159Y-30565952D01*
X69138336Y-30574720D01*
X69125710Y-30582288D01*
X69112403Y-30588582D01*
X69098543Y-30593541D01*
X69084264Y-30597118D01*
X69069703Y-30599278D01*
X69055000Y-30600000D01*
X68755000Y-30600000D01*
X68740297Y-30599278D01*
X68725736Y-30597118D01*
X68711457Y-30593541D01*
X68697597Y-30588582D01*
X68684290Y-30582288D01*
X68671664Y-30574720D01*
X68659841Y-30565952D01*
X68648934Y-30556066D01*
X68639048Y-30545159D01*
X68630280Y-30533336D01*
X68622712Y-30520710D01*
X68616418Y-30507403D01*
X68611459Y-30493543D01*
X68607882Y-30479264D01*
X68605722Y-30464703D01*
X68605000Y-30450000D01*
X68605000Y-28800000D01*
X68605722Y-28785297D01*
X68607882Y-28770736D01*
X68611459Y-28756457D01*
X68616418Y-28742597D01*
X68622712Y-28729290D01*
X68630280Y-28716664D01*
X68639048Y-28704841D01*
X68648934Y-28693934D01*
X68659841Y-28684048D01*
X68671664Y-28675280D01*
X68684290Y-28667712D01*
X68697597Y-28661418D01*
X68711457Y-28656459D01*
X68725736Y-28652882D01*
X68740297Y-28650722D01*
X68755000Y-28650000D01*
X69055000Y-28650000D01*
X69069703Y-28650722D01*
G37*
G36*
X70339703Y-28650722D02*
G01*
X70354264Y-28652882D01*
X70368543Y-28656459D01*
X70382403Y-28661418D01*
X70395710Y-28667712D01*
X70408336Y-28675280D01*
X70420159Y-28684048D01*
X70431066Y-28693934D01*
X70440952Y-28704841D01*
X70449720Y-28716664D01*
X70457288Y-28729290D01*
X70463582Y-28742597D01*
X70468541Y-28756457D01*
X70472118Y-28770736D01*
X70474278Y-28785297D01*
X70475000Y-28800000D01*
X70475000Y-30450000D01*
X70474278Y-30464703D01*
X70472118Y-30479264D01*
X70468541Y-30493543D01*
X70463582Y-30507403D01*
X70457288Y-30520710D01*
X70449720Y-30533336D01*
X70440952Y-30545159D01*
X70431066Y-30556066D01*
X70420159Y-30565952D01*
X70408336Y-30574720D01*
X70395710Y-30582288D01*
X70382403Y-30588582D01*
X70368543Y-30593541D01*
X70354264Y-30597118D01*
X70339703Y-30599278D01*
X70325000Y-30600000D01*
X70025000Y-30600000D01*
X70010297Y-30599278D01*
X69995736Y-30597118D01*
X69981457Y-30593541D01*
X69967597Y-30588582D01*
X69954290Y-30582288D01*
X69941664Y-30574720D01*
X69929841Y-30565952D01*
X69918934Y-30556066D01*
X69909048Y-30545159D01*
X69900280Y-30533336D01*
X69892712Y-30520710D01*
X69886418Y-30507403D01*
X69881459Y-30493543D01*
X69877882Y-30479264D01*
X69875722Y-30464703D01*
X69875000Y-30450000D01*
X69875000Y-28800000D01*
X69875722Y-28785297D01*
X69877882Y-28770736D01*
X69881459Y-28756457D01*
X69886418Y-28742597D01*
X69892712Y-28729290D01*
X69900280Y-28716664D01*
X69909048Y-28704841D01*
X69918934Y-28693934D01*
X69929841Y-28684048D01*
X69941664Y-28675280D01*
X69954290Y-28667712D01*
X69967597Y-28661418D01*
X69981457Y-28656459D01*
X69995736Y-28652882D01*
X70010297Y-28650722D01*
X70025000Y-28650000D01*
X70325000Y-28650000D01*
X70339703Y-28650722D01*
G37*
G36*
X71609703Y-28650722D02*
G01*
X71624264Y-28652882D01*
X71638543Y-28656459D01*
X71652403Y-28661418D01*
X71665710Y-28667712D01*
X71678336Y-28675280D01*
X71690159Y-28684048D01*
X71701066Y-28693934D01*
X71710952Y-28704841D01*
X71719720Y-28716664D01*
X71727288Y-28729290D01*
X71733582Y-28742597D01*
X71738541Y-28756457D01*
X71742118Y-28770736D01*
X71744278Y-28785297D01*
X71745000Y-28800000D01*
X71745000Y-30450000D01*
X71744278Y-30464703D01*
X71742118Y-30479264D01*
X71738541Y-30493543D01*
X71733582Y-30507403D01*
X71727288Y-30520710D01*
X71719720Y-30533336D01*
X71710952Y-30545159D01*
X71701066Y-30556066D01*
X71690159Y-30565952D01*
X71678336Y-30574720D01*
X71665710Y-30582288D01*
X71652403Y-30588582D01*
X71638543Y-30593541D01*
X71624264Y-30597118D01*
X71609703Y-30599278D01*
X71595000Y-30600000D01*
X71295000Y-30600000D01*
X71280297Y-30599278D01*
X71265736Y-30597118D01*
X71251457Y-30593541D01*
X71237597Y-30588582D01*
X71224290Y-30582288D01*
X71211664Y-30574720D01*
X71199841Y-30565952D01*
X71188934Y-30556066D01*
X71179048Y-30545159D01*
X71170280Y-30533336D01*
X71162712Y-30520710D01*
X71156418Y-30507403D01*
X71151459Y-30493543D01*
X71147882Y-30479264D01*
X71145722Y-30464703D01*
X71145000Y-30450000D01*
X71145000Y-28800000D01*
X71145722Y-28785297D01*
X71147882Y-28770736D01*
X71151459Y-28756457D01*
X71156418Y-28742597D01*
X71162712Y-28729290D01*
X71170280Y-28716664D01*
X71179048Y-28704841D01*
X71188934Y-28693934D01*
X71199841Y-28684048D01*
X71211664Y-28675280D01*
X71224290Y-28667712D01*
X71237597Y-28661418D01*
X71251457Y-28656459D01*
X71265736Y-28652882D01*
X71280297Y-28650722D01*
X71295000Y-28650000D01*
X71595000Y-28650000D01*
X71609703Y-28650722D01*
G37*
D25*
X41750000Y-31250000D03*
X44250000Y-31250000D03*
D10*
G36*
X62285779Y-18351144D02*
G01*
X62308834Y-18354563D01*
X62331443Y-18360227D01*
X62353387Y-18368079D01*
X62374457Y-18378044D01*
X62394448Y-18390026D01*
X62413168Y-18403910D01*
X62430438Y-18419562D01*
X62446090Y-18436832D01*
X62459974Y-18455552D01*
X62471956Y-18475543D01*
X62481921Y-18496613D01*
X62489773Y-18518557D01*
X62495437Y-18541166D01*
X62498856Y-18564221D01*
X62500000Y-18587500D01*
X62500000Y-19162500D01*
X62498856Y-19185779D01*
X62495437Y-19208834D01*
X62489773Y-19231443D01*
X62481921Y-19253387D01*
X62471956Y-19274457D01*
X62459974Y-19294448D01*
X62446090Y-19313168D01*
X62430438Y-19330438D01*
X62413168Y-19346090D01*
X62394448Y-19359974D01*
X62374457Y-19371956D01*
X62353387Y-19381921D01*
X62331443Y-19389773D01*
X62308834Y-19395437D01*
X62285779Y-19398856D01*
X62262500Y-19400000D01*
X61787500Y-19400000D01*
X61764221Y-19398856D01*
X61741166Y-19395437D01*
X61718557Y-19389773D01*
X61696613Y-19381921D01*
X61675543Y-19371956D01*
X61655552Y-19359974D01*
X61636832Y-19346090D01*
X61619562Y-19330438D01*
X61603910Y-19313168D01*
X61590026Y-19294448D01*
X61578044Y-19274457D01*
X61568079Y-19253387D01*
X61560227Y-19231443D01*
X61554563Y-19208834D01*
X61551144Y-19185779D01*
X61550000Y-19162500D01*
X61550000Y-18587500D01*
X61551144Y-18564221D01*
X61554563Y-18541166D01*
X61560227Y-18518557D01*
X61568079Y-18496613D01*
X61578044Y-18475543D01*
X61590026Y-18455552D01*
X61603910Y-18436832D01*
X61619562Y-18419562D01*
X61636832Y-18403910D01*
X61655552Y-18390026D01*
X61675543Y-18378044D01*
X61696613Y-18368079D01*
X61718557Y-18360227D01*
X61741166Y-18354563D01*
X61764221Y-18351144D01*
X61787500Y-18350000D01*
X62262500Y-18350000D01*
X62285779Y-18351144D01*
G37*
G36*
X62285779Y-16601144D02*
G01*
X62308834Y-16604563D01*
X62331443Y-16610227D01*
X62353387Y-16618079D01*
X62374457Y-16628044D01*
X62394448Y-16640026D01*
X62413168Y-16653910D01*
X62430438Y-16669562D01*
X62446090Y-16686832D01*
X62459974Y-16705552D01*
X62471956Y-16725543D01*
X62481921Y-16746613D01*
X62489773Y-16768557D01*
X62495437Y-16791166D01*
X62498856Y-16814221D01*
X62500000Y-16837500D01*
X62500000Y-17412500D01*
X62498856Y-17435779D01*
X62495437Y-17458834D01*
X62489773Y-17481443D01*
X62481921Y-17503387D01*
X62471956Y-17524457D01*
X62459974Y-17544448D01*
X62446090Y-17563168D01*
X62430438Y-17580438D01*
X62413168Y-17596090D01*
X62394448Y-17609974D01*
X62374457Y-17621956D01*
X62353387Y-17631921D01*
X62331443Y-17639773D01*
X62308834Y-17645437D01*
X62285779Y-17648856D01*
X62262500Y-17650000D01*
X61787500Y-17650000D01*
X61764221Y-17648856D01*
X61741166Y-17645437D01*
X61718557Y-17639773D01*
X61696613Y-17631921D01*
X61675543Y-17621956D01*
X61655552Y-17609974D01*
X61636832Y-17596090D01*
X61619562Y-17580438D01*
X61603910Y-17563168D01*
X61590026Y-17544448D01*
X61578044Y-17524457D01*
X61568079Y-17503387D01*
X61560227Y-17481443D01*
X61554563Y-17458834D01*
X61551144Y-17435779D01*
X61550000Y-17412500D01*
X61550000Y-16837500D01*
X61551144Y-16814221D01*
X61554563Y-16791166D01*
X61560227Y-16768557D01*
X61568079Y-16746613D01*
X61578044Y-16725543D01*
X61590026Y-16705552D01*
X61603910Y-16686832D01*
X61619562Y-16669562D01*
X61636832Y-16653910D01*
X61655552Y-16640026D01*
X61675543Y-16628044D01*
X61696613Y-16618079D01*
X61718557Y-16610227D01*
X61741166Y-16604563D01*
X61764221Y-16601144D01*
X61787500Y-16600000D01*
X62262500Y-16600000D01*
X62285779Y-16601144D01*
G37*
G36*
X64035779Y-18351144D02*
G01*
X64058834Y-18354563D01*
X64081443Y-18360227D01*
X64103387Y-18368079D01*
X64124457Y-18378044D01*
X64144448Y-18390026D01*
X64163168Y-18403910D01*
X64180438Y-18419562D01*
X64196090Y-18436832D01*
X64209974Y-18455552D01*
X64221956Y-18475543D01*
X64231921Y-18496613D01*
X64239773Y-18518557D01*
X64245437Y-18541166D01*
X64248856Y-18564221D01*
X64250000Y-18587500D01*
X64250000Y-19162500D01*
X64248856Y-19185779D01*
X64245437Y-19208834D01*
X64239773Y-19231443D01*
X64231921Y-19253387D01*
X64221956Y-19274457D01*
X64209974Y-19294448D01*
X64196090Y-19313168D01*
X64180438Y-19330438D01*
X64163168Y-19346090D01*
X64144448Y-19359974D01*
X64124457Y-19371956D01*
X64103387Y-19381921D01*
X64081443Y-19389773D01*
X64058834Y-19395437D01*
X64035779Y-19398856D01*
X64012500Y-19400000D01*
X63537500Y-19400000D01*
X63514221Y-19398856D01*
X63491166Y-19395437D01*
X63468557Y-19389773D01*
X63446613Y-19381921D01*
X63425543Y-19371956D01*
X63405552Y-19359974D01*
X63386832Y-19346090D01*
X63369562Y-19330438D01*
X63353910Y-19313168D01*
X63340026Y-19294448D01*
X63328044Y-19274457D01*
X63318079Y-19253387D01*
X63310227Y-19231443D01*
X63304563Y-19208834D01*
X63301144Y-19185779D01*
X63300000Y-19162500D01*
X63300000Y-18587500D01*
X63301144Y-18564221D01*
X63304563Y-18541166D01*
X63310227Y-18518557D01*
X63318079Y-18496613D01*
X63328044Y-18475543D01*
X63340026Y-18455552D01*
X63353910Y-18436832D01*
X63369562Y-18419562D01*
X63386832Y-18403910D01*
X63405552Y-18390026D01*
X63425543Y-18378044D01*
X63446613Y-18368079D01*
X63468557Y-18360227D01*
X63491166Y-18354563D01*
X63514221Y-18351144D01*
X63537500Y-18350000D01*
X64012500Y-18350000D01*
X64035779Y-18351144D01*
G37*
G36*
X64035779Y-16601144D02*
G01*
X64058834Y-16604563D01*
X64081443Y-16610227D01*
X64103387Y-16618079D01*
X64124457Y-16628044D01*
X64144448Y-16640026D01*
X64163168Y-16653910D01*
X64180438Y-16669562D01*
X64196090Y-16686832D01*
X64209974Y-16705552D01*
X64221956Y-16725543D01*
X64231921Y-16746613D01*
X64239773Y-16768557D01*
X64245437Y-16791166D01*
X64248856Y-16814221D01*
X64250000Y-16837500D01*
X64250000Y-17412500D01*
X64248856Y-17435779D01*
X64245437Y-17458834D01*
X64239773Y-17481443D01*
X64231921Y-17503387D01*
X64221956Y-17524457D01*
X64209974Y-17544448D01*
X64196090Y-17563168D01*
X64180438Y-17580438D01*
X64163168Y-17596090D01*
X64144448Y-17609974D01*
X64124457Y-17621956D01*
X64103387Y-17631921D01*
X64081443Y-17639773D01*
X64058834Y-17645437D01*
X64035779Y-17648856D01*
X64012500Y-17650000D01*
X63537500Y-17650000D01*
X63514221Y-17648856D01*
X63491166Y-17645437D01*
X63468557Y-17639773D01*
X63446613Y-17631921D01*
X63425543Y-17621956D01*
X63405552Y-17609974D01*
X63386832Y-17596090D01*
X63369562Y-17580438D01*
X63353910Y-17563168D01*
X63340026Y-17544448D01*
X63328044Y-17524457D01*
X63318079Y-17503387D01*
X63310227Y-17481443D01*
X63304563Y-17458834D01*
X63301144Y-17435779D01*
X63300000Y-17412500D01*
X63300000Y-16837500D01*
X63301144Y-16814221D01*
X63304563Y-16791166D01*
X63310227Y-16768557D01*
X63318079Y-16746613D01*
X63328044Y-16725543D01*
X63340026Y-16705552D01*
X63353910Y-16686832D01*
X63369562Y-16669562D01*
X63386832Y-16653910D01*
X63405552Y-16640026D01*
X63425543Y-16628044D01*
X63446613Y-16618079D01*
X63468557Y-16610227D01*
X63491166Y-16604563D01*
X63514221Y-16601144D01*
X63537500Y-16600000D01*
X64012500Y-16600000D01*
X64035779Y-16601144D01*
G37*
G36*
X53510779Y-10851144D02*
G01*
X53533834Y-10854563D01*
X53556443Y-10860227D01*
X53578387Y-10868079D01*
X53599457Y-10878044D01*
X53619448Y-10890026D01*
X53638168Y-10903910D01*
X53655438Y-10919562D01*
X53671090Y-10936832D01*
X53684974Y-10955552D01*
X53696956Y-10975543D01*
X53706921Y-10996613D01*
X53714773Y-11018557D01*
X53720437Y-11041166D01*
X53723856Y-11064221D01*
X53725000Y-11087500D01*
X53725000Y-11662500D01*
X53723856Y-11685779D01*
X53720437Y-11708834D01*
X53714773Y-11731443D01*
X53706921Y-11753387D01*
X53696956Y-11774457D01*
X53684974Y-11794448D01*
X53671090Y-11813168D01*
X53655438Y-11830438D01*
X53638168Y-11846090D01*
X53619448Y-11859974D01*
X53599457Y-11871956D01*
X53578387Y-11881921D01*
X53556443Y-11889773D01*
X53533834Y-11895437D01*
X53510779Y-11898856D01*
X53487500Y-11900000D01*
X53012500Y-11900000D01*
X52989221Y-11898856D01*
X52966166Y-11895437D01*
X52943557Y-11889773D01*
X52921613Y-11881921D01*
X52900543Y-11871956D01*
X52880552Y-11859974D01*
X52861832Y-11846090D01*
X52844562Y-11830438D01*
X52828910Y-11813168D01*
X52815026Y-11794448D01*
X52803044Y-11774457D01*
X52793079Y-11753387D01*
X52785227Y-11731443D01*
X52779563Y-11708834D01*
X52776144Y-11685779D01*
X52775000Y-11662500D01*
X52775000Y-11087500D01*
X52776144Y-11064221D01*
X52779563Y-11041166D01*
X52785227Y-11018557D01*
X52793079Y-10996613D01*
X52803044Y-10975543D01*
X52815026Y-10955552D01*
X52828910Y-10936832D01*
X52844562Y-10919562D01*
X52861832Y-10903910D01*
X52880552Y-10890026D01*
X52900543Y-10878044D01*
X52921613Y-10868079D01*
X52943557Y-10860227D01*
X52966166Y-10854563D01*
X52989221Y-10851144D01*
X53012500Y-10850000D01*
X53487500Y-10850000D01*
X53510779Y-10851144D01*
G37*
G36*
X53510779Y-12601144D02*
G01*
X53533834Y-12604563D01*
X53556443Y-12610227D01*
X53578387Y-12618079D01*
X53599457Y-12628044D01*
X53619448Y-12640026D01*
X53638168Y-12653910D01*
X53655438Y-12669562D01*
X53671090Y-12686832D01*
X53684974Y-12705552D01*
X53696956Y-12725543D01*
X53706921Y-12746613D01*
X53714773Y-12768557D01*
X53720437Y-12791166D01*
X53723856Y-12814221D01*
X53725000Y-12837500D01*
X53725000Y-13412500D01*
X53723856Y-13435779D01*
X53720437Y-13458834D01*
X53714773Y-13481443D01*
X53706921Y-13503387D01*
X53696956Y-13524457D01*
X53684974Y-13544448D01*
X53671090Y-13563168D01*
X53655438Y-13580438D01*
X53638168Y-13596090D01*
X53619448Y-13609974D01*
X53599457Y-13621956D01*
X53578387Y-13631921D01*
X53556443Y-13639773D01*
X53533834Y-13645437D01*
X53510779Y-13648856D01*
X53487500Y-13650000D01*
X53012500Y-13650000D01*
X52989221Y-13648856D01*
X52966166Y-13645437D01*
X52943557Y-13639773D01*
X52921613Y-13631921D01*
X52900543Y-13621956D01*
X52880552Y-13609974D01*
X52861832Y-13596090D01*
X52844562Y-13580438D01*
X52828910Y-13563168D01*
X52815026Y-13544448D01*
X52803044Y-13524457D01*
X52793079Y-13503387D01*
X52785227Y-13481443D01*
X52779563Y-13458834D01*
X52776144Y-13435779D01*
X52775000Y-13412500D01*
X52775000Y-12837500D01*
X52776144Y-12814221D01*
X52779563Y-12791166D01*
X52785227Y-12768557D01*
X52793079Y-12746613D01*
X52803044Y-12725543D01*
X52815026Y-12705552D01*
X52828910Y-12686832D01*
X52844562Y-12669562D01*
X52861832Y-12653910D01*
X52880552Y-12640026D01*
X52900543Y-12628044D01*
X52921613Y-12618079D01*
X52943557Y-12610227D01*
X52966166Y-12604563D01*
X52989221Y-12601144D01*
X53012500Y-12600000D01*
X53487500Y-12600000D01*
X53510779Y-12601144D01*
G37*
G36*
X52010779Y-12601144D02*
G01*
X52033834Y-12604563D01*
X52056443Y-12610227D01*
X52078387Y-12618079D01*
X52099457Y-12628044D01*
X52119448Y-12640026D01*
X52138168Y-12653910D01*
X52155438Y-12669562D01*
X52171090Y-12686832D01*
X52184974Y-12705552D01*
X52196956Y-12725543D01*
X52206921Y-12746613D01*
X52214773Y-12768557D01*
X52220437Y-12791166D01*
X52223856Y-12814221D01*
X52225000Y-12837500D01*
X52225000Y-13412500D01*
X52223856Y-13435779D01*
X52220437Y-13458834D01*
X52214773Y-13481443D01*
X52206921Y-13503387D01*
X52196956Y-13524457D01*
X52184974Y-13544448D01*
X52171090Y-13563168D01*
X52155438Y-13580438D01*
X52138168Y-13596090D01*
X52119448Y-13609974D01*
X52099457Y-13621956D01*
X52078387Y-13631921D01*
X52056443Y-13639773D01*
X52033834Y-13645437D01*
X52010779Y-13648856D01*
X51987500Y-13650000D01*
X51512500Y-13650000D01*
X51489221Y-13648856D01*
X51466166Y-13645437D01*
X51443557Y-13639773D01*
X51421613Y-13631921D01*
X51400543Y-13621956D01*
X51380552Y-13609974D01*
X51361832Y-13596090D01*
X51344562Y-13580438D01*
X51328910Y-13563168D01*
X51315026Y-13544448D01*
X51303044Y-13524457D01*
X51293079Y-13503387D01*
X51285227Y-13481443D01*
X51279563Y-13458834D01*
X51276144Y-13435779D01*
X51275000Y-13412500D01*
X51275000Y-12837500D01*
X51276144Y-12814221D01*
X51279563Y-12791166D01*
X51285227Y-12768557D01*
X51293079Y-12746613D01*
X51303044Y-12725543D01*
X51315026Y-12705552D01*
X51328910Y-12686832D01*
X51344562Y-12669562D01*
X51361832Y-12653910D01*
X51380552Y-12640026D01*
X51400543Y-12628044D01*
X51421613Y-12618079D01*
X51443557Y-12610227D01*
X51466166Y-12604563D01*
X51489221Y-12601144D01*
X51512500Y-12600000D01*
X51987500Y-12600000D01*
X52010779Y-12601144D01*
G37*
G36*
X52010779Y-10851144D02*
G01*
X52033834Y-10854563D01*
X52056443Y-10860227D01*
X52078387Y-10868079D01*
X52099457Y-10878044D01*
X52119448Y-10890026D01*
X52138168Y-10903910D01*
X52155438Y-10919562D01*
X52171090Y-10936832D01*
X52184974Y-10955552D01*
X52196956Y-10975543D01*
X52206921Y-10996613D01*
X52214773Y-11018557D01*
X52220437Y-11041166D01*
X52223856Y-11064221D01*
X52225000Y-11087500D01*
X52225000Y-11662500D01*
X52223856Y-11685779D01*
X52220437Y-11708834D01*
X52214773Y-11731443D01*
X52206921Y-11753387D01*
X52196956Y-11774457D01*
X52184974Y-11794448D01*
X52171090Y-11813168D01*
X52155438Y-11830438D01*
X52138168Y-11846090D01*
X52119448Y-11859974D01*
X52099457Y-11871956D01*
X52078387Y-11881921D01*
X52056443Y-11889773D01*
X52033834Y-11895437D01*
X52010779Y-11898856D01*
X51987500Y-11900000D01*
X51512500Y-11900000D01*
X51489221Y-11898856D01*
X51466166Y-11895437D01*
X51443557Y-11889773D01*
X51421613Y-11881921D01*
X51400543Y-11871956D01*
X51380552Y-11859974D01*
X51361832Y-11846090D01*
X51344562Y-11830438D01*
X51328910Y-11813168D01*
X51315026Y-11794448D01*
X51303044Y-11774457D01*
X51293079Y-11753387D01*
X51285227Y-11731443D01*
X51279563Y-11708834D01*
X51276144Y-11685779D01*
X51275000Y-11662500D01*
X51275000Y-11087500D01*
X51276144Y-11064221D01*
X51279563Y-11041166D01*
X51285227Y-11018557D01*
X51293079Y-10996613D01*
X51303044Y-10975543D01*
X51315026Y-10955552D01*
X51328910Y-10936832D01*
X51344562Y-10919562D01*
X51361832Y-10903910D01*
X51380552Y-10890026D01*
X51400543Y-10878044D01*
X51421613Y-10868079D01*
X51443557Y-10860227D01*
X51466166Y-10854563D01*
X51489221Y-10851144D01*
X51512500Y-10850000D01*
X51987500Y-10850000D01*
X52010779Y-10851144D01*
G37*
G36*
X49135779Y-21176144D02*
G01*
X49158834Y-21179563D01*
X49181443Y-21185227D01*
X49203387Y-21193079D01*
X49224457Y-21203044D01*
X49244448Y-21215026D01*
X49263168Y-21228910D01*
X49280438Y-21244562D01*
X49296090Y-21261832D01*
X49309974Y-21280552D01*
X49321956Y-21300543D01*
X49331921Y-21321613D01*
X49339773Y-21343557D01*
X49345437Y-21366166D01*
X49348856Y-21389221D01*
X49350000Y-21412500D01*
X49350000Y-21887500D01*
X49348856Y-21910779D01*
X49345437Y-21933834D01*
X49339773Y-21956443D01*
X49331921Y-21978387D01*
X49321956Y-21999457D01*
X49309974Y-22019448D01*
X49296090Y-22038168D01*
X49280438Y-22055438D01*
X49263168Y-22071090D01*
X49244448Y-22084974D01*
X49224457Y-22096956D01*
X49203387Y-22106921D01*
X49181443Y-22114773D01*
X49158834Y-22120437D01*
X49135779Y-22123856D01*
X49112500Y-22125000D01*
X48537500Y-22125000D01*
X48514221Y-22123856D01*
X48491166Y-22120437D01*
X48468557Y-22114773D01*
X48446613Y-22106921D01*
X48425543Y-22096956D01*
X48405552Y-22084974D01*
X48386832Y-22071090D01*
X48369562Y-22055438D01*
X48353910Y-22038168D01*
X48340026Y-22019448D01*
X48328044Y-21999457D01*
X48318079Y-21978387D01*
X48310227Y-21956443D01*
X48304563Y-21933834D01*
X48301144Y-21910779D01*
X48300000Y-21887500D01*
X48300000Y-21412500D01*
X48301144Y-21389221D01*
X48304563Y-21366166D01*
X48310227Y-21343557D01*
X48318079Y-21321613D01*
X48328044Y-21300543D01*
X48340026Y-21280552D01*
X48353910Y-21261832D01*
X48369562Y-21244562D01*
X48386832Y-21228910D01*
X48405552Y-21215026D01*
X48425543Y-21203044D01*
X48446613Y-21193079D01*
X48468557Y-21185227D01*
X48491166Y-21179563D01*
X48514221Y-21176144D01*
X48537500Y-21175000D01*
X49112500Y-21175000D01*
X49135779Y-21176144D01*
G37*
G36*
X50885779Y-21176144D02*
G01*
X50908834Y-21179563D01*
X50931443Y-21185227D01*
X50953387Y-21193079D01*
X50974457Y-21203044D01*
X50994448Y-21215026D01*
X51013168Y-21228910D01*
X51030438Y-21244562D01*
X51046090Y-21261832D01*
X51059974Y-21280552D01*
X51071956Y-21300543D01*
X51081921Y-21321613D01*
X51089773Y-21343557D01*
X51095437Y-21366166D01*
X51098856Y-21389221D01*
X51100000Y-21412500D01*
X51100000Y-21887500D01*
X51098856Y-21910779D01*
X51095437Y-21933834D01*
X51089773Y-21956443D01*
X51081921Y-21978387D01*
X51071956Y-21999457D01*
X51059974Y-22019448D01*
X51046090Y-22038168D01*
X51030438Y-22055438D01*
X51013168Y-22071090D01*
X50994448Y-22084974D01*
X50974457Y-22096956D01*
X50953387Y-22106921D01*
X50931443Y-22114773D01*
X50908834Y-22120437D01*
X50885779Y-22123856D01*
X50862500Y-22125000D01*
X50287500Y-22125000D01*
X50264221Y-22123856D01*
X50241166Y-22120437D01*
X50218557Y-22114773D01*
X50196613Y-22106921D01*
X50175543Y-22096956D01*
X50155552Y-22084974D01*
X50136832Y-22071090D01*
X50119562Y-22055438D01*
X50103910Y-22038168D01*
X50090026Y-22019448D01*
X50078044Y-21999457D01*
X50068079Y-21978387D01*
X50060227Y-21956443D01*
X50054563Y-21933834D01*
X50051144Y-21910779D01*
X50050000Y-21887500D01*
X50050000Y-21412500D01*
X50051144Y-21389221D01*
X50054563Y-21366166D01*
X50060227Y-21343557D01*
X50068079Y-21321613D01*
X50078044Y-21300543D01*
X50090026Y-21280552D01*
X50103910Y-21261832D01*
X50119562Y-21244562D01*
X50136832Y-21228910D01*
X50155552Y-21215026D01*
X50175543Y-21203044D01*
X50196613Y-21193079D01*
X50218557Y-21185227D01*
X50241166Y-21179563D01*
X50264221Y-21176144D01*
X50287500Y-21175000D01*
X50862500Y-21175000D01*
X50885779Y-21176144D01*
G37*
G36*
X55985779Y-23126144D02*
G01*
X56008834Y-23129563D01*
X56031443Y-23135227D01*
X56053387Y-23143079D01*
X56074457Y-23153044D01*
X56094448Y-23165026D01*
X56113168Y-23178910D01*
X56130438Y-23194562D01*
X56146090Y-23211832D01*
X56159974Y-23230552D01*
X56171956Y-23250543D01*
X56181921Y-23271613D01*
X56189773Y-23293557D01*
X56195437Y-23316166D01*
X56198856Y-23339221D01*
X56200000Y-23362500D01*
X56200000Y-23937500D01*
X56198856Y-23960779D01*
X56195437Y-23983834D01*
X56189773Y-24006443D01*
X56181921Y-24028387D01*
X56171956Y-24049457D01*
X56159974Y-24069448D01*
X56146090Y-24088168D01*
X56130438Y-24105438D01*
X56113168Y-24121090D01*
X56094448Y-24134974D01*
X56074457Y-24146956D01*
X56053387Y-24156921D01*
X56031443Y-24164773D01*
X56008834Y-24170437D01*
X55985779Y-24173856D01*
X55962500Y-24175000D01*
X55487500Y-24175000D01*
X55464221Y-24173856D01*
X55441166Y-24170437D01*
X55418557Y-24164773D01*
X55396613Y-24156921D01*
X55375543Y-24146956D01*
X55355552Y-24134974D01*
X55336832Y-24121090D01*
X55319562Y-24105438D01*
X55303910Y-24088168D01*
X55290026Y-24069448D01*
X55278044Y-24049457D01*
X55268079Y-24028387D01*
X55260227Y-24006443D01*
X55254563Y-23983834D01*
X55251144Y-23960779D01*
X55250000Y-23937500D01*
X55250000Y-23362500D01*
X55251144Y-23339221D01*
X55254563Y-23316166D01*
X55260227Y-23293557D01*
X55268079Y-23271613D01*
X55278044Y-23250543D01*
X55290026Y-23230552D01*
X55303910Y-23211832D01*
X55319562Y-23194562D01*
X55336832Y-23178910D01*
X55355552Y-23165026D01*
X55375543Y-23153044D01*
X55396613Y-23143079D01*
X55418557Y-23135227D01*
X55441166Y-23129563D01*
X55464221Y-23126144D01*
X55487500Y-23125000D01*
X55962500Y-23125000D01*
X55985779Y-23126144D01*
G37*
G36*
X55985779Y-21376144D02*
G01*
X56008834Y-21379563D01*
X56031443Y-21385227D01*
X56053387Y-21393079D01*
X56074457Y-21403044D01*
X56094448Y-21415026D01*
X56113168Y-21428910D01*
X56130438Y-21444562D01*
X56146090Y-21461832D01*
X56159974Y-21480552D01*
X56171956Y-21500543D01*
X56181921Y-21521613D01*
X56189773Y-21543557D01*
X56195437Y-21566166D01*
X56198856Y-21589221D01*
X56200000Y-21612500D01*
X56200000Y-22187500D01*
X56198856Y-22210779D01*
X56195437Y-22233834D01*
X56189773Y-22256443D01*
X56181921Y-22278387D01*
X56171956Y-22299457D01*
X56159974Y-22319448D01*
X56146090Y-22338168D01*
X56130438Y-22355438D01*
X56113168Y-22371090D01*
X56094448Y-22384974D01*
X56074457Y-22396956D01*
X56053387Y-22406921D01*
X56031443Y-22414773D01*
X56008834Y-22420437D01*
X55985779Y-22423856D01*
X55962500Y-22425000D01*
X55487500Y-22425000D01*
X55464221Y-22423856D01*
X55441166Y-22420437D01*
X55418557Y-22414773D01*
X55396613Y-22406921D01*
X55375543Y-22396956D01*
X55355552Y-22384974D01*
X55336832Y-22371090D01*
X55319562Y-22355438D01*
X55303910Y-22338168D01*
X55290026Y-22319448D01*
X55278044Y-22299457D01*
X55268079Y-22278387D01*
X55260227Y-22256443D01*
X55254563Y-22233834D01*
X55251144Y-22210779D01*
X55250000Y-22187500D01*
X55250000Y-21612500D01*
X55251144Y-21589221D01*
X55254563Y-21566166D01*
X55260227Y-21543557D01*
X55268079Y-21521613D01*
X55278044Y-21500543D01*
X55290026Y-21480552D01*
X55303910Y-21461832D01*
X55319562Y-21444562D01*
X55336832Y-21428910D01*
X55355552Y-21415026D01*
X55375543Y-21403044D01*
X55396613Y-21393079D01*
X55418557Y-21385227D01*
X55441166Y-21379563D01*
X55464221Y-21376144D01*
X55487500Y-21375000D01*
X55962500Y-21375000D01*
X55985779Y-21376144D01*
G37*
G36*
X49135779Y-23376144D02*
G01*
X49158834Y-23379563D01*
X49181443Y-23385227D01*
X49203387Y-23393079D01*
X49224457Y-23403044D01*
X49244448Y-23415026D01*
X49263168Y-23428910D01*
X49280438Y-23444562D01*
X49296090Y-23461832D01*
X49309974Y-23480552D01*
X49321956Y-23500543D01*
X49331921Y-23521613D01*
X49339773Y-23543557D01*
X49345437Y-23566166D01*
X49348856Y-23589221D01*
X49350000Y-23612500D01*
X49350000Y-24087500D01*
X49348856Y-24110779D01*
X49345437Y-24133834D01*
X49339773Y-24156443D01*
X49331921Y-24178387D01*
X49321956Y-24199457D01*
X49309974Y-24219448D01*
X49296090Y-24238168D01*
X49280438Y-24255438D01*
X49263168Y-24271090D01*
X49244448Y-24284974D01*
X49224457Y-24296956D01*
X49203387Y-24306921D01*
X49181443Y-24314773D01*
X49158834Y-24320437D01*
X49135779Y-24323856D01*
X49112500Y-24325000D01*
X48537500Y-24325000D01*
X48514221Y-24323856D01*
X48491166Y-24320437D01*
X48468557Y-24314773D01*
X48446613Y-24306921D01*
X48425543Y-24296956D01*
X48405552Y-24284974D01*
X48386832Y-24271090D01*
X48369562Y-24255438D01*
X48353910Y-24238168D01*
X48340026Y-24219448D01*
X48328044Y-24199457D01*
X48318079Y-24178387D01*
X48310227Y-24156443D01*
X48304563Y-24133834D01*
X48301144Y-24110779D01*
X48300000Y-24087500D01*
X48300000Y-23612500D01*
X48301144Y-23589221D01*
X48304563Y-23566166D01*
X48310227Y-23543557D01*
X48318079Y-23521613D01*
X48328044Y-23500543D01*
X48340026Y-23480552D01*
X48353910Y-23461832D01*
X48369562Y-23444562D01*
X48386832Y-23428910D01*
X48405552Y-23415026D01*
X48425543Y-23403044D01*
X48446613Y-23393079D01*
X48468557Y-23385227D01*
X48491166Y-23379563D01*
X48514221Y-23376144D01*
X48537500Y-23375000D01*
X49112500Y-23375000D01*
X49135779Y-23376144D01*
G37*
G36*
X50885779Y-23376144D02*
G01*
X50908834Y-23379563D01*
X50931443Y-23385227D01*
X50953387Y-23393079D01*
X50974457Y-23403044D01*
X50994448Y-23415026D01*
X51013168Y-23428910D01*
X51030438Y-23444562D01*
X51046090Y-23461832D01*
X51059974Y-23480552D01*
X51071956Y-23500543D01*
X51081921Y-23521613D01*
X51089773Y-23543557D01*
X51095437Y-23566166D01*
X51098856Y-23589221D01*
X51100000Y-23612500D01*
X51100000Y-24087500D01*
X51098856Y-24110779D01*
X51095437Y-24133834D01*
X51089773Y-24156443D01*
X51081921Y-24178387D01*
X51071956Y-24199457D01*
X51059974Y-24219448D01*
X51046090Y-24238168D01*
X51030438Y-24255438D01*
X51013168Y-24271090D01*
X50994448Y-24284974D01*
X50974457Y-24296956D01*
X50953387Y-24306921D01*
X50931443Y-24314773D01*
X50908834Y-24320437D01*
X50885779Y-24323856D01*
X50862500Y-24325000D01*
X50287500Y-24325000D01*
X50264221Y-24323856D01*
X50241166Y-24320437D01*
X50218557Y-24314773D01*
X50196613Y-24306921D01*
X50175543Y-24296956D01*
X50155552Y-24284974D01*
X50136832Y-24271090D01*
X50119562Y-24255438D01*
X50103910Y-24238168D01*
X50090026Y-24219448D01*
X50078044Y-24199457D01*
X50068079Y-24178387D01*
X50060227Y-24156443D01*
X50054563Y-24133834D01*
X50051144Y-24110779D01*
X50050000Y-24087500D01*
X50050000Y-23612500D01*
X50051144Y-23589221D01*
X50054563Y-23566166D01*
X50060227Y-23543557D01*
X50068079Y-23521613D01*
X50078044Y-23500543D01*
X50090026Y-23480552D01*
X50103910Y-23461832D01*
X50119562Y-23444562D01*
X50136832Y-23428910D01*
X50155552Y-23415026D01*
X50175543Y-23403044D01*
X50196613Y-23393079D01*
X50218557Y-23385227D01*
X50241166Y-23379563D01*
X50264221Y-23376144D01*
X50287500Y-23375000D01*
X50862500Y-23375000D01*
X50885779Y-23376144D01*
G37*
D11*
X53250000Y-14750000D03*
X53250000Y-17250000D03*
D26*
X59475000Y-18000000D03*
X57075000Y-18000000D03*
D10*
G36*
X57685779Y-10751144D02*
G01*
X57708834Y-10754563D01*
X57731443Y-10760227D01*
X57753387Y-10768079D01*
X57774457Y-10778044D01*
X57794448Y-10790026D01*
X57813168Y-10803910D01*
X57830438Y-10819562D01*
X57846090Y-10836832D01*
X57859974Y-10855552D01*
X57871956Y-10875543D01*
X57881921Y-10896613D01*
X57889773Y-10918557D01*
X57895437Y-10941166D01*
X57898856Y-10964221D01*
X57900000Y-10987500D01*
X57900000Y-11462500D01*
X57898856Y-11485779D01*
X57895437Y-11508834D01*
X57889773Y-11531443D01*
X57881921Y-11553387D01*
X57871956Y-11574457D01*
X57859974Y-11594448D01*
X57846090Y-11613168D01*
X57830438Y-11630438D01*
X57813168Y-11646090D01*
X57794448Y-11659974D01*
X57774457Y-11671956D01*
X57753387Y-11681921D01*
X57731443Y-11689773D01*
X57708834Y-11695437D01*
X57685779Y-11698856D01*
X57662500Y-11700000D01*
X57087500Y-11700000D01*
X57064221Y-11698856D01*
X57041166Y-11695437D01*
X57018557Y-11689773D01*
X56996613Y-11681921D01*
X56975543Y-11671956D01*
X56955552Y-11659974D01*
X56936832Y-11646090D01*
X56919562Y-11630438D01*
X56903910Y-11613168D01*
X56890026Y-11594448D01*
X56878044Y-11574457D01*
X56868079Y-11553387D01*
X56860227Y-11531443D01*
X56854563Y-11508834D01*
X56851144Y-11485779D01*
X56850000Y-11462500D01*
X56850000Y-10987500D01*
X56851144Y-10964221D01*
X56854563Y-10941166D01*
X56860227Y-10918557D01*
X56868079Y-10896613D01*
X56878044Y-10875543D01*
X56890026Y-10855552D01*
X56903910Y-10836832D01*
X56919562Y-10819562D01*
X56936832Y-10803910D01*
X56955552Y-10790026D01*
X56975543Y-10778044D01*
X56996613Y-10768079D01*
X57018557Y-10760227D01*
X57041166Y-10754563D01*
X57064221Y-10751144D01*
X57087500Y-10750000D01*
X57662500Y-10750000D01*
X57685779Y-10751144D01*
G37*
G36*
X59435779Y-10751144D02*
G01*
X59458834Y-10754563D01*
X59481443Y-10760227D01*
X59503387Y-10768079D01*
X59524457Y-10778044D01*
X59544448Y-10790026D01*
X59563168Y-10803910D01*
X59580438Y-10819562D01*
X59596090Y-10836832D01*
X59609974Y-10855552D01*
X59621956Y-10875543D01*
X59631921Y-10896613D01*
X59639773Y-10918557D01*
X59645437Y-10941166D01*
X59648856Y-10964221D01*
X59650000Y-10987500D01*
X59650000Y-11462500D01*
X59648856Y-11485779D01*
X59645437Y-11508834D01*
X59639773Y-11531443D01*
X59631921Y-11553387D01*
X59621956Y-11574457D01*
X59609974Y-11594448D01*
X59596090Y-11613168D01*
X59580438Y-11630438D01*
X59563168Y-11646090D01*
X59544448Y-11659974D01*
X59524457Y-11671956D01*
X59503387Y-11681921D01*
X59481443Y-11689773D01*
X59458834Y-11695437D01*
X59435779Y-11698856D01*
X59412500Y-11700000D01*
X58837500Y-11700000D01*
X58814221Y-11698856D01*
X58791166Y-11695437D01*
X58768557Y-11689773D01*
X58746613Y-11681921D01*
X58725543Y-11671956D01*
X58705552Y-11659974D01*
X58686832Y-11646090D01*
X58669562Y-11630438D01*
X58653910Y-11613168D01*
X58640026Y-11594448D01*
X58628044Y-11574457D01*
X58618079Y-11553387D01*
X58610227Y-11531443D01*
X58604563Y-11508834D01*
X58601144Y-11485779D01*
X58600000Y-11462500D01*
X58600000Y-10987500D01*
X58601144Y-10964221D01*
X58604563Y-10941166D01*
X58610227Y-10918557D01*
X58618079Y-10896613D01*
X58628044Y-10875543D01*
X58640026Y-10855552D01*
X58653910Y-10836832D01*
X58669562Y-10819562D01*
X58686832Y-10803910D01*
X58705552Y-10790026D01*
X58725543Y-10778044D01*
X58746613Y-10768079D01*
X58768557Y-10760227D01*
X58791166Y-10754563D01*
X58814221Y-10751144D01*
X58837500Y-10750000D01*
X59412500Y-10750000D01*
X59435779Y-10751144D01*
G37*
G36*
X55010779Y-10851144D02*
G01*
X55033834Y-10854563D01*
X55056443Y-10860227D01*
X55078387Y-10868079D01*
X55099457Y-10878044D01*
X55119448Y-10890026D01*
X55138168Y-10903910D01*
X55155438Y-10919562D01*
X55171090Y-10936832D01*
X55184974Y-10955552D01*
X55196956Y-10975543D01*
X55206921Y-10996613D01*
X55214773Y-11018557D01*
X55220437Y-11041166D01*
X55223856Y-11064221D01*
X55225000Y-11087500D01*
X55225000Y-11662500D01*
X55223856Y-11685779D01*
X55220437Y-11708834D01*
X55214773Y-11731443D01*
X55206921Y-11753387D01*
X55196956Y-11774457D01*
X55184974Y-11794448D01*
X55171090Y-11813168D01*
X55155438Y-11830438D01*
X55138168Y-11846090D01*
X55119448Y-11859974D01*
X55099457Y-11871956D01*
X55078387Y-11881921D01*
X55056443Y-11889773D01*
X55033834Y-11895437D01*
X55010779Y-11898856D01*
X54987500Y-11900000D01*
X54512500Y-11900000D01*
X54489221Y-11898856D01*
X54466166Y-11895437D01*
X54443557Y-11889773D01*
X54421613Y-11881921D01*
X54400543Y-11871956D01*
X54380552Y-11859974D01*
X54361832Y-11846090D01*
X54344562Y-11830438D01*
X54328910Y-11813168D01*
X54315026Y-11794448D01*
X54303044Y-11774457D01*
X54293079Y-11753387D01*
X54285227Y-11731443D01*
X54279563Y-11708834D01*
X54276144Y-11685779D01*
X54275000Y-11662500D01*
X54275000Y-11087500D01*
X54276144Y-11064221D01*
X54279563Y-11041166D01*
X54285227Y-11018557D01*
X54293079Y-10996613D01*
X54303044Y-10975543D01*
X54315026Y-10955552D01*
X54328910Y-10936832D01*
X54344562Y-10919562D01*
X54361832Y-10903910D01*
X54380552Y-10890026D01*
X54400543Y-10878044D01*
X54421613Y-10868079D01*
X54443557Y-10860227D01*
X54466166Y-10854563D01*
X54489221Y-10851144D01*
X54512500Y-10850000D01*
X54987500Y-10850000D01*
X55010779Y-10851144D01*
G37*
G36*
X55010779Y-12601144D02*
G01*
X55033834Y-12604563D01*
X55056443Y-12610227D01*
X55078387Y-12618079D01*
X55099457Y-12628044D01*
X55119448Y-12640026D01*
X55138168Y-12653910D01*
X55155438Y-12669562D01*
X55171090Y-12686832D01*
X55184974Y-12705552D01*
X55196956Y-12725543D01*
X55206921Y-12746613D01*
X55214773Y-12768557D01*
X55220437Y-12791166D01*
X55223856Y-12814221D01*
X55225000Y-12837500D01*
X55225000Y-13412500D01*
X55223856Y-13435779D01*
X55220437Y-13458834D01*
X55214773Y-13481443D01*
X55206921Y-13503387D01*
X55196956Y-13524457D01*
X55184974Y-13544448D01*
X55171090Y-13563168D01*
X55155438Y-13580438D01*
X55138168Y-13596090D01*
X55119448Y-13609974D01*
X55099457Y-13621956D01*
X55078387Y-13631921D01*
X55056443Y-13639773D01*
X55033834Y-13645437D01*
X55010779Y-13648856D01*
X54987500Y-13650000D01*
X54512500Y-13650000D01*
X54489221Y-13648856D01*
X54466166Y-13645437D01*
X54443557Y-13639773D01*
X54421613Y-13631921D01*
X54400543Y-13621956D01*
X54380552Y-13609974D01*
X54361832Y-13596090D01*
X54344562Y-13580438D01*
X54328910Y-13563168D01*
X54315026Y-13544448D01*
X54303044Y-13524457D01*
X54293079Y-13503387D01*
X54285227Y-13481443D01*
X54279563Y-13458834D01*
X54276144Y-13435779D01*
X54275000Y-13412500D01*
X54275000Y-12837500D01*
X54276144Y-12814221D01*
X54279563Y-12791166D01*
X54285227Y-12768557D01*
X54293079Y-12746613D01*
X54303044Y-12725543D01*
X54315026Y-12705552D01*
X54328910Y-12686832D01*
X54344562Y-12669562D01*
X54361832Y-12653910D01*
X54380552Y-12640026D01*
X54400543Y-12628044D01*
X54421613Y-12618079D01*
X54443557Y-12610227D01*
X54466166Y-12604563D01*
X54489221Y-12601144D01*
X54512500Y-12600000D01*
X54987500Y-12600000D01*
X55010779Y-12601144D01*
G37*
G36*
X54385779Y-25276144D02*
G01*
X54408834Y-25279563D01*
X54431443Y-25285227D01*
X54453387Y-25293079D01*
X54474457Y-25303044D01*
X54494448Y-25315026D01*
X54513168Y-25328910D01*
X54530438Y-25344562D01*
X54546090Y-25361832D01*
X54559974Y-25380552D01*
X54571956Y-25400543D01*
X54581921Y-25421613D01*
X54589773Y-25443557D01*
X54595437Y-25466166D01*
X54598856Y-25489221D01*
X54600000Y-25512500D01*
X54600000Y-25987500D01*
X54598856Y-26010779D01*
X54595437Y-26033834D01*
X54589773Y-26056443D01*
X54581921Y-26078387D01*
X54571956Y-26099457D01*
X54559974Y-26119448D01*
X54546090Y-26138168D01*
X54530438Y-26155438D01*
X54513168Y-26171090D01*
X54494448Y-26184974D01*
X54474457Y-26196956D01*
X54453387Y-26206921D01*
X54431443Y-26214773D01*
X54408834Y-26220437D01*
X54385779Y-26223856D01*
X54362500Y-26225000D01*
X53787500Y-26225000D01*
X53764221Y-26223856D01*
X53741166Y-26220437D01*
X53718557Y-26214773D01*
X53696613Y-26206921D01*
X53675543Y-26196956D01*
X53655552Y-26184974D01*
X53636832Y-26171090D01*
X53619562Y-26155438D01*
X53603910Y-26138168D01*
X53590026Y-26119448D01*
X53578044Y-26099457D01*
X53568079Y-26078387D01*
X53560227Y-26056443D01*
X53554563Y-26033834D01*
X53551144Y-26010779D01*
X53550000Y-25987500D01*
X53550000Y-25512500D01*
X53551144Y-25489221D01*
X53554563Y-25466166D01*
X53560227Y-25443557D01*
X53568079Y-25421613D01*
X53578044Y-25400543D01*
X53590026Y-25380552D01*
X53603910Y-25361832D01*
X53619562Y-25344562D01*
X53636832Y-25328910D01*
X53655552Y-25315026D01*
X53675543Y-25303044D01*
X53696613Y-25293079D01*
X53718557Y-25285227D01*
X53741166Y-25279563D01*
X53764221Y-25276144D01*
X53787500Y-25275000D01*
X54362500Y-25275000D01*
X54385779Y-25276144D01*
G37*
G36*
X52635779Y-25276144D02*
G01*
X52658834Y-25279563D01*
X52681443Y-25285227D01*
X52703387Y-25293079D01*
X52724457Y-25303044D01*
X52744448Y-25315026D01*
X52763168Y-25328910D01*
X52780438Y-25344562D01*
X52796090Y-25361832D01*
X52809974Y-25380552D01*
X52821956Y-25400543D01*
X52831921Y-25421613D01*
X52839773Y-25443557D01*
X52845437Y-25466166D01*
X52848856Y-25489221D01*
X52850000Y-25512500D01*
X52850000Y-25987500D01*
X52848856Y-26010779D01*
X52845437Y-26033834D01*
X52839773Y-26056443D01*
X52831921Y-26078387D01*
X52821956Y-26099457D01*
X52809974Y-26119448D01*
X52796090Y-26138168D01*
X52780438Y-26155438D01*
X52763168Y-26171090D01*
X52744448Y-26184974D01*
X52724457Y-26196956D01*
X52703387Y-26206921D01*
X52681443Y-26214773D01*
X52658834Y-26220437D01*
X52635779Y-26223856D01*
X52612500Y-26225000D01*
X52037500Y-26225000D01*
X52014221Y-26223856D01*
X51991166Y-26220437D01*
X51968557Y-26214773D01*
X51946613Y-26206921D01*
X51925543Y-26196956D01*
X51905552Y-26184974D01*
X51886832Y-26171090D01*
X51869562Y-26155438D01*
X51853910Y-26138168D01*
X51840026Y-26119448D01*
X51828044Y-26099457D01*
X51818079Y-26078387D01*
X51810227Y-26056443D01*
X51804563Y-26033834D01*
X51801144Y-26010779D01*
X51800000Y-25987500D01*
X51800000Y-25512500D01*
X51801144Y-25489221D01*
X51804563Y-25466166D01*
X51810227Y-25443557D01*
X51818079Y-25421613D01*
X51828044Y-25400543D01*
X51840026Y-25380552D01*
X51853910Y-25361832D01*
X51869562Y-25344562D01*
X51886832Y-25328910D01*
X51905552Y-25315026D01*
X51925543Y-25303044D01*
X51946613Y-25293079D01*
X51968557Y-25285227D01*
X51991166Y-25279563D01*
X52014221Y-25276144D01*
X52037500Y-25275000D01*
X52612500Y-25275000D01*
X52635779Y-25276144D01*
G37*
G36*
X52635779Y-27026144D02*
G01*
X52658834Y-27029563D01*
X52681443Y-27035227D01*
X52703387Y-27043079D01*
X52724457Y-27053044D01*
X52744448Y-27065026D01*
X52763168Y-27078910D01*
X52780438Y-27094562D01*
X52796090Y-27111832D01*
X52809974Y-27130552D01*
X52821956Y-27150543D01*
X52831921Y-27171613D01*
X52839773Y-27193557D01*
X52845437Y-27216166D01*
X52848856Y-27239221D01*
X52850000Y-27262500D01*
X52850000Y-27737500D01*
X52848856Y-27760779D01*
X52845437Y-27783834D01*
X52839773Y-27806443D01*
X52831921Y-27828387D01*
X52821956Y-27849457D01*
X52809974Y-27869448D01*
X52796090Y-27888168D01*
X52780438Y-27905438D01*
X52763168Y-27921090D01*
X52744448Y-27934974D01*
X52724457Y-27946956D01*
X52703387Y-27956921D01*
X52681443Y-27964773D01*
X52658834Y-27970437D01*
X52635779Y-27973856D01*
X52612500Y-27975000D01*
X52037500Y-27975000D01*
X52014221Y-27973856D01*
X51991166Y-27970437D01*
X51968557Y-27964773D01*
X51946613Y-27956921D01*
X51925543Y-27946956D01*
X51905552Y-27934974D01*
X51886832Y-27921090D01*
X51869562Y-27905438D01*
X51853910Y-27888168D01*
X51840026Y-27869448D01*
X51828044Y-27849457D01*
X51818079Y-27828387D01*
X51810227Y-27806443D01*
X51804563Y-27783834D01*
X51801144Y-27760779D01*
X51800000Y-27737500D01*
X51800000Y-27262500D01*
X51801144Y-27239221D01*
X51804563Y-27216166D01*
X51810227Y-27193557D01*
X51818079Y-27171613D01*
X51828044Y-27150543D01*
X51840026Y-27130552D01*
X51853910Y-27111832D01*
X51869562Y-27094562D01*
X51886832Y-27078910D01*
X51905552Y-27065026D01*
X51925543Y-27053044D01*
X51946613Y-27043079D01*
X51968557Y-27035227D01*
X51991166Y-27029563D01*
X52014221Y-27026144D01*
X52037500Y-27025000D01*
X52612500Y-27025000D01*
X52635779Y-27026144D01*
G37*
G36*
X54385779Y-27026144D02*
G01*
X54408834Y-27029563D01*
X54431443Y-27035227D01*
X54453387Y-27043079D01*
X54474457Y-27053044D01*
X54494448Y-27065026D01*
X54513168Y-27078910D01*
X54530438Y-27094562D01*
X54546090Y-27111832D01*
X54559974Y-27130552D01*
X54571956Y-27150543D01*
X54581921Y-27171613D01*
X54589773Y-27193557D01*
X54595437Y-27216166D01*
X54598856Y-27239221D01*
X54600000Y-27262500D01*
X54600000Y-27737500D01*
X54598856Y-27760779D01*
X54595437Y-27783834D01*
X54589773Y-27806443D01*
X54581921Y-27828387D01*
X54571956Y-27849457D01*
X54559974Y-27869448D01*
X54546090Y-27888168D01*
X54530438Y-27905438D01*
X54513168Y-27921090D01*
X54494448Y-27934974D01*
X54474457Y-27946956D01*
X54453387Y-27956921D01*
X54431443Y-27964773D01*
X54408834Y-27970437D01*
X54385779Y-27973856D01*
X54362500Y-27975000D01*
X53787500Y-27975000D01*
X53764221Y-27973856D01*
X53741166Y-27970437D01*
X53718557Y-27964773D01*
X53696613Y-27956921D01*
X53675543Y-27946956D01*
X53655552Y-27934974D01*
X53636832Y-27921090D01*
X53619562Y-27905438D01*
X53603910Y-27888168D01*
X53590026Y-27869448D01*
X53578044Y-27849457D01*
X53568079Y-27828387D01*
X53560227Y-27806443D01*
X53554563Y-27783834D01*
X53551144Y-27760779D01*
X53550000Y-27737500D01*
X53550000Y-27262500D01*
X53551144Y-27239221D01*
X53554563Y-27216166D01*
X53560227Y-27193557D01*
X53568079Y-27171613D01*
X53578044Y-27150543D01*
X53590026Y-27130552D01*
X53603910Y-27111832D01*
X53619562Y-27094562D01*
X53636832Y-27078910D01*
X53655552Y-27065026D01*
X53675543Y-27053044D01*
X53696613Y-27043079D01*
X53718557Y-27035227D01*
X53741166Y-27029563D01*
X53764221Y-27026144D01*
X53787500Y-27025000D01*
X54362500Y-27025000D01*
X54385779Y-27026144D01*
G37*
D27*
X57175000Y-14975000D03*
X57175000Y-14025000D03*
X57175000Y-13075000D03*
X59375000Y-13075000D03*
X59375000Y-14975000D03*
D24*
X52250000Y-23850000D03*
X54150000Y-23850000D03*
X54150000Y-21650000D03*
X53200000Y-21650000D03*
X52250000Y-21650000D03*
M02*
