G04 #@! TF.GenerationSoftware,KiCad,Pcbnew,5.1.5-52549c5~84~ubuntu18.04.1*
G04 #@! TF.CreationDate,2020-03-09T11:52:29+05:30*
G04 #@! TF.ProjectId,scale_hx711,7363616c-655f-4687-9837-31312e6b6963,rev?*
G04 #@! TF.SameCoordinates,Original*
G04 #@! TF.FileFunction,Legend,Bot*
G04 #@! TF.FilePolarity,Positive*
%FSLAX46Y46*%
G04 Gerber Fmt 4.6, Leading zero omitted, Abs format (unit mm)*
G04 Created by KiCad (PCBNEW 5.1.5-52549c5~84~ubuntu18.04.1) date 2020-03-09 11:52:29*
%MOMM*%
%LPD*%
G04 APERTURE LIST*
%ADD10C,0.120000*%
%ADD11C,0.150000*%
G04 APERTURE END LIST*
D10*
X37337221Y-38240000D02*
X37662779Y-38240000D01*
X37337221Y-39260000D02*
X37662779Y-39260000D01*
X71897936Y-25910000D02*
X73102064Y-25910000D01*
X71897936Y-24090000D02*
X73102064Y-24090000D01*
X37337221Y-34310000D02*
X37662779Y-34310000D01*
X37337221Y-33290000D02*
X37662779Y-33290000D01*
X63602064Y-22090000D02*
X62397936Y-22090000D01*
X63602064Y-23910000D02*
X62397936Y-23910000D01*
X70160000Y-18397936D02*
X70160000Y-19602064D01*
X68340000Y-18397936D02*
X68340000Y-19602064D01*
X67647936Y-12410000D02*
X68852064Y-12410000D01*
X67647936Y-10590000D02*
X68852064Y-10590000D01*
X43578733Y-19760000D02*
X43921267Y-19760000D01*
X43578733Y-18740000D02*
X43921267Y-18740000D01*
X37990000Y-29678733D02*
X37990000Y-30021267D01*
X39010000Y-29678733D02*
X39010000Y-30021267D01*
X35615000Y-29678733D02*
X35615000Y-30021267D01*
X36635000Y-29678733D02*
X36635000Y-30021267D01*
X23510000Y-25828733D02*
X23510000Y-26171267D01*
X22490000Y-25828733D02*
X22490000Y-26171267D01*
X23990000Y-26828733D02*
X23990000Y-27171267D01*
X25010000Y-26828733D02*
X25010000Y-27171267D01*
X33628733Y-31010000D02*
X33971267Y-31010000D01*
X33628733Y-29990000D02*
X33971267Y-29990000D01*
X33628733Y-28490000D02*
X33971267Y-28490000D01*
X33628733Y-29510000D02*
X33971267Y-29510000D01*
X32990000Y-25678733D02*
X32990000Y-26021267D01*
X34010000Y-25678733D02*
X34010000Y-26021267D01*
X35510000Y-25678733D02*
X35510000Y-26021267D01*
X34490000Y-25678733D02*
X34490000Y-26021267D01*
X37760000Y-25678733D02*
X37760000Y-26021267D01*
X36740000Y-25678733D02*
X36740000Y-26021267D01*
X40010000Y-25678733D02*
X40010000Y-26021267D01*
X38990000Y-25678733D02*
X38990000Y-26021267D01*
X69340000Y-38397936D02*
X69340000Y-39602064D01*
X71160000Y-38397936D02*
X71160000Y-39602064D01*
X74660000Y-33022936D02*
X74660000Y-34227064D01*
X72840000Y-33022936D02*
X72840000Y-34227064D01*
X41850000Y-22100000D02*
X41850000Y-20400000D01*
X41850000Y-20400000D02*
X45000000Y-20400000D01*
X41850000Y-22100000D02*
X45000000Y-22100000D01*
X45650000Y-22650000D02*
X42500000Y-22650000D01*
X45650000Y-24350000D02*
X42500000Y-24350000D01*
X45650000Y-22650000D02*
X45650000Y-24350000D01*
X41850000Y-26600000D02*
X41850000Y-24900000D01*
X41850000Y-24900000D02*
X45000000Y-24900000D01*
X41850000Y-26600000D02*
X45000000Y-26600000D01*
X25340000Y-22300000D02*
X23850000Y-22300000D01*
X23850000Y-22300000D02*
X23850000Y-20960000D01*
X37660000Y-22300000D02*
X39150000Y-22300000D01*
X39150000Y-22300000D02*
X39150000Y-20960000D01*
X23850000Y-18240000D02*
X23850000Y-16500000D01*
X23850000Y-16500000D02*
X39150000Y-16500000D01*
X39150000Y-16500000D02*
X39150000Y-18240000D01*
X25340000Y-22300000D02*
X25340000Y-23500000D01*
X75250000Y-27000000D02*
X75250000Y-25750000D01*
X75290000Y-25750000D02*
X77750000Y-25750000D01*
X77750000Y-25750000D02*
X77750000Y-24640000D01*
X75250000Y-30750000D02*
X75250000Y-31750000D01*
X75250000Y-31750000D02*
X77750000Y-31750000D01*
X77750000Y-31750000D02*
X77750000Y-32750000D01*
D11*
X79250000Y-26000000D02*
X79250000Y-31500000D01*
D10*
X37662779Y-36740000D02*
X37337221Y-36740000D01*
X37662779Y-37760000D02*
X37337221Y-37760000D01*
X38100000Y-34620000D02*
X36900000Y-34620000D01*
X36900000Y-36380000D02*
X38100000Y-36380000D01*
D11*
X50500000Y-15550000D02*
X50500000Y-13800000D01*
X50500000Y-13800000D02*
X46500000Y-13800000D01*
X46500000Y-13800000D02*
X46500000Y-15550000D01*
X50500000Y-16450000D02*
X50500000Y-18250000D01*
X50500000Y-18250000D02*
X46500000Y-18250000D01*
X46500000Y-18250000D02*
X46500000Y-16450000D01*
D10*
X73285000Y-17445000D02*
X73285000Y-18375000D01*
X73285000Y-20605000D02*
X73285000Y-19675000D01*
X73285000Y-20605000D02*
X71125000Y-20605000D01*
X73285000Y-17445000D02*
X71825000Y-17445000D01*
X45330000Y-16760000D02*
X44400000Y-16760000D01*
X42170000Y-16760000D02*
X43100000Y-16760000D01*
X42170000Y-16760000D02*
X42170000Y-14600000D01*
X45330000Y-16760000D02*
X45330000Y-15300000D01*
X74260000Y-37420000D02*
X72800000Y-37420000D01*
X74260000Y-40580000D02*
X72100000Y-40580000D01*
X74260000Y-40580000D02*
X74260000Y-39650000D01*
X74260000Y-37420000D02*
X74260000Y-38350000D01*
X72328733Y-23010000D02*
X72671267Y-23010000D01*
X72328733Y-21990000D02*
X72671267Y-21990000D01*
X63171267Y-24490000D02*
X62828733Y-24490000D01*
X63171267Y-25510000D02*
X62828733Y-25510000D01*
X62828733Y-20490000D02*
X63171267Y-20490000D01*
X62828733Y-21510000D02*
X63171267Y-21510000D01*
X41490000Y-12421267D02*
X41490000Y-12078733D01*
X42510000Y-12421267D02*
X42510000Y-12078733D01*
X45210000Y-12421267D02*
X45210000Y-12078733D01*
X44190000Y-12421267D02*
X44190000Y-12078733D01*
X66510000Y-39771267D02*
X66510000Y-39428733D01*
X65490000Y-39771267D02*
X65490000Y-39428733D01*
X68510000Y-39428733D02*
X68510000Y-39771267D01*
X67490000Y-39428733D02*
X67490000Y-39771267D01*
X63490000Y-39428733D02*
X63490000Y-39771267D01*
X64510000Y-39428733D02*
X64510000Y-39771267D01*
X62510000Y-39428733D02*
X62510000Y-39771267D01*
X61490000Y-39428733D02*
X61490000Y-39771267D01*
D11*
X51000000Y-46750000D02*
X41000000Y-46750000D01*
X41000000Y-50000000D02*
X51000000Y-50000000D01*
X40996200Y-43319400D02*
X40996200Y-45072000D01*
X40996200Y-49999600D02*
X40996200Y-46748400D01*
X40996200Y-34023000D02*
X40996200Y-35953400D01*
X51003800Y-33997600D02*
X51003800Y-35267600D01*
X51003800Y-49999600D02*
X51003800Y-46748400D01*
D10*
X66850000Y-22390000D02*
X68650000Y-22390000D01*
X68650000Y-25610000D02*
X65700000Y-25610000D01*
X66640000Y-15400000D02*
X66640000Y-13600000D01*
X69860000Y-13600000D02*
X69860000Y-16050000D01*
X61940000Y-32100000D02*
X61940000Y-30150000D01*
X61940000Y-32100000D02*
X61940000Y-34050000D01*
X72060000Y-32100000D02*
X72060000Y-30150000D01*
X72060000Y-32100000D02*
X72060000Y-35550000D01*
X41000000Y-30250000D02*
X45000000Y-30250000D01*
X45000000Y-30250000D02*
X45000000Y-32250000D01*
X45000000Y-32250000D02*
X41000000Y-32250000D01*
X41000000Y-32250000D02*
X41000000Y-30250000D01*
X79810000Y-23060000D02*
X75090000Y-23060000D01*
X75090000Y-23060000D02*
X75090000Y-16940000D01*
X75090000Y-16940000D02*
X79810000Y-16940000D01*
X79810000Y-16940000D02*
X79810000Y-23060000D01*
X79810000Y-21300000D02*
X80010000Y-21300000D01*
X80010000Y-21300000D02*
X80010000Y-21600000D01*
X80010000Y-21600000D02*
X79810000Y-21600000D01*
X79910000Y-21300000D02*
X79910000Y-21600000D01*
X79810000Y-20500000D02*
X79200000Y-20500000D01*
X79200000Y-20500000D02*
X79200000Y-22450000D01*
X79200000Y-22450000D02*
X75700000Y-22450000D01*
X75700000Y-22450000D02*
X75700000Y-17550000D01*
X75700000Y-17550000D02*
X79200000Y-17550000D01*
X79200000Y-17550000D02*
X79200000Y-19500000D01*
X79200000Y-19500000D02*
X79810000Y-19500000D01*
X78500000Y-23060000D02*
X78500000Y-22450000D01*
X77200000Y-23060000D02*
X77200000Y-22450000D01*
X78500000Y-16940000D02*
X78500000Y-17550000D01*
X77200000Y-16940000D02*
X77200000Y-17550000D01*
X75700000Y-20100000D02*
X76200000Y-20100000D01*
X76200000Y-20100000D02*
X76200000Y-19900000D01*
X76200000Y-19900000D02*
X75700000Y-19900000D01*
X75700000Y-20000000D02*
X76200000Y-20000000D01*
X80110000Y-22110000D02*
X80110000Y-23360000D01*
X80110000Y-23360000D02*
X78860000Y-23360000D01*
X52940000Y-44560000D02*
X52940000Y-40440000D01*
X57000000Y-44560000D02*
X52940000Y-44560000D01*
X59060000Y-40440000D02*
X52940000Y-40440000D01*
X57000000Y-44560000D02*
X57000000Y-42500000D01*
X57000000Y-42500000D02*
X59060000Y-42500000D01*
X59060000Y-42500000D02*
X59060000Y-40440000D01*
X58000000Y-44560000D02*
X59060000Y-44560000D01*
X59060000Y-44560000D02*
X59060000Y-43500000D01*
X59940000Y-46410000D02*
X59940000Y-41690000D01*
X59940000Y-41690000D02*
X70060000Y-41690000D01*
X70060000Y-41690000D02*
X70060000Y-46410000D01*
X70060000Y-46410000D02*
X59940000Y-46410000D01*
X61700000Y-46410000D02*
X61700000Y-46610000D01*
X61700000Y-46610000D02*
X61400000Y-46610000D01*
X61400000Y-46610000D02*
X61400000Y-46410000D01*
X61700000Y-46510000D02*
X61400000Y-46510000D01*
X62500000Y-46410000D02*
X62500000Y-45800000D01*
X62500000Y-45800000D02*
X60550000Y-45800000D01*
X60550000Y-45800000D02*
X60550000Y-42300000D01*
X60550000Y-42300000D02*
X69450000Y-42300000D01*
X69450000Y-42300000D02*
X69450000Y-45800000D01*
X69450000Y-45800000D02*
X67500000Y-45800000D01*
X67500000Y-45800000D02*
X67500000Y-46410000D01*
X59940000Y-45100000D02*
X60550000Y-45100000D01*
X59940000Y-43800000D02*
X60550000Y-43800000D01*
X70060000Y-45100000D02*
X69450000Y-45100000D01*
X70060000Y-43800000D02*
X69450000Y-43800000D01*
X62900000Y-42300000D02*
X62900000Y-42800000D01*
X62900000Y-42800000D02*
X63100000Y-42800000D01*
X63100000Y-42800000D02*
X63100000Y-42300000D01*
X63000000Y-42300000D02*
X63000000Y-42800000D01*
X64900000Y-42300000D02*
X64900000Y-42800000D01*
X64900000Y-42800000D02*
X65100000Y-42800000D01*
X65100000Y-42800000D02*
X65100000Y-42300000D01*
X65000000Y-42300000D02*
X65000000Y-42800000D01*
X66900000Y-42300000D02*
X66900000Y-42800000D01*
X66900000Y-42800000D02*
X67100000Y-42800000D01*
X67100000Y-42800000D02*
X67100000Y-42300000D01*
X67000000Y-42300000D02*
X67000000Y-42800000D01*
X60890000Y-46710000D02*
X59640000Y-46710000D01*
X59640000Y-46710000D02*
X59640000Y-45460000D01*
X62535000Y-18171267D02*
X62535000Y-17828733D01*
X61515000Y-18171267D02*
X61515000Y-17828733D01*
X64285000Y-18171267D02*
X64285000Y-17828733D01*
X63265000Y-18171267D02*
X63265000Y-17828733D01*
X52740000Y-12421267D02*
X52740000Y-12078733D01*
X53760000Y-12421267D02*
X53760000Y-12078733D01*
X52260000Y-12421267D02*
X52260000Y-12078733D01*
X51240000Y-12421267D02*
X51240000Y-12078733D01*
X49871267Y-22160000D02*
X49528733Y-22160000D01*
X49871267Y-21140000D02*
X49528733Y-21140000D01*
X56235000Y-22946267D02*
X56235000Y-22603733D01*
X55215000Y-22946267D02*
X55215000Y-22603733D01*
X49871267Y-24360000D02*
X49528733Y-24360000D01*
X49871267Y-23340000D02*
X49528733Y-23340000D01*
X52400000Y-14100000D02*
X54100000Y-14100000D01*
X54100000Y-14100000D02*
X54100000Y-17250000D01*
X52400000Y-14100000D02*
X52400000Y-17250000D01*
D11*
X58725000Y-20000000D02*
X60475000Y-20000000D01*
X60475000Y-20000000D02*
X60475000Y-16000000D01*
X60475000Y-16000000D02*
X58725000Y-16000000D01*
X57825000Y-20000000D02*
X56025000Y-20000000D01*
X56025000Y-20000000D02*
X56025000Y-16000000D01*
X56025000Y-16000000D02*
X57825000Y-16000000D01*
D10*
X58078733Y-11735000D02*
X58421267Y-11735000D01*
X58078733Y-10715000D02*
X58421267Y-10715000D01*
X54240000Y-12421267D02*
X54240000Y-12078733D01*
X55260000Y-12421267D02*
X55260000Y-12078733D01*
X53371267Y-25240000D02*
X53028733Y-25240000D01*
X53371267Y-26260000D02*
X53028733Y-26260000D01*
X53371267Y-28010000D02*
X53028733Y-28010000D01*
X53371267Y-26990000D02*
X53028733Y-26990000D01*
X57375000Y-12415000D02*
X59175000Y-12415000D01*
X59175000Y-15635000D02*
X56725000Y-15635000D01*
X51590000Y-23650000D02*
X51590000Y-21200000D01*
X54810000Y-21850000D02*
X54810000Y-23650000D01*
X52240000Y-39460000D02*
X52240000Y-37340000D01*
X58300000Y-39460000D02*
X52240000Y-39460000D01*
X58300000Y-37340000D02*
X52240000Y-37340000D01*
X58300000Y-39460000D02*
X58300000Y-37340000D01*
X59300000Y-39460000D02*
X60360000Y-39460000D01*
X60360000Y-39460000D02*
X60360000Y-38400000D01*
X35333333Y-39035714D02*
X35371428Y-39073809D01*
X35485714Y-39111904D01*
X35561904Y-39111904D01*
X35676190Y-39073809D01*
X35752380Y-38997619D01*
X35790476Y-38921428D01*
X35828571Y-38769047D01*
X35828571Y-38654761D01*
X35790476Y-38502380D01*
X35752380Y-38426190D01*
X35676190Y-38350000D01*
X35561904Y-38311904D01*
X35485714Y-38311904D01*
X35371428Y-38350000D01*
X35333333Y-38388095D01*
X34571428Y-39111904D02*
X35028571Y-39111904D01*
X34800000Y-39111904D02*
X34800000Y-38311904D01*
X34876190Y-38426190D01*
X34952380Y-38502380D01*
X35028571Y-38540476D01*
X75933333Y-25285714D02*
X75971428Y-25323809D01*
X76085714Y-25361904D01*
X76161904Y-25361904D01*
X76276190Y-25323809D01*
X76352380Y-25247619D01*
X76390476Y-25171428D01*
X76428571Y-25019047D01*
X76428571Y-24904761D01*
X76390476Y-24752380D01*
X76352380Y-24676190D01*
X76276190Y-24600000D01*
X76161904Y-24561904D01*
X76085714Y-24561904D01*
X75971428Y-24600000D01*
X75933333Y-24638095D01*
X75628571Y-24638095D02*
X75590476Y-24600000D01*
X75514285Y-24561904D01*
X75323809Y-24561904D01*
X75247619Y-24600000D01*
X75209523Y-24638095D01*
X75171428Y-24714285D01*
X75171428Y-24790476D01*
X75209523Y-24904761D01*
X75666666Y-25361904D01*
X75171428Y-25361904D01*
X35308333Y-34085714D02*
X35346428Y-34123809D01*
X35460714Y-34161904D01*
X35536904Y-34161904D01*
X35651190Y-34123809D01*
X35727380Y-34047619D01*
X35765476Y-33971428D01*
X35803571Y-33819047D01*
X35803571Y-33704761D01*
X35765476Y-33552380D01*
X35727380Y-33476190D01*
X35651190Y-33400000D01*
X35536904Y-33361904D01*
X35460714Y-33361904D01*
X35346428Y-33400000D01*
X35308333Y-33438095D01*
X35041666Y-33361904D02*
X34546428Y-33361904D01*
X34813095Y-33666666D01*
X34698809Y-33666666D01*
X34622619Y-33704761D01*
X34584523Y-33742857D01*
X34546428Y-33819047D01*
X34546428Y-34009523D01*
X34584523Y-34085714D01*
X34622619Y-34123809D01*
X34698809Y-34161904D01*
X34927380Y-34161904D01*
X35003571Y-34123809D01*
X35041666Y-34085714D01*
X41085714Y-28966666D02*
X41123809Y-28928571D01*
X41161904Y-28814285D01*
X41161904Y-28738095D01*
X41123809Y-28623809D01*
X41047619Y-28547619D01*
X40971428Y-28509523D01*
X40819047Y-28471428D01*
X40704761Y-28471428D01*
X40552380Y-28509523D01*
X40476190Y-28547619D01*
X40400000Y-28623809D01*
X40361904Y-28738095D01*
X40361904Y-28814285D01*
X40400000Y-28928571D01*
X40438095Y-28966666D01*
X40628571Y-29652380D02*
X41161904Y-29652380D01*
X40323809Y-29461904D02*
X40895238Y-29271428D01*
X40895238Y-29766666D01*
X35333333Y-32685714D02*
X35371428Y-32723809D01*
X35485714Y-32761904D01*
X35561904Y-32761904D01*
X35676190Y-32723809D01*
X35752380Y-32647619D01*
X35790476Y-32571428D01*
X35828571Y-32419047D01*
X35828571Y-32304761D01*
X35790476Y-32152380D01*
X35752380Y-32076190D01*
X35676190Y-32000000D01*
X35561904Y-31961904D01*
X35485714Y-31961904D01*
X35371428Y-32000000D01*
X35333333Y-32038095D01*
X34609523Y-31961904D02*
X34990476Y-31961904D01*
X35028571Y-32342857D01*
X34990476Y-32304761D01*
X34914285Y-32266666D01*
X34723809Y-32266666D01*
X34647619Y-32304761D01*
X34609523Y-32342857D01*
X34571428Y-32419047D01*
X34571428Y-32609523D01*
X34609523Y-32685714D01*
X34647619Y-32723809D01*
X34723809Y-32761904D01*
X34914285Y-32761904D01*
X34990476Y-32723809D01*
X35028571Y-32685714D01*
X43585714Y-28966666D02*
X43623809Y-28928571D01*
X43661904Y-28814285D01*
X43661904Y-28738095D01*
X43623809Y-28623809D01*
X43547619Y-28547619D01*
X43471428Y-28509523D01*
X43319047Y-28471428D01*
X43204761Y-28471428D01*
X43052380Y-28509523D01*
X42976190Y-28547619D01*
X42900000Y-28623809D01*
X42861904Y-28738095D01*
X42861904Y-28814285D01*
X42900000Y-28928571D01*
X42938095Y-28966666D01*
X42861904Y-29652380D02*
X42861904Y-29500000D01*
X42900000Y-29423809D01*
X42938095Y-29385714D01*
X43052380Y-29309523D01*
X43204761Y-29271428D01*
X43509523Y-29271428D01*
X43585714Y-29309523D01*
X43623809Y-29347619D01*
X43661904Y-29423809D01*
X43661904Y-29576190D01*
X43623809Y-29652380D01*
X43585714Y-29690476D01*
X43509523Y-29728571D01*
X43319047Y-29728571D01*
X43242857Y-29690476D01*
X43204761Y-29652380D01*
X43166666Y-29576190D01*
X43166666Y-29423809D01*
X43204761Y-29347619D01*
X43242857Y-29309523D01*
X43319047Y-29271428D01*
X59933333Y-23285714D02*
X59971428Y-23323809D01*
X60085714Y-23361904D01*
X60161904Y-23361904D01*
X60276190Y-23323809D01*
X60352380Y-23247619D01*
X60390476Y-23171428D01*
X60428571Y-23019047D01*
X60428571Y-22904761D01*
X60390476Y-22752380D01*
X60352380Y-22676190D01*
X60276190Y-22600000D01*
X60161904Y-22561904D01*
X60085714Y-22561904D01*
X59971428Y-22600000D01*
X59933333Y-22638095D01*
X59666666Y-22561904D02*
X59133333Y-22561904D01*
X59476190Y-23361904D01*
X67633333Y-19285714D02*
X67671428Y-19323809D01*
X67785714Y-19361904D01*
X67861904Y-19361904D01*
X67976190Y-19323809D01*
X68052380Y-19247619D01*
X68090476Y-19171428D01*
X68128571Y-19019047D01*
X68128571Y-18904761D01*
X68090476Y-18752380D01*
X68052380Y-18676190D01*
X67976190Y-18600000D01*
X67861904Y-18561904D01*
X67785714Y-18561904D01*
X67671428Y-18600000D01*
X67633333Y-18638095D01*
X67176190Y-18904761D02*
X67252380Y-18866666D01*
X67290476Y-18828571D01*
X67328571Y-18752380D01*
X67328571Y-18714285D01*
X67290476Y-18638095D01*
X67252380Y-18600000D01*
X67176190Y-18561904D01*
X67023809Y-18561904D01*
X66947619Y-18600000D01*
X66909523Y-18638095D01*
X66871428Y-18714285D01*
X66871428Y-18752380D01*
X66909523Y-18828571D01*
X66947619Y-18866666D01*
X67023809Y-18904761D01*
X67176190Y-18904761D01*
X67252380Y-18942857D01*
X67290476Y-18980952D01*
X67328571Y-19057142D01*
X67328571Y-19209523D01*
X67290476Y-19285714D01*
X67252380Y-19323809D01*
X67176190Y-19361904D01*
X67023809Y-19361904D01*
X66947619Y-19323809D01*
X66909523Y-19285714D01*
X66871428Y-19209523D01*
X66871428Y-19057142D01*
X66909523Y-18980952D01*
X66947619Y-18942857D01*
X67023809Y-18904761D01*
X71533333Y-11785714D02*
X71571428Y-11823809D01*
X71685714Y-11861904D01*
X71761904Y-11861904D01*
X71876190Y-11823809D01*
X71952380Y-11747619D01*
X71990476Y-11671428D01*
X72028571Y-11519047D01*
X72028571Y-11404761D01*
X71990476Y-11252380D01*
X71952380Y-11176190D01*
X71876190Y-11100000D01*
X71761904Y-11061904D01*
X71685714Y-11061904D01*
X71571428Y-11100000D01*
X71533333Y-11138095D01*
X71152380Y-11861904D02*
X71000000Y-11861904D01*
X70923809Y-11823809D01*
X70885714Y-11785714D01*
X70809523Y-11671428D01*
X70771428Y-11519047D01*
X70771428Y-11214285D01*
X70809523Y-11138095D01*
X70847619Y-11100000D01*
X70923809Y-11061904D01*
X71076190Y-11061904D01*
X71152380Y-11100000D01*
X71190476Y-11138095D01*
X71228571Y-11214285D01*
X71228571Y-11404761D01*
X71190476Y-11480952D01*
X71152380Y-11519047D01*
X71076190Y-11557142D01*
X70923809Y-11557142D01*
X70847619Y-11519047D01*
X70809523Y-11480952D01*
X70771428Y-11404761D01*
X47114285Y-19535714D02*
X47152380Y-19573809D01*
X47266666Y-19611904D01*
X47342857Y-19611904D01*
X47457142Y-19573809D01*
X47533333Y-19497619D01*
X47571428Y-19421428D01*
X47609523Y-19269047D01*
X47609523Y-19154761D01*
X47571428Y-19002380D01*
X47533333Y-18926190D01*
X47457142Y-18850000D01*
X47342857Y-18811904D01*
X47266666Y-18811904D01*
X47152380Y-18850000D01*
X47114285Y-18888095D01*
X46352380Y-19611904D02*
X46809523Y-19611904D01*
X46580952Y-19611904D02*
X46580952Y-18811904D01*
X46657142Y-18926190D01*
X46733333Y-19002380D01*
X46809523Y-19040476D01*
X45857142Y-18811904D02*
X45780952Y-18811904D01*
X45704761Y-18850000D01*
X45666666Y-18888095D01*
X45628571Y-18964285D01*
X45590476Y-19116666D01*
X45590476Y-19307142D01*
X45628571Y-19459523D01*
X45666666Y-19535714D01*
X45704761Y-19573809D01*
X45780952Y-19611904D01*
X45857142Y-19611904D01*
X45933333Y-19573809D01*
X45971428Y-19535714D01*
X46009523Y-19459523D01*
X46047619Y-19307142D01*
X46047619Y-19116666D01*
X46009523Y-18964285D01*
X45971428Y-18888095D01*
X45933333Y-18850000D01*
X45857142Y-18811904D01*
X38760714Y-32360714D02*
X38798809Y-32322619D01*
X38836904Y-32208333D01*
X38836904Y-32132142D01*
X38798809Y-32017857D01*
X38722619Y-31941666D01*
X38646428Y-31903571D01*
X38494047Y-31865476D01*
X38379761Y-31865476D01*
X38227380Y-31903571D01*
X38151190Y-31941666D01*
X38075000Y-32017857D01*
X38036904Y-32132142D01*
X38036904Y-32208333D01*
X38075000Y-32322619D01*
X38113095Y-32360714D01*
X38836904Y-33122619D02*
X38836904Y-32665476D01*
X38836904Y-32894047D02*
X38036904Y-32894047D01*
X38151190Y-32817857D01*
X38227380Y-32741666D01*
X38265476Y-32665476D01*
X38836904Y-33884523D02*
X38836904Y-33427380D01*
X38836904Y-33655952D02*
X38036904Y-33655952D01*
X38151190Y-33579761D01*
X38227380Y-33503571D01*
X38265476Y-33427380D01*
X37535714Y-29235714D02*
X37573809Y-29197619D01*
X37611904Y-29083333D01*
X37611904Y-29007142D01*
X37573809Y-28892857D01*
X37497619Y-28816666D01*
X37421428Y-28778571D01*
X37269047Y-28740476D01*
X37154761Y-28740476D01*
X37002380Y-28778571D01*
X36926190Y-28816666D01*
X36850000Y-28892857D01*
X36811904Y-29007142D01*
X36811904Y-29083333D01*
X36850000Y-29197619D01*
X36888095Y-29235714D01*
X37611904Y-29997619D02*
X37611904Y-29540476D01*
X37611904Y-29769047D02*
X36811904Y-29769047D01*
X36926190Y-29692857D01*
X37002380Y-29616666D01*
X37040476Y-29540476D01*
X36888095Y-30302380D02*
X36850000Y-30340476D01*
X36811904Y-30416666D01*
X36811904Y-30607142D01*
X36850000Y-30683333D01*
X36888095Y-30721428D01*
X36964285Y-30759523D01*
X37040476Y-30759523D01*
X37154761Y-30721428D01*
X37611904Y-30264285D01*
X37611904Y-30759523D01*
X23285714Y-28535714D02*
X23323809Y-28497619D01*
X23361904Y-28383333D01*
X23361904Y-28307142D01*
X23323809Y-28192857D01*
X23247619Y-28116666D01*
X23171428Y-28078571D01*
X23019047Y-28040476D01*
X22904761Y-28040476D01*
X22752380Y-28078571D01*
X22676190Y-28116666D01*
X22600000Y-28192857D01*
X22561904Y-28307142D01*
X22561904Y-28383333D01*
X22600000Y-28497619D01*
X22638095Y-28535714D01*
X23361904Y-29297619D02*
X23361904Y-28840476D01*
X23361904Y-29069047D02*
X22561904Y-29069047D01*
X22676190Y-28992857D01*
X22752380Y-28916666D01*
X22790476Y-28840476D01*
X22561904Y-29564285D02*
X22561904Y-30059523D01*
X22866666Y-29792857D01*
X22866666Y-29907142D01*
X22904761Y-29983333D01*
X22942857Y-30021428D01*
X23019047Y-30059523D01*
X23209523Y-30059523D01*
X23285714Y-30021428D01*
X23323809Y-29983333D01*
X23361904Y-29907142D01*
X23361904Y-29678571D01*
X23323809Y-29602380D01*
X23285714Y-29564285D01*
X24785714Y-29510714D02*
X24823809Y-29472619D01*
X24861904Y-29358333D01*
X24861904Y-29282142D01*
X24823809Y-29167857D01*
X24747619Y-29091666D01*
X24671428Y-29053571D01*
X24519047Y-29015476D01*
X24404761Y-29015476D01*
X24252380Y-29053571D01*
X24176190Y-29091666D01*
X24100000Y-29167857D01*
X24061904Y-29282142D01*
X24061904Y-29358333D01*
X24100000Y-29472619D01*
X24138095Y-29510714D01*
X24861904Y-30272619D02*
X24861904Y-29815476D01*
X24861904Y-30044047D02*
X24061904Y-30044047D01*
X24176190Y-29967857D01*
X24252380Y-29891666D01*
X24290476Y-29815476D01*
X24328571Y-30958333D02*
X24861904Y-30958333D01*
X24023809Y-30767857D02*
X24595238Y-30577380D01*
X24595238Y-31072619D01*
X31514285Y-30810714D02*
X31552380Y-30848809D01*
X31666666Y-30886904D01*
X31742857Y-30886904D01*
X31857142Y-30848809D01*
X31933333Y-30772619D01*
X31971428Y-30696428D01*
X32009523Y-30544047D01*
X32009523Y-30429761D01*
X31971428Y-30277380D01*
X31933333Y-30201190D01*
X31857142Y-30125000D01*
X31742857Y-30086904D01*
X31666666Y-30086904D01*
X31552380Y-30125000D01*
X31514285Y-30163095D01*
X30752380Y-30886904D02*
X31209523Y-30886904D01*
X30980952Y-30886904D02*
X30980952Y-30086904D01*
X31057142Y-30201190D01*
X31133333Y-30277380D01*
X31209523Y-30315476D01*
X30028571Y-30086904D02*
X30409523Y-30086904D01*
X30447619Y-30467857D01*
X30409523Y-30429761D01*
X30333333Y-30391666D01*
X30142857Y-30391666D01*
X30066666Y-30429761D01*
X30028571Y-30467857D01*
X29990476Y-30544047D01*
X29990476Y-30734523D01*
X30028571Y-30810714D01*
X30066666Y-30848809D01*
X30142857Y-30886904D01*
X30333333Y-30886904D01*
X30409523Y-30848809D01*
X30447619Y-30810714D01*
X31514285Y-29285714D02*
X31552380Y-29323809D01*
X31666666Y-29361904D01*
X31742857Y-29361904D01*
X31857142Y-29323809D01*
X31933333Y-29247619D01*
X31971428Y-29171428D01*
X32009523Y-29019047D01*
X32009523Y-28904761D01*
X31971428Y-28752380D01*
X31933333Y-28676190D01*
X31857142Y-28600000D01*
X31742857Y-28561904D01*
X31666666Y-28561904D01*
X31552380Y-28600000D01*
X31514285Y-28638095D01*
X30752380Y-29361904D02*
X31209523Y-29361904D01*
X30980952Y-29361904D02*
X30980952Y-28561904D01*
X31057142Y-28676190D01*
X31133333Y-28752380D01*
X31209523Y-28790476D01*
X30485714Y-28561904D02*
X29952380Y-28561904D01*
X30295238Y-29361904D01*
X32355714Y-25335714D02*
X32393809Y-25297619D01*
X32431904Y-25183333D01*
X32431904Y-25107142D01*
X32393809Y-24992857D01*
X32317619Y-24916666D01*
X32241428Y-24878571D01*
X32089047Y-24840476D01*
X31974761Y-24840476D01*
X31822380Y-24878571D01*
X31746190Y-24916666D01*
X31670000Y-24992857D01*
X31631904Y-25107142D01*
X31631904Y-25183333D01*
X31670000Y-25297619D01*
X31708095Y-25335714D01*
X32431904Y-26097619D02*
X32431904Y-25640476D01*
X32431904Y-25869047D02*
X31631904Y-25869047D01*
X31746190Y-25792857D01*
X31822380Y-25716666D01*
X31860476Y-25640476D01*
X31974761Y-26554761D02*
X31936666Y-26478571D01*
X31898571Y-26440476D01*
X31822380Y-26402380D01*
X31784285Y-26402380D01*
X31708095Y-26440476D01*
X31670000Y-26478571D01*
X31631904Y-26554761D01*
X31631904Y-26707142D01*
X31670000Y-26783333D01*
X31708095Y-26821428D01*
X31784285Y-26859523D01*
X31822380Y-26859523D01*
X31898571Y-26821428D01*
X31936666Y-26783333D01*
X31974761Y-26707142D01*
X31974761Y-26554761D01*
X32012857Y-26478571D01*
X32050952Y-26440476D01*
X32127142Y-26402380D01*
X32279523Y-26402380D01*
X32355714Y-26440476D01*
X32393809Y-26478571D01*
X32431904Y-26554761D01*
X32431904Y-26707142D01*
X32393809Y-26783333D01*
X32355714Y-26821428D01*
X32279523Y-26859523D01*
X32127142Y-26859523D01*
X32050952Y-26821428D01*
X32012857Y-26783333D01*
X31974761Y-26707142D01*
X36385714Y-25385714D02*
X36423809Y-25347619D01*
X36461904Y-25233333D01*
X36461904Y-25157142D01*
X36423809Y-25042857D01*
X36347619Y-24966666D01*
X36271428Y-24928571D01*
X36119047Y-24890476D01*
X36004761Y-24890476D01*
X35852380Y-24928571D01*
X35776190Y-24966666D01*
X35700000Y-25042857D01*
X35661904Y-25157142D01*
X35661904Y-25233333D01*
X35700000Y-25347619D01*
X35738095Y-25385714D01*
X36461904Y-26147619D02*
X36461904Y-25690476D01*
X36461904Y-25919047D02*
X35661904Y-25919047D01*
X35776190Y-25842857D01*
X35852380Y-25766666D01*
X35890476Y-25690476D01*
X36461904Y-26528571D02*
X36461904Y-26680952D01*
X36423809Y-26757142D01*
X36385714Y-26795238D01*
X36271428Y-26871428D01*
X36119047Y-26909523D01*
X35814285Y-26909523D01*
X35738095Y-26871428D01*
X35700000Y-26833333D01*
X35661904Y-26757142D01*
X35661904Y-26604761D01*
X35700000Y-26528571D01*
X35738095Y-26490476D01*
X35814285Y-26452380D01*
X36004761Y-26452380D01*
X36080952Y-26490476D01*
X36119047Y-26528571D01*
X36157142Y-26604761D01*
X36157142Y-26757142D01*
X36119047Y-26833333D01*
X36080952Y-26871428D01*
X36004761Y-26909523D01*
X38685714Y-25285714D02*
X38723809Y-25247619D01*
X38761904Y-25133333D01*
X38761904Y-25057142D01*
X38723809Y-24942857D01*
X38647619Y-24866666D01*
X38571428Y-24828571D01*
X38419047Y-24790476D01*
X38304761Y-24790476D01*
X38152380Y-24828571D01*
X38076190Y-24866666D01*
X38000000Y-24942857D01*
X37961904Y-25057142D01*
X37961904Y-25133333D01*
X38000000Y-25247619D01*
X38038095Y-25285714D01*
X38038095Y-25590476D02*
X38000000Y-25628571D01*
X37961904Y-25704761D01*
X37961904Y-25895238D01*
X38000000Y-25971428D01*
X38038095Y-26009523D01*
X38114285Y-26047619D01*
X38190476Y-26047619D01*
X38304761Y-26009523D01*
X38761904Y-25552380D01*
X38761904Y-26047619D01*
X37961904Y-26542857D02*
X37961904Y-26619047D01*
X38000000Y-26695238D01*
X38038095Y-26733333D01*
X38114285Y-26771428D01*
X38266666Y-26809523D01*
X38457142Y-26809523D01*
X38609523Y-26771428D01*
X38685714Y-26733333D01*
X38723809Y-26695238D01*
X38761904Y-26619047D01*
X38761904Y-26542857D01*
X38723809Y-26466666D01*
X38685714Y-26428571D01*
X38609523Y-26390476D01*
X38457142Y-26352380D01*
X38266666Y-26352380D01*
X38114285Y-26390476D01*
X38038095Y-26428571D01*
X38000000Y-26466666D01*
X37961904Y-26542857D01*
X39261624Y-23865685D02*
X39261624Y-23919560D01*
X39315499Y-24027309D01*
X39369374Y-24081184D01*
X39477123Y-24135059D01*
X39584873Y-24135059D01*
X39665685Y-24108122D01*
X39800372Y-24027309D01*
X39881184Y-23946497D01*
X39961996Y-23811810D01*
X39988934Y-23730998D01*
X39988934Y-23623248D01*
X39935059Y-23515499D01*
X39881184Y-23461624D01*
X39773435Y-23407749D01*
X39719560Y-23407749D01*
X39504061Y-23192250D02*
X39504061Y-23138375D01*
X39477123Y-23057563D01*
X39342436Y-22922876D01*
X39261624Y-22895938D01*
X39207749Y-22895938D01*
X39126937Y-22922876D01*
X39073062Y-22976751D01*
X39019187Y-23084500D01*
X39019187Y-23730998D01*
X38669001Y-23380812D01*
X38130253Y-22842064D02*
X38453502Y-23165312D01*
X38291877Y-23003688D02*
X38857563Y-22438003D01*
X38830625Y-22572690D01*
X38830625Y-22680439D01*
X38857563Y-22761251D01*
X68250000Y-37150000D02*
X68283333Y-37183333D01*
X68383333Y-37216666D01*
X68450000Y-37216666D01*
X68550000Y-37183333D01*
X68616666Y-37116666D01*
X68650000Y-37050000D01*
X68683333Y-36916666D01*
X68683333Y-36816666D01*
X68650000Y-36683333D01*
X68616666Y-36616666D01*
X68550000Y-36550000D01*
X68450000Y-36516666D01*
X68383333Y-36516666D01*
X68283333Y-36550000D01*
X68250000Y-36583333D01*
X67983333Y-36583333D02*
X67950000Y-36550000D01*
X67883333Y-36516666D01*
X67716666Y-36516666D01*
X67650000Y-36550000D01*
X67616666Y-36583333D01*
X67583333Y-36650000D01*
X67583333Y-36716666D01*
X67616666Y-36816666D01*
X68016666Y-37216666D01*
X67583333Y-37216666D01*
X67350000Y-36516666D02*
X66916666Y-36516666D01*
X67150000Y-36783333D01*
X67050000Y-36783333D01*
X66983333Y-36816666D01*
X66950000Y-36850000D01*
X66916666Y-36916666D01*
X66916666Y-37083333D01*
X66950000Y-37150000D01*
X66983333Y-37183333D01*
X67050000Y-37216666D01*
X67250000Y-37216666D01*
X67316666Y-37183333D01*
X67350000Y-37150000D01*
X71714285Y-36685714D02*
X71752380Y-36723809D01*
X71866666Y-36761904D01*
X71942857Y-36761904D01*
X72057142Y-36723809D01*
X72133333Y-36647619D01*
X72171428Y-36571428D01*
X72209523Y-36419047D01*
X72209523Y-36304761D01*
X72171428Y-36152380D01*
X72133333Y-36076190D01*
X72057142Y-36000000D01*
X71942857Y-35961904D01*
X71866666Y-35961904D01*
X71752380Y-36000000D01*
X71714285Y-36038095D01*
X71409523Y-36038095D02*
X71371428Y-36000000D01*
X71295238Y-35961904D01*
X71104761Y-35961904D01*
X71028571Y-36000000D01*
X70990476Y-36038095D01*
X70952380Y-36114285D01*
X70952380Y-36190476D01*
X70990476Y-36304761D01*
X71447619Y-36761904D01*
X70952380Y-36761904D01*
X70266666Y-36228571D02*
X70266666Y-36761904D01*
X70457142Y-35923809D02*
X70647619Y-36495238D01*
X70152380Y-36495238D01*
X61350000Y-37350000D02*
X61383333Y-37383333D01*
X61483333Y-37416666D01*
X61550000Y-37416666D01*
X61650000Y-37383333D01*
X61716666Y-37316666D01*
X61750000Y-37250000D01*
X61783333Y-37116666D01*
X61783333Y-37016666D01*
X61750000Y-36883333D01*
X61716666Y-36816666D01*
X61650000Y-36750000D01*
X61550000Y-36716666D01*
X61483333Y-36716666D01*
X61383333Y-36750000D01*
X61350000Y-36783333D01*
X61083333Y-36783333D02*
X61050000Y-36750000D01*
X60983333Y-36716666D01*
X60816666Y-36716666D01*
X60750000Y-36750000D01*
X60716666Y-36783333D01*
X60683333Y-36850000D01*
X60683333Y-36916666D01*
X60716666Y-37016666D01*
X61116666Y-37416666D01*
X60683333Y-37416666D01*
X60050000Y-36716666D02*
X60383333Y-36716666D01*
X60416666Y-37050000D01*
X60383333Y-37016666D01*
X60316666Y-36983333D01*
X60150000Y-36983333D01*
X60083333Y-37016666D01*
X60050000Y-37050000D01*
X60016666Y-37116666D01*
X60016666Y-37283333D01*
X60050000Y-37350000D01*
X60083333Y-37383333D01*
X60150000Y-37416666D01*
X60316666Y-37416666D01*
X60383333Y-37383333D01*
X60416666Y-37350000D01*
X76414285Y-33910714D02*
X76452380Y-33948809D01*
X76566666Y-33986904D01*
X76642857Y-33986904D01*
X76757142Y-33948809D01*
X76833333Y-33872619D01*
X76871428Y-33796428D01*
X76909523Y-33644047D01*
X76909523Y-33529761D01*
X76871428Y-33377380D01*
X76833333Y-33301190D01*
X76757142Y-33225000D01*
X76642857Y-33186904D01*
X76566666Y-33186904D01*
X76452380Y-33225000D01*
X76414285Y-33263095D01*
X76109523Y-33263095D02*
X76071428Y-33225000D01*
X75995238Y-33186904D01*
X75804761Y-33186904D01*
X75728571Y-33225000D01*
X75690476Y-33263095D01*
X75652380Y-33339285D01*
X75652380Y-33415476D01*
X75690476Y-33529761D01*
X76147619Y-33986904D01*
X75652380Y-33986904D01*
X74966666Y-33186904D02*
X75119047Y-33186904D01*
X75195238Y-33225000D01*
X75233333Y-33263095D01*
X75309523Y-33377380D01*
X75347619Y-33529761D01*
X75347619Y-33834523D01*
X75309523Y-33910714D01*
X75271428Y-33948809D01*
X75195238Y-33986904D01*
X75042857Y-33986904D01*
X74966666Y-33948809D01*
X74928571Y-33910714D01*
X74890476Y-33834523D01*
X74890476Y-33644047D01*
X74928571Y-33567857D01*
X74966666Y-33529761D01*
X75042857Y-33491666D01*
X75195238Y-33491666D01*
X75271428Y-33529761D01*
X75309523Y-33567857D01*
X75347619Y-33644047D01*
X41415476Y-21611904D02*
X41415476Y-20811904D01*
X41225000Y-20811904D01*
X41110714Y-20850000D01*
X41034523Y-20926190D01*
X40996428Y-21002380D01*
X40958333Y-21154761D01*
X40958333Y-21269047D01*
X40996428Y-21421428D01*
X41034523Y-21497619D01*
X41110714Y-21573809D01*
X41225000Y-21611904D01*
X41415476Y-21611904D01*
X40653571Y-20888095D02*
X40615476Y-20850000D01*
X40539285Y-20811904D01*
X40348809Y-20811904D01*
X40272619Y-20850000D01*
X40234523Y-20888095D01*
X40196428Y-20964285D01*
X40196428Y-21040476D01*
X40234523Y-21154761D01*
X40691666Y-21611904D01*
X40196428Y-21611904D01*
X41390476Y-23861904D02*
X41390476Y-23061904D01*
X41200000Y-23061904D01*
X41085714Y-23100000D01*
X41009523Y-23176190D01*
X40971428Y-23252380D01*
X40933333Y-23404761D01*
X40933333Y-23519047D01*
X40971428Y-23671428D01*
X41009523Y-23747619D01*
X41085714Y-23823809D01*
X41200000Y-23861904D01*
X41390476Y-23861904D01*
X40666666Y-23061904D02*
X40171428Y-23061904D01*
X40438095Y-23366666D01*
X40323809Y-23366666D01*
X40247619Y-23404761D01*
X40209523Y-23442857D01*
X40171428Y-23519047D01*
X40171428Y-23709523D01*
X40209523Y-23785714D01*
X40247619Y-23823809D01*
X40323809Y-23861904D01*
X40552380Y-23861904D01*
X40628571Y-23823809D01*
X40666666Y-23785714D01*
X41590476Y-26111904D02*
X41590476Y-25311904D01*
X41400000Y-25311904D01*
X41285714Y-25350000D01*
X41209523Y-25426190D01*
X41171428Y-25502380D01*
X41133333Y-25654761D01*
X41133333Y-25769047D01*
X41171428Y-25921428D01*
X41209523Y-25997619D01*
X41285714Y-26073809D01*
X41400000Y-26111904D01*
X41590476Y-26111904D01*
X40447619Y-25578571D02*
X40447619Y-26111904D01*
X40638095Y-25273809D02*
X40828571Y-25845238D01*
X40333333Y-25845238D01*
X21867857Y-18088095D02*
X21867857Y-18354761D01*
X22286904Y-18469047D02*
X22286904Y-18088095D01*
X21486904Y-18088095D01*
X21486904Y-18469047D01*
X22286904Y-18811904D02*
X21486904Y-18811904D01*
X22286904Y-19192857D02*
X21486904Y-19192857D01*
X22286904Y-19650000D01*
X21486904Y-19650000D01*
X22286904Y-20030952D02*
X21486904Y-20030952D01*
X22286904Y-20488095D02*
X21829761Y-20145238D01*
X21486904Y-20488095D02*
X21944047Y-20030952D01*
X22286904Y-21250000D02*
X22286904Y-20792857D01*
X22286904Y-21021428D02*
X21486904Y-21021428D01*
X21601190Y-20945238D01*
X21677380Y-20869047D01*
X21715476Y-20792857D01*
X73711904Y-28483333D02*
X74283333Y-28483333D01*
X74397619Y-28445238D01*
X74473809Y-28369047D01*
X74511904Y-28254761D01*
X74511904Y-28178571D01*
X74511904Y-29283333D02*
X74511904Y-28826190D01*
X74511904Y-29054761D02*
X73711904Y-29054761D01*
X73826190Y-28978571D01*
X73902380Y-28902380D01*
X73940476Y-28826190D01*
X35308333Y-37611904D02*
X35689285Y-37611904D01*
X35689285Y-36811904D01*
X34622619Y-37611904D02*
X35079761Y-37611904D01*
X34851190Y-37611904D02*
X34851190Y-36811904D01*
X34927380Y-36926190D01*
X35003571Y-37002380D01*
X35079761Y-37040476D01*
X35308333Y-35861904D02*
X35689285Y-35861904D01*
X35689285Y-35061904D01*
X35079761Y-35138095D02*
X35041666Y-35100000D01*
X34965476Y-35061904D01*
X34775000Y-35061904D01*
X34698809Y-35100000D01*
X34660714Y-35138095D01*
X34622619Y-35214285D01*
X34622619Y-35290476D01*
X34660714Y-35404761D01*
X35117857Y-35861904D01*
X34622619Y-35861904D01*
X48633333Y-13461904D02*
X49014285Y-13461904D01*
X49014285Y-12661904D01*
X48442857Y-12661904D02*
X47947619Y-12661904D01*
X48214285Y-12966666D01*
X48100000Y-12966666D01*
X48023809Y-13004761D01*
X47985714Y-13042857D01*
X47947619Y-13119047D01*
X47947619Y-13309523D01*
X47985714Y-13385714D01*
X48023809Y-13423809D01*
X48100000Y-13461904D01*
X48328571Y-13461904D01*
X48404761Y-13423809D01*
X48442857Y-13385714D01*
X72601190Y-17038095D02*
X72677380Y-17000000D01*
X72753571Y-16923809D01*
X72867857Y-16809523D01*
X72944047Y-16771428D01*
X73020238Y-16771428D01*
X72982142Y-16961904D02*
X73058333Y-16923809D01*
X73134523Y-16847619D01*
X73172619Y-16695238D01*
X73172619Y-16428571D01*
X73134523Y-16276190D01*
X73058333Y-16200000D01*
X72982142Y-16161904D01*
X72829761Y-16161904D01*
X72753571Y-16200000D01*
X72677380Y-16276190D01*
X72639285Y-16428571D01*
X72639285Y-16695238D01*
X72677380Y-16847619D01*
X72753571Y-16923809D01*
X72829761Y-16961904D01*
X72982142Y-16961904D01*
X71877380Y-16961904D02*
X72334523Y-16961904D01*
X72105952Y-16961904D02*
X72105952Y-16161904D01*
X72182142Y-16276190D01*
X72258333Y-16352380D01*
X72334523Y-16390476D01*
X41688095Y-15923809D02*
X41650000Y-15847619D01*
X41573809Y-15771428D01*
X41459523Y-15657142D01*
X41421428Y-15580952D01*
X41421428Y-15504761D01*
X41611904Y-15542857D02*
X41573809Y-15466666D01*
X41497619Y-15390476D01*
X41345238Y-15352380D01*
X41078571Y-15352380D01*
X40926190Y-15390476D01*
X40850000Y-15466666D01*
X40811904Y-15542857D01*
X40811904Y-15695238D01*
X40850000Y-15771428D01*
X40926190Y-15847619D01*
X41078571Y-15885714D01*
X41345238Y-15885714D01*
X41497619Y-15847619D01*
X41573809Y-15771428D01*
X41611904Y-15695238D01*
X41611904Y-15542857D01*
X40888095Y-16190476D02*
X40850000Y-16228571D01*
X40811904Y-16304761D01*
X40811904Y-16495238D01*
X40850000Y-16571428D01*
X40888095Y-16609523D01*
X40964285Y-16647619D01*
X41040476Y-16647619D01*
X41154761Y-16609523D01*
X41611904Y-16152380D01*
X41611904Y-16647619D01*
X73576190Y-41938095D02*
X73652380Y-41900000D01*
X73728571Y-41823809D01*
X73842857Y-41709523D01*
X73919047Y-41671428D01*
X73995238Y-41671428D01*
X73957142Y-41861904D02*
X74033333Y-41823809D01*
X74109523Y-41747619D01*
X74147619Y-41595238D01*
X74147619Y-41328571D01*
X74109523Y-41176190D01*
X74033333Y-41100000D01*
X73957142Y-41061904D01*
X73804761Y-41061904D01*
X73728571Y-41100000D01*
X73652380Y-41176190D01*
X73614285Y-41328571D01*
X73614285Y-41595238D01*
X73652380Y-41747619D01*
X73728571Y-41823809D01*
X73804761Y-41861904D01*
X73957142Y-41861904D01*
X73347619Y-41061904D02*
X72852380Y-41061904D01*
X73119047Y-41366666D01*
X73004761Y-41366666D01*
X72928571Y-41404761D01*
X72890476Y-41442857D01*
X72852380Y-41519047D01*
X72852380Y-41709523D01*
X72890476Y-41785714D01*
X72928571Y-41823809D01*
X73004761Y-41861904D01*
X73233333Y-41861904D01*
X73309523Y-41823809D01*
X73347619Y-41785714D01*
X72633333Y-21661904D02*
X72900000Y-21280952D01*
X73090476Y-21661904D02*
X73090476Y-20861904D01*
X72785714Y-20861904D01*
X72709523Y-20900000D01*
X72671428Y-20938095D01*
X72633333Y-21014285D01*
X72633333Y-21128571D01*
X72671428Y-21204761D01*
X72709523Y-21242857D01*
X72785714Y-21280952D01*
X73090476Y-21280952D01*
X71871428Y-21661904D02*
X72328571Y-21661904D01*
X72100000Y-21661904D02*
X72100000Y-20861904D01*
X72176190Y-20976190D01*
X72252380Y-21052380D01*
X72328571Y-21090476D01*
X59933333Y-25361904D02*
X60200000Y-24980952D01*
X60390476Y-25361904D02*
X60390476Y-24561904D01*
X60085714Y-24561904D01*
X60009523Y-24600000D01*
X59971428Y-24638095D01*
X59933333Y-24714285D01*
X59933333Y-24828571D01*
X59971428Y-24904761D01*
X60009523Y-24942857D01*
X60085714Y-24980952D01*
X60390476Y-24980952D01*
X59628571Y-24638095D02*
X59590476Y-24600000D01*
X59514285Y-24561904D01*
X59323809Y-24561904D01*
X59247619Y-24600000D01*
X59209523Y-24638095D01*
X59171428Y-24714285D01*
X59171428Y-24790476D01*
X59209523Y-24904761D01*
X59666666Y-25361904D01*
X59171428Y-25361904D01*
X59933333Y-21361904D02*
X60200000Y-20980952D01*
X60390476Y-21361904D02*
X60390476Y-20561904D01*
X60085714Y-20561904D01*
X60009523Y-20600000D01*
X59971428Y-20638095D01*
X59933333Y-20714285D01*
X59933333Y-20828571D01*
X59971428Y-20904761D01*
X60009523Y-20942857D01*
X60085714Y-20980952D01*
X60390476Y-20980952D01*
X59666666Y-20561904D02*
X59171428Y-20561904D01*
X59438095Y-20866666D01*
X59323809Y-20866666D01*
X59247619Y-20904761D01*
X59209523Y-20942857D01*
X59171428Y-21019047D01*
X59171428Y-21209523D01*
X59209523Y-21285714D01*
X59247619Y-21323809D01*
X59323809Y-21361904D01*
X59552380Y-21361904D01*
X59628571Y-21323809D01*
X59666666Y-21285714D01*
X41211904Y-12116666D02*
X40830952Y-11850000D01*
X41211904Y-11659523D02*
X40411904Y-11659523D01*
X40411904Y-11964285D01*
X40450000Y-12040476D01*
X40488095Y-12078571D01*
X40564285Y-12116666D01*
X40678571Y-12116666D01*
X40754761Y-12078571D01*
X40792857Y-12040476D01*
X40830952Y-11964285D01*
X40830952Y-11659523D01*
X40678571Y-12802380D02*
X41211904Y-12802380D01*
X40373809Y-12611904D02*
X40945238Y-12421428D01*
X40945238Y-12916666D01*
X46491904Y-12116666D02*
X46110952Y-11850000D01*
X46491904Y-11659523D02*
X45691904Y-11659523D01*
X45691904Y-11964285D01*
X45730000Y-12040476D01*
X45768095Y-12078571D01*
X45844285Y-12116666D01*
X45958571Y-12116666D01*
X46034761Y-12078571D01*
X46072857Y-12040476D01*
X46110952Y-11964285D01*
X46110952Y-11659523D01*
X45691904Y-12840476D02*
X45691904Y-12459523D01*
X46072857Y-12421428D01*
X46034761Y-12459523D01*
X45996666Y-12535714D01*
X45996666Y-12726190D01*
X46034761Y-12802380D01*
X46072857Y-12840476D01*
X46149047Y-12878571D01*
X46339523Y-12878571D01*
X46415714Y-12840476D01*
X46453809Y-12802380D01*
X46491904Y-12726190D01*
X46491904Y-12535714D01*
X46453809Y-12459523D01*
X46415714Y-12421428D01*
X64758578Y-38306412D02*
X65159272Y-38235702D01*
X65041421Y-38589255D02*
X65536396Y-38094280D01*
X65347834Y-37905719D01*
X65277123Y-37882148D01*
X65229983Y-37882148D01*
X65159272Y-37905719D01*
X65088561Y-37976429D01*
X65064991Y-38047140D01*
X65064991Y-38094280D01*
X65088561Y-38164991D01*
X65277123Y-38353553D01*
X64829289Y-37387174D02*
X64923570Y-37481455D01*
X64947140Y-37552165D01*
X64947140Y-37599306D01*
X64923570Y-37717157D01*
X64852859Y-37835008D01*
X64664297Y-38023570D01*
X64593587Y-38047140D01*
X64546446Y-38047140D01*
X64475735Y-38023570D01*
X64381455Y-37929289D01*
X64357884Y-37858578D01*
X64357884Y-37811438D01*
X64381455Y-37740727D01*
X64499306Y-37622876D01*
X64570016Y-37599306D01*
X64617157Y-37599306D01*
X64687867Y-37622876D01*
X64782148Y-37717157D01*
X64805719Y-37787867D01*
X64805719Y-37835008D01*
X64782148Y-37905719D01*
X66758578Y-38306412D02*
X67159272Y-38235702D01*
X67041421Y-38589255D02*
X67536396Y-38094280D01*
X67347834Y-37905719D01*
X67277123Y-37882148D01*
X67229983Y-37882148D01*
X67159272Y-37905719D01*
X67088561Y-37976429D01*
X67064991Y-38047140D01*
X67064991Y-38094280D01*
X67088561Y-38164991D01*
X67277123Y-38353553D01*
X67088561Y-37646446D02*
X66758578Y-37316463D01*
X66475735Y-38023570D01*
X62758578Y-38406412D02*
X63159272Y-38335702D01*
X63041421Y-38689255D02*
X63536396Y-38194280D01*
X63347834Y-38005719D01*
X63277123Y-37982148D01*
X63229983Y-37982148D01*
X63159272Y-38005719D01*
X63088561Y-38076429D01*
X63064991Y-38147140D01*
X63064991Y-38194280D01*
X63088561Y-38264991D01*
X63277123Y-38453553D01*
X62758578Y-37840727D02*
X62829289Y-37864297D01*
X62876429Y-37864297D01*
X62947140Y-37840727D01*
X62970710Y-37817157D01*
X62994280Y-37746446D01*
X62994280Y-37699306D01*
X62970710Y-37628595D01*
X62876429Y-37534314D01*
X62805719Y-37510744D01*
X62758578Y-37510744D01*
X62687867Y-37534314D01*
X62664297Y-37557884D01*
X62640727Y-37628595D01*
X62640727Y-37675735D01*
X62664297Y-37746446D01*
X62758578Y-37840727D01*
X62782148Y-37911438D01*
X62782148Y-37958578D01*
X62758578Y-38029289D01*
X62664297Y-38123570D01*
X62593587Y-38147140D01*
X62546446Y-38147140D01*
X62475735Y-38123570D01*
X62381455Y-38029289D01*
X62357884Y-37958578D01*
X62357884Y-37911438D01*
X62381455Y-37840727D01*
X62475735Y-37746446D01*
X62546446Y-37722876D01*
X62593587Y-37722876D01*
X62664297Y-37746446D01*
X61161904Y-39466666D02*
X60780952Y-39200000D01*
X61161904Y-39009523D02*
X60361904Y-39009523D01*
X60361904Y-39314285D01*
X60400000Y-39390476D01*
X60438095Y-39428571D01*
X60514285Y-39466666D01*
X60628571Y-39466666D01*
X60704761Y-39428571D01*
X60742857Y-39390476D01*
X60780952Y-39314285D01*
X60780952Y-39009523D01*
X61161904Y-39847619D02*
X61161904Y-40000000D01*
X61123809Y-40076190D01*
X61085714Y-40114285D01*
X60971428Y-40190476D01*
X60819047Y-40228571D01*
X60514285Y-40228571D01*
X60438095Y-40190476D01*
X60400000Y-40152380D01*
X60361904Y-40076190D01*
X60361904Y-39923809D01*
X60400000Y-39847619D01*
X60438095Y-39809523D01*
X60514285Y-39771428D01*
X60704761Y-39771428D01*
X60780952Y-39809523D01*
X60819047Y-39847619D01*
X60857142Y-39923809D01*
X60857142Y-40076190D01*
X60819047Y-40152380D01*
X60780952Y-40190476D01*
X60704761Y-40228571D01*
X46609523Y-32211904D02*
X46609523Y-32859523D01*
X46571428Y-32935714D01*
X46533333Y-32973809D01*
X46457142Y-33011904D01*
X46304761Y-33011904D01*
X46228571Y-32973809D01*
X46190476Y-32935714D01*
X46152380Y-32859523D01*
X46152380Y-32211904D01*
X45352380Y-33011904D02*
X45809523Y-33011904D01*
X45580952Y-33011904D02*
X45580952Y-32211904D01*
X45657142Y-32326190D01*
X45733333Y-32402380D01*
X45809523Y-32440476D01*
D11*
X47192857Y-48116666D02*
X46716666Y-48116666D01*
X47288095Y-48402380D02*
X46954761Y-47402380D01*
X46621428Y-48402380D01*
X46288095Y-48402380D02*
X46288095Y-47402380D01*
X45716666Y-48402380D01*
X45716666Y-47402380D01*
X45383333Y-47402380D02*
X44811904Y-47402380D01*
X45097619Y-48402380D02*
X45097619Y-47402380D01*
D10*
X68359523Y-26461904D02*
X68359523Y-27109523D01*
X68321428Y-27185714D01*
X68283333Y-27223809D01*
X68207142Y-27261904D01*
X68054761Y-27261904D01*
X67978571Y-27223809D01*
X67940476Y-27185714D01*
X67902380Y-27109523D01*
X67902380Y-26461904D01*
X67559523Y-26538095D02*
X67521428Y-26500000D01*
X67445238Y-26461904D01*
X67254761Y-26461904D01*
X67178571Y-26500000D01*
X67140476Y-26538095D01*
X67102380Y-26614285D01*
X67102380Y-26690476D01*
X67140476Y-26804761D01*
X67597619Y-27261904D01*
X67102380Y-27261904D01*
X72009523Y-14061904D02*
X72009523Y-14709523D01*
X71971428Y-14785714D01*
X71933333Y-14823809D01*
X71857142Y-14861904D01*
X71704761Y-14861904D01*
X71628571Y-14823809D01*
X71590476Y-14785714D01*
X71552380Y-14709523D01*
X71552380Y-14061904D01*
X71247619Y-14061904D02*
X70752380Y-14061904D01*
X71019047Y-14366666D01*
X70904761Y-14366666D01*
X70828571Y-14404761D01*
X70790476Y-14442857D01*
X70752380Y-14519047D01*
X70752380Y-14709523D01*
X70790476Y-14785714D01*
X70828571Y-14823809D01*
X70904761Y-14861904D01*
X71133333Y-14861904D01*
X71209523Y-14823809D01*
X71247619Y-14785714D01*
X60761904Y-31390476D02*
X61409523Y-31390476D01*
X61485714Y-31428571D01*
X61523809Y-31466666D01*
X61561904Y-31542857D01*
X61561904Y-31695238D01*
X61523809Y-31771428D01*
X61485714Y-31809523D01*
X61409523Y-31847619D01*
X60761904Y-31847619D01*
X61028571Y-32571428D02*
X61561904Y-32571428D01*
X60723809Y-32380952D02*
X61295238Y-32190476D01*
X61295238Y-32685714D01*
X46305952Y-31230952D02*
X46305952Y-31611904D01*
X46572619Y-30811904D02*
X46305952Y-31230952D01*
X46039285Y-30811904D01*
X45353571Y-31611904D02*
X45810714Y-31611904D01*
X45582142Y-31611904D02*
X45582142Y-30811904D01*
X45658333Y-30926190D01*
X45734523Y-31002380D01*
X45810714Y-31040476D01*
X77928571Y-23642857D02*
X77814285Y-23680952D01*
X77776190Y-23719047D01*
X77738095Y-23795238D01*
X77738095Y-23909523D01*
X77776190Y-23985714D01*
X77814285Y-24023809D01*
X77890476Y-24061904D01*
X78195238Y-24061904D01*
X78195238Y-23261904D01*
X77928571Y-23261904D01*
X77852380Y-23300000D01*
X77814285Y-23338095D01*
X77776190Y-23414285D01*
X77776190Y-23490476D01*
X77814285Y-23566666D01*
X77852380Y-23604761D01*
X77928571Y-23642857D01*
X78195238Y-23642857D01*
X77509523Y-23261904D02*
X77052380Y-23261904D01*
X77280952Y-24061904D02*
X77280952Y-23261904D01*
X76366666Y-24061904D02*
X76823809Y-24061904D01*
X76595238Y-24061904D02*
X76595238Y-23261904D01*
X76671428Y-23376190D01*
X76747619Y-23452380D01*
X76823809Y-23490476D01*
X59621904Y-42233333D02*
X60193333Y-42233333D01*
X60307619Y-42195238D01*
X60383809Y-42119047D01*
X60421904Y-42004761D01*
X60421904Y-41928571D01*
X59698095Y-42576190D02*
X59660000Y-42614285D01*
X59621904Y-42690476D01*
X59621904Y-42880952D01*
X59660000Y-42957142D01*
X59698095Y-42995238D01*
X59774285Y-43033333D01*
X59850476Y-43033333D01*
X59964761Y-42995238D01*
X60421904Y-42538095D01*
X60421904Y-43033333D01*
X65266666Y-47061904D02*
X65266666Y-47633333D01*
X65304761Y-47747619D01*
X65380952Y-47823809D01*
X65495238Y-47861904D01*
X65571428Y-47861904D01*
X64961904Y-47061904D02*
X64466666Y-47061904D01*
X64733333Y-47366666D01*
X64619047Y-47366666D01*
X64542857Y-47404761D01*
X64504761Y-47442857D01*
X64466666Y-47519047D01*
X64466666Y-47709523D01*
X64504761Y-47785714D01*
X64542857Y-47823809D01*
X64619047Y-47861904D01*
X64847619Y-47861904D01*
X64923809Y-47823809D01*
X64961904Y-47785714D01*
X62385714Y-14585714D02*
X62423809Y-14547619D01*
X62461904Y-14433333D01*
X62461904Y-14357142D01*
X62423809Y-14242857D01*
X62347619Y-14166666D01*
X62271428Y-14128571D01*
X62119047Y-14090476D01*
X62004761Y-14090476D01*
X61852380Y-14128571D01*
X61776190Y-14166666D01*
X61700000Y-14242857D01*
X61661904Y-14357142D01*
X61661904Y-14433333D01*
X61700000Y-14547619D01*
X61738095Y-14585714D01*
X61738095Y-14890476D02*
X61700000Y-14928571D01*
X61661904Y-15004761D01*
X61661904Y-15195238D01*
X61700000Y-15271428D01*
X61738095Y-15309523D01*
X61814285Y-15347619D01*
X61890476Y-15347619D01*
X62004761Y-15309523D01*
X62461904Y-14852380D01*
X62461904Y-15347619D01*
X61738095Y-15652380D02*
X61700000Y-15690476D01*
X61661904Y-15766666D01*
X61661904Y-15957142D01*
X61700000Y-16033333D01*
X61738095Y-16071428D01*
X61814285Y-16109523D01*
X61890476Y-16109523D01*
X62004761Y-16071428D01*
X62461904Y-15614285D01*
X62461904Y-16109523D01*
X64085714Y-14685714D02*
X64123809Y-14647619D01*
X64161904Y-14533333D01*
X64161904Y-14457142D01*
X64123809Y-14342857D01*
X64047619Y-14266666D01*
X63971428Y-14228571D01*
X63819047Y-14190476D01*
X63704761Y-14190476D01*
X63552380Y-14228571D01*
X63476190Y-14266666D01*
X63400000Y-14342857D01*
X63361904Y-14457142D01*
X63361904Y-14533333D01*
X63400000Y-14647619D01*
X63438095Y-14685714D01*
X63438095Y-14990476D02*
X63400000Y-15028571D01*
X63361904Y-15104761D01*
X63361904Y-15295238D01*
X63400000Y-15371428D01*
X63438095Y-15409523D01*
X63514285Y-15447619D01*
X63590476Y-15447619D01*
X63704761Y-15409523D01*
X64161904Y-14952380D01*
X64161904Y-15447619D01*
X63361904Y-15714285D02*
X63361904Y-16247619D01*
X64161904Y-15904761D01*
X50514285Y-10885714D02*
X50552380Y-10923809D01*
X50666666Y-10961904D01*
X50742857Y-10961904D01*
X50857142Y-10923809D01*
X50933333Y-10847619D01*
X50971428Y-10771428D01*
X51009523Y-10619047D01*
X51009523Y-10504761D01*
X50971428Y-10352380D01*
X50933333Y-10276190D01*
X50857142Y-10200000D01*
X50742857Y-10161904D01*
X50666666Y-10161904D01*
X50552380Y-10200000D01*
X50514285Y-10238095D01*
X50209523Y-10238095D02*
X50171428Y-10200000D01*
X50095238Y-10161904D01*
X49904761Y-10161904D01*
X49828571Y-10200000D01*
X49790476Y-10238095D01*
X49752380Y-10314285D01*
X49752380Y-10390476D01*
X49790476Y-10504761D01*
X50247619Y-10961904D01*
X49752380Y-10961904D01*
X49295238Y-10504761D02*
X49371428Y-10466666D01*
X49409523Y-10428571D01*
X49447619Y-10352380D01*
X49447619Y-10314285D01*
X49409523Y-10238095D01*
X49371428Y-10200000D01*
X49295238Y-10161904D01*
X49142857Y-10161904D01*
X49066666Y-10200000D01*
X49028571Y-10238095D01*
X48990476Y-10314285D01*
X48990476Y-10352380D01*
X49028571Y-10428571D01*
X49066666Y-10466666D01*
X49142857Y-10504761D01*
X49295238Y-10504761D01*
X49371428Y-10542857D01*
X49409523Y-10580952D01*
X49447619Y-10657142D01*
X49447619Y-10809523D01*
X49409523Y-10885714D01*
X49371428Y-10923809D01*
X49295238Y-10961904D01*
X49142857Y-10961904D01*
X49066666Y-10923809D01*
X49028571Y-10885714D01*
X48990476Y-10809523D01*
X48990476Y-10657142D01*
X49028571Y-10580952D01*
X49066666Y-10542857D01*
X49142857Y-10504761D01*
X50885714Y-11785714D02*
X50923809Y-11747619D01*
X50961904Y-11633333D01*
X50961904Y-11557142D01*
X50923809Y-11442857D01*
X50847619Y-11366666D01*
X50771428Y-11328571D01*
X50619047Y-11290476D01*
X50504761Y-11290476D01*
X50352380Y-11328571D01*
X50276190Y-11366666D01*
X50200000Y-11442857D01*
X50161904Y-11557142D01*
X50161904Y-11633333D01*
X50200000Y-11747619D01*
X50238095Y-11785714D01*
X50238095Y-12090476D02*
X50200000Y-12128571D01*
X50161904Y-12204761D01*
X50161904Y-12395238D01*
X50200000Y-12471428D01*
X50238095Y-12509523D01*
X50314285Y-12547619D01*
X50390476Y-12547619D01*
X50504761Y-12509523D01*
X50961904Y-12052380D01*
X50961904Y-12547619D01*
X50961904Y-12928571D02*
X50961904Y-13080952D01*
X50923809Y-13157142D01*
X50885714Y-13195238D01*
X50771428Y-13271428D01*
X50619047Y-13309523D01*
X50314285Y-13309523D01*
X50238095Y-13271428D01*
X50200000Y-13233333D01*
X50161904Y-13157142D01*
X50161904Y-13004761D01*
X50200000Y-12928571D01*
X50238095Y-12890476D01*
X50314285Y-12852380D01*
X50504761Y-12852380D01*
X50580952Y-12890476D01*
X50619047Y-12928571D01*
X50657142Y-13004761D01*
X50657142Y-13157142D01*
X50619047Y-13233333D01*
X50580952Y-13271428D01*
X50504761Y-13309523D01*
X50214285Y-20505714D02*
X50252380Y-20543809D01*
X50366666Y-20581904D01*
X50442857Y-20581904D01*
X50557142Y-20543809D01*
X50633333Y-20467619D01*
X50671428Y-20391428D01*
X50709523Y-20239047D01*
X50709523Y-20124761D01*
X50671428Y-19972380D01*
X50633333Y-19896190D01*
X50557142Y-19820000D01*
X50442857Y-19781904D01*
X50366666Y-19781904D01*
X50252380Y-19820000D01*
X50214285Y-19858095D01*
X49947619Y-19781904D02*
X49452380Y-19781904D01*
X49719047Y-20086666D01*
X49604761Y-20086666D01*
X49528571Y-20124761D01*
X49490476Y-20162857D01*
X49452380Y-20239047D01*
X49452380Y-20429523D01*
X49490476Y-20505714D01*
X49528571Y-20543809D01*
X49604761Y-20581904D01*
X49833333Y-20581904D01*
X49909523Y-20543809D01*
X49947619Y-20505714D01*
X48957142Y-19781904D02*
X48880952Y-19781904D01*
X48804761Y-19820000D01*
X48766666Y-19858095D01*
X48728571Y-19934285D01*
X48690476Y-20086666D01*
X48690476Y-20277142D01*
X48728571Y-20429523D01*
X48766666Y-20505714D01*
X48804761Y-20543809D01*
X48880952Y-20581904D01*
X48957142Y-20581904D01*
X49033333Y-20543809D01*
X49071428Y-20505714D01*
X49109523Y-20429523D01*
X49147619Y-20277142D01*
X49147619Y-20086666D01*
X49109523Y-19934285D01*
X49071428Y-19858095D01*
X49033333Y-19820000D01*
X48957142Y-19781904D01*
X57385714Y-22260714D02*
X57423809Y-22222619D01*
X57461904Y-22108333D01*
X57461904Y-22032142D01*
X57423809Y-21917857D01*
X57347619Y-21841666D01*
X57271428Y-21803571D01*
X57119047Y-21765476D01*
X57004761Y-21765476D01*
X56852380Y-21803571D01*
X56776190Y-21841666D01*
X56700000Y-21917857D01*
X56661904Y-22032142D01*
X56661904Y-22108333D01*
X56700000Y-22222619D01*
X56738095Y-22260714D01*
X56661904Y-22527380D02*
X56661904Y-23022619D01*
X56966666Y-22755952D01*
X56966666Y-22870238D01*
X57004761Y-22946428D01*
X57042857Y-22984523D01*
X57119047Y-23022619D01*
X57309523Y-23022619D01*
X57385714Y-22984523D01*
X57423809Y-22946428D01*
X57461904Y-22870238D01*
X57461904Y-22641666D01*
X57423809Y-22565476D01*
X57385714Y-22527380D01*
X57461904Y-23784523D02*
X57461904Y-23327380D01*
X57461904Y-23555952D02*
X56661904Y-23555952D01*
X56776190Y-23479761D01*
X56852380Y-23403571D01*
X56890476Y-23327380D01*
X50214285Y-25285714D02*
X50252380Y-25323809D01*
X50366666Y-25361904D01*
X50442857Y-25361904D01*
X50557142Y-25323809D01*
X50633333Y-25247619D01*
X50671428Y-25171428D01*
X50709523Y-25019047D01*
X50709523Y-24904761D01*
X50671428Y-24752380D01*
X50633333Y-24676190D01*
X50557142Y-24600000D01*
X50442857Y-24561904D01*
X50366666Y-24561904D01*
X50252380Y-24600000D01*
X50214285Y-24638095D01*
X49947619Y-24561904D02*
X49452380Y-24561904D01*
X49719047Y-24866666D01*
X49604761Y-24866666D01*
X49528571Y-24904761D01*
X49490476Y-24942857D01*
X49452380Y-25019047D01*
X49452380Y-25209523D01*
X49490476Y-25285714D01*
X49528571Y-25323809D01*
X49604761Y-25361904D01*
X49833333Y-25361904D01*
X49909523Y-25323809D01*
X49947619Y-25285714D01*
X49147619Y-24638095D02*
X49109523Y-24600000D01*
X49033333Y-24561904D01*
X48842857Y-24561904D01*
X48766666Y-24600000D01*
X48728571Y-24638095D01*
X48690476Y-24714285D01*
X48690476Y-24790476D01*
X48728571Y-24904761D01*
X49185714Y-25361904D01*
X48690476Y-25361904D01*
X52261904Y-15409523D02*
X51461904Y-15409523D01*
X51461904Y-15600000D01*
X51500000Y-15714285D01*
X51576190Y-15790476D01*
X51652380Y-15828571D01*
X51804761Y-15866666D01*
X51919047Y-15866666D01*
X52071428Y-15828571D01*
X52147619Y-15790476D01*
X52223809Y-15714285D01*
X52261904Y-15600000D01*
X52261904Y-15409523D01*
X51461904Y-16590476D02*
X51461904Y-16209523D01*
X51842857Y-16171428D01*
X51804761Y-16209523D01*
X51766666Y-16285714D01*
X51766666Y-16476190D01*
X51804761Y-16552380D01*
X51842857Y-16590476D01*
X51919047Y-16628571D01*
X52109523Y-16628571D01*
X52185714Y-16590476D01*
X52223809Y-16552380D01*
X52261904Y-16476190D01*
X52261904Y-16285714D01*
X52223809Y-16209523D01*
X52185714Y-16171428D01*
X55611904Y-17866666D02*
X55611904Y-17485714D01*
X54811904Y-17485714D01*
X55078571Y-18476190D02*
X55611904Y-18476190D01*
X54773809Y-18285714D02*
X55345238Y-18095238D01*
X55345238Y-18590476D01*
X61764285Y-11611904D02*
X62030952Y-11230952D01*
X62221428Y-11611904D02*
X62221428Y-10811904D01*
X61916666Y-10811904D01*
X61840476Y-10850000D01*
X61802380Y-10888095D01*
X61764285Y-10964285D01*
X61764285Y-11078571D01*
X61802380Y-11154761D01*
X61840476Y-11192857D01*
X61916666Y-11230952D01*
X62221428Y-11230952D01*
X61002380Y-11611904D02*
X61459523Y-11611904D01*
X61230952Y-11611904D02*
X61230952Y-10811904D01*
X61307142Y-10926190D01*
X61383333Y-11002380D01*
X61459523Y-11040476D01*
X60507142Y-10811904D02*
X60430952Y-10811904D01*
X60354761Y-10850000D01*
X60316666Y-10888095D01*
X60278571Y-10964285D01*
X60240476Y-11116666D01*
X60240476Y-11307142D01*
X60278571Y-11459523D01*
X60316666Y-11535714D01*
X60354761Y-11573809D01*
X60430952Y-11611904D01*
X60507142Y-11611904D01*
X60583333Y-11573809D01*
X60621428Y-11535714D01*
X60659523Y-11459523D01*
X60697619Y-11307142D01*
X60697619Y-11116666D01*
X60659523Y-10964285D01*
X60621428Y-10888095D01*
X60583333Y-10850000D01*
X60507142Y-10811904D01*
X56361904Y-11685714D02*
X55980952Y-11419047D01*
X56361904Y-11228571D02*
X55561904Y-11228571D01*
X55561904Y-11533333D01*
X55600000Y-11609523D01*
X55638095Y-11647619D01*
X55714285Y-11685714D01*
X55828571Y-11685714D01*
X55904761Y-11647619D01*
X55942857Y-11609523D01*
X55980952Y-11533333D01*
X55980952Y-11228571D01*
X56361904Y-12447619D02*
X56361904Y-11990476D01*
X56361904Y-12219047D02*
X55561904Y-12219047D01*
X55676190Y-12142857D01*
X55752380Y-12066666D01*
X55790476Y-11990476D01*
X56361904Y-13209523D02*
X56361904Y-12752380D01*
X56361904Y-12980952D02*
X55561904Y-12980952D01*
X55676190Y-12904761D01*
X55752380Y-12828571D01*
X55790476Y-12752380D01*
X56614285Y-26111904D02*
X56880952Y-25730952D01*
X57071428Y-26111904D02*
X57071428Y-25311904D01*
X56766666Y-25311904D01*
X56690476Y-25350000D01*
X56652380Y-25388095D01*
X56614285Y-25464285D01*
X56614285Y-25578571D01*
X56652380Y-25654761D01*
X56690476Y-25692857D01*
X56766666Y-25730952D01*
X57071428Y-25730952D01*
X55852380Y-26111904D02*
X56309523Y-26111904D01*
X56080952Y-26111904D02*
X56080952Y-25311904D01*
X56157142Y-25426190D01*
X56233333Y-25502380D01*
X56309523Y-25540476D01*
X55547619Y-25388095D02*
X55509523Y-25350000D01*
X55433333Y-25311904D01*
X55242857Y-25311904D01*
X55166666Y-25350000D01*
X55128571Y-25388095D01*
X55090476Y-25464285D01*
X55090476Y-25540476D01*
X55128571Y-25654761D01*
X55585714Y-26111904D01*
X55090476Y-26111904D01*
X56614285Y-27861904D02*
X56880952Y-27480952D01*
X57071428Y-27861904D02*
X57071428Y-27061904D01*
X56766666Y-27061904D01*
X56690476Y-27100000D01*
X56652380Y-27138095D01*
X56614285Y-27214285D01*
X56614285Y-27328571D01*
X56652380Y-27404761D01*
X56690476Y-27442857D01*
X56766666Y-27480952D01*
X57071428Y-27480952D01*
X55852380Y-27861904D02*
X56309523Y-27861904D01*
X56080952Y-27861904D02*
X56080952Y-27061904D01*
X56157142Y-27176190D01*
X56233333Y-27252380D01*
X56309523Y-27290476D01*
X55585714Y-27061904D02*
X55090476Y-27061904D01*
X55357142Y-27366666D01*
X55242857Y-27366666D01*
X55166666Y-27404761D01*
X55128571Y-27442857D01*
X55090476Y-27519047D01*
X55090476Y-27709523D01*
X55128571Y-27785714D01*
X55166666Y-27823809D01*
X55242857Y-27861904D01*
X55471428Y-27861904D01*
X55547619Y-27823809D01*
X55585714Y-27785714D01*
X61609523Y-13561904D02*
X61609523Y-14209523D01*
X61571428Y-14285714D01*
X61533333Y-14323809D01*
X61457142Y-14361904D01*
X61304761Y-14361904D01*
X61228571Y-14323809D01*
X61190476Y-14285714D01*
X61152380Y-14209523D01*
X61152380Y-13561904D01*
X60390476Y-13561904D02*
X60771428Y-13561904D01*
X60809523Y-13942857D01*
X60771428Y-13904761D01*
X60695238Y-13866666D01*
X60504761Y-13866666D01*
X60428571Y-13904761D01*
X60390476Y-13942857D01*
X60352380Y-14019047D01*
X60352380Y-14209523D01*
X60390476Y-14285714D01*
X60428571Y-14323809D01*
X60504761Y-14361904D01*
X60695238Y-14361904D01*
X60771428Y-14323809D01*
X60809523Y-14285714D01*
X53809523Y-19961904D02*
X53809523Y-20609523D01*
X53771428Y-20685714D01*
X53733333Y-20723809D01*
X53657142Y-20761904D01*
X53504761Y-20761904D01*
X53428571Y-20723809D01*
X53390476Y-20685714D01*
X53352380Y-20609523D01*
X53352380Y-19961904D01*
X52628571Y-19961904D02*
X52780952Y-19961904D01*
X52857142Y-20000000D01*
X52895238Y-20038095D01*
X52971428Y-20152380D01*
X53009523Y-20304761D01*
X53009523Y-20609523D01*
X52971428Y-20685714D01*
X52933333Y-20723809D01*
X52857142Y-20761904D01*
X52704761Y-20761904D01*
X52628571Y-20723809D01*
X52590476Y-20685714D01*
X52552380Y-20609523D01*
X52552380Y-20419047D01*
X52590476Y-20342857D01*
X52628571Y-20304761D01*
X52704761Y-20266666D01*
X52857142Y-20266666D01*
X52933333Y-20304761D01*
X52971428Y-20342857D01*
X53009523Y-20419047D01*
D11*
X61907619Y-38733333D02*
X61193333Y-38733333D01*
X61050476Y-38780952D01*
X60955238Y-38876190D01*
X60907619Y-39019047D01*
X60907619Y-39114285D01*
X61574285Y-37828571D02*
X60907619Y-37828571D01*
X61955238Y-38066666D02*
X61240952Y-38304761D01*
X61240952Y-37685714D01*
M02*
