G04 #@! TF.GenerationSoftware,KiCad,Pcbnew,5.1.5-52549c5~84~ubuntu18.04.1*
G04 #@! TF.CreationDate,2020-03-09T11:52:29+05:30*
G04 #@! TF.ProjectId,scale_hx711,7363616c-655f-4687-9837-31312e6b6963,rev?*
G04 #@! TF.SameCoordinates,Original*
G04 #@! TF.FileFunction,Legend,Top*
G04 #@! TF.FilePolarity,Positive*
%FSLAX46Y46*%
G04 Gerber Fmt 4.6, Leading zero omitted, Abs format (unit mm)*
G04 Created by KiCad (PCBNEW 5.1.5-52549c5~84~ubuntu18.04.1) date 2020-03-09 11:52:29*
%MOMM*%
%LPD*%
G04 APERTURE LIST*
%ADD10C,0.150000*%
%ADD11C,0.120000*%
G04 APERTURE END LIST*
D10*
X15500000Y-12000000D02*
X15500000Y-50000000D01*
X47500000Y-50000000D02*
X47500000Y-12000000D01*
X47500000Y-50000000D02*
X15500000Y-50000000D01*
X47500000Y-12000000D02*
X15500000Y-12000000D01*
D11*
X68685000Y-30800000D02*
X68685000Y-28315000D01*
X68685000Y-28315000D02*
X67315000Y-28315000D01*
X67315000Y-28315000D02*
X67315000Y-30800000D01*
D10*
X63850000Y-33000000D02*
X63850000Y-27000000D01*
X60150000Y-33000000D02*
X60150000Y-27000000D01*
X60150000Y-33000000D02*
X63850000Y-33000000D01*
X63850000Y-27000000D02*
X60150000Y-27000000D01*
X55350000Y-34500000D02*
X55350000Y-25500000D01*
X51650000Y-34500000D02*
X51650000Y-25500000D01*
X51650000Y-34500000D02*
X55350000Y-34500000D01*
X55350000Y-25500000D02*
X51650000Y-25500000D01*
D11*
X27995238Y-30442857D02*
X28261904Y-30442857D01*
X28376190Y-30861904D02*
X27995238Y-30861904D01*
X27995238Y-30061904D01*
X28376190Y-30061904D01*
X28719047Y-30861904D02*
X28719047Y-30061904D01*
X29100000Y-30328571D02*
X29100000Y-30861904D01*
X29100000Y-30404761D02*
X29138095Y-30366666D01*
X29214285Y-30328571D01*
X29328571Y-30328571D01*
X29404761Y-30366666D01*
X29442857Y-30442857D01*
X29442857Y-30861904D01*
X29823809Y-30861904D02*
X29823809Y-30061904D01*
X29900000Y-30557142D02*
X30128571Y-30861904D01*
X30128571Y-30328571D02*
X29823809Y-30633333D01*
X31080952Y-30861904D02*
X31080952Y-30061904D01*
X31271428Y-30061904D01*
X31385714Y-30100000D01*
X31461904Y-30176190D01*
X31500000Y-30252380D01*
X31538095Y-30404761D01*
X31538095Y-30519047D01*
X31500000Y-30671428D01*
X31461904Y-30747619D01*
X31385714Y-30823809D01*
X31271428Y-30861904D01*
X31080952Y-30861904D01*
X31880952Y-30861904D02*
X31880952Y-30328571D01*
X31880952Y-30061904D02*
X31842857Y-30100000D01*
X31880952Y-30138095D01*
X31919047Y-30100000D01*
X31880952Y-30061904D01*
X31880952Y-30138095D01*
X32223809Y-30823809D02*
X32300000Y-30861904D01*
X32452380Y-30861904D01*
X32528571Y-30823809D01*
X32566666Y-30747619D01*
X32566666Y-30709523D01*
X32528571Y-30633333D01*
X32452380Y-30595238D01*
X32338095Y-30595238D01*
X32261904Y-30557142D01*
X32223809Y-30480952D01*
X32223809Y-30442857D01*
X32261904Y-30366666D01*
X32338095Y-30328571D01*
X32452380Y-30328571D01*
X32528571Y-30366666D01*
X32909523Y-30328571D02*
X32909523Y-31128571D01*
X32909523Y-30366666D02*
X32985714Y-30328571D01*
X33138095Y-30328571D01*
X33214285Y-30366666D01*
X33252380Y-30404761D01*
X33290476Y-30480952D01*
X33290476Y-30709523D01*
X33252380Y-30785714D01*
X33214285Y-30823809D01*
X33138095Y-30861904D01*
X32985714Y-30861904D01*
X32909523Y-30823809D01*
X33747619Y-30861904D02*
X33671428Y-30823809D01*
X33633333Y-30747619D01*
X33633333Y-30061904D01*
X34395238Y-30861904D02*
X34395238Y-30442857D01*
X34357142Y-30366666D01*
X34280952Y-30328571D01*
X34128571Y-30328571D01*
X34052380Y-30366666D01*
X34395238Y-30823809D02*
X34319047Y-30861904D01*
X34128571Y-30861904D01*
X34052380Y-30823809D01*
X34014285Y-30747619D01*
X34014285Y-30671428D01*
X34052380Y-30595238D01*
X34128571Y-30557142D01*
X34319047Y-30557142D01*
X34395238Y-30519047D01*
X34700000Y-30328571D02*
X34890476Y-30861904D01*
X35080952Y-30328571D02*
X34890476Y-30861904D01*
X34814285Y-31052380D01*
X34776190Y-31090476D01*
X34700000Y-31128571D01*
X65285714Y-28014285D02*
X65323809Y-28052380D01*
X65361904Y-28166666D01*
X65361904Y-28242857D01*
X65323809Y-28357142D01*
X65247619Y-28433333D01*
X65171428Y-28471428D01*
X65019047Y-28509523D01*
X64904761Y-28509523D01*
X64752380Y-28471428D01*
X64676190Y-28433333D01*
X64600000Y-28357142D01*
X64561904Y-28242857D01*
X64561904Y-28166666D01*
X64600000Y-28052380D01*
X64638095Y-28014285D01*
X65361904Y-27252380D02*
X65361904Y-27709523D01*
X65361904Y-27480952D02*
X64561904Y-27480952D01*
X64676190Y-27557142D01*
X64752380Y-27633333D01*
X64790476Y-27709523D01*
X64561904Y-26566666D02*
X64561904Y-26719047D01*
X64600000Y-26795238D01*
X64638095Y-26833333D01*
X64752380Y-26909523D01*
X64904761Y-26947619D01*
X65209523Y-26947619D01*
X65285714Y-26909523D01*
X65323809Y-26871428D01*
X65361904Y-26795238D01*
X65361904Y-26642857D01*
X65323809Y-26566666D01*
X65285714Y-26528571D01*
X65209523Y-26490476D01*
X65019047Y-26490476D01*
X64942857Y-26528571D01*
X64904761Y-26566666D01*
X64866666Y-26642857D01*
X64866666Y-26795238D01*
X64904761Y-26871428D01*
X64942857Y-26909523D01*
X65019047Y-26947619D01*
X68361904Y-27690476D02*
X67561904Y-27690476D01*
X67561904Y-27500000D01*
X67600000Y-27385714D01*
X67676190Y-27309523D01*
X67752380Y-27271428D01*
X67904761Y-27233333D01*
X68019047Y-27233333D01*
X68171428Y-27271428D01*
X68247619Y-27309523D01*
X68323809Y-27385714D01*
X68361904Y-27500000D01*
X68361904Y-27690476D01*
X68361904Y-26471428D02*
X68361904Y-26928571D01*
X68361904Y-26700000D02*
X67561904Y-26700000D01*
X67676190Y-26776190D01*
X67752380Y-26852380D01*
X67790476Y-26928571D01*
X65573809Y-31066666D02*
X65611904Y-30952380D01*
X65611904Y-30761904D01*
X65573809Y-30685714D01*
X65535714Y-30647619D01*
X65459523Y-30609523D01*
X65383333Y-30609523D01*
X65307142Y-30647619D01*
X65269047Y-30685714D01*
X65230952Y-30761904D01*
X65192857Y-30914285D01*
X65154761Y-30990476D01*
X65116666Y-31028571D01*
X65040476Y-31066666D01*
X64964285Y-31066666D01*
X64888095Y-31028571D01*
X64850000Y-30990476D01*
X64811904Y-30914285D01*
X64811904Y-30723809D01*
X64850000Y-30609523D01*
X64811904Y-30342857D02*
X65611904Y-30152380D01*
X65040476Y-30000000D01*
X65611904Y-29847619D01*
X64811904Y-29657142D01*
X65611904Y-28933333D02*
X65611904Y-29390476D01*
X65611904Y-29161904D02*
X64811904Y-29161904D01*
X64926190Y-29238095D01*
X65002380Y-29314285D01*
X65040476Y-29390476D01*
X59173809Y-31066666D02*
X59211904Y-30952380D01*
X59211904Y-30761904D01*
X59173809Y-30685714D01*
X59135714Y-30647619D01*
X59059523Y-30609523D01*
X58983333Y-30609523D01*
X58907142Y-30647619D01*
X58869047Y-30685714D01*
X58830952Y-30761904D01*
X58792857Y-30914285D01*
X58754761Y-30990476D01*
X58716666Y-31028571D01*
X58640476Y-31066666D01*
X58564285Y-31066666D01*
X58488095Y-31028571D01*
X58450000Y-30990476D01*
X58411904Y-30914285D01*
X58411904Y-30723809D01*
X58450000Y-30609523D01*
X58411904Y-30342857D02*
X59211904Y-30152380D01*
X58640476Y-30000000D01*
X59211904Y-29847619D01*
X58411904Y-29657142D01*
X58488095Y-29390476D02*
X58450000Y-29352380D01*
X58411904Y-29276190D01*
X58411904Y-29085714D01*
X58450000Y-29009523D01*
X58488095Y-28971428D01*
X58564285Y-28933333D01*
X58640476Y-28933333D01*
X58754761Y-28971428D01*
X59211904Y-29428571D01*
X59211904Y-28933333D01*
M02*
