G04 #@! TF.GenerationSoftware,KiCad,Pcbnew,5.1.5-52549c5~84~ubuntu18.04.1*
G04 #@! TF.CreationDate,2020-03-10T15:06:30+05:30*
G04 #@! TF.ProjectId,scale_hx711,7363616c-655f-4687-9837-31312e6b6963,rev?*
G04 #@! TF.SameCoordinates,Original*
G04 #@! TF.FileFunction,Copper,L1,Top*
G04 #@! TF.FilePolarity,Positive*
%FSLAX46Y46*%
G04 Gerber Fmt 4.6, Leading zero omitted, Abs format (unit mm)*
G04 Created by KiCad (PCBNEW 5.1.5-52549c5~84~ubuntu18.04.1) date 2020-03-10 15:06:30*
%MOMM*%
%LPD*%
G04 APERTURE LIST*
%ADD10C,0.100000*%
%ADD11C,1.000000*%
%ADD12C,1.500000*%
%ADD13R,3.000000X2.000000*%
%ADD14R,2.000000X0.500000*%
%ADD15O,1.750000X1.200000*%
%ADD16R,1.350000X1.350000*%
%ADD17O,1.350000X1.350000*%
%ADD18O,1.200000X1.750000*%
%ADD19C,0.800000*%
%ADD20C,0.250000*%
%ADD21C,0.254000*%
G04 APERTURE END LIST*
G04 #@! TA.AperFunction,SMDPad,CuDef*
D10*
G36*
X65186958Y-29220710D02*
G01*
X65201276Y-29222834D01*
X65215317Y-29226351D01*
X65228946Y-29231228D01*
X65242031Y-29237417D01*
X65254447Y-29244858D01*
X65266073Y-29253481D01*
X65276798Y-29263202D01*
X65286519Y-29273927D01*
X65295142Y-29285553D01*
X65302583Y-29297969D01*
X65308772Y-29311054D01*
X65313649Y-29324683D01*
X65317166Y-29338724D01*
X65319290Y-29353042D01*
X65320000Y-29367500D01*
X65320000Y-29662500D01*
X65319290Y-29676958D01*
X65317166Y-29691276D01*
X65313649Y-29705317D01*
X65308772Y-29718946D01*
X65302583Y-29732031D01*
X65295142Y-29744447D01*
X65286519Y-29756073D01*
X65276798Y-29766798D01*
X65266073Y-29776519D01*
X65254447Y-29785142D01*
X65242031Y-29792583D01*
X65228946Y-29798772D01*
X65215317Y-29803649D01*
X65201276Y-29807166D01*
X65186958Y-29809290D01*
X65172500Y-29810000D01*
X64827500Y-29810000D01*
X64813042Y-29809290D01*
X64798724Y-29807166D01*
X64784683Y-29803649D01*
X64771054Y-29798772D01*
X64757969Y-29792583D01*
X64745553Y-29785142D01*
X64733927Y-29776519D01*
X64723202Y-29766798D01*
X64713481Y-29756073D01*
X64704858Y-29744447D01*
X64697417Y-29732031D01*
X64691228Y-29718946D01*
X64686351Y-29705317D01*
X64682834Y-29691276D01*
X64680710Y-29676958D01*
X64680000Y-29662500D01*
X64680000Y-29367500D01*
X64680710Y-29353042D01*
X64682834Y-29338724D01*
X64686351Y-29324683D01*
X64691228Y-29311054D01*
X64697417Y-29297969D01*
X64704858Y-29285553D01*
X64713481Y-29273927D01*
X64723202Y-29263202D01*
X64733927Y-29253481D01*
X64745553Y-29244858D01*
X64757969Y-29237417D01*
X64771054Y-29231228D01*
X64784683Y-29226351D01*
X64798724Y-29222834D01*
X64813042Y-29220710D01*
X64827500Y-29220000D01*
X65172500Y-29220000D01*
X65186958Y-29220710D01*
G37*
G04 #@! TD.AperFunction*
G04 #@! TA.AperFunction,SMDPad,CuDef*
G36*
X65186958Y-30190710D02*
G01*
X65201276Y-30192834D01*
X65215317Y-30196351D01*
X65228946Y-30201228D01*
X65242031Y-30207417D01*
X65254447Y-30214858D01*
X65266073Y-30223481D01*
X65276798Y-30233202D01*
X65286519Y-30243927D01*
X65295142Y-30255553D01*
X65302583Y-30267969D01*
X65308772Y-30281054D01*
X65313649Y-30294683D01*
X65317166Y-30308724D01*
X65319290Y-30323042D01*
X65320000Y-30337500D01*
X65320000Y-30632500D01*
X65319290Y-30646958D01*
X65317166Y-30661276D01*
X65313649Y-30675317D01*
X65308772Y-30688946D01*
X65302583Y-30702031D01*
X65295142Y-30714447D01*
X65286519Y-30726073D01*
X65276798Y-30736798D01*
X65266073Y-30746519D01*
X65254447Y-30755142D01*
X65242031Y-30762583D01*
X65228946Y-30768772D01*
X65215317Y-30773649D01*
X65201276Y-30777166D01*
X65186958Y-30779290D01*
X65172500Y-30780000D01*
X64827500Y-30780000D01*
X64813042Y-30779290D01*
X64798724Y-30777166D01*
X64784683Y-30773649D01*
X64771054Y-30768772D01*
X64757969Y-30762583D01*
X64745553Y-30755142D01*
X64733927Y-30746519D01*
X64723202Y-30736798D01*
X64713481Y-30726073D01*
X64704858Y-30714447D01*
X64697417Y-30702031D01*
X64691228Y-30688946D01*
X64686351Y-30675317D01*
X64682834Y-30661276D01*
X64680710Y-30646958D01*
X64680000Y-30632500D01*
X64680000Y-30337500D01*
X64680710Y-30323042D01*
X64682834Y-30308724D01*
X64686351Y-30294683D01*
X64691228Y-30281054D01*
X64697417Y-30267969D01*
X64704858Y-30255553D01*
X64713481Y-30243927D01*
X64723202Y-30233202D01*
X64733927Y-30223481D01*
X64745553Y-30214858D01*
X64757969Y-30207417D01*
X64771054Y-30201228D01*
X64784683Y-30196351D01*
X64798724Y-30192834D01*
X64813042Y-30190710D01*
X64827500Y-30190000D01*
X65172500Y-30190000D01*
X65186958Y-30190710D01*
G37*
G04 #@! TD.AperFunction*
G04 #@! TA.AperFunction,SMDPad,CuDef*
G36*
X68233329Y-28576023D02*
G01*
X68253957Y-28579083D01*
X68274185Y-28584150D01*
X68293820Y-28591176D01*
X68312672Y-28600092D01*
X68330559Y-28610813D01*
X68347309Y-28623235D01*
X68362760Y-28637240D01*
X68376765Y-28652691D01*
X68389187Y-28669441D01*
X68399908Y-28687328D01*
X68408824Y-28706180D01*
X68415850Y-28725815D01*
X68420917Y-28746043D01*
X68423977Y-28766671D01*
X68425000Y-28787500D01*
X68425000Y-29587500D01*
X68423977Y-29608329D01*
X68420917Y-29628957D01*
X68415850Y-29649185D01*
X68408824Y-29668820D01*
X68399908Y-29687672D01*
X68389187Y-29705559D01*
X68376765Y-29722309D01*
X68362760Y-29737760D01*
X68347309Y-29751765D01*
X68330559Y-29764187D01*
X68312672Y-29774908D01*
X68293820Y-29783824D01*
X68274185Y-29790850D01*
X68253957Y-29795917D01*
X68233329Y-29798977D01*
X68212500Y-29800000D01*
X67787500Y-29800000D01*
X67766671Y-29798977D01*
X67746043Y-29795917D01*
X67725815Y-29790850D01*
X67706180Y-29783824D01*
X67687328Y-29774908D01*
X67669441Y-29764187D01*
X67652691Y-29751765D01*
X67637240Y-29737760D01*
X67623235Y-29722309D01*
X67610813Y-29705559D01*
X67600092Y-29687672D01*
X67591176Y-29668820D01*
X67584150Y-29649185D01*
X67579083Y-29628957D01*
X67576023Y-29608329D01*
X67575000Y-29587500D01*
X67575000Y-28787500D01*
X67576023Y-28766671D01*
X67579083Y-28746043D01*
X67584150Y-28725815D01*
X67591176Y-28706180D01*
X67600092Y-28687328D01*
X67610813Y-28669441D01*
X67623235Y-28652691D01*
X67637240Y-28637240D01*
X67652691Y-28623235D01*
X67669441Y-28610813D01*
X67687328Y-28600092D01*
X67706180Y-28591176D01*
X67725815Y-28584150D01*
X67746043Y-28579083D01*
X67766671Y-28576023D01*
X67787500Y-28575000D01*
X68212500Y-28575000D01*
X68233329Y-28576023D01*
G37*
G04 #@! TD.AperFunction*
G04 #@! TA.AperFunction,SMDPad,CuDef*
G36*
X68233329Y-30201023D02*
G01*
X68253957Y-30204083D01*
X68274185Y-30209150D01*
X68293820Y-30216176D01*
X68312672Y-30225092D01*
X68330559Y-30235813D01*
X68347309Y-30248235D01*
X68362760Y-30262240D01*
X68376765Y-30277691D01*
X68389187Y-30294441D01*
X68399908Y-30312328D01*
X68408824Y-30331180D01*
X68415850Y-30350815D01*
X68420917Y-30371043D01*
X68423977Y-30391671D01*
X68425000Y-30412500D01*
X68425000Y-31212500D01*
X68423977Y-31233329D01*
X68420917Y-31253957D01*
X68415850Y-31274185D01*
X68408824Y-31293820D01*
X68399908Y-31312672D01*
X68389187Y-31330559D01*
X68376765Y-31347309D01*
X68362760Y-31362760D01*
X68347309Y-31376765D01*
X68330559Y-31389187D01*
X68312672Y-31399908D01*
X68293820Y-31408824D01*
X68274185Y-31415850D01*
X68253957Y-31420917D01*
X68233329Y-31423977D01*
X68212500Y-31425000D01*
X67787500Y-31425000D01*
X67766671Y-31423977D01*
X67746043Y-31420917D01*
X67725815Y-31415850D01*
X67706180Y-31408824D01*
X67687328Y-31399908D01*
X67669441Y-31389187D01*
X67652691Y-31376765D01*
X67637240Y-31362760D01*
X67623235Y-31347309D01*
X67610813Y-31330559D01*
X67600092Y-31312672D01*
X67591176Y-31293820D01*
X67584150Y-31274185D01*
X67579083Y-31253957D01*
X67576023Y-31233329D01*
X67575000Y-31212500D01*
X67575000Y-30412500D01*
X67576023Y-30391671D01*
X67579083Y-30371043D01*
X67584150Y-30350815D01*
X67591176Y-30331180D01*
X67600092Y-30312328D01*
X67610813Y-30294441D01*
X67623235Y-30277691D01*
X67637240Y-30262240D01*
X67652691Y-30248235D01*
X67669441Y-30235813D01*
X67687328Y-30225092D01*
X67706180Y-30216176D01*
X67725815Y-30209150D01*
X67746043Y-30204083D01*
X67766671Y-30201023D01*
X67787500Y-30200000D01*
X68212500Y-30200000D01*
X68233329Y-30201023D01*
G37*
G04 #@! TD.AperFunction*
D11*
X75900000Y-26350000D03*
X75900000Y-31150000D03*
D12*
X78600000Y-25150000D03*
X78600000Y-32350000D03*
D13*
X62000000Y-34150000D03*
X62050000Y-25850000D03*
D14*
X56500000Y-32500000D03*
X56500000Y-30000000D03*
X56500000Y-27500000D03*
X50500000Y-27500000D03*
X50500000Y-29950000D03*
X50500000Y-32500000D03*
G04 #@! TA.AperFunction,ComponentPad*
D10*
G36*
X78649505Y-20401204D02*
G01*
X78673773Y-20404804D01*
X78697572Y-20410765D01*
X78720671Y-20419030D01*
X78742850Y-20429520D01*
X78763893Y-20442132D01*
X78783599Y-20456747D01*
X78801777Y-20473223D01*
X78818253Y-20491401D01*
X78832868Y-20511107D01*
X78845480Y-20532150D01*
X78855970Y-20554329D01*
X78864235Y-20577428D01*
X78870196Y-20601227D01*
X78873796Y-20625495D01*
X78875000Y-20649999D01*
X78875000Y-21350001D01*
X78873796Y-21374505D01*
X78870196Y-21398773D01*
X78864235Y-21422572D01*
X78855970Y-21445671D01*
X78845480Y-21467850D01*
X78832868Y-21488893D01*
X78818253Y-21508599D01*
X78801777Y-21526777D01*
X78783599Y-21543253D01*
X78763893Y-21557868D01*
X78742850Y-21570480D01*
X78720671Y-21580970D01*
X78697572Y-21589235D01*
X78673773Y-21595196D01*
X78649505Y-21598796D01*
X78625001Y-21600000D01*
X77374999Y-21600000D01*
X77350495Y-21598796D01*
X77326227Y-21595196D01*
X77302428Y-21589235D01*
X77279329Y-21580970D01*
X77257150Y-21570480D01*
X77236107Y-21557868D01*
X77216401Y-21543253D01*
X77198223Y-21526777D01*
X77181747Y-21508599D01*
X77167132Y-21488893D01*
X77154520Y-21467850D01*
X77144030Y-21445671D01*
X77135765Y-21422572D01*
X77129804Y-21398773D01*
X77126204Y-21374505D01*
X77125000Y-21350001D01*
X77125000Y-20649999D01*
X77126204Y-20625495D01*
X77129804Y-20601227D01*
X77135765Y-20577428D01*
X77144030Y-20554329D01*
X77154520Y-20532150D01*
X77167132Y-20511107D01*
X77181747Y-20491401D01*
X77198223Y-20473223D01*
X77216401Y-20456747D01*
X77236107Y-20442132D01*
X77257150Y-20429520D01*
X77279329Y-20419030D01*
X77302428Y-20410765D01*
X77326227Y-20404804D01*
X77350495Y-20401204D01*
X77374999Y-20400000D01*
X78625001Y-20400000D01*
X78649505Y-20401204D01*
G37*
G04 #@! TD.AperFunction*
D15*
X78000000Y-19000000D03*
D16*
X58000000Y-43500000D03*
D17*
X58000000Y-41500000D03*
X56000000Y-43500000D03*
X56000000Y-41500000D03*
X54000000Y-43500000D03*
X54000000Y-41500000D03*
G04 #@! TA.AperFunction,ComponentPad*
D10*
G36*
X62374505Y-43726204D02*
G01*
X62398773Y-43729804D01*
X62422572Y-43735765D01*
X62445671Y-43744030D01*
X62467850Y-43754520D01*
X62488893Y-43767132D01*
X62508599Y-43781747D01*
X62526777Y-43798223D01*
X62543253Y-43816401D01*
X62557868Y-43836107D01*
X62570480Y-43857150D01*
X62580970Y-43879329D01*
X62589235Y-43902428D01*
X62595196Y-43926227D01*
X62598796Y-43950495D01*
X62600000Y-43974999D01*
X62600000Y-45225001D01*
X62598796Y-45249505D01*
X62595196Y-45273773D01*
X62589235Y-45297572D01*
X62580970Y-45320671D01*
X62570480Y-45342850D01*
X62557868Y-45363893D01*
X62543253Y-45383599D01*
X62526777Y-45401777D01*
X62508599Y-45418253D01*
X62488893Y-45432868D01*
X62467850Y-45445480D01*
X62445671Y-45455970D01*
X62422572Y-45464235D01*
X62398773Y-45470196D01*
X62374505Y-45473796D01*
X62350001Y-45475000D01*
X61649999Y-45475000D01*
X61625495Y-45473796D01*
X61601227Y-45470196D01*
X61577428Y-45464235D01*
X61554329Y-45455970D01*
X61532150Y-45445480D01*
X61511107Y-45432868D01*
X61491401Y-45418253D01*
X61473223Y-45401777D01*
X61456747Y-45383599D01*
X61442132Y-45363893D01*
X61429520Y-45342850D01*
X61419030Y-45320671D01*
X61410765Y-45297572D01*
X61404804Y-45273773D01*
X61401204Y-45249505D01*
X61400000Y-45225001D01*
X61400000Y-43974999D01*
X61401204Y-43950495D01*
X61404804Y-43926227D01*
X61410765Y-43902428D01*
X61419030Y-43879329D01*
X61429520Y-43857150D01*
X61442132Y-43836107D01*
X61456747Y-43816401D01*
X61473223Y-43798223D01*
X61491401Y-43781747D01*
X61511107Y-43767132D01*
X61532150Y-43754520D01*
X61554329Y-43744030D01*
X61577428Y-43735765D01*
X61601227Y-43729804D01*
X61625495Y-43726204D01*
X61649999Y-43725000D01*
X62350001Y-43725000D01*
X62374505Y-43726204D01*
G37*
G04 #@! TD.AperFunction*
D18*
X64000000Y-44600000D03*
X66000000Y-44600000D03*
X68000000Y-44600000D03*
D16*
X59300000Y-38400000D03*
D17*
X57300000Y-38400000D03*
X55300000Y-38400000D03*
X53300000Y-38400000D03*
D19*
X65300000Y-21800000D03*
X39600000Y-45800000D03*
X38800000Y-45800000D03*
X38800000Y-45000000D03*
X39600000Y-45000000D03*
X51700000Y-34200000D03*
X52500000Y-34200000D03*
X52500000Y-33400000D03*
X35700000Y-33800000D03*
X40100000Y-32100000D03*
X40100000Y-31300000D03*
X35000000Y-27900000D03*
X37100000Y-27800000D03*
X39300000Y-27900000D03*
X43000000Y-45800000D03*
X43800000Y-45800000D03*
X43800000Y-45000000D03*
X43000000Y-45000000D03*
X53000000Y-45800000D03*
X52200000Y-45800000D03*
X43500000Y-43000000D03*
X43500000Y-41500000D03*
X46000000Y-39000000D03*
X48500000Y-41500000D03*
X43500000Y-37000000D03*
X48500000Y-37000000D03*
X48800000Y-20500000D03*
X55900000Y-14100000D03*
X74300000Y-30000000D03*
X63800000Y-15800000D03*
X50900000Y-26500000D03*
X48500000Y-11400000D03*
X60500000Y-11200000D03*
X61300000Y-31200000D03*
X52900000Y-18700000D03*
X56800000Y-21900000D03*
X60000000Y-23000000D03*
X48500000Y-13500000D03*
X70200000Y-27100000D03*
X39600000Y-33800000D03*
X64600000Y-12400000D03*
X37100000Y-28900000D03*
X41200000Y-25800000D03*
X46725000Y-32796275D03*
X59900000Y-36700000D03*
X61200000Y-30000000D03*
X48900000Y-31000000D03*
X59300000Y-20500000D03*
X61000000Y-21000000D03*
X26500000Y-13500000D03*
X39000000Y-13500000D03*
X75000000Y-19000000D03*
X47000000Y-27000000D03*
X75600000Y-39000000D03*
X54200000Y-18700000D03*
X46800846Y-31799154D03*
X61000000Y-13100000D03*
X47910154Y-30857851D03*
D20*
X68000000Y-30812500D02*
X66812500Y-32000000D01*
X56500000Y-30500000D02*
X56500000Y-30000000D01*
X58000000Y-32000000D02*
X56500000Y-30500000D01*
X66812500Y-32000000D02*
X58000000Y-32000000D01*
X56450000Y-29950000D02*
X56500000Y-30000000D01*
X50500000Y-29950000D02*
X56450000Y-29950000D01*
X77812500Y-21000000D02*
X78000000Y-21000000D01*
X68000000Y-30812500D02*
X77812500Y-21000000D01*
X68423570Y-30388930D02*
X68000000Y-30812500D01*
X68750010Y-30062490D02*
X68423570Y-30388930D01*
X68750010Y-26723012D02*
X68750010Y-30062490D01*
X65300000Y-23273002D02*
X68750010Y-26723012D01*
X65300000Y-21800000D02*
X65300000Y-23273002D01*
X51700000Y-34200000D02*
X52500000Y-34200000D01*
X52500000Y-33400000D02*
X51700000Y-34200000D01*
X40100000Y-32100000D02*
X40100000Y-31300000D01*
X53565685Y-45800000D02*
X53000000Y-45800000D01*
X55000000Y-44365685D02*
X53565685Y-45800000D01*
X55000000Y-42500000D02*
X55000000Y-44365685D01*
X56000000Y-41500000D02*
X55000000Y-42500000D01*
X65000000Y-30485000D02*
X62015000Y-30485000D01*
X62015000Y-30485000D02*
X61300000Y-31200000D01*
X58000000Y-40545406D02*
X57254594Y-39800000D01*
X58000000Y-41500000D02*
X58000000Y-40545406D01*
X57254594Y-39800000D02*
X52900000Y-39800000D01*
X46900000Y-33800000D02*
X39600000Y-33800000D01*
X52900000Y-39800000D02*
X46900000Y-33800000D01*
X39600000Y-33800000D02*
X40165685Y-33800000D01*
X48500000Y-19573002D02*
X45800000Y-22273002D01*
X48500000Y-13500000D02*
X48500000Y-19573002D01*
X45800000Y-27600000D02*
X39600000Y-33800000D01*
X45800000Y-22273002D02*
X45800000Y-27600000D01*
X48899999Y-13100001D02*
X48500000Y-13500000D01*
X49625001Y-12374999D02*
X48899999Y-13100001D01*
X64574999Y-12374999D02*
X49625001Y-12374999D01*
X64600000Y-12400000D02*
X64574999Y-12374999D01*
X70200000Y-27100000D02*
X70200000Y-26000000D01*
X65165685Y-12400000D02*
X64600000Y-12400000D01*
X69473002Y-12400000D02*
X65165685Y-12400000D01*
X75725001Y-18651999D02*
X69473002Y-12400000D01*
X75725001Y-20474999D02*
X75725001Y-18651999D01*
X70200000Y-26000000D02*
X75725001Y-20474999D01*
X37100000Y-28900000D02*
X40200000Y-25800000D01*
X40200000Y-25800000D02*
X41200000Y-25800000D01*
X63800000Y-25850000D02*
X62050000Y-25850000D01*
X65000000Y-27050000D02*
X63800000Y-25850000D01*
X65000000Y-29515000D02*
X65000000Y-27050000D01*
X46725000Y-32796275D02*
X50628725Y-36700000D01*
X50628725Y-36700000D02*
X59900000Y-36700000D01*
X62050000Y-25850000D02*
X62050000Y-29150000D01*
X62050000Y-29150000D02*
X61200000Y-30000000D01*
X48900000Y-30434315D02*
X48900000Y-31000000D01*
X48900000Y-27264998D02*
X48900000Y-30434315D01*
X55664998Y-20500000D02*
X48900000Y-27264998D01*
X59300000Y-20500000D02*
X55664998Y-20500000D01*
X68000000Y-28000000D02*
X68000000Y-29187500D01*
X61000000Y-21000000D02*
X68000000Y-28000000D01*
X26500000Y-13500000D02*
X39000000Y-13500000D01*
X50500000Y-27500000D02*
X56500000Y-27500000D01*
X61926998Y-19000000D02*
X75000000Y-19000000D01*
X56500000Y-27500000D02*
X56500000Y-24426998D01*
X56500000Y-24426998D02*
X61926998Y-19000000D01*
X50500000Y-32500000D02*
X56500000Y-32500000D01*
X47000000Y-27000000D02*
X47000000Y-30973002D01*
X47000000Y-30973002D02*
X51926998Y-35900000D01*
X72500000Y-35900000D02*
X75600000Y-39000000D01*
X51926998Y-35900000D02*
X72500000Y-35900000D01*
X53800001Y-19099999D02*
X54200000Y-18700000D01*
X46274999Y-26625001D02*
X53800001Y-19099999D01*
X46274999Y-31273307D02*
X46274999Y-26625001D01*
X46800846Y-31799154D02*
X46274999Y-31273307D01*
X61000000Y-13100000D02*
X47910154Y-26189846D01*
X47910154Y-26189846D02*
X47910154Y-30857851D01*
D21*
G36*
X78662540Y-10679102D02*
G01*
X78818894Y-10726308D01*
X78963096Y-10802982D01*
X79089663Y-10906207D01*
X79193769Y-11032051D01*
X79271447Y-11175711D01*
X79319742Y-11331729D01*
X79340001Y-11524482D01*
X79340001Y-18370492D01*
X79238078Y-18216526D01*
X79066725Y-18043693D01*
X78864946Y-17907610D01*
X78640496Y-17813507D01*
X78402000Y-17765000D01*
X78127000Y-17765000D01*
X78127000Y-18873000D01*
X78147000Y-18873000D01*
X78147000Y-19127000D01*
X78127000Y-19127000D01*
X78127000Y-19147000D01*
X77873000Y-19147000D01*
X77873000Y-19127000D01*
X76656269Y-19127000D01*
X76531538Y-19317609D01*
X76535409Y-19355282D01*
X76627579Y-19580533D01*
X76761922Y-19783474D01*
X76886406Y-19909033D01*
X76881613Y-19911595D01*
X76747038Y-20022038D01*
X76636595Y-20156613D01*
X76554528Y-20310149D01*
X76503992Y-20476745D01*
X76486928Y-20649999D01*
X76486928Y-21250770D01*
X71120354Y-26617345D01*
X71117205Y-26609744D01*
X71003937Y-26440226D01*
X70960000Y-26396289D01*
X70960000Y-26314801D01*
X76236005Y-21038797D01*
X76265002Y-21015000D01*
X76359975Y-20899275D01*
X76430547Y-20767246D01*
X76474004Y-20623985D01*
X76485001Y-20512332D01*
X76485001Y-20512323D01*
X76488677Y-20475000D01*
X76485001Y-20437677D01*
X76485001Y-18689324D01*
X76485683Y-18682391D01*
X76531538Y-18682391D01*
X76656269Y-18873000D01*
X77873000Y-18873000D01*
X77873000Y-17765000D01*
X77598000Y-17765000D01*
X77359504Y-17813507D01*
X77135054Y-17907610D01*
X76933275Y-18043693D01*
X76761922Y-18216526D01*
X76627579Y-18419467D01*
X76535409Y-18644718D01*
X76531538Y-18682391D01*
X76485683Y-18682391D01*
X76488677Y-18651999D01*
X76485001Y-18614674D01*
X76485001Y-18614666D01*
X76474004Y-18503013D01*
X76430547Y-18359752D01*
X76359975Y-18227723D01*
X76265002Y-18111998D01*
X76236004Y-18088200D01*
X70952299Y-12804495D01*
X75015000Y-12804495D01*
X75015000Y-13195505D01*
X75091282Y-13579003D01*
X75240915Y-13940250D01*
X75458149Y-14265364D01*
X75734636Y-14541851D01*
X76059750Y-14759085D01*
X76420997Y-14908718D01*
X76804495Y-14985000D01*
X77195505Y-14985000D01*
X77579003Y-14908718D01*
X77940250Y-14759085D01*
X78265364Y-14541851D01*
X78541851Y-14265364D01*
X78759085Y-13940250D01*
X78908718Y-13579003D01*
X78985000Y-13195505D01*
X78985000Y-12804495D01*
X78908718Y-12420997D01*
X78759085Y-12059750D01*
X78541851Y-11734636D01*
X78265364Y-11458149D01*
X77940250Y-11240915D01*
X77579003Y-11091282D01*
X77195505Y-11015000D01*
X76804495Y-11015000D01*
X76420997Y-11091282D01*
X76059750Y-11240915D01*
X75734636Y-11458149D01*
X75458149Y-11734636D01*
X75240915Y-12059750D01*
X75091282Y-12420997D01*
X75015000Y-12804495D01*
X70952299Y-12804495D01*
X70036806Y-11889003D01*
X70013003Y-11859999D01*
X69897278Y-11765026D01*
X69765249Y-11694454D01*
X69621988Y-11650997D01*
X69510335Y-11640000D01*
X69510324Y-11640000D01*
X69473002Y-11636324D01*
X69435680Y-11640000D01*
X65303711Y-11640000D01*
X65259774Y-11596063D01*
X65090256Y-11482795D01*
X64901898Y-11404774D01*
X64701939Y-11365000D01*
X64498061Y-11365000D01*
X64298102Y-11404774D01*
X64109744Y-11482795D01*
X63940226Y-11596063D01*
X63921290Y-11614999D01*
X49662326Y-11614999D01*
X49625001Y-11611323D01*
X49587676Y-11614999D01*
X49587668Y-11614999D01*
X49476015Y-11625996D01*
X49332754Y-11669453D01*
X49200725Y-11740025D01*
X49085000Y-11834998D01*
X49061202Y-11863997D01*
X48460199Y-12465000D01*
X48398061Y-12465000D01*
X48198102Y-12504774D01*
X48009744Y-12582795D01*
X47840226Y-12696063D01*
X47696063Y-12840226D01*
X47582795Y-13009744D01*
X47504774Y-13198102D01*
X47465000Y-13398061D01*
X47465000Y-13601939D01*
X47504774Y-13801898D01*
X47582795Y-13990256D01*
X47696063Y-14159774D01*
X47740000Y-14203711D01*
X47740001Y-19258199D01*
X45289003Y-21709198D01*
X45259999Y-21733001D01*
X45204871Y-21800176D01*
X45165026Y-21848726D01*
X45136583Y-21901939D01*
X45094454Y-21980756D01*
X45050997Y-22124017D01*
X45040000Y-22235670D01*
X45040000Y-22235680D01*
X45036324Y-22273002D01*
X45040000Y-22310325D01*
X45040001Y-27285197D01*
X39560199Y-32765000D01*
X39498061Y-32765000D01*
X39298102Y-32804774D01*
X39109744Y-32882795D01*
X38940226Y-32996063D01*
X38796063Y-33140226D01*
X38682795Y-33309744D01*
X38604774Y-33498102D01*
X38565000Y-33698061D01*
X38565000Y-33901939D01*
X38604774Y-34101898D01*
X38682795Y-34290256D01*
X38796063Y-34459774D01*
X38940226Y-34603937D01*
X39109744Y-34717205D01*
X39298102Y-34795226D01*
X39498061Y-34835000D01*
X39701939Y-34835000D01*
X39901898Y-34795226D01*
X40090256Y-34717205D01*
X40259774Y-34603937D01*
X40303711Y-34560000D01*
X46585199Y-34560000D01*
X52336205Y-40311008D01*
X52359999Y-40340001D01*
X52388992Y-40363795D01*
X52388996Y-40363799D01*
X52459685Y-40421811D01*
X52475724Y-40434974D01*
X52607753Y-40505546D01*
X52751014Y-40549003D01*
X52862667Y-40560000D01*
X52862676Y-40560000D01*
X52899999Y-40563676D01*
X52937322Y-40560000D01*
X53087379Y-40560000D01*
X52982456Y-40664923D01*
X52839093Y-40879482D01*
X52740342Y-41117887D01*
X52690000Y-41370976D01*
X52690000Y-41629024D01*
X52740342Y-41882113D01*
X52839093Y-42120518D01*
X52982456Y-42335077D01*
X53147379Y-42500000D01*
X52982456Y-42664923D01*
X52839093Y-42879482D01*
X52740342Y-43117887D01*
X52690000Y-43370976D01*
X52690000Y-43629024D01*
X52740342Y-43882113D01*
X52839093Y-44120518D01*
X52982456Y-44335077D01*
X53164923Y-44517544D01*
X53379482Y-44660907D01*
X53617887Y-44759658D01*
X53870976Y-44810000D01*
X54129024Y-44810000D01*
X54382113Y-44759658D01*
X54620518Y-44660907D01*
X54835077Y-44517544D01*
X55000000Y-44352621D01*
X55164923Y-44517544D01*
X55379482Y-44660907D01*
X55617887Y-44759658D01*
X55870976Y-44810000D01*
X56129024Y-44810000D01*
X56382113Y-44759658D01*
X56620518Y-44660907D01*
X56802513Y-44539303D01*
X56873815Y-44626185D01*
X56970506Y-44705537D01*
X57080820Y-44764502D01*
X57200518Y-44800812D01*
X57325000Y-44813072D01*
X58675000Y-44813072D01*
X58799482Y-44800812D01*
X58919180Y-44764502D01*
X59029494Y-44705537D01*
X59126185Y-44626185D01*
X59205537Y-44529494D01*
X59264502Y-44419180D01*
X59300812Y-44299482D01*
X59313072Y-44175000D01*
X59313072Y-43974999D01*
X60761928Y-43974999D01*
X60761928Y-45225001D01*
X60778992Y-45398255D01*
X60829528Y-45564851D01*
X60911595Y-45718387D01*
X61022038Y-45852962D01*
X61156613Y-45963405D01*
X61310149Y-46045472D01*
X61476745Y-46096008D01*
X61649999Y-46113072D01*
X62350001Y-46113072D01*
X62523255Y-46096008D01*
X62689851Y-46045472D01*
X62843387Y-45963405D01*
X62977962Y-45852962D01*
X63088405Y-45718387D01*
X63090810Y-45713888D01*
X63122499Y-45752502D01*
X63310552Y-45906833D01*
X63525100Y-46021511D01*
X63757899Y-46092130D01*
X64000000Y-46115975D01*
X64242102Y-46092130D01*
X64474901Y-46021511D01*
X64689449Y-45906833D01*
X64877502Y-45752502D01*
X65000481Y-45602652D01*
X65043693Y-45666725D01*
X65216526Y-45838078D01*
X65419467Y-45972421D01*
X65644718Y-46064591D01*
X65682391Y-46068462D01*
X65873000Y-45943731D01*
X65873000Y-44727000D01*
X65853000Y-44727000D01*
X65853000Y-44473000D01*
X65873000Y-44473000D01*
X65873000Y-43256269D01*
X66127000Y-43256269D01*
X66127000Y-44473000D01*
X66147000Y-44473000D01*
X66147000Y-44727000D01*
X66127000Y-44727000D01*
X66127000Y-45943731D01*
X66317609Y-46068462D01*
X66355282Y-46064591D01*
X66580533Y-45972421D01*
X66783474Y-45838078D01*
X66956307Y-45666725D01*
X66999520Y-45602651D01*
X67122499Y-45752502D01*
X67310552Y-45906833D01*
X67525100Y-46021511D01*
X67757899Y-46092130D01*
X68000000Y-46115975D01*
X68242102Y-46092130D01*
X68474901Y-46021511D01*
X68689449Y-45906833D01*
X68877502Y-45752502D01*
X69031833Y-45564449D01*
X69146511Y-45349900D01*
X69217130Y-45117101D01*
X69235000Y-44935664D01*
X69235000Y-44264335D01*
X69217130Y-44082898D01*
X69146511Y-43850099D01*
X69031833Y-43635551D01*
X68877502Y-43447498D01*
X68689448Y-43293167D01*
X68474900Y-43178489D01*
X68242101Y-43107870D01*
X68000000Y-43084025D01*
X67757898Y-43107870D01*
X67525099Y-43178489D01*
X67310551Y-43293167D01*
X67122498Y-43447498D01*
X66999519Y-43597349D01*
X66956307Y-43533275D01*
X66783474Y-43361922D01*
X66580533Y-43227579D01*
X66355282Y-43135409D01*
X66317609Y-43131538D01*
X66127000Y-43256269D01*
X65873000Y-43256269D01*
X65682391Y-43131538D01*
X65644718Y-43135409D01*
X65419467Y-43227579D01*
X65216526Y-43361922D01*
X65043693Y-43533275D01*
X65000481Y-43597348D01*
X64877502Y-43447498D01*
X64689448Y-43293167D01*
X64474900Y-43178489D01*
X64242101Y-43107870D01*
X64000000Y-43084025D01*
X63757898Y-43107870D01*
X63525099Y-43178489D01*
X63310551Y-43293167D01*
X63122498Y-43447498D01*
X63090809Y-43486111D01*
X63088405Y-43481613D01*
X62977962Y-43347038D01*
X62843387Y-43236595D01*
X62689851Y-43154528D01*
X62523255Y-43103992D01*
X62350001Y-43086928D01*
X61649999Y-43086928D01*
X61476745Y-43103992D01*
X61310149Y-43154528D01*
X61156613Y-43236595D01*
X61022038Y-43347038D01*
X60911595Y-43481613D01*
X60829528Y-43635149D01*
X60778992Y-43801745D01*
X60761928Y-43974999D01*
X59313072Y-43974999D01*
X59313072Y-42825000D01*
X59300812Y-42700518D01*
X59264502Y-42580820D01*
X59205537Y-42470506D01*
X59126185Y-42373815D01*
X59039303Y-42302513D01*
X59160907Y-42120518D01*
X59259658Y-41882113D01*
X59310000Y-41629024D01*
X59310000Y-41370976D01*
X59259658Y-41117887D01*
X59160907Y-40879482D01*
X59017544Y-40664923D01*
X58835077Y-40482456D01*
X58752010Y-40426953D01*
X58749003Y-40396420D01*
X58705546Y-40253159D01*
X58634974Y-40121130D01*
X58540001Y-40005405D01*
X58511002Y-39981607D01*
X58022296Y-39492901D01*
X58102513Y-39439303D01*
X58173815Y-39526185D01*
X58270506Y-39605537D01*
X58380820Y-39664502D01*
X58500518Y-39700812D01*
X58625000Y-39713072D01*
X59975000Y-39713072D01*
X60099482Y-39700812D01*
X60219180Y-39664502D01*
X60329494Y-39605537D01*
X60426185Y-39526185D01*
X60505537Y-39429494D01*
X60564502Y-39319180D01*
X60600812Y-39199482D01*
X60613072Y-39075000D01*
X60613072Y-37725000D01*
X60600812Y-37600518D01*
X60568782Y-37494929D01*
X60703937Y-37359774D01*
X60817205Y-37190256D01*
X60895226Y-37001898D01*
X60935000Y-36801939D01*
X60935000Y-36660000D01*
X72185199Y-36660000D01*
X74565000Y-39039802D01*
X74565000Y-39101939D01*
X74604774Y-39301898D01*
X74682795Y-39490256D01*
X74796063Y-39659774D01*
X74940226Y-39803937D01*
X75109744Y-39917205D01*
X75298102Y-39995226D01*
X75498061Y-40035000D01*
X75701939Y-40035000D01*
X75901898Y-39995226D01*
X76090256Y-39917205D01*
X76259774Y-39803937D01*
X76403937Y-39659774D01*
X76517205Y-39490256D01*
X76595226Y-39301898D01*
X76635000Y-39101939D01*
X76635000Y-38898061D01*
X76595226Y-38698102D01*
X76517205Y-38509744D01*
X76403937Y-38340226D01*
X76259774Y-38196063D01*
X76090256Y-38082795D01*
X75901898Y-38004774D01*
X75701939Y-37965000D01*
X75639802Y-37965000D01*
X73063804Y-35389003D01*
X73040001Y-35359999D01*
X72924276Y-35265026D01*
X72792247Y-35194454D01*
X72648986Y-35150997D01*
X72537333Y-35140000D01*
X72537322Y-35140000D01*
X72500000Y-35136324D01*
X72462678Y-35140000D01*
X64138029Y-35140000D01*
X64135000Y-34435750D01*
X63976250Y-34277000D01*
X62127000Y-34277000D01*
X62127000Y-34297000D01*
X61873000Y-34297000D01*
X61873000Y-34277000D01*
X60023750Y-34277000D01*
X59865000Y-34435750D01*
X59861971Y-35140000D01*
X52241801Y-35140000D01*
X50489872Y-33388072D01*
X51500000Y-33388072D01*
X51624482Y-33375812D01*
X51744180Y-33339502D01*
X51854494Y-33280537D01*
X51879518Y-33260000D01*
X55120482Y-33260000D01*
X55145506Y-33280537D01*
X55255820Y-33339502D01*
X55375518Y-33375812D01*
X55500000Y-33388072D01*
X57500000Y-33388072D01*
X57624482Y-33375812D01*
X57744180Y-33339502D01*
X57854494Y-33280537D01*
X57951185Y-33201185D01*
X58030537Y-33104494D01*
X58089502Y-32994180D01*
X58125812Y-32874482D01*
X58137087Y-32760000D01*
X59998602Y-32760000D01*
X59969463Y-32795506D01*
X59910498Y-32905820D01*
X59874188Y-33025518D01*
X59861928Y-33150000D01*
X59865000Y-33864250D01*
X60023750Y-34023000D01*
X61873000Y-34023000D01*
X61873000Y-34003000D01*
X62127000Y-34003000D01*
X62127000Y-34023000D01*
X63976250Y-34023000D01*
X64135000Y-33864250D01*
X64138072Y-33150000D01*
X64125812Y-33025518D01*
X64089502Y-32905820D01*
X64030537Y-32795506D01*
X64001398Y-32760000D01*
X66775178Y-32760000D01*
X66812500Y-32763676D01*
X66849822Y-32760000D01*
X66849833Y-32760000D01*
X66961486Y-32749003D01*
X67104747Y-32705546D01*
X67236776Y-32634974D01*
X67352501Y-32540001D01*
X67376304Y-32510997D01*
X67824229Y-32063072D01*
X68212500Y-32063072D01*
X68378438Y-32046728D01*
X68538000Y-31998326D01*
X68685052Y-31919725D01*
X68813945Y-31813945D01*
X68919725Y-31685052D01*
X68998326Y-31538000D01*
X69046728Y-31378438D01*
X69063072Y-31212500D01*
X69063072Y-31038212D01*
X74765000Y-31038212D01*
X74765000Y-31261788D01*
X74808617Y-31481067D01*
X74894176Y-31687624D01*
X75018388Y-31873520D01*
X75176480Y-32031612D01*
X75362376Y-32155824D01*
X75568933Y-32241383D01*
X75788212Y-32285000D01*
X76011788Y-32285000D01*
X76231067Y-32241383D01*
X76437624Y-32155824D01*
X76623520Y-32031612D01*
X76781612Y-31873520D01*
X76905824Y-31687624D01*
X76991383Y-31481067D01*
X77035000Y-31261788D01*
X77035000Y-31038212D01*
X76991383Y-30818933D01*
X76905824Y-30612376D01*
X76781612Y-30426480D01*
X76623520Y-30268388D01*
X76437624Y-30144176D01*
X76231067Y-30058617D01*
X76011788Y-30015000D01*
X75788212Y-30015000D01*
X75568933Y-30058617D01*
X75362376Y-30144176D01*
X75176480Y-30268388D01*
X75018388Y-30426480D01*
X74894176Y-30612376D01*
X74808617Y-30818933D01*
X74765000Y-31038212D01*
X69063072Y-31038212D01*
X69063072Y-30824229D01*
X69261008Y-30626293D01*
X69290011Y-30602491D01*
X69313813Y-30573488D01*
X73649089Y-26238212D01*
X74765000Y-26238212D01*
X74765000Y-26461788D01*
X74808617Y-26681067D01*
X74894176Y-26887624D01*
X75018388Y-27073520D01*
X75176480Y-27231612D01*
X75362376Y-27355824D01*
X75568933Y-27441383D01*
X75788212Y-27485000D01*
X76011788Y-27485000D01*
X76231067Y-27441383D01*
X76437624Y-27355824D01*
X76623520Y-27231612D01*
X76781612Y-27073520D01*
X76905824Y-26887624D01*
X76991383Y-26681067D01*
X77035000Y-26461788D01*
X77035000Y-26238212D01*
X76991383Y-26018933D01*
X76905824Y-25812376D01*
X76781612Y-25626480D01*
X76623520Y-25468388D01*
X76437624Y-25344176D01*
X76231067Y-25258617D01*
X76011788Y-25215000D01*
X75788212Y-25215000D01*
X75568933Y-25258617D01*
X75362376Y-25344176D01*
X75176480Y-25468388D01*
X75018388Y-25626480D01*
X74894176Y-25812376D01*
X74808617Y-26018933D01*
X74765000Y-26238212D01*
X73649089Y-26238212D01*
X77649230Y-22238072D01*
X78625001Y-22238072D01*
X78798255Y-22221008D01*
X78964851Y-22170472D01*
X79118387Y-22088405D01*
X79252962Y-21977962D01*
X79340001Y-21871905D01*
X79340001Y-23978728D01*
X79256043Y-23922629D01*
X79003989Y-23818225D01*
X78736411Y-23765000D01*
X78463589Y-23765000D01*
X78196011Y-23818225D01*
X77943957Y-23922629D01*
X77717114Y-24074201D01*
X77524201Y-24267114D01*
X77372629Y-24493957D01*
X77268225Y-24746011D01*
X77215000Y-25013589D01*
X77215000Y-25286411D01*
X77268225Y-25553989D01*
X77372629Y-25806043D01*
X77524201Y-26032886D01*
X77717114Y-26225799D01*
X77943957Y-26377371D01*
X78196011Y-26481775D01*
X78463589Y-26535000D01*
X78736411Y-26535000D01*
X79003989Y-26481775D01*
X79256043Y-26377371D01*
X79340001Y-26321272D01*
X79340000Y-31178728D01*
X79256043Y-31122629D01*
X79003989Y-31018225D01*
X78736411Y-30965000D01*
X78463589Y-30965000D01*
X78196011Y-31018225D01*
X77943957Y-31122629D01*
X77717114Y-31274201D01*
X77524201Y-31467114D01*
X77372629Y-31693957D01*
X77268225Y-31946011D01*
X77215000Y-32213589D01*
X77215000Y-32486411D01*
X77268225Y-32753989D01*
X77372629Y-33006043D01*
X77524201Y-33232886D01*
X77717114Y-33425799D01*
X77943957Y-33577371D01*
X78196011Y-33681775D01*
X78463589Y-33735000D01*
X78736411Y-33735000D01*
X79003989Y-33681775D01*
X79256043Y-33577371D01*
X79340000Y-33521272D01*
X79340000Y-46373000D01*
X78888837Y-46373000D01*
X78759085Y-46059750D01*
X78541851Y-45734636D01*
X78265364Y-45458149D01*
X77940250Y-45240915D01*
X77579003Y-45091282D01*
X77195505Y-45015000D01*
X76804495Y-45015000D01*
X76420997Y-45091282D01*
X76059750Y-45240915D01*
X75734636Y-45458149D01*
X75458149Y-45734636D01*
X75240915Y-46059750D01*
X75111163Y-46373000D01*
X14888837Y-46373000D01*
X14759085Y-46059750D01*
X14541851Y-45734636D01*
X14265364Y-45458149D01*
X13940250Y-45240915D01*
X13579003Y-45091282D01*
X13195505Y-45015000D01*
X12804495Y-45015000D01*
X12420997Y-45091282D01*
X12059750Y-45240915D01*
X11734636Y-45458149D01*
X11458149Y-45734636D01*
X11240915Y-46059750D01*
X11111163Y-46373000D01*
X10660000Y-46373000D01*
X10660000Y-28798061D01*
X36065000Y-28798061D01*
X36065000Y-29001939D01*
X36104774Y-29201898D01*
X36182795Y-29390256D01*
X36296063Y-29559774D01*
X36440226Y-29703937D01*
X36609744Y-29817205D01*
X36798102Y-29895226D01*
X36998061Y-29935000D01*
X37201939Y-29935000D01*
X37401898Y-29895226D01*
X37590256Y-29817205D01*
X37759774Y-29703937D01*
X37903937Y-29559774D01*
X38017205Y-29390256D01*
X38095226Y-29201898D01*
X38135000Y-29001939D01*
X38135000Y-28939801D01*
X40505545Y-26569256D01*
X40540226Y-26603937D01*
X40709744Y-26717205D01*
X40898102Y-26795226D01*
X41098061Y-26835000D01*
X41301939Y-26835000D01*
X41501898Y-26795226D01*
X41690256Y-26717205D01*
X41859774Y-26603937D01*
X42003937Y-26459774D01*
X42117205Y-26290256D01*
X42195226Y-26101898D01*
X42235000Y-25901939D01*
X42235000Y-25698061D01*
X42195226Y-25498102D01*
X42117205Y-25309744D01*
X42003937Y-25140226D01*
X41859774Y-24996063D01*
X41690256Y-24882795D01*
X41501898Y-24804774D01*
X41301939Y-24765000D01*
X41098061Y-24765000D01*
X40898102Y-24804774D01*
X40709744Y-24882795D01*
X40540226Y-24996063D01*
X40496289Y-25040000D01*
X40237322Y-25040000D01*
X40199999Y-25036324D01*
X40162676Y-25040000D01*
X40162667Y-25040000D01*
X40051014Y-25050997D01*
X39922436Y-25090000D01*
X39907753Y-25094454D01*
X39775723Y-25165026D01*
X39714830Y-25215000D01*
X39659999Y-25259999D01*
X39636201Y-25288997D01*
X37060199Y-27865000D01*
X36998061Y-27865000D01*
X36798102Y-27904774D01*
X36609744Y-27982795D01*
X36440226Y-28096063D01*
X36296063Y-28240226D01*
X36182795Y-28409744D01*
X36104774Y-28598102D01*
X36065000Y-28798061D01*
X10660000Y-28798061D01*
X10660000Y-12804495D01*
X11015000Y-12804495D01*
X11015000Y-13195505D01*
X11091282Y-13579003D01*
X11240915Y-13940250D01*
X11458149Y-14265364D01*
X11734636Y-14541851D01*
X12059750Y-14759085D01*
X12420997Y-14908718D01*
X12804495Y-14985000D01*
X13195505Y-14985000D01*
X13579003Y-14908718D01*
X13940250Y-14759085D01*
X14265364Y-14541851D01*
X14541851Y-14265364D01*
X14759085Y-13940250D01*
X14908718Y-13579003D01*
X14944709Y-13398061D01*
X25465000Y-13398061D01*
X25465000Y-13601939D01*
X25504774Y-13801898D01*
X25582795Y-13990256D01*
X25696063Y-14159774D01*
X25840226Y-14303937D01*
X26009744Y-14417205D01*
X26198102Y-14495226D01*
X26398061Y-14535000D01*
X26601939Y-14535000D01*
X26801898Y-14495226D01*
X26990256Y-14417205D01*
X27159774Y-14303937D01*
X27203711Y-14260000D01*
X38296289Y-14260000D01*
X38340226Y-14303937D01*
X38509744Y-14417205D01*
X38698102Y-14495226D01*
X38898061Y-14535000D01*
X39101939Y-14535000D01*
X39301898Y-14495226D01*
X39490256Y-14417205D01*
X39659774Y-14303937D01*
X39803937Y-14159774D01*
X39917205Y-13990256D01*
X39995226Y-13801898D01*
X40035000Y-13601939D01*
X40035000Y-13398061D01*
X39995226Y-13198102D01*
X39917205Y-13009744D01*
X39803937Y-12840226D01*
X39659774Y-12696063D01*
X39490256Y-12582795D01*
X39301898Y-12504774D01*
X39101939Y-12465000D01*
X38898061Y-12465000D01*
X38698102Y-12504774D01*
X38509744Y-12582795D01*
X38340226Y-12696063D01*
X38296289Y-12740000D01*
X27203711Y-12740000D01*
X27159774Y-12696063D01*
X26990256Y-12582795D01*
X26801898Y-12504774D01*
X26601939Y-12465000D01*
X26398061Y-12465000D01*
X26198102Y-12504774D01*
X26009744Y-12582795D01*
X25840226Y-12696063D01*
X25696063Y-12840226D01*
X25582795Y-13009744D01*
X25504774Y-13198102D01*
X25465000Y-13398061D01*
X14944709Y-13398061D01*
X14985000Y-13195505D01*
X14985000Y-12804495D01*
X14908718Y-12420997D01*
X14759085Y-12059750D01*
X14541851Y-11734636D01*
X14265364Y-11458149D01*
X13940250Y-11240915D01*
X13579003Y-11091282D01*
X13195505Y-11015000D01*
X12804495Y-11015000D01*
X12420997Y-11091282D01*
X12059750Y-11240915D01*
X11734636Y-11458149D01*
X11458149Y-11734636D01*
X11240915Y-12059750D01*
X11091282Y-12420997D01*
X11015000Y-12804495D01*
X10660000Y-12804495D01*
X10660000Y-11532277D01*
X10679102Y-11337460D01*
X10726308Y-11181106D01*
X10802982Y-11036904D01*
X10906207Y-10910337D01*
X11032051Y-10806231D01*
X11175711Y-10728553D01*
X11331729Y-10680258D01*
X11524473Y-10660000D01*
X78467723Y-10660000D01*
X78662540Y-10679102D01*
G37*
X78662540Y-10679102D02*
X78818894Y-10726308D01*
X78963096Y-10802982D01*
X79089663Y-10906207D01*
X79193769Y-11032051D01*
X79271447Y-11175711D01*
X79319742Y-11331729D01*
X79340001Y-11524482D01*
X79340001Y-18370492D01*
X79238078Y-18216526D01*
X79066725Y-18043693D01*
X78864946Y-17907610D01*
X78640496Y-17813507D01*
X78402000Y-17765000D01*
X78127000Y-17765000D01*
X78127000Y-18873000D01*
X78147000Y-18873000D01*
X78147000Y-19127000D01*
X78127000Y-19127000D01*
X78127000Y-19147000D01*
X77873000Y-19147000D01*
X77873000Y-19127000D01*
X76656269Y-19127000D01*
X76531538Y-19317609D01*
X76535409Y-19355282D01*
X76627579Y-19580533D01*
X76761922Y-19783474D01*
X76886406Y-19909033D01*
X76881613Y-19911595D01*
X76747038Y-20022038D01*
X76636595Y-20156613D01*
X76554528Y-20310149D01*
X76503992Y-20476745D01*
X76486928Y-20649999D01*
X76486928Y-21250770D01*
X71120354Y-26617345D01*
X71117205Y-26609744D01*
X71003937Y-26440226D01*
X70960000Y-26396289D01*
X70960000Y-26314801D01*
X76236005Y-21038797D01*
X76265002Y-21015000D01*
X76359975Y-20899275D01*
X76430547Y-20767246D01*
X76474004Y-20623985D01*
X76485001Y-20512332D01*
X76485001Y-20512323D01*
X76488677Y-20475000D01*
X76485001Y-20437677D01*
X76485001Y-18689324D01*
X76485683Y-18682391D01*
X76531538Y-18682391D01*
X76656269Y-18873000D01*
X77873000Y-18873000D01*
X77873000Y-17765000D01*
X77598000Y-17765000D01*
X77359504Y-17813507D01*
X77135054Y-17907610D01*
X76933275Y-18043693D01*
X76761922Y-18216526D01*
X76627579Y-18419467D01*
X76535409Y-18644718D01*
X76531538Y-18682391D01*
X76485683Y-18682391D01*
X76488677Y-18651999D01*
X76485001Y-18614674D01*
X76485001Y-18614666D01*
X76474004Y-18503013D01*
X76430547Y-18359752D01*
X76359975Y-18227723D01*
X76265002Y-18111998D01*
X76236004Y-18088200D01*
X70952299Y-12804495D01*
X75015000Y-12804495D01*
X75015000Y-13195505D01*
X75091282Y-13579003D01*
X75240915Y-13940250D01*
X75458149Y-14265364D01*
X75734636Y-14541851D01*
X76059750Y-14759085D01*
X76420997Y-14908718D01*
X76804495Y-14985000D01*
X77195505Y-14985000D01*
X77579003Y-14908718D01*
X77940250Y-14759085D01*
X78265364Y-14541851D01*
X78541851Y-14265364D01*
X78759085Y-13940250D01*
X78908718Y-13579003D01*
X78985000Y-13195505D01*
X78985000Y-12804495D01*
X78908718Y-12420997D01*
X78759085Y-12059750D01*
X78541851Y-11734636D01*
X78265364Y-11458149D01*
X77940250Y-11240915D01*
X77579003Y-11091282D01*
X77195505Y-11015000D01*
X76804495Y-11015000D01*
X76420997Y-11091282D01*
X76059750Y-11240915D01*
X75734636Y-11458149D01*
X75458149Y-11734636D01*
X75240915Y-12059750D01*
X75091282Y-12420997D01*
X75015000Y-12804495D01*
X70952299Y-12804495D01*
X70036806Y-11889003D01*
X70013003Y-11859999D01*
X69897278Y-11765026D01*
X69765249Y-11694454D01*
X69621988Y-11650997D01*
X69510335Y-11640000D01*
X69510324Y-11640000D01*
X69473002Y-11636324D01*
X69435680Y-11640000D01*
X65303711Y-11640000D01*
X65259774Y-11596063D01*
X65090256Y-11482795D01*
X64901898Y-11404774D01*
X64701939Y-11365000D01*
X64498061Y-11365000D01*
X64298102Y-11404774D01*
X64109744Y-11482795D01*
X63940226Y-11596063D01*
X63921290Y-11614999D01*
X49662326Y-11614999D01*
X49625001Y-11611323D01*
X49587676Y-11614999D01*
X49587668Y-11614999D01*
X49476015Y-11625996D01*
X49332754Y-11669453D01*
X49200725Y-11740025D01*
X49085000Y-11834998D01*
X49061202Y-11863997D01*
X48460199Y-12465000D01*
X48398061Y-12465000D01*
X48198102Y-12504774D01*
X48009744Y-12582795D01*
X47840226Y-12696063D01*
X47696063Y-12840226D01*
X47582795Y-13009744D01*
X47504774Y-13198102D01*
X47465000Y-13398061D01*
X47465000Y-13601939D01*
X47504774Y-13801898D01*
X47582795Y-13990256D01*
X47696063Y-14159774D01*
X47740000Y-14203711D01*
X47740001Y-19258199D01*
X45289003Y-21709198D01*
X45259999Y-21733001D01*
X45204871Y-21800176D01*
X45165026Y-21848726D01*
X45136583Y-21901939D01*
X45094454Y-21980756D01*
X45050997Y-22124017D01*
X45040000Y-22235670D01*
X45040000Y-22235680D01*
X45036324Y-22273002D01*
X45040000Y-22310325D01*
X45040001Y-27285197D01*
X39560199Y-32765000D01*
X39498061Y-32765000D01*
X39298102Y-32804774D01*
X39109744Y-32882795D01*
X38940226Y-32996063D01*
X38796063Y-33140226D01*
X38682795Y-33309744D01*
X38604774Y-33498102D01*
X38565000Y-33698061D01*
X38565000Y-33901939D01*
X38604774Y-34101898D01*
X38682795Y-34290256D01*
X38796063Y-34459774D01*
X38940226Y-34603937D01*
X39109744Y-34717205D01*
X39298102Y-34795226D01*
X39498061Y-34835000D01*
X39701939Y-34835000D01*
X39901898Y-34795226D01*
X40090256Y-34717205D01*
X40259774Y-34603937D01*
X40303711Y-34560000D01*
X46585199Y-34560000D01*
X52336205Y-40311008D01*
X52359999Y-40340001D01*
X52388992Y-40363795D01*
X52388996Y-40363799D01*
X52459685Y-40421811D01*
X52475724Y-40434974D01*
X52607753Y-40505546D01*
X52751014Y-40549003D01*
X52862667Y-40560000D01*
X52862676Y-40560000D01*
X52899999Y-40563676D01*
X52937322Y-40560000D01*
X53087379Y-40560000D01*
X52982456Y-40664923D01*
X52839093Y-40879482D01*
X52740342Y-41117887D01*
X52690000Y-41370976D01*
X52690000Y-41629024D01*
X52740342Y-41882113D01*
X52839093Y-42120518D01*
X52982456Y-42335077D01*
X53147379Y-42500000D01*
X52982456Y-42664923D01*
X52839093Y-42879482D01*
X52740342Y-43117887D01*
X52690000Y-43370976D01*
X52690000Y-43629024D01*
X52740342Y-43882113D01*
X52839093Y-44120518D01*
X52982456Y-44335077D01*
X53164923Y-44517544D01*
X53379482Y-44660907D01*
X53617887Y-44759658D01*
X53870976Y-44810000D01*
X54129024Y-44810000D01*
X54382113Y-44759658D01*
X54620518Y-44660907D01*
X54835077Y-44517544D01*
X55000000Y-44352621D01*
X55164923Y-44517544D01*
X55379482Y-44660907D01*
X55617887Y-44759658D01*
X55870976Y-44810000D01*
X56129024Y-44810000D01*
X56382113Y-44759658D01*
X56620518Y-44660907D01*
X56802513Y-44539303D01*
X56873815Y-44626185D01*
X56970506Y-44705537D01*
X57080820Y-44764502D01*
X57200518Y-44800812D01*
X57325000Y-44813072D01*
X58675000Y-44813072D01*
X58799482Y-44800812D01*
X58919180Y-44764502D01*
X59029494Y-44705537D01*
X59126185Y-44626185D01*
X59205537Y-44529494D01*
X59264502Y-44419180D01*
X59300812Y-44299482D01*
X59313072Y-44175000D01*
X59313072Y-43974999D01*
X60761928Y-43974999D01*
X60761928Y-45225001D01*
X60778992Y-45398255D01*
X60829528Y-45564851D01*
X60911595Y-45718387D01*
X61022038Y-45852962D01*
X61156613Y-45963405D01*
X61310149Y-46045472D01*
X61476745Y-46096008D01*
X61649999Y-46113072D01*
X62350001Y-46113072D01*
X62523255Y-46096008D01*
X62689851Y-46045472D01*
X62843387Y-45963405D01*
X62977962Y-45852962D01*
X63088405Y-45718387D01*
X63090810Y-45713888D01*
X63122499Y-45752502D01*
X63310552Y-45906833D01*
X63525100Y-46021511D01*
X63757899Y-46092130D01*
X64000000Y-46115975D01*
X64242102Y-46092130D01*
X64474901Y-46021511D01*
X64689449Y-45906833D01*
X64877502Y-45752502D01*
X65000481Y-45602652D01*
X65043693Y-45666725D01*
X65216526Y-45838078D01*
X65419467Y-45972421D01*
X65644718Y-46064591D01*
X65682391Y-46068462D01*
X65873000Y-45943731D01*
X65873000Y-44727000D01*
X65853000Y-44727000D01*
X65853000Y-44473000D01*
X65873000Y-44473000D01*
X65873000Y-43256269D01*
X66127000Y-43256269D01*
X66127000Y-44473000D01*
X66147000Y-44473000D01*
X66147000Y-44727000D01*
X66127000Y-44727000D01*
X66127000Y-45943731D01*
X66317609Y-46068462D01*
X66355282Y-46064591D01*
X66580533Y-45972421D01*
X66783474Y-45838078D01*
X66956307Y-45666725D01*
X66999520Y-45602651D01*
X67122499Y-45752502D01*
X67310552Y-45906833D01*
X67525100Y-46021511D01*
X67757899Y-46092130D01*
X68000000Y-46115975D01*
X68242102Y-46092130D01*
X68474901Y-46021511D01*
X68689449Y-45906833D01*
X68877502Y-45752502D01*
X69031833Y-45564449D01*
X69146511Y-45349900D01*
X69217130Y-45117101D01*
X69235000Y-44935664D01*
X69235000Y-44264335D01*
X69217130Y-44082898D01*
X69146511Y-43850099D01*
X69031833Y-43635551D01*
X68877502Y-43447498D01*
X68689448Y-43293167D01*
X68474900Y-43178489D01*
X68242101Y-43107870D01*
X68000000Y-43084025D01*
X67757898Y-43107870D01*
X67525099Y-43178489D01*
X67310551Y-43293167D01*
X67122498Y-43447498D01*
X66999519Y-43597349D01*
X66956307Y-43533275D01*
X66783474Y-43361922D01*
X66580533Y-43227579D01*
X66355282Y-43135409D01*
X66317609Y-43131538D01*
X66127000Y-43256269D01*
X65873000Y-43256269D01*
X65682391Y-43131538D01*
X65644718Y-43135409D01*
X65419467Y-43227579D01*
X65216526Y-43361922D01*
X65043693Y-43533275D01*
X65000481Y-43597348D01*
X64877502Y-43447498D01*
X64689448Y-43293167D01*
X64474900Y-43178489D01*
X64242101Y-43107870D01*
X64000000Y-43084025D01*
X63757898Y-43107870D01*
X63525099Y-43178489D01*
X63310551Y-43293167D01*
X63122498Y-43447498D01*
X63090809Y-43486111D01*
X63088405Y-43481613D01*
X62977962Y-43347038D01*
X62843387Y-43236595D01*
X62689851Y-43154528D01*
X62523255Y-43103992D01*
X62350001Y-43086928D01*
X61649999Y-43086928D01*
X61476745Y-43103992D01*
X61310149Y-43154528D01*
X61156613Y-43236595D01*
X61022038Y-43347038D01*
X60911595Y-43481613D01*
X60829528Y-43635149D01*
X60778992Y-43801745D01*
X60761928Y-43974999D01*
X59313072Y-43974999D01*
X59313072Y-42825000D01*
X59300812Y-42700518D01*
X59264502Y-42580820D01*
X59205537Y-42470506D01*
X59126185Y-42373815D01*
X59039303Y-42302513D01*
X59160907Y-42120518D01*
X59259658Y-41882113D01*
X59310000Y-41629024D01*
X59310000Y-41370976D01*
X59259658Y-41117887D01*
X59160907Y-40879482D01*
X59017544Y-40664923D01*
X58835077Y-40482456D01*
X58752010Y-40426953D01*
X58749003Y-40396420D01*
X58705546Y-40253159D01*
X58634974Y-40121130D01*
X58540001Y-40005405D01*
X58511002Y-39981607D01*
X58022296Y-39492901D01*
X58102513Y-39439303D01*
X58173815Y-39526185D01*
X58270506Y-39605537D01*
X58380820Y-39664502D01*
X58500518Y-39700812D01*
X58625000Y-39713072D01*
X59975000Y-39713072D01*
X60099482Y-39700812D01*
X60219180Y-39664502D01*
X60329494Y-39605537D01*
X60426185Y-39526185D01*
X60505537Y-39429494D01*
X60564502Y-39319180D01*
X60600812Y-39199482D01*
X60613072Y-39075000D01*
X60613072Y-37725000D01*
X60600812Y-37600518D01*
X60568782Y-37494929D01*
X60703937Y-37359774D01*
X60817205Y-37190256D01*
X60895226Y-37001898D01*
X60935000Y-36801939D01*
X60935000Y-36660000D01*
X72185199Y-36660000D01*
X74565000Y-39039802D01*
X74565000Y-39101939D01*
X74604774Y-39301898D01*
X74682795Y-39490256D01*
X74796063Y-39659774D01*
X74940226Y-39803937D01*
X75109744Y-39917205D01*
X75298102Y-39995226D01*
X75498061Y-40035000D01*
X75701939Y-40035000D01*
X75901898Y-39995226D01*
X76090256Y-39917205D01*
X76259774Y-39803937D01*
X76403937Y-39659774D01*
X76517205Y-39490256D01*
X76595226Y-39301898D01*
X76635000Y-39101939D01*
X76635000Y-38898061D01*
X76595226Y-38698102D01*
X76517205Y-38509744D01*
X76403937Y-38340226D01*
X76259774Y-38196063D01*
X76090256Y-38082795D01*
X75901898Y-38004774D01*
X75701939Y-37965000D01*
X75639802Y-37965000D01*
X73063804Y-35389003D01*
X73040001Y-35359999D01*
X72924276Y-35265026D01*
X72792247Y-35194454D01*
X72648986Y-35150997D01*
X72537333Y-35140000D01*
X72537322Y-35140000D01*
X72500000Y-35136324D01*
X72462678Y-35140000D01*
X64138029Y-35140000D01*
X64135000Y-34435750D01*
X63976250Y-34277000D01*
X62127000Y-34277000D01*
X62127000Y-34297000D01*
X61873000Y-34297000D01*
X61873000Y-34277000D01*
X60023750Y-34277000D01*
X59865000Y-34435750D01*
X59861971Y-35140000D01*
X52241801Y-35140000D01*
X50489872Y-33388072D01*
X51500000Y-33388072D01*
X51624482Y-33375812D01*
X51744180Y-33339502D01*
X51854494Y-33280537D01*
X51879518Y-33260000D01*
X55120482Y-33260000D01*
X55145506Y-33280537D01*
X55255820Y-33339502D01*
X55375518Y-33375812D01*
X55500000Y-33388072D01*
X57500000Y-33388072D01*
X57624482Y-33375812D01*
X57744180Y-33339502D01*
X57854494Y-33280537D01*
X57951185Y-33201185D01*
X58030537Y-33104494D01*
X58089502Y-32994180D01*
X58125812Y-32874482D01*
X58137087Y-32760000D01*
X59998602Y-32760000D01*
X59969463Y-32795506D01*
X59910498Y-32905820D01*
X59874188Y-33025518D01*
X59861928Y-33150000D01*
X59865000Y-33864250D01*
X60023750Y-34023000D01*
X61873000Y-34023000D01*
X61873000Y-34003000D01*
X62127000Y-34003000D01*
X62127000Y-34023000D01*
X63976250Y-34023000D01*
X64135000Y-33864250D01*
X64138072Y-33150000D01*
X64125812Y-33025518D01*
X64089502Y-32905820D01*
X64030537Y-32795506D01*
X64001398Y-32760000D01*
X66775178Y-32760000D01*
X66812500Y-32763676D01*
X66849822Y-32760000D01*
X66849833Y-32760000D01*
X66961486Y-32749003D01*
X67104747Y-32705546D01*
X67236776Y-32634974D01*
X67352501Y-32540001D01*
X67376304Y-32510997D01*
X67824229Y-32063072D01*
X68212500Y-32063072D01*
X68378438Y-32046728D01*
X68538000Y-31998326D01*
X68685052Y-31919725D01*
X68813945Y-31813945D01*
X68919725Y-31685052D01*
X68998326Y-31538000D01*
X69046728Y-31378438D01*
X69063072Y-31212500D01*
X69063072Y-31038212D01*
X74765000Y-31038212D01*
X74765000Y-31261788D01*
X74808617Y-31481067D01*
X74894176Y-31687624D01*
X75018388Y-31873520D01*
X75176480Y-32031612D01*
X75362376Y-32155824D01*
X75568933Y-32241383D01*
X75788212Y-32285000D01*
X76011788Y-32285000D01*
X76231067Y-32241383D01*
X76437624Y-32155824D01*
X76623520Y-32031612D01*
X76781612Y-31873520D01*
X76905824Y-31687624D01*
X76991383Y-31481067D01*
X77035000Y-31261788D01*
X77035000Y-31038212D01*
X76991383Y-30818933D01*
X76905824Y-30612376D01*
X76781612Y-30426480D01*
X76623520Y-30268388D01*
X76437624Y-30144176D01*
X76231067Y-30058617D01*
X76011788Y-30015000D01*
X75788212Y-30015000D01*
X75568933Y-30058617D01*
X75362376Y-30144176D01*
X75176480Y-30268388D01*
X75018388Y-30426480D01*
X74894176Y-30612376D01*
X74808617Y-30818933D01*
X74765000Y-31038212D01*
X69063072Y-31038212D01*
X69063072Y-30824229D01*
X69261008Y-30626293D01*
X69290011Y-30602491D01*
X69313813Y-30573488D01*
X73649089Y-26238212D01*
X74765000Y-26238212D01*
X74765000Y-26461788D01*
X74808617Y-26681067D01*
X74894176Y-26887624D01*
X75018388Y-27073520D01*
X75176480Y-27231612D01*
X75362376Y-27355824D01*
X75568933Y-27441383D01*
X75788212Y-27485000D01*
X76011788Y-27485000D01*
X76231067Y-27441383D01*
X76437624Y-27355824D01*
X76623520Y-27231612D01*
X76781612Y-27073520D01*
X76905824Y-26887624D01*
X76991383Y-26681067D01*
X77035000Y-26461788D01*
X77035000Y-26238212D01*
X76991383Y-26018933D01*
X76905824Y-25812376D01*
X76781612Y-25626480D01*
X76623520Y-25468388D01*
X76437624Y-25344176D01*
X76231067Y-25258617D01*
X76011788Y-25215000D01*
X75788212Y-25215000D01*
X75568933Y-25258617D01*
X75362376Y-25344176D01*
X75176480Y-25468388D01*
X75018388Y-25626480D01*
X74894176Y-25812376D01*
X74808617Y-26018933D01*
X74765000Y-26238212D01*
X73649089Y-26238212D01*
X77649230Y-22238072D01*
X78625001Y-22238072D01*
X78798255Y-22221008D01*
X78964851Y-22170472D01*
X79118387Y-22088405D01*
X79252962Y-21977962D01*
X79340001Y-21871905D01*
X79340001Y-23978728D01*
X79256043Y-23922629D01*
X79003989Y-23818225D01*
X78736411Y-23765000D01*
X78463589Y-23765000D01*
X78196011Y-23818225D01*
X77943957Y-23922629D01*
X77717114Y-24074201D01*
X77524201Y-24267114D01*
X77372629Y-24493957D01*
X77268225Y-24746011D01*
X77215000Y-25013589D01*
X77215000Y-25286411D01*
X77268225Y-25553989D01*
X77372629Y-25806043D01*
X77524201Y-26032886D01*
X77717114Y-26225799D01*
X77943957Y-26377371D01*
X78196011Y-26481775D01*
X78463589Y-26535000D01*
X78736411Y-26535000D01*
X79003989Y-26481775D01*
X79256043Y-26377371D01*
X79340001Y-26321272D01*
X79340000Y-31178728D01*
X79256043Y-31122629D01*
X79003989Y-31018225D01*
X78736411Y-30965000D01*
X78463589Y-30965000D01*
X78196011Y-31018225D01*
X77943957Y-31122629D01*
X77717114Y-31274201D01*
X77524201Y-31467114D01*
X77372629Y-31693957D01*
X77268225Y-31946011D01*
X77215000Y-32213589D01*
X77215000Y-32486411D01*
X77268225Y-32753989D01*
X77372629Y-33006043D01*
X77524201Y-33232886D01*
X77717114Y-33425799D01*
X77943957Y-33577371D01*
X78196011Y-33681775D01*
X78463589Y-33735000D01*
X78736411Y-33735000D01*
X79003989Y-33681775D01*
X79256043Y-33577371D01*
X79340000Y-33521272D01*
X79340000Y-46373000D01*
X78888837Y-46373000D01*
X78759085Y-46059750D01*
X78541851Y-45734636D01*
X78265364Y-45458149D01*
X77940250Y-45240915D01*
X77579003Y-45091282D01*
X77195505Y-45015000D01*
X76804495Y-45015000D01*
X76420997Y-45091282D01*
X76059750Y-45240915D01*
X75734636Y-45458149D01*
X75458149Y-45734636D01*
X75240915Y-46059750D01*
X75111163Y-46373000D01*
X14888837Y-46373000D01*
X14759085Y-46059750D01*
X14541851Y-45734636D01*
X14265364Y-45458149D01*
X13940250Y-45240915D01*
X13579003Y-45091282D01*
X13195505Y-45015000D01*
X12804495Y-45015000D01*
X12420997Y-45091282D01*
X12059750Y-45240915D01*
X11734636Y-45458149D01*
X11458149Y-45734636D01*
X11240915Y-46059750D01*
X11111163Y-46373000D01*
X10660000Y-46373000D01*
X10660000Y-28798061D01*
X36065000Y-28798061D01*
X36065000Y-29001939D01*
X36104774Y-29201898D01*
X36182795Y-29390256D01*
X36296063Y-29559774D01*
X36440226Y-29703937D01*
X36609744Y-29817205D01*
X36798102Y-29895226D01*
X36998061Y-29935000D01*
X37201939Y-29935000D01*
X37401898Y-29895226D01*
X37590256Y-29817205D01*
X37759774Y-29703937D01*
X37903937Y-29559774D01*
X38017205Y-29390256D01*
X38095226Y-29201898D01*
X38135000Y-29001939D01*
X38135000Y-28939801D01*
X40505545Y-26569256D01*
X40540226Y-26603937D01*
X40709744Y-26717205D01*
X40898102Y-26795226D01*
X41098061Y-26835000D01*
X41301939Y-26835000D01*
X41501898Y-26795226D01*
X41690256Y-26717205D01*
X41859774Y-26603937D01*
X42003937Y-26459774D01*
X42117205Y-26290256D01*
X42195226Y-26101898D01*
X42235000Y-25901939D01*
X42235000Y-25698061D01*
X42195226Y-25498102D01*
X42117205Y-25309744D01*
X42003937Y-25140226D01*
X41859774Y-24996063D01*
X41690256Y-24882795D01*
X41501898Y-24804774D01*
X41301939Y-24765000D01*
X41098061Y-24765000D01*
X40898102Y-24804774D01*
X40709744Y-24882795D01*
X40540226Y-24996063D01*
X40496289Y-25040000D01*
X40237322Y-25040000D01*
X40199999Y-25036324D01*
X40162676Y-25040000D01*
X40162667Y-25040000D01*
X40051014Y-25050997D01*
X39922436Y-25090000D01*
X39907753Y-25094454D01*
X39775723Y-25165026D01*
X39714830Y-25215000D01*
X39659999Y-25259999D01*
X39636201Y-25288997D01*
X37060199Y-27865000D01*
X36998061Y-27865000D01*
X36798102Y-27904774D01*
X36609744Y-27982795D01*
X36440226Y-28096063D01*
X36296063Y-28240226D01*
X36182795Y-28409744D01*
X36104774Y-28598102D01*
X36065000Y-28798061D01*
X10660000Y-28798061D01*
X10660000Y-12804495D01*
X11015000Y-12804495D01*
X11015000Y-13195505D01*
X11091282Y-13579003D01*
X11240915Y-13940250D01*
X11458149Y-14265364D01*
X11734636Y-14541851D01*
X12059750Y-14759085D01*
X12420997Y-14908718D01*
X12804495Y-14985000D01*
X13195505Y-14985000D01*
X13579003Y-14908718D01*
X13940250Y-14759085D01*
X14265364Y-14541851D01*
X14541851Y-14265364D01*
X14759085Y-13940250D01*
X14908718Y-13579003D01*
X14944709Y-13398061D01*
X25465000Y-13398061D01*
X25465000Y-13601939D01*
X25504774Y-13801898D01*
X25582795Y-13990256D01*
X25696063Y-14159774D01*
X25840226Y-14303937D01*
X26009744Y-14417205D01*
X26198102Y-14495226D01*
X26398061Y-14535000D01*
X26601939Y-14535000D01*
X26801898Y-14495226D01*
X26990256Y-14417205D01*
X27159774Y-14303937D01*
X27203711Y-14260000D01*
X38296289Y-14260000D01*
X38340226Y-14303937D01*
X38509744Y-14417205D01*
X38698102Y-14495226D01*
X38898061Y-14535000D01*
X39101939Y-14535000D01*
X39301898Y-14495226D01*
X39490256Y-14417205D01*
X39659774Y-14303937D01*
X39803937Y-14159774D01*
X39917205Y-13990256D01*
X39995226Y-13801898D01*
X40035000Y-13601939D01*
X40035000Y-13398061D01*
X39995226Y-13198102D01*
X39917205Y-13009744D01*
X39803937Y-12840226D01*
X39659774Y-12696063D01*
X39490256Y-12582795D01*
X39301898Y-12504774D01*
X39101939Y-12465000D01*
X38898061Y-12465000D01*
X38698102Y-12504774D01*
X38509744Y-12582795D01*
X38340226Y-12696063D01*
X38296289Y-12740000D01*
X27203711Y-12740000D01*
X27159774Y-12696063D01*
X26990256Y-12582795D01*
X26801898Y-12504774D01*
X26601939Y-12465000D01*
X26398061Y-12465000D01*
X26198102Y-12504774D01*
X26009744Y-12582795D01*
X25840226Y-12696063D01*
X25696063Y-12840226D01*
X25582795Y-13009744D01*
X25504774Y-13198102D01*
X25465000Y-13398061D01*
X14944709Y-13398061D01*
X14985000Y-13195505D01*
X14985000Y-12804495D01*
X14908718Y-12420997D01*
X14759085Y-12059750D01*
X14541851Y-11734636D01*
X14265364Y-11458149D01*
X13940250Y-11240915D01*
X13579003Y-11091282D01*
X13195505Y-11015000D01*
X12804495Y-11015000D01*
X12420997Y-11091282D01*
X12059750Y-11240915D01*
X11734636Y-11458149D01*
X11458149Y-11734636D01*
X11240915Y-12059750D01*
X11091282Y-12420997D01*
X11015000Y-12804495D01*
X10660000Y-12804495D01*
X10660000Y-11532277D01*
X10679102Y-11337460D01*
X10726308Y-11181106D01*
X10802982Y-11036904D01*
X10906207Y-10910337D01*
X11032051Y-10806231D01*
X11175711Y-10728553D01*
X11331729Y-10680258D01*
X11524473Y-10660000D01*
X78467723Y-10660000D01*
X78662540Y-10679102D01*
G36*
X55128773Y-42478303D02*
G01*
X55152094Y-42495285D01*
X55000000Y-42647379D01*
X54852621Y-42500000D01*
X55006681Y-42345940D01*
X55128773Y-42478303D01*
G37*
X55128773Y-42478303D02*
X55152094Y-42495285D01*
X55000000Y-42647379D01*
X54852621Y-42500000D01*
X55006681Y-42345940D01*
X55128773Y-42478303D01*
G36*
X56127000Y-41373000D02*
G01*
X56147000Y-41373000D01*
X56147000Y-41627000D01*
X56127000Y-41627000D01*
X56127000Y-41647000D01*
X55873000Y-41647000D01*
X55873000Y-41627000D01*
X55853000Y-41627000D01*
X55853000Y-41373000D01*
X55873000Y-41373000D01*
X55873000Y-41353000D01*
X56127000Y-41353000D01*
X56127000Y-41373000D01*
G37*
X56127000Y-41373000D02*
X56147000Y-41373000D01*
X56147000Y-41627000D01*
X56127000Y-41627000D01*
X56127000Y-41647000D01*
X55873000Y-41647000D01*
X55873000Y-41627000D01*
X55853000Y-41627000D01*
X55853000Y-41373000D01*
X55873000Y-41373000D01*
X55873000Y-41353000D01*
X56127000Y-41353000D01*
X56127000Y-41373000D01*
G36*
X60340226Y-21803937D02*
G01*
X60509744Y-21917205D01*
X60698102Y-21995226D01*
X60898061Y-22035000D01*
X60960199Y-22035000D01*
X63137127Y-24211928D01*
X60550000Y-24211928D01*
X60425518Y-24224188D01*
X60305820Y-24260498D01*
X60195506Y-24319463D01*
X60098815Y-24398815D01*
X60019463Y-24495506D01*
X59960498Y-24605820D01*
X59924188Y-24725518D01*
X59911928Y-24850000D01*
X59911928Y-26850000D01*
X59924188Y-26974482D01*
X59960498Y-27094180D01*
X60019463Y-27204494D01*
X60098815Y-27301185D01*
X60195506Y-27380537D01*
X60305820Y-27439502D01*
X60425518Y-27475812D01*
X60550000Y-27488072D01*
X61290000Y-27488072D01*
X61290001Y-28835197D01*
X61160198Y-28965000D01*
X61098061Y-28965000D01*
X60898102Y-29004774D01*
X60709744Y-29082795D01*
X60540226Y-29196063D01*
X60396063Y-29340226D01*
X60282795Y-29509744D01*
X60204774Y-29698102D01*
X60165000Y-29898061D01*
X60165000Y-30101939D01*
X60204774Y-30301898D01*
X60282795Y-30490256D01*
X60396063Y-30659774D01*
X60540226Y-30803937D01*
X60709744Y-30917205D01*
X60898102Y-30995226D01*
X61098061Y-31035000D01*
X61301939Y-31035000D01*
X61501898Y-30995226D01*
X61690256Y-30917205D01*
X61859774Y-30803937D01*
X62003937Y-30659774D01*
X62117205Y-30490256D01*
X62195226Y-30301898D01*
X62235000Y-30101939D01*
X62235000Y-30039802D01*
X62561003Y-29713799D01*
X62590001Y-29690001D01*
X62684974Y-29574276D01*
X62755546Y-29442247D01*
X62799003Y-29298986D01*
X62810000Y-29187333D01*
X62813677Y-29150000D01*
X62810000Y-29112667D01*
X62810000Y-27488072D01*
X63550000Y-27488072D01*
X63674482Y-27475812D01*
X63794180Y-27439502D01*
X63904494Y-27380537D01*
X64001185Y-27301185D01*
X64080156Y-27204958D01*
X64240001Y-27364803D01*
X64240000Y-28851030D01*
X64174321Y-28931060D01*
X64101726Y-29066875D01*
X64057023Y-29214243D01*
X64041928Y-29367500D01*
X64041928Y-29662500D01*
X64057023Y-29815757D01*
X64094312Y-29938684D01*
X64090498Y-29945820D01*
X64054188Y-30065518D01*
X64041928Y-30190000D01*
X64045000Y-30199250D01*
X64203750Y-30358000D01*
X64470237Y-30358000D01*
X64526875Y-30388274D01*
X64674243Y-30432977D01*
X64827500Y-30448072D01*
X65172500Y-30448072D01*
X65325757Y-30432977D01*
X65473125Y-30388274D01*
X65529763Y-30358000D01*
X65796250Y-30358000D01*
X65955000Y-30199250D01*
X65958072Y-30190000D01*
X65945812Y-30065518D01*
X65909502Y-29945820D01*
X65905688Y-29938684D01*
X65942977Y-29815757D01*
X65958072Y-29662500D01*
X65958072Y-29367500D01*
X65942977Y-29214243D01*
X65898274Y-29066875D01*
X65825679Y-28931060D01*
X65760000Y-28851030D01*
X65760000Y-27087322D01*
X65763676Y-27049999D01*
X65760000Y-27012676D01*
X65760000Y-27012667D01*
X65749003Y-26901014D01*
X65715384Y-26790186D01*
X67152338Y-28227140D01*
X67080275Y-28314948D01*
X67001674Y-28462000D01*
X66953272Y-28621562D01*
X66936928Y-28787500D01*
X66936928Y-29587500D01*
X66953272Y-29753438D01*
X67001674Y-29913000D01*
X67048177Y-30000000D01*
X67001674Y-30087000D01*
X66953272Y-30246562D01*
X66936928Y-30412500D01*
X66936928Y-30800770D01*
X66497699Y-31240000D01*
X65760444Y-31240000D01*
X65771185Y-31231185D01*
X65850537Y-31134494D01*
X65909502Y-31024180D01*
X65945812Y-30904482D01*
X65958072Y-30780000D01*
X65955000Y-30770750D01*
X65796250Y-30612000D01*
X65127000Y-30612000D01*
X65127000Y-30632000D01*
X64873000Y-30632000D01*
X64873000Y-30612000D01*
X64203750Y-30612000D01*
X64045000Y-30770750D01*
X64041928Y-30780000D01*
X64054188Y-30904482D01*
X64090498Y-31024180D01*
X64149463Y-31134494D01*
X64228815Y-31231185D01*
X64239556Y-31240000D01*
X58314802Y-31240000D01*
X57854958Y-30780156D01*
X57951185Y-30701185D01*
X58030537Y-30604494D01*
X58089502Y-30494180D01*
X58125812Y-30374482D01*
X58138072Y-30250000D01*
X58138072Y-29750000D01*
X58125812Y-29625518D01*
X58089502Y-29505820D01*
X58030537Y-29395506D01*
X57951185Y-29298815D01*
X57854494Y-29219463D01*
X57744180Y-29160498D01*
X57624482Y-29124188D01*
X57500000Y-29111928D01*
X55500000Y-29111928D01*
X55375518Y-29124188D01*
X55255820Y-29160498D01*
X55200627Y-29190000D01*
X51879518Y-29190000D01*
X51854494Y-29169463D01*
X51744180Y-29110498D01*
X51624482Y-29074188D01*
X51500000Y-29061928D01*
X49660000Y-29061928D01*
X49660000Y-28388072D01*
X51500000Y-28388072D01*
X51624482Y-28375812D01*
X51744180Y-28339502D01*
X51854494Y-28280537D01*
X51879518Y-28260000D01*
X55120482Y-28260000D01*
X55145506Y-28280537D01*
X55255820Y-28339502D01*
X55375518Y-28375812D01*
X55500000Y-28388072D01*
X57500000Y-28388072D01*
X57624482Y-28375812D01*
X57744180Y-28339502D01*
X57854494Y-28280537D01*
X57951185Y-28201185D01*
X58030537Y-28104494D01*
X58089502Y-27994180D01*
X58125812Y-27874482D01*
X58138072Y-27750000D01*
X58138072Y-27250000D01*
X58125812Y-27125518D01*
X58089502Y-27005820D01*
X58030537Y-26895506D01*
X57951185Y-26798815D01*
X57854494Y-26719463D01*
X57744180Y-26660498D01*
X57624482Y-26624188D01*
X57500000Y-26611928D01*
X57260000Y-26611928D01*
X57260000Y-24741799D01*
X60269044Y-21732755D01*
X60340226Y-21803937D01*
G37*
X60340226Y-21803937D02*
X60509744Y-21917205D01*
X60698102Y-21995226D01*
X60898061Y-22035000D01*
X60960199Y-22035000D01*
X63137127Y-24211928D01*
X60550000Y-24211928D01*
X60425518Y-24224188D01*
X60305820Y-24260498D01*
X60195506Y-24319463D01*
X60098815Y-24398815D01*
X60019463Y-24495506D01*
X59960498Y-24605820D01*
X59924188Y-24725518D01*
X59911928Y-24850000D01*
X59911928Y-26850000D01*
X59924188Y-26974482D01*
X59960498Y-27094180D01*
X60019463Y-27204494D01*
X60098815Y-27301185D01*
X60195506Y-27380537D01*
X60305820Y-27439502D01*
X60425518Y-27475812D01*
X60550000Y-27488072D01*
X61290000Y-27488072D01*
X61290001Y-28835197D01*
X61160198Y-28965000D01*
X61098061Y-28965000D01*
X60898102Y-29004774D01*
X60709744Y-29082795D01*
X60540226Y-29196063D01*
X60396063Y-29340226D01*
X60282795Y-29509744D01*
X60204774Y-29698102D01*
X60165000Y-29898061D01*
X60165000Y-30101939D01*
X60204774Y-30301898D01*
X60282795Y-30490256D01*
X60396063Y-30659774D01*
X60540226Y-30803937D01*
X60709744Y-30917205D01*
X60898102Y-30995226D01*
X61098061Y-31035000D01*
X61301939Y-31035000D01*
X61501898Y-30995226D01*
X61690256Y-30917205D01*
X61859774Y-30803937D01*
X62003937Y-30659774D01*
X62117205Y-30490256D01*
X62195226Y-30301898D01*
X62235000Y-30101939D01*
X62235000Y-30039802D01*
X62561003Y-29713799D01*
X62590001Y-29690001D01*
X62684974Y-29574276D01*
X62755546Y-29442247D01*
X62799003Y-29298986D01*
X62810000Y-29187333D01*
X62813677Y-29150000D01*
X62810000Y-29112667D01*
X62810000Y-27488072D01*
X63550000Y-27488072D01*
X63674482Y-27475812D01*
X63794180Y-27439502D01*
X63904494Y-27380537D01*
X64001185Y-27301185D01*
X64080156Y-27204958D01*
X64240001Y-27364803D01*
X64240000Y-28851030D01*
X64174321Y-28931060D01*
X64101726Y-29066875D01*
X64057023Y-29214243D01*
X64041928Y-29367500D01*
X64041928Y-29662500D01*
X64057023Y-29815757D01*
X64094312Y-29938684D01*
X64090498Y-29945820D01*
X64054188Y-30065518D01*
X64041928Y-30190000D01*
X64045000Y-30199250D01*
X64203750Y-30358000D01*
X64470237Y-30358000D01*
X64526875Y-30388274D01*
X64674243Y-30432977D01*
X64827500Y-30448072D01*
X65172500Y-30448072D01*
X65325757Y-30432977D01*
X65473125Y-30388274D01*
X65529763Y-30358000D01*
X65796250Y-30358000D01*
X65955000Y-30199250D01*
X65958072Y-30190000D01*
X65945812Y-30065518D01*
X65909502Y-29945820D01*
X65905688Y-29938684D01*
X65942977Y-29815757D01*
X65958072Y-29662500D01*
X65958072Y-29367500D01*
X65942977Y-29214243D01*
X65898274Y-29066875D01*
X65825679Y-28931060D01*
X65760000Y-28851030D01*
X65760000Y-27087322D01*
X65763676Y-27049999D01*
X65760000Y-27012676D01*
X65760000Y-27012667D01*
X65749003Y-26901014D01*
X65715384Y-26790186D01*
X67152338Y-28227140D01*
X67080275Y-28314948D01*
X67001674Y-28462000D01*
X66953272Y-28621562D01*
X66936928Y-28787500D01*
X66936928Y-29587500D01*
X66953272Y-29753438D01*
X67001674Y-29913000D01*
X67048177Y-30000000D01*
X67001674Y-30087000D01*
X66953272Y-30246562D01*
X66936928Y-30412500D01*
X66936928Y-30800770D01*
X66497699Y-31240000D01*
X65760444Y-31240000D01*
X65771185Y-31231185D01*
X65850537Y-31134494D01*
X65909502Y-31024180D01*
X65945812Y-30904482D01*
X65958072Y-30780000D01*
X65955000Y-30770750D01*
X65796250Y-30612000D01*
X65127000Y-30612000D01*
X65127000Y-30632000D01*
X64873000Y-30632000D01*
X64873000Y-30612000D01*
X64203750Y-30612000D01*
X64045000Y-30770750D01*
X64041928Y-30780000D01*
X64054188Y-30904482D01*
X64090498Y-31024180D01*
X64149463Y-31134494D01*
X64228815Y-31231185D01*
X64239556Y-31240000D01*
X58314802Y-31240000D01*
X57854958Y-30780156D01*
X57951185Y-30701185D01*
X58030537Y-30604494D01*
X58089502Y-30494180D01*
X58125812Y-30374482D01*
X58138072Y-30250000D01*
X58138072Y-29750000D01*
X58125812Y-29625518D01*
X58089502Y-29505820D01*
X58030537Y-29395506D01*
X57951185Y-29298815D01*
X57854494Y-29219463D01*
X57744180Y-29160498D01*
X57624482Y-29124188D01*
X57500000Y-29111928D01*
X55500000Y-29111928D01*
X55375518Y-29124188D01*
X55255820Y-29160498D01*
X55200627Y-29190000D01*
X51879518Y-29190000D01*
X51854494Y-29169463D01*
X51744180Y-29110498D01*
X51624482Y-29074188D01*
X51500000Y-29061928D01*
X49660000Y-29061928D01*
X49660000Y-28388072D01*
X51500000Y-28388072D01*
X51624482Y-28375812D01*
X51744180Y-28339502D01*
X51854494Y-28280537D01*
X51879518Y-28260000D01*
X55120482Y-28260000D01*
X55145506Y-28280537D01*
X55255820Y-28339502D01*
X55375518Y-28375812D01*
X55500000Y-28388072D01*
X57500000Y-28388072D01*
X57624482Y-28375812D01*
X57744180Y-28339502D01*
X57854494Y-28280537D01*
X57951185Y-28201185D01*
X58030537Y-28104494D01*
X58089502Y-27994180D01*
X58125812Y-27874482D01*
X58138072Y-27750000D01*
X58138072Y-27250000D01*
X58125812Y-27125518D01*
X58089502Y-27005820D01*
X58030537Y-26895506D01*
X57951185Y-26798815D01*
X57854494Y-26719463D01*
X57744180Y-26660498D01*
X57624482Y-26624188D01*
X57500000Y-26611928D01*
X57260000Y-26611928D01*
X57260000Y-24741799D01*
X60269044Y-21732755D01*
X60340226Y-21803937D01*
G36*
X55988998Y-23863199D02*
G01*
X55960000Y-23886997D01*
X55936202Y-23915995D01*
X55936201Y-23915996D01*
X55865026Y-24002722D01*
X55794454Y-24134752D01*
X55750998Y-24278013D01*
X55736324Y-24426998D01*
X55740001Y-24464330D01*
X55740000Y-26611928D01*
X55500000Y-26611928D01*
X55375518Y-26624188D01*
X55255820Y-26660498D01*
X55145506Y-26719463D01*
X55120482Y-26740000D01*
X51879518Y-26740000D01*
X51854494Y-26719463D01*
X51744180Y-26660498D01*
X51624482Y-26624188D01*
X51500000Y-26611928D01*
X50627871Y-26611928D01*
X55979800Y-21260000D01*
X58592197Y-21260000D01*
X55988998Y-23863199D01*
G37*
X55988998Y-23863199D02*
X55960000Y-23886997D01*
X55936202Y-23915995D01*
X55936201Y-23915996D01*
X55865026Y-24002722D01*
X55794454Y-24134752D01*
X55750998Y-24278013D01*
X55736324Y-24426998D01*
X55740001Y-24464330D01*
X55740000Y-26611928D01*
X55500000Y-26611928D01*
X55375518Y-26624188D01*
X55255820Y-26660498D01*
X55145506Y-26719463D01*
X55120482Y-26740000D01*
X51879518Y-26740000D01*
X51854494Y-26719463D01*
X51744180Y-26660498D01*
X51624482Y-26624188D01*
X51500000Y-26611928D01*
X50627871Y-26611928D01*
X55979800Y-21260000D01*
X58592197Y-21260000D01*
X55988998Y-23863199D01*
G36*
X54994455Y-18030744D02*
G01*
X54859774Y-17896063D01*
X54690256Y-17782795D01*
X54501898Y-17704774D01*
X54301939Y-17665000D01*
X54098061Y-17665000D01*
X53898102Y-17704774D01*
X53709744Y-17782795D01*
X53540226Y-17896063D01*
X53396063Y-18040226D01*
X53282795Y-18209744D01*
X53204774Y-18398102D01*
X53165000Y-18598061D01*
X53165000Y-18660198D01*
X46560000Y-25265199D01*
X46560000Y-22587803D01*
X49011003Y-20136801D01*
X49040001Y-20113003D01*
X49134974Y-19997278D01*
X49205546Y-19865249D01*
X49249003Y-19721988D01*
X49260000Y-19610335D01*
X49263677Y-19573002D01*
X49260000Y-19535669D01*
X49260000Y-14203711D01*
X49303937Y-14159774D01*
X49417205Y-13990256D01*
X49495226Y-13801898D01*
X49535000Y-13601939D01*
X49535000Y-13539801D01*
X49939803Y-13134999D01*
X59890199Y-13134999D01*
X54994455Y-18030744D01*
G37*
X54994455Y-18030744D02*
X54859774Y-17896063D01*
X54690256Y-17782795D01*
X54501898Y-17704774D01*
X54301939Y-17665000D01*
X54098061Y-17665000D01*
X53898102Y-17704774D01*
X53709744Y-17782795D01*
X53540226Y-17896063D01*
X53396063Y-18040226D01*
X53282795Y-18209744D01*
X53204774Y-18398102D01*
X53165000Y-18598061D01*
X53165000Y-18660198D01*
X46560000Y-25265199D01*
X46560000Y-22587803D01*
X49011003Y-20136801D01*
X49040001Y-20113003D01*
X49134974Y-19997278D01*
X49205546Y-19865249D01*
X49249003Y-19721988D01*
X49260000Y-19610335D01*
X49263677Y-19573002D01*
X49260000Y-19535669D01*
X49260000Y-14203711D01*
X49303937Y-14159774D01*
X49417205Y-13990256D01*
X49495226Y-13801898D01*
X49535000Y-13601939D01*
X49535000Y-13539801D01*
X49939803Y-13134999D01*
X59890199Y-13134999D01*
X54994455Y-18030744D01*
G36*
X63940226Y-13203937D02*
G01*
X64109744Y-13317205D01*
X64298102Y-13395226D01*
X64498061Y-13435000D01*
X64701939Y-13435000D01*
X64901898Y-13395226D01*
X65090256Y-13317205D01*
X65259774Y-13203937D01*
X65303711Y-13160000D01*
X69158201Y-13160000D01*
X74238200Y-18240000D01*
X61964320Y-18240000D01*
X61926997Y-18236324D01*
X61889674Y-18240000D01*
X61889665Y-18240000D01*
X61778012Y-18250997D01*
X61634751Y-18294454D01*
X61502722Y-18365026D01*
X61386997Y-18459999D01*
X61363199Y-18488997D01*
X60057954Y-19794243D01*
X59959774Y-19696063D01*
X59790256Y-19582795D01*
X59601898Y-19504774D01*
X59401939Y-19465000D01*
X59198061Y-19465000D01*
X58998102Y-19504774D01*
X58809744Y-19582795D01*
X58640226Y-19696063D01*
X58596289Y-19740000D01*
X55702321Y-19740000D01*
X55664998Y-19736324D01*
X55627675Y-19740000D01*
X55627665Y-19740000D01*
X55516012Y-19750997D01*
X55383655Y-19791146D01*
X61039802Y-14135000D01*
X61101939Y-14135000D01*
X61301898Y-14095226D01*
X61490256Y-14017205D01*
X61659774Y-13903937D01*
X61803937Y-13759774D01*
X61917205Y-13590256D01*
X61995226Y-13401898D01*
X62035000Y-13201939D01*
X62035000Y-13134999D01*
X63871288Y-13134999D01*
X63940226Y-13203937D01*
G37*
X63940226Y-13203937D02*
X64109744Y-13317205D01*
X64298102Y-13395226D01*
X64498061Y-13435000D01*
X64701939Y-13435000D01*
X64901898Y-13395226D01*
X65090256Y-13317205D01*
X65259774Y-13203937D01*
X65303711Y-13160000D01*
X69158201Y-13160000D01*
X74238200Y-18240000D01*
X61964320Y-18240000D01*
X61926997Y-18236324D01*
X61889674Y-18240000D01*
X61889665Y-18240000D01*
X61778012Y-18250997D01*
X61634751Y-18294454D01*
X61502722Y-18365026D01*
X61386997Y-18459999D01*
X61363199Y-18488997D01*
X60057954Y-19794243D01*
X59959774Y-19696063D01*
X59790256Y-19582795D01*
X59601898Y-19504774D01*
X59401939Y-19465000D01*
X59198061Y-19465000D01*
X58998102Y-19504774D01*
X58809744Y-19582795D01*
X58640226Y-19696063D01*
X58596289Y-19740000D01*
X55702321Y-19740000D01*
X55664998Y-19736324D01*
X55627675Y-19740000D01*
X55627665Y-19740000D01*
X55516012Y-19750997D01*
X55383655Y-19791146D01*
X61039802Y-14135000D01*
X61101939Y-14135000D01*
X61301898Y-14095226D01*
X61490256Y-14017205D01*
X61659774Y-13903937D01*
X61803937Y-13759774D01*
X61917205Y-13590256D01*
X61995226Y-13401898D01*
X62035000Y-13201939D01*
X62035000Y-13134999D01*
X63871288Y-13134999D01*
X63940226Y-13203937D01*
M02*
