M48
; DRILL file {KiCad 5.1.5-52549c5~84~ubuntu18.04.1} date Tue Mar 10 18:12:49 2020
; FORMAT={-:-/ absolute / inch / decimal}
; #@! TF.CreationDate,2020-03-10T18:12:49+05:30
; #@! TF.GenerationSoftware,Kicad,Pcbnew,5.1.5-52549c5~84~ubuntu18.04.1
FMAT,2
INCH
T1C0.0157
T2C0.0197
T3C0.0295
T4C0.0315
T5C0.0394
T6C0.1063
%
G90
G05
T1
X1.0433Y-0.5315
X1.378Y-1.0984
X1.4055Y-1.3307
X1.4606Y-1.0945
X1.4606Y-1.1378
X1.5276Y-1.7717
X1.5276Y-1.8031
X1.5354Y-0.5315
X1.5472Y-1.0984
X1.5591Y-1.3307
X1.5591Y-1.7717
X1.5591Y-1.8031
X1.5787Y-1.2323
X1.5787Y-1.2638
X1.622Y-1.0157
X1.6929Y-1.7717
X1.6929Y-1.8031
X1.7126Y-1.4567
X1.7126Y-1.6339
X1.7126Y-1.6929
X1.7244Y-1.7717
X1.7244Y-1.8031
X1.811Y-1.5354
X1.8396Y-1.2912
X1.8426Y-1.2519
X1.8504Y-1.063
X1.8862Y-1.2149
X1.9094Y-0.4488
X1.9094Y-0.5315
X1.9094Y-1.4567
X1.9094Y-1.6339
X1.9213Y-0.8071
X1.9252Y-1.2205
X2.0039Y-1.0433
X2.0354Y-1.3465
X2.0551Y-1.8031
X2.0669Y-1.315
X2.0669Y-1.3465
X2.0827Y-0.7362
X2.0866Y-1.8031
X2.1339Y-0.7362
X2.2008Y-0.5551
X2.2362Y-0.8622
X2.3346Y-0.8071
X2.3583Y-1.4449
X2.3622Y-0.9055
X2.3819Y-0.4409
X2.4016Y-0.5157
X2.4016Y-0.8268
X2.4094Y-1.1811
X2.4134Y-1.2283
X2.5118Y-0.622
X2.5433Y-0.4882
X2.5709Y-0.8583
X2.7638Y-1.0669
X2.9252Y-1.1811
X2.9528Y-0.748
X2.9764Y-1.5354
T2
X2.9882Y-1.0374
X2.9882Y-1.2264
T3
X2.4409Y-1.7559
X2.5197Y-1.7559
X2.5984Y-1.7559
X2.6772Y-1.7559
X3.0709Y-0.748
X3.0709Y-0.8268
T4
X2.126Y-1.6339
X2.126Y-1.7126
X2.2047Y-1.6339
X2.2047Y-1.7126
X2.2835Y-1.6339
X2.2835Y-1.7126
X2.0984Y-1.5118
X2.1772Y-1.5118
X2.2559Y-1.5118
X2.3346Y-1.5118
T5
X3.0945Y-0.9902
X3.0945Y-1.2736
T6
X3.0315Y-0.5118
X0.5118Y-1.8504
X3.0315Y-1.8504
X0.5118Y-0.5118
T0
M30
