G04 #@! TF.GenerationSoftware,KiCad,Pcbnew,5.1.5-52549c5~84~ubuntu18.04.1*
G04 #@! TF.CreationDate,2020-03-10T15:08:56+05:30*
G04 #@! TF.ProjectId,scale_ltc6915,7363616c-655f-46c7-9463-363931352e6b,rev?*
G04 #@! TF.SameCoordinates,Original*
G04 #@! TF.FileFunction,Soldermask,Bot*
G04 #@! TF.FilePolarity,Negative*
%FSLAX46Y46*%
G04 Gerber Fmt 4.6, Leading zero omitted, Abs format (unit mm)*
G04 Created by KiCad (PCBNEW 5.1.5-52549c5~84~ubuntu18.04.1) date 2020-03-10 15:08:56*
%MOMM*%
%LPD*%
G04 APERTURE LIST*
%ADD10C,0.100000*%
G04 APERTURE END LIST*
D10*
G36*
X77318433Y-45634893D02*
G01*
X77408657Y-45652839D01*
X77514267Y-45696585D01*
X77663621Y-45758449D01*
X77675284Y-45766242D01*
X77893086Y-45911772D01*
X78088228Y-46106914D01*
X78149156Y-46198100D01*
X78241551Y-46336379D01*
X78347161Y-46591344D01*
X78401000Y-46862012D01*
X78401000Y-47137988D01*
X78347161Y-47408656D01*
X78241551Y-47663621D01*
X78241550Y-47663622D01*
X78088228Y-47893086D01*
X77893086Y-48088228D01*
X77739763Y-48190675D01*
X77663621Y-48241551D01*
X77514267Y-48303415D01*
X77408657Y-48347161D01*
X77318433Y-48365107D01*
X77137988Y-48401000D01*
X76862012Y-48401000D01*
X76681567Y-48365107D01*
X76591343Y-48347161D01*
X76485733Y-48303415D01*
X76336379Y-48241551D01*
X76260237Y-48190675D01*
X76106914Y-48088228D01*
X75911772Y-47893086D01*
X75758450Y-47663622D01*
X75758449Y-47663621D01*
X75652839Y-47408656D01*
X75599000Y-47137988D01*
X75599000Y-46862012D01*
X75652839Y-46591344D01*
X75758449Y-46336379D01*
X75850844Y-46198100D01*
X75911772Y-46106914D01*
X76106914Y-45911772D01*
X76324716Y-45766242D01*
X76336379Y-45758449D01*
X76485733Y-45696585D01*
X76591343Y-45652839D01*
X76681567Y-45634893D01*
X76862012Y-45599000D01*
X77137988Y-45599000D01*
X77318433Y-45634893D01*
G37*
G36*
X13318433Y-45634893D02*
G01*
X13408657Y-45652839D01*
X13514267Y-45696585D01*
X13663621Y-45758449D01*
X13675284Y-45766242D01*
X13893086Y-45911772D01*
X14088228Y-46106914D01*
X14149156Y-46198100D01*
X14241551Y-46336379D01*
X14347161Y-46591344D01*
X14401000Y-46862012D01*
X14401000Y-47137988D01*
X14347161Y-47408656D01*
X14241551Y-47663621D01*
X14241550Y-47663622D01*
X14088228Y-47893086D01*
X13893086Y-48088228D01*
X13739763Y-48190675D01*
X13663621Y-48241551D01*
X13514267Y-48303415D01*
X13408657Y-48347161D01*
X13318433Y-48365107D01*
X13137988Y-48401000D01*
X12862012Y-48401000D01*
X12681567Y-48365107D01*
X12591343Y-48347161D01*
X12485733Y-48303415D01*
X12336379Y-48241551D01*
X12260237Y-48190675D01*
X12106914Y-48088228D01*
X11911772Y-47893086D01*
X11758450Y-47663622D01*
X11758449Y-47663621D01*
X11652839Y-47408656D01*
X11599000Y-47137988D01*
X11599000Y-46862012D01*
X11652839Y-46591344D01*
X11758449Y-46336379D01*
X11850844Y-46198100D01*
X11911772Y-46106914D01*
X12106914Y-45911772D01*
X12324716Y-45766242D01*
X12336379Y-45758449D01*
X12485733Y-45696585D01*
X12591343Y-45652839D01*
X12681567Y-45634893D01*
X12862012Y-45599000D01*
X13137988Y-45599000D01*
X13318433Y-45634893D01*
G37*
G36*
X51601000Y-46301000D02*
G01*
X49899000Y-46301000D01*
X49899000Y-35499000D01*
X51601000Y-35499000D01*
X51601000Y-46301000D01*
G37*
G36*
X42101000Y-46301000D02*
G01*
X40399000Y-46301000D01*
X40399000Y-45299000D01*
X42101000Y-45299000D01*
X42101000Y-46301000D01*
G37*
G36*
X57211766Y-44801899D02*
G01*
X57343888Y-44856626D01*
X57343890Y-44856627D01*
X57462798Y-44936079D01*
X57563921Y-45037202D01*
X57563922Y-45037204D01*
X57643374Y-45156112D01*
X57698101Y-45288234D01*
X57726000Y-45428494D01*
X57726000Y-45571506D01*
X57698101Y-45711766D01*
X57659296Y-45805449D01*
X57643373Y-45843890D01*
X57563921Y-45962798D01*
X57462798Y-46063921D01*
X57343890Y-46143373D01*
X57343889Y-46143374D01*
X57343888Y-46143374D01*
X57211766Y-46198101D01*
X57071506Y-46226000D01*
X56928494Y-46226000D01*
X56788234Y-46198101D01*
X56656112Y-46143374D01*
X56656111Y-46143374D01*
X56656110Y-46143373D01*
X56537202Y-46063921D01*
X56436079Y-45962798D01*
X56356627Y-45843890D01*
X56340704Y-45805449D01*
X56301899Y-45711766D01*
X56274000Y-45571506D01*
X56274000Y-45428494D01*
X56301899Y-45288234D01*
X56356626Y-45156112D01*
X56436078Y-45037204D01*
X56436079Y-45037202D01*
X56537202Y-44936079D01*
X56656110Y-44856627D01*
X56656112Y-44856626D01*
X56788234Y-44801899D01*
X56928494Y-44774000D01*
X57071506Y-44774000D01*
X57211766Y-44801899D01*
G37*
G36*
X55726000Y-46226000D02*
G01*
X54274000Y-46226000D01*
X54274000Y-44774000D01*
X55726000Y-44774000D01*
X55726000Y-46226000D01*
G37*
G36*
X66627618Y-44083420D02*
G01*
X66708400Y-44107925D01*
X66750336Y-44120646D01*
X66863425Y-44181094D01*
X66962554Y-44262446D01*
X67043906Y-44361575D01*
X67104354Y-44474664D01*
X67104355Y-44474668D01*
X67141580Y-44597382D01*
X67151000Y-44693027D01*
X67151000Y-45306973D01*
X67141580Y-45402618D01*
X67133730Y-45428495D01*
X67104354Y-45525336D01*
X67043906Y-45638425D01*
X66962554Y-45737553D01*
X66863424Y-45818906D01*
X66750335Y-45879354D01*
X66718403Y-45889040D01*
X66627617Y-45916580D01*
X66500000Y-45929149D01*
X66372382Y-45916580D01*
X66281596Y-45889040D01*
X66249664Y-45879354D01*
X66136575Y-45818906D01*
X66037447Y-45737554D01*
X65956094Y-45638424D01*
X65895646Y-45525335D01*
X65866270Y-45428494D01*
X65858420Y-45402617D01*
X65849000Y-45306972D01*
X65849000Y-44693027D01*
X65858420Y-44597382D01*
X65895645Y-44474668D01*
X65895645Y-44474667D01*
X65927957Y-44414217D01*
X65956095Y-44361574D01*
X65969493Y-44345249D01*
X66037447Y-44262446D01*
X66136576Y-44181094D01*
X66249665Y-44120646D01*
X66291601Y-44107925D01*
X66372383Y-44083420D01*
X66500000Y-44070851D01*
X66627618Y-44083420D01*
G37*
G36*
X62627618Y-44083420D02*
G01*
X62708400Y-44107925D01*
X62750336Y-44120646D01*
X62863425Y-44181094D01*
X62962554Y-44262446D01*
X63043906Y-44361575D01*
X63104354Y-44474664D01*
X63104355Y-44474668D01*
X63141580Y-44597382D01*
X63151000Y-44693027D01*
X63151000Y-45306973D01*
X63141580Y-45402618D01*
X63133730Y-45428495D01*
X63104354Y-45525336D01*
X63043906Y-45638425D01*
X62962554Y-45737553D01*
X62863424Y-45818906D01*
X62750335Y-45879354D01*
X62718403Y-45889040D01*
X62627617Y-45916580D01*
X62500000Y-45929149D01*
X62372382Y-45916580D01*
X62281596Y-45889040D01*
X62249664Y-45879354D01*
X62136575Y-45818906D01*
X62037447Y-45737554D01*
X61956094Y-45638424D01*
X61895646Y-45525335D01*
X61866270Y-45428494D01*
X61858420Y-45402617D01*
X61849000Y-45306972D01*
X61849000Y-44693027D01*
X61858420Y-44597382D01*
X61895645Y-44474668D01*
X61895645Y-44474667D01*
X61927957Y-44414217D01*
X61956095Y-44361574D01*
X61969493Y-44345249D01*
X62037447Y-44262446D01*
X62136576Y-44181094D01*
X62249665Y-44120646D01*
X62291601Y-44107925D01*
X62372383Y-44083420D01*
X62500000Y-44070851D01*
X62627618Y-44083420D01*
G37*
G36*
X64627618Y-44083420D02*
G01*
X64708400Y-44107925D01*
X64750336Y-44120646D01*
X64863425Y-44181094D01*
X64962554Y-44262446D01*
X65043906Y-44361575D01*
X65104354Y-44474664D01*
X65104355Y-44474668D01*
X65141580Y-44597382D01*
X65151000Y-44693027D01*
X65151000Y-45306973D01*
X65141580Y-45402618D01*
X65133730Y-45428495D01*
X65104354Y-45525336D01*
X65043906Y-45638425D01*
X64962554Y-45737553D01*
X64863424Y-45818906D01*
X64750335Y-45879354D01*
X64718403Y-45889040D01*
X64627617Y-45916580D01*
X64500000Y-45929149D01*
X64372382Y-45916580D01*
X64281596Y-45889040D01*
X64249664Y-45879354D01*
X64136575Y-45818906D01*
X64037447Y-45737554D01*
X63956094Y-45638424D01*
X63895646Y-45525335D01*
X63866270Y-45428494D01*
X63858420Y-45402617D01*
X63849000Y-45306972D01*
X63849000Y-44693027D01*
X63858420Y-44597382D01*
X63895645Y-44474668D01*
X63895645Y-44474667D01*
X63927957Y-44414217D01*
X63956095Y-44361574D01*
X63969493Y-44345249D01*
X64037447Y-44262446D01*
X64136576Y-44181094D01*
X64249665Y-44120646D01*
X64291601Y-44107925D01*
X64372383Y-44083420D01*
X64500000Y-44070851D01*
X64627618Y-44083420D01*
G37*
G36*
X68991242Y-44078404D02*
G01*
X69028337Y-44089657D01*
X69062515Y-44107925D01*
X69092481Y-44132519D01*
X69117075Y-44162485D01*
X69135343Y-44196663D01*
X69146596Y-44233758D01*
X69151000Y-44278474D01*
X69151000Y-45721526D01*
X69146596Y-45766242D01*
X69135343Y-45803337D01*
X69117075Y-45837515D01*
X69092481Y-45867481D01*
X69062515Y-45892075D01*
X69028337Y-45910343D01*
X68991242Y-45921596D01*
X68946526Y-45926000D01*
X68053474Y-45926000D01*
X68008758Y-45921596D01*
X67971663Y-45910343D01*
X67937485Y-45892075D01*
X67907519Y-45867481D01*
X67882925Y-45837515D01*
X67864657Y-45803337D01*
X67853404Y-45766242D01*
X67849000Y-45721526D01*
X67849000Y-44278474D01*
X67853404Y-44233758D01*
X67864657Y-44196663D01*
X67882925Y-44162485D01*
X67907519Y-44132519D01*
X67937485Y-44107925D01*
X67971663Y-44089657D01*
X68008758Y-44078404D01*
X68053474Y-44074000D01*
X68946526Y-44074000D01*
X68991242Y-44078404D01*
G37*
G36*
X49551000Y-45551000D02*
G01*
X48249000Y-45551000D01*
X48249000Y-44949000D01*
X49551000Y-44949000D01*
X49551000Y-45551000D01*
G37*
G36*
X57211766Y-42801899D02*
G01*
X57343888Y-42856626D01*
X57343890Y-42856627D01*
X57462798Y-42936079D01*
X57563921Y-43037202D01*
X57643373Y-43156110D01*
X57643374Y-43156112D01*
X57698101Y-43288234D01*
X57726000Y-43428494D01*
X57726000Y-43571506D01*
X57698101Y-43711766D01*
X57643374Y-43843888D01*
X57643373Y-43843890D01*
X57563921Y-43962798D01*
X57462798Y-44063921D01*
X57343890Y-44143373D01*
X57343889Y-44143374D01*
X57343888Y-44143374D01*
X57211766Y-44198101D01*
X57071506Y-44226000D01*
X56928494Y-44226000D01*
X56788234Y-44198101D01*
X56656112Y-44143374D01*
X56656111Y-44143374D01*
X56656110Y-44143373D01*
X56537202Y-44063921D01*
X56436079Y-43962798D01*
X56356627Y-43843890D01*
X56356626Y-43843888D01*
X56301899Y-43711766D01*
X56274000Y-43571506D01*
X56274000Y-43428494D01*
X56301899Y-43288234D01*
X56356626Y-43156112D01*
X56356627Y-43156110D01*
X56436079Y-43037202D01*
X56537202Y-42936079D01*
X56656110Y-42856627D01*
X56656112Y-42856626D01*
X56788234Y-42801899D01*
X56928494Y-42774000D01*
X57071506Y-42774000D01*
X57211766Y-42801899D01*
G37*
G36*
X55211766Y-42801899D02*
G01*
X55343888Y-42856626D01*
X55343890Y-42856627D01*
X55462798Y-42936079D01*
X55563921Y-43037202D01*
X55643373Y-43156110D01*
X55643374Y-43156112D01*
X55698101Y-43288234D01*
X55726000Y-43428494D01*
X55726000Y-43571506D01*
X55698101Y-43711766D01*
X55643374Y-43843888D01*
X55643373Y-43843890D01*
X55563921Y-43962798D01*
X55462798Y-44063921D01*
X55343890Y-44143373D01*
X55343889Y-44143374D01*
X55343888Y-44143374D01*
X55211766Y-44198101D01*
X55071506Y-44226000D01*
X54928494Y-44226000D01*
X54788234Y-44198101D01*
X54656112Y-44143374D01*
X54656111Y-44143374D01*
X54656110Y-44143373D01*
X54537202Y-44063921D01*
X54436079Y-43962798D01*
X54356627Y-43843890D01*
X54356626Y-43843888D01*
X54301899Y-43711766D01*
X54274000Y-43571506D01*
X54274000Y-43428494D01*
X54301899Y-43288234D01*
X54356626Y-43156112D01*
X54356627Y-43156110D01*
X54436079Y-43037202D01*
X54537202Y-42936079D01*
X54656110Y-42856627D01*
X54656112Y-42856626D01*
X54788234Y-42801899D01*
X54928494Y-42774000D01*
X55071506Y-42774000D01*
X55211766Y-42801899D01*
G37*
G36*
X49551000Y-44151000D02*
G01*
X48249000Y-44151000D01*
X48249000Y-43549000D01*
X49551000Y-43549000D01*
X49551000Y-44151000D01*
G37*
G36*
X42101000Y-43101000D02*
G01*
X40399000Y-43101000D01*
X40399000Y-36199000D01*
X42101000Y-36199000D01*
X42101000Y-43101000D01*
G37*
G36*
X57211766Y-40801899D02*
G01*
X57343888Y-40856626D01*
X57343890Y-40856627D01*
X57462798Y-40936079D01*
X57563921Y-41037202D01*
X57563922Y-41037204D01*
X57643374Y-41156112D01*
X57698101Y-41288234D01*
X57726000Y-41428494D01*
X57726000Y-41571506D01*
X57698101Y-41711766D01*
X57643374Y-41843888D01*
X57643373Y-41843890D01*
X57563921Y-41962798D01*
X57462798Y-42063921D01*
X57343890Y-42143373D01*
X57343889Y-42143374D01*
X57343888Y-42143374D01*
X57211766Y-42198101D01*
X57071506Y-42226000D01*
X56928494Y-42226000D01*
X56788234Y-42198101D01*
X56656112Y-42143374D01*
X56656111Y-42143374D01*
X56656110Y-42143373D01*
X56537202Y-42063921D01*
X56436079Y-41962798D01*
X56356627Y-41843890D01*
X56356626Y-41843888D01*
X56301899Y-41711766D01*
X56274000Y-41571506D01*
X56274000Y-41428494D01*
X56301899Y-41288234D01*
X56356626Y-41156112D01*
X56436078Y-41037204D01*
X56436079Y-41037202D01*
X56537202Y-40936079D01*
X56656110Y-40856627D01*
X56656112Y-40856626D01*
X56788234Y-40801899D01*
X56928494Y-40774000D01*
X57071506Y-40774000D01*
X57211766Y-40801899D01*
G37*
G36*
X55211766Y-40801899D02*
G01*
X55343888Y-40856626D01*
X55343890Y-40856627D01*
X55462798Y-40936079D01*
X55563921Y-41037202D01*
X55563922Y-41037204D01*
X55643374Y-41156112D01*
X55698101Y-41288234D01*
X55726000Y-41428494D01*
X55726000Y-41571506D01*
X55698101Y-41711766D01*
X55643374Y-41843888D01*
X55643373Y-41843890D01*
X55563921Y-41962798D01*
X55462798Y-42063921D01*
X55343890Y-42143373D01*
X55343889Y-42143374D01*
X55343888Y-42143374D01*
X55211766Y-42198101D01*
X55071506Y-42226000D01*
X54928494Y-42226000D01*
X54788234Y-42198101D01*
X54656112Y-42143374D01*
X54656111Y-42143374D01*
X54656110Y-42143373D01*
X54537202Y-42063921D01*
X54436079Y-41962798D01*
X54356627Y-41843890D01*
X54356626Y-41843888D01*
X54301899Y-41711766D01*
X54274000Y-41571506D01*
X54274000Y-41428494D01*
X54301899Y-41288234D01*
X54356626Y-41156112D01*
X54436078Y-41037204D01*
X54436079Y-41037202D01*
X54537202Y-40936079D01*
X54656110Y-40856627D01*
X54656112Y-40856626D01*
X54788234Y-40801899D01*
X54928494Y-40774000D01*
X55071506Y-40774000D01*
X55211766Y-40801899D01*
G37*
G36*
X74894928Y-39951764D02*
G01*
X74916009Y-39958160D01*
X74935445Y-39968548D01*
X74952476Y-39982524D01*
X74966452Y-39999555D01*
X74976840Y-40018991D01*
X74983236Y-40040072D01*
X74986000Y-40068140D01*
X74986000Y-41881860D01*
X74983236Y-41909928D01*
X74976840Y-41931009D01*
X74966452Y-41950445D01*
X74952476Y-41967476D01*
X74935445Y-41981452D01*
X74916009Y-41991840D01*
X74894928Y-41998236D01*
X74866860Y-42001000D01*
X74403140Y-42001000D01*
X74375072Y-41998236D01*
X74353991Y-41991840D01*
X74334555Y-41981452D01*
X74317524Y-41967476D01*
X74303548Y-41950445D01*
X74293160Y-41931009D01*
X74286764Y-41909928D01*
X74284000Y-41881860D01*
X74284000Y-40068140D01*
X74286764Y-40040072D01*
X74293160Y-40018991D01*
X74303548Y-39999555D01*
X74317524Y-39982524D01*
X74334555Y-39968548D01*
X74353991Y-39958160D01*
X74375072Y-39951764D01*
X74403140Y-39949000D01*
X74866860Y-39949000D01*
X74894928Y-39951764D01*
G37*
G36*
X76164928Y-39951764D02*
G01*
X76186009Y-39958160D01*
X76205445Y-39968548D01*
X76222476Y-39982524D01*
X76236452Y-39999555D01*
X76246840Y-40018991D01*
X76253236Y-40040072D01*
X76256000Y-40068140D01*
X76256000Y-41881860D01*
X76253236Y-41909928D01*
X76246840Y-41931009D01*
X76236452Y-41950445D01*
X76222476Y-41967476D01*
X76205445Y-41981452D01*
X76186009Y-41991840D01*
X76164928Y-41998236D01*
X76136860Y-42001000D01*
X75673140Y-42001000D01*
X75645072Y-41998236D01*
X75623991Y-41991840D01*
X75604555Y-41981452D01*
X75587524Y-41967476D01*
X75573548Y-41950445D01*
X75563160Y-41931009D01*
X75556764Y-41909928D01*
X75554000Y-41881860D01*
X75554000Y-40068140D01*
X75556764Y-40040072D01*
X75563160Y-40018991D01*
X75573548Y-39999555D01*
X75587524Y-39982524D01*
X75604555Y-39968548D01*
X75623991Y-39958160D01*
X75645072Y-39951764D01*
X75673140Y-39949000D01*
X76136860Y-39949000D01*
X76164928Y-39951764D01*
G37*
G36*
X73624928Y-39951764D02*
G01*
X73646009Y-39958160D01*
X73665445Y-39968548D01*
X73682476Y-39982524D01*
X73696452Y-39999555D01*
X73706840Y-40018991D01*
X73713236Y-40040072D01*
X73716000Y-40068140D01*
X73716000Y-41881860D01*
X73713236Y-41909928D01*
X73706840Y-41931009D01*
X73696452Y-41950445D01*
X73682476Y-41967476D01*
X73665445Y-41981452D01*
X73646009Y-41991840D01*
X73624928Y-41998236D01*
X73596860Y-42001000D01*
X73133140Y-42001000D01*
X73105072Y-41998236D01*
X73083991Y-41991840D01*
X73064555Y-41981452D01*
X73047524Y-41967476D01*
X73033548Y-41950445D01*
X73023160Y-41931009D01*
X73016764Y-41909928D01*
X73014000Y-41881860D01*
X73014000Y-40068140D01*
X73016764Y-40040072D01*
X73023160Y-40018991D01*
X73033548Y-39999555D01*
X73047524Y-39982524D01*
X73064555Y-39968548D01*
X73083991Y-39958160D01*
X73105072Y-39951764D01*
X73133140Y-39949000D01*
X73596860Y-39949000D01*
X73624928Y-39951764D01*
G37*
G36*
X72354928Y-39951764D02*
G01*
X72376009Y-39958160D01*
X72395445Y-39968548D01*
X72412476Y-39982524D01*
X72426452Y-39999555D01*
X72436840Y-40018991D01*
X72443236Y-40040072D01*
X72446000Y-40068140D01*
X72446000Y-41881860D01*
X72443236Y-41909928D01*
X72436840Y-41931009D01*
X72426452Y-41950445D01*
X72412476Y-41967476D01*
X72395445Y-41981452D01*
X72376009Y-41991840D01*
X72354928Y-41998236D01*
X72326860Y-42001000D01*
X71863140Y-42001000D01*
X71835072Y-41998236D01*
X71813991Y-41991840D01*
X71794555Y-41981452D01*
X71777524Y-41967476D01*
X71763548Y-41950445D01*
X71753160Y-41931009D01*
X71746764Y-41909928D01*
X71744000Y-41881860D01*
X71744000Y-40068140D01*
X71746764Y-40040072D01*
X71753160Y-40018991D01*
X71763548Y-39999555D01*
X71777524Y-39982524D01*
X71794555Y-39968548D01*
X71813991Y-39958160D01*
X71835072Y-39951764D01*
X71863140Y-39949000D01*
X72326860Y-39949000D01*
X72354928Y-39951764D01*
G37*
G36*
X68673500Y-41751000D02*
G01*
X63726500Y-41751000D01*
X63726500Y-40449000D01*
X68673500Y-40449000D01*
X68673500Y-41751000D01*
G37*
G36*
X77864499Y-38803445D02*
G01*
X77901995Y-38814820D01*
X77936554Y-38833292D01*
X77966847Y-38858153D01*
X77991708Y-38888446D01*
X78010180Y-38923005D01*
X78021555Y-38960501D01*
X78026000Y-39005638D01*
X78026000Y-39744362D01*
X78021555Y-39789499D01*
X78010180Y-39826995D01*
X77991708Y-39861554D01*
X77966847Y-39891847D01*
X77936554Y-39916708D01*
X77901995Y-39935180D01*
X77864499Y-39946555D01*
X77819362Y-39951000D01*
X77180638Y-39951000D01*
X77135501Y-39946555D01*
X77098005Y-39935180D01*
X77063446Y-39916708D01*
X77033153Y-39891847D01*
X77008292Y-39861554D01*
X76989820Y-39826995D01*
X76978445Y-39789499D01*
X76974000Y-39744362D01*
X76974000Y-39005638D01*
X76978445Y-38960501D01*
X76989820Y-38923005D01*
X77008292Y-38888446D01*
X77033153Y-38858153D01*
X77063446Y-38833292D01*
X77098005Y-38814820D01*
X77135501Y-38803445D01*
X77180638Y-38799000D01*
X77819362Y-38799000D01*
X77864499Y-38803445D01*
G37*
G36*
X37054591Y-38228085D02*
G01*
X37088569Y-38238393D01*
X37119890Y-38255134D01*
X37147339Y-38277661D01*
X37169866Y-38305110D01*
X37186607Y-38336431D01*
X37196915Y-38370409D01*
X37201000Y-38411890D01*
X37201000Y-39088110D01*
X37196915Y-39129591D01*
X37186607Y-39163569D01*
X37169866Y-39194890D01*
X37147339Y-39222339D01*
X37119890Y-39244866D01*
X37088569Y-39261607D01*
X37054591Y-39271915D01*
X37013110Y-39276000D01*
X36411890Y-39276000D01*
X36370409Y-39271915D01*
X36336431Y-39261607D01*
X36305110Y-39244866D01*
X36277661Y-39222339D01*
X36255134Y-39194890D01*
X36238393Y-39163569D01*
X36228085Y-39129591D01*
X36224000Y-39088110D01*
X36224000Y-38411890D01*
X36228085Y-38370409D01*
X36238393Y-38336431D01*
X36255134Y-38305110D01*
X36277661Y-38277661D01*
X36305110Y-38255134D01*
X36336431Y-38238393D01*
X36370409Y-38228085D01*
X36411890Y-38224000D01*
X37013110Y-38224000D01*
X37054591Y-38228085D01*
G37*
G36*
X38629591Y-38228085D02*
G01*
X38663569Y-38238393D01*
X38694890Y-38255134D01*
X38722339Y-38277661D01*
X38744866Y-38305110D01*
X38761607Y-38336431D01*
X38771915Y-38370409D01*
X38776000Y-38411890D01*
X38776000Y-39088110D01*
X38771915Y-39129591D01*
X38761607Y-39163569D01*
X38744866Y-39194890D01*
X38722339Y-39222339D01*
X38694890Y-39244866D01*
X38663569Y-39261607D01*
X38629591Y-39271915D01*
X38588110Y-39276000D01*
X37986890Y-39276000D01*
X37945409Y-39271915D01*
X37911431Y-39261607D01*
X37880110Y-39244866D01*
X37852661Y-39222339D01*
X37830134Y-39194890D01*
X37813393Y-39163569D01*
X37803085Y-39129591D01*
X37799000Y-39088110D01*
X37799000Y-38411890D01*
X37803085Y-38370409D01*
X37813393Y-38336431D01*
X37830134Y-38305110D01*
X37852661Y-38277661D01*
X37880110Y-38255134D01*
X37911431Y-38238393D01*
X37945409Y-38228085D01*
X37986890Y-38224000D01*
X38588110Y-38224000D01*
X38629591Y-38228085D01*
G37*
G36*
X77864499Y-37053445D02*
G01*
X77901995Y-37064820D01*
X77936554Y-37083292D01*
X77966847Y-37108153D01*
X77991708Y-37138446D01*
X78010180Y-37173005D01*
X78021555Y-37210501D01*
X78026000Y-37255638D01*
X78026000Y-37994362D01*
X78021555Y-38039499D01*
X78010180Y-38076995D01*
X77991708Y-38111554D01*
X77966847Y-38141847D01*
X77936554Y-38166708D01*
X77901995Y-38185180D01*
X77864499Y-38196555D01*
X77819362Y-38201000D01*
X77180638Y-38201000D01*
X77135501Y-38196555D01*
X77098005Y-38185180D01*
X77063446Y-38166708D01*
X77033153Y-38141847D01*
X77008292Y-38111554D01*
X76989820Y-38076995D01*
X76978445Y-38039499D01*
X76974000Y-37994362D01*
X76974000Y-37255638D01*
X76978445Y-37210501D01*
X76989820Y-37173005D01*
X77008292Y-37138446D01*
X77033153Y-37108153D01*
X77063446Y-37083292D01*
X77098005Y-37064820D01*
X77135501Y-37053445D01*
X77180638Y-37049000D01*
X77819362Y-37049000D01*
X77864499Y-37053445D01*
G37*
G36*
X70364499Y-36803445D02*
G01*
X70401995Y-36814820D01*
X70436554Y-36833292D01*
X70466847Y-36858153D01*
X70491708Y-36888446D01*
X70510180Y-36923005D01*
X70521555Y-36960501D01*
X70526000Y-37005638D01*
X70526000Y-37744362D01*
X70521555Y-37789499D01*
X70510180Y-37826995D01*
X70491708Y-37861554D01*
X70466847Y-37891847D01*
X70436554Y-37916708D01*
X70401995Y-37935180D01*
X70364499Y-37946555D01*
X70319362Y-37951000D01*
X69680638Y-37951000D01*
X69635501Y-37946555D01*
X69598005Y-37935180D01*
X69563446Y-37916708D01*
X69533153Y-37891847D01*
X69508292Y-37861554D01*
X69489820Y-37826995D01*
X69478445Y-37789499D01*
X69474000Y-37744362D01*
X69474000Y-37005638D01*
X69478445Y-36960501D01*
X69489820Y-36923005D01*
X69508292Y-36888446D01*
X69533153Y-36858153D01*
X69563446Y-36833292D01*
X69598005Y-36814820D01*
X69635501Y-36803445D01*
X69680638Y-36799000D01*
X70319362Y-36799000D01*
X70364499Y-36803445D01*
G37*
G36*
X37054591Y-36728085D02*
G01*
X37088569Y-36738393D01*
X37119890Y-36755134D01*
X37147339Y-36777661D01*
X37169866Y-36805110D01*
X37186607Y-36836431D01*
X37196915Y-36870409D01*
X37201000Y-36911890D01*
X37201000Y-37588110D01*
X37196915Y-37629591D01*
X37186607Y-37663569D01*
X37169866Y-37694890D01*
X37147339Y-37722339D01*
X37119890Y-37744866D01*
X37088569Y-37761607D01*
X37054591Y-37771915D01*
X37013110Y-37776000D01*
X36411890Y-37776000D01*
X36370409Y-37771915D01*
X36336431Y-37761607D01*
X36305110Y-37744866D01*
X36277661Y-37722339D01*
X36255134Y-37694890D01*
X36238393Y-37663569D01*
X36228085Y-37629591D01*
X36224000Y-37588110D01*
X36224000Y-36911890D01*
X36228085Y-36870409D01*
X36238393Y-36836431D01*
X36255134Y-36805110D01*
X36277661Y-36777661D01*
X36305110Y-36755134D01*
X36336431Y-36738393D01*
X36370409Y-36728085D01*
X36411890Y-36724000D01*
X37013110Y-36724000D01*
X37054591Y-36728085D01*
G37*
G36*
X38629591Y-36728085D02*
G01*
X38663569Y-36738393D01*
X38694890Y-36755134D01*
X38722339Y-36777661D01*
X38744866Y-36805110D01*
X38761607Y-36836431D01*
X38771915Y-36870409D01*
X38776000Y-36911890D01*
X38776000Y-37588110D01*
X38771915Y-37629591D01*
X38761607Y-37663569D01*
X38744866Y-37694890D01*
X38722339Y-37722339D01*
X38694890Y-37744866D01*
X38663569Y-37761607D01*
X38629591Y-37771915D01*
X38588110Y-37776000D01*
X37986890Y-37776000D01*
X37945409Y-37771915D01*
X37911431Y-37761607D01*
X37880110Y-37744866D01*
X37852661Y-37722339D01*
X37830134Y-37694890D01*
X37813393Y-37663569D01*
X37803085Y-37629591D01*
X37799000Y-37588110D01*
X37799000Y-36911890D01*
X37803085Y-36870409D01*
X37813393Y-36836431D01*
X37830134Y-36805110D01*
X37852661Y-36777661D01*
X37880110Y-36755134D01*
X37911431Y-36738393D01*
X37945409Y-36728085D01*
X37986890Y-36724000D01*
X38588110Y-36724000D01*
X38629591Y-36728085D01*
G37*
G36*
X76164928Y-35001764D02*
G01*
X76186009Y-35008160D01*
X76205445Y-35018548D01*
X76222476Y-35032524D01*
X76236452Y-35049555D01*
X76246840Y-35068991D01*
X76253236Y-35090072D01*
X76256000Y-35118140D01*
X76256000Y-36931860D01*
X76253236Y-36959928D01*
X76246840Y-36981009D01*
X76236452Y-37000445D01*
X76222476Y-37017476D01*
X76205445Y-37031452D01*
X76186009Y-37041840D01*
X76164928Y-37048236D01*
X76136860Y-37051000D01*
X75673140Y-37051000D01*
X75645072Y-37048236D01*
X75623991Y-37041840D01*
X75604555Y-37031452D01*
X75587524Y-37017476D01*
X75573548Y-37000445D01*
X75563160Y-36981009D01*
X75556764Y-36959928D01*
X75554000Y-36931860D01*
X75554000Y-35118140D01*
X75556764Y-35090072D01*
X75563160Y-35068991D01*
X75573548Y-35049555D01*
X75587524Y-35032524D01*
X75604555Y-35018548D01*
X75623991Y-35008160D01*
X75645072Y-35001764D01*
X75673140Y-34999000D01*
X76136860Y-34999000D01*
X76164928Y-35001764D01*
G37*
G36*
X74894928Y-35001764D02*
G01*
X74916009Y-35008160D01*
X74935445Y-35018548D01*
X74952476Y-35032524D01*
X74966452Y-35049555D01*
X74976840Y-35068991D01*
X74983236Y-35090072D01*
X74986000Y-35118140D01*
X74986000Y-36931860D01*
X74983236Y-36959928D01*
X74976840Y-36981009D01*
X74966452Y-37000445D01*
X74952476Y-37017476D01*
X74935445Y-37031452D01*
X74916009Y-37041840D01*
X74894928Y-37048236D01*
X74866860Y-37051000D01*
X74403140Y-37051000D01*
X74375072Y-37048236D01*
X74353991Y-37041840D01*
X74334555Y-37031452D01*
X74317524Y-37017476D01*
X74303548Y-37000445D01*
X74293160Y-36981009D01*
X74286764Y-36959928D01*
X74284000Y-36931860D01*
X74284000Y-35118140D01*
X74286764Y-35090072D01*
X74293160Y-35068991D01*
X74303548Y-35049555D01*
X74317524Y-35032524D01*
X74334555Y-35018548D01*
X74353991Y-35008160D01*
X74375072Y-35001764D01*
X74403140Y-34999000D01*
X74866860Y-34999000D01*
X74894928Y-35001764D01*
G37*
G36*
X73624928Y-35001764D02*
G01*
X73646009Y-35008160D01*
X73665445Y-35018548D01*
X73682476Y-35032524D01*
X73696452Y-35049555D01*
X73706840Y-35068991D01*
X73713236Y-35090072D01*
X73716000Y-35118140D01*
X73716000Y-36931860D01*
X73713236Y-36959928D01*
X73706840Y-36981009D01*
X73696452Y-37000445D01*
X73682476Y-37017476D01*
X73665445Y-37031452D01*
X73646009Y-37041840D01*
X73624928Y-37048236D01*
X73596860Y-37051000D01*
X73133140Y-37051000D01*
X73105072Y-37048236D01*
X73083991Y-37041840D01*
X73064555Y-37031452D01*
X73047524Y-37017476D01*
X73033548Y-37000445D01*
X73023160Y-36981009D01*
X73016764Y-36959928D01*
X73014000Y-36931860D01*
X73014000Y-35118140D01*
X73016764Y-35090072D01*
X73023160Y-35068991D01*
X73033548Y-35049555D01*
X73047524Y-35032524D01*
X73064555Y-35018548D01*
X73083991Y-35008160D01*
X73105072Y-35001764D01*
X73133140Y-34999000D01*
X73596860Y-34999000D01*
X73624928Y-35001764D01*
G37*
G36*
X72354928Y-35001764D02*
G01*
X72376009Y-35008160D01*
X72395445Y-35018548D01*
X72412476Y-35032524D01*
X72426452Y-35049555D01*
X72436840Y-35068991D01*
X72443236Y-35090072D01*
X72446000Y-35118140D01*
X72446000Y-36931860D01*
X72443236Y-36959928D01*
X72436840Y-36981009D01*
X72426452Y-37000445D01*
X72412476Y-37017476D01*
X72395445Y-37031452D01*
X72376009Y-37041840D01*
X72354928Y-37048236D01*
X72326860Y-37051000D01*
X71863140Y-37051000D01*
X71835072Y-37048236D01*
X71813991Y-37041840D01*
X71794555Y-37031452D01*
X71777524Y-37017476D01*
X71763548Y-37000445D01*
X71753160Y-36981009D01*
X71746764Y-36959928D01*
X71744000Y-36931860D01*
X71744000Y-35118140D01*
X71746764Y-35090072D01*
X71753160Y-35068991D01*
X71763548Y-35049555D01*
X71777524Y-35032524D01*
X71794555Y-35018548D01*
X71813991Y-35008160D01*
X71835072Y-35001764D01*
X71863140Y-34999000D01*
X72326860Y-34999000D01*
X72354928Y-35001764D01*
G37*
G36*
X68673500Y-36551000D02*
G01*
X63726500Y-36551000D01*
X63726500Y-35249000D01*
X68673500Y-35249000D01*
X68673500Y-36551000D01*
G37*
G36*
X38851000Y-36201000D02*
G01*
X38049000Y-36201000D01*
X38049000Y-34799000D01*
X38851000Y-34799000D01*
X38851000Y-36201000D01*
G37*
G36*
X36951000Y-36201000D02*
G01*
X36149000Y-36201000D01*
X36149000Y-34799000D01*
X36951000Y-34799000D01*
X36951000Y-36201000D01*
G37*
G36*
X70364499Y-35053445D02*
G01*
X70401995Y-35064820D01*
X70436554Y-35083292D01*
X70466847Y-35108153D01*
X70491708Y-35138446D01*
X70510180Y-35173005D01*
X70521555Y-35210501D01*
X70526000Y-35255638D01*
X70526000Y-35994362D01*
X70521555Y-36039499D01*
X70510180Y-36076995D01*
X70491708Y-36111554D01*
X70466847Y-36141847D01*
X70436554Y-36166708D01*
X70401995Y-36185180D01*
X70364499Y-36196555D01*
X70319362Y-36201000D01*
X69680638Y-36201000D01*
X69635501Y-36196555D01*
X69598005Y-36185180D01*
X69563446Y-36166708D01*
X69533153Y-36141847D01*
X69508292Y-36111554D01*
X69489820Y-36076995D01*
X69478445Y-36039499D01*
X69474000Y-35994362D01*
X69474000Y-35255638D01*
X69478445Y-35210501D01*
X69489820Y-35173005D01*
X69508292Y-35138446D01*
X69533153Y-35108153D01*
X69563446Y-35083292D01*
X69598005Y-35064820D01*
X69635501Y-35053445D01*
X69680638Y-35049000D01*
X70319362Y-35049000D01*
X70364499Y-35053445D01*
G37*
G36*
X50501000Y-35101000D02*
G01*
X41399000Y-35101000D01*
X41399000Y-33399000D01*
X50501000Y-33399000D01*
X50501000Y-35101000D01*
G37*
G36*
X68101000Y-34476000D02*
G01*
X65599000Y-34476000D01*
X65599000Y-32924000D01*
X68101000Y-32924000D01*
X68101000Y-34476000D01*
G37*
G36*
X37054591Y-33278085D02*
G01*
X37088569Y-33288393D01*
X37119890Y-33305134D01*
X37147339Y-33327661D01*
X37169866Y-33355110D01*
X37186607Y-33386431D01*
X37196915Y-33420409D01*
X37201000Y-33461890D01*
X37201000Y-34138110D01*
X37196915Y-34179591D01*
X37186607Y-34213569D01*
X37169866Y-34244890D01*
X37147339Y-34272339D01*
X37119890Y-34294866D01*
X37088569Y-34311607D01*
X37054591Y-34321915D01*
X37013110Y-34326000D01*
X36411890Y-34326000D01*
X36370409Y-34321915D01*
X36336431Y-34311607D01*
X36305110Y-34294866D01*
X36277661Y-34272339D01*
X36255134Y-34244890D01*
X36238393Y-34213569D01*
X36228085Y-34179591D01*
X36224000Y-34138110D01*
X36224000Y-33461890D01*
X36228085Y-33420409D01*
X36238393Y-33386431D01*
X36255134Y-33355110D01*
X36277661Y-33327661D01*
X36305110Y-33305134D01*
X36336431Y-33288393D01*
X36370409Y-33278085D01*
X36411890Y-33274000D01*
X37013110Y-33274000D01*
X37054591Y-33278085D01*
G37*
G36*
X38629591Y-33278085D02*
G01*
X38663569Y-33288393D01*
X38694890Y-33305134D01*
X38722339Y-33327661D01*
X38744866Y-33355110D01*
X38761607Y-33386431D01*
X38771915Y-33420409D01*
X38776000Y-33461890D01*
X38776000Y-34138110D01*
X38771915Y-34179591D01*
X38761607Y-34213569D01*
X38744866Y-34244890D01*
X38722339Y-34272339D01*
X38694890Y-34294866D01*
X38663569Y-34311607D01*
X38629591Y-34321915D01*
X38588110Y-34326000D01*
X37986890Y-34326000D01*
X37945409Y-34321915D01*
X37911431Y-34311607D01*
X37880110Y-34294866D01*
X37852661Y-34272339D01*
X37830134Y-34244890D01*
X37813393Y-34213569D01*
X37803085Y-34179591D01*
X37799000Y-34138110D01*
X37799000Y-33461890D01*
X37803085Y-33420409D01*
X37813393Y-33386431D01*
X37830134Y-33355110D01*
X37852661Y-33327661D01*
X37880110Y-33305134D01*
X37911431Y-33288393D01*
X37945409Y-33278085D01*
X37986890Y-33274000D01*
X38588110Y-33274000D01*
X38629591Y-33278085D01*
G37*
G36*
X78833642Y-31579781D02*
G01*
X78974897Y-31638291D01*
X78979416Y-31640163D01*
X79110608Y-31727822D01*
X79222178Y-31839392D01*
X79296751Y-31951000D01*
X79309838Y-31970586D01*
X79370219Y-32116358D01*
X79401000Y-32271107D01*
X79401000Y-32428893D01*
X79370219Y-32583642D01*
X79313601Y-32720329D01*
X79309837Y-32729416D01*
X79222178Y-32860608D01*
X79110608Y-32972178D01*
X78979416Y-33059837D01*
X78979415Y-33059838D01*
X78979414Y-33059838D01*
X78833642Y-33120219D01*
X78678893Y-33151000D01*
X78521107Y-33151000D01*
X78366358Y-33120219D01*
X78220586Y-33059838D01*
X78220585Y-33059838D01*
X78220584Y-33059837D01*
X78089392Y-32972178D01*
X77977822Y-32860608D01*
X77890163Y-32729416D01*
X77886399Y-32720329D01*
X77829781Y-32583642D01*
X77799000Y-32428893D01*
X77799000Y-32271107D01*
X77829781Y-32116358D01*
X77890162Y-31970586D01*
X77903249Y-31951000D01*
X77977822Y-31839392D01*
X78089392Y-31727822D01*
X78220584Y-31640163D01*
X78225103Y-31638291D01*
X78366358Y-31579781D01*
X78521107Y-31549000D01*
X78678893Y-31549000D01*
X78833642Y-31579781D01*
G37*
G36*
X37271938Y-32031716D02*
G01*
X37292557Y-32037971D01*
X37311553Y-32048124D01*
X37328208Y-32061792D01*
X37341876Y-32078447D01*
X37352029Y-32097443D01*
X37358284Y-32118062D01*
X37361000Y-32145640D01*
X37361000Y-32654360D01*
X37358284Y-32681938D01*
X37352029Y-32702557D01*
X37341876Y-32721553D01*
X37328208Y-32738208D01*
X37311553Y-32751876D01*
X37292557Y-32762029D01*
X37271938Y-32768284D01*
X37244360Y-32771000D01*
X36785640Y-32771000D01*
X36758062Y-32768284D01*
X36737443Y-32762029D01*
X36718447Y-32751876D01*
X36701792Y-32738208D01*
X36688124Y-32721553D01*
X36677971Y-32702557D01*
X36671716Y-32681938D01*
X36669000Y-32654360D01*
X36669000Y-32145640D01*
X36671716Y-32118062D01*
X36677971Y-32097443D01*
X36688124Y-32078447D01*
X36701792Y-32061792D01*
X36718447Y-32048124D01*
X36737443Y-32037971D01*
X36758062Y-32031716D01*
X36785640Y-32029000D01*
X37244360Y-32029000D01*
X37271938Y-32031716D01*
G37*
G36*
X38241938Y-32031716D02*
G01*
X38262557Y-32037971D01*
X38281553Y-32048124D01*
X38298208Y-32061792D01*
X38311876Y-32078447D01*
X38322029Y-32097443D01*
X38328284Y-32118062D01*
X38331000Y-32145640D01*
X38331000Y-32654360D01*
X38328284Y-32681938D01*
X38322029Y-32702557D01*
X38311876Y-32721553D01*
X38298208Y-32738208D01*
X38281553Y-32751876D01*
X38262557Y-32762029D01*
X38241938Y-32768284D01*
X38214360Y-32771000D01*
X37755640Y-32771000D01*
X37728062Y-32768284D01*
X37707443Y-32762029D01*
X37688447Y-32751876D01*
X37671792Y-32738208D01*
X37658124Y-32721553D01*
X37647971Y-32702557D01*
X37641716Y-32681938D01*
X37639000Y-32654360D01*
X37639000Y-32145640D01*
X37641716Y-32118062D01*
X37647971Y-32097443D01*
X37658124Y-32078447D01*
X37671792Y-32061792D01*
X37688447Y-32048124D01*
X37707443Y-32037971D01*
X37728062Y-32031716D01*
X37755640Y-32029000D01*
X38214360Y-32029000D01*
X38241938Y-32031716D01*
G37*
G36*
X42001000Y-31951000D02*
G01*
X40899000Y-31951000D01*
X40899000Y-30049000D01*
X42001000Y-30049000D01*
X42001000Y-31951000D01*
G37*
G36*
X44501000Y-31951000D02*
G01*
X43399000Y-31951000D01*
X43399000Y-30049000D01*
X44501000Y-30049000D01*
X44501000Y-31951000D01*
G37*
G36*
X47611766Y-30301899D02*
G01*
X47743888Y-30356626D01*
X47743890Y-30356627D01*
X47862798Y-30436079D01*
X47963921Y-30537202D01*
X47998738Y-30589309D01*
X48043374Y-30656112D01*
X48098101Y-30788234D01*
X48126000Y-30928494D01*
X48126000Y-31071506D01*
X48098101Y-31211766D01*
X48057112Y-31310721D01*
X48043373Y-31343890D01*
X47963921Y-31462798D01*
X47862798Y-31563921D01*
X47743890Y-31643373D01*
X47743889Y-31643374D01*
X47743888Y-31643374D01*
X47611766Y-31698101D01*
X47471506Y-31726000D01*
X47328494Y-31726000D01*
X47188234Y-31698101D01*
X47056112Y-31643374D01*
X47056111Y-31643374D01*
X47056110Y-31643373D01*
X46937202Y-31563921D01*
X46836079Y-31462798D01*
X46756627Y-31343890D01*
X46742888Y-31310721D01*
X46701899Y-31211766D01*
X46674000Y-31071506D01*
X46674000Y-30928494D01*
X46701899Y-30788234D01*
X46756626Y-30656112D01*
X46801262Y-30589309D01*
X46836079Y-30537202D01*
X46937202Y-30436079D01*
X47056110Y-30356627D01*
X47056112Y-30356626D01*
X47188234Y-30301899D01*
X47328494Y-30274000D01*
X47471506Y-30274000D01*
X47611766Y-30301899D01*
G37*
G36*
X76060721Y-30620174D02*
G01*
X76160995Y-30661709D01*
X76160996Y-30661710D01*
X76251242Y-30722010D01*
X76327990Y-30798758D01*
X76327991Y-30798760D01*
X76388291Y-30889005D01*
X76429826Y-30989279D01*
X76451000Y-31095730D01*
X76451000Y-31204270D01*
X76429826Y-31310721D01*
X76388291Y-31410995D01*
X76374937Y-31430980D01*
X76327990Y-31501242D01*
X76251242Y-31577990D01*
X76248560Y-31579782D01*
X76160995Y-31638291D01*
X76060721Y-31679826D01*
X75954270Y-31701000D01*
X75845730Y-31701000D01*
X75739279Y-31679826D01*
X75639005Y-31638291D01*
X75551440Y-31579782D01*
X75548758Y-31577990D01*
X75472010Y-31501242D01*
X75425063Y-31430980D01*
X75411709Y-31410995D01*
X75370174Y-31310721D01*
X75349000Y-31204270D01*
X75349000Y-31095730D01*
X75370174Y-30989279D01*
X75411709Y-30889005D01*
X75472009Y-30798760D01*
X75472010Y-30798758D01*
X75548758Y-30722010D01*
X75639004Y-30661710D01*
X75639005Y-30661709D01*
X75739279Y-30620174D01*
X75845730Y-30599000D01*
X75954270Y-30599000D01*
X76060721Y-30620174D01*
G37*
G36*
X70364499Y-30303445D02*
G01*
X70401995Y-30314820D01*
X70436554Y-30333292D01*
X70466847Y-30358153D01*
X70491708Y-30388446D01*
X70510180Y-30423005D01*
X70521555Y-30460501D01*
X70526000Y-30505638D01*
X70526000Y-31244362D01*
X70521555Y-31289499D01*
X70510180Y-31326995D01*
X70491708Y-31361554D01*
X70466847Y-31391847D01*
X70436554Y-31416708D01*
X70401995Y-31435180D01*
X70364499Y-31446555D01*
X70319362Y-31451000D01*
X69680638Y-31451000D01*
X69635501Y-31446555D01*
X69598005Y-31435180D01*
X69563446Y-31416708D01*
X69533153Y-31391847D01*
X69508292Y-31361554D01*
X69489820Y-31326995D01*
X69478445Y-31289499D01*
X69474000Y-31244362D01*
X69474000Y-30505638D01*
X69478445Y-30460501D01*
X69489820Y-30423005D01*
X69508292Y-30388446D01*
X69533153Y-30358153D01*
X69563446Y-30333292D01*
X69598005Y-30314820D01*
X69635501Y-30303445D01*
X69680638Y-30299000D01*
X70319362Y-30299000D01*
X70364499Y-30303445D01*
G37*
G36*
X52001000Y-31401000D02*
G01*
X50999000Y-31401000D01*
X50999000Y-30499000D01*
X52001000Y-30499000D01*
X52001000Y-31401000D01*
G37*
G36*
X36689499Y-29653445D02*
G01*
X36726995Y-29664820D01*
X36761554Y-29683292D01*
X36791847Y-29708153D01*
X36816708Y-29738446D01*
X36835180Y-29773005D01*
X36846555Y-29810501D01*
X36851000Y-29855638D01*
X36851000Y-30594362D01*
X36846555Y-30639499D01*
X36835180Y-30676995D01*
X36816708Y-30711554D01*
X36791847Y-30741847D01*
X36761554Y-30766708D01*
X36726995Y-30785180D01*
X36689499Y-30796555D01*
X36644362Y-30801000D01*
X36005638Y-30801000D01*
X35960501Y-30796555D01*
X35923005Y-30785180D01*
X35888446Y-30766708D01*
X35858153Y-30741847D01*
X35833292Y-30711554D01*
X35814820Y-30676995D01*
X35803445Y-30639499D01*
X35799000Y-30594362D01*
X35799000Y-29855638D01*
X35803445Y-29810501D01*
X35814820Y-29773005D01*
X35833292Y-29738446D01*
X35858153Y-29708153D01*
X35888446Y-29683292D01*
X35923005Y-29664820D01*
X35960501Y-29653445D01*
X36005638Y-29649000D01*
X36644362Y-29649000D01*
X36689499Y-29653445D01*
G37*
G36*
X39064499Y-29653445D02*
G01*
X39101995Y-29664820D01*
X39136554Y-29683292D01*
X39166847Y-29708153D01*
X39191708Y-29738446D01*
X39210180Y-29773005D01*
X39221555Y-29810501D01*
X39226000Y-29855638D01*
X39226000Y-30594362D01*
X39221555Y-30639499D01*
X39210180Y-30676995D01*
X39191708Y-30711554D01*
X39166847Y-30741847D01*
X39136554Y-30766708D01*
X39101995Y-30785180D01*
X39064499Y-30796555D01*
X39019362Y-30801000D01*
X38380638Y-30801000D01*
X38335501Y-30796555D01*
X38298005Y-30785180D01*
X38263446Y-30766708D01*
X38233153Y-30741847D01*
X38208292Y-30711554D01*
X38189820Y-30676995D01*
X38178445Y-30639499D01*
X38174000Y-30594362D01*
X38174000Y-29855638D01*
X38178445Y-29810501D01*
X38189820Y-29773005D01*
X38208292Y-29738446D01*
X38233153Y-29708153D01*
X38263446Y-29683292D01*
X38298005Y-29664820D01*
X38335501Y-29653445D01*
X38380638Y-29649000D01*
X39019362Y-29649000D01*
X39064499Y-29653445D01*
G37*
G36*
X35289499Y-29478445D02*
G01*
X35326995Y-29489820D01*
X35361554Y-29508292D01*
X35391847Y-29533153D01*
X35416708Y-29563446D01*
X35435180Y-29598005D01*
X35446555Y-29635501D01*
X35451000Y-29680638D01*
X35451000Y-30319362D01*
X35446555Y-30364499D01*
X35435180Y-30401995D01*
X35416708Y-30436554D01*
X35391847Y-30466847D01*
X35361554Y-30491708D01*
X35326995Y-30510180D01*
X35289499Y-30521555D01*
X35244362Y-30526000D01*
X34505638Y-30526000D01*
X34460501Y-30521555D01*
X34423005Y-30510180D01*
X34388446Y-30491708D01*
X34358153Y-30466847D01*
X34333292Y-30436554D01*
X34314820Y-30401995D01*
X34303445Y-30364499D01*
X34299000Y-30319362D01*
X34299000Y-29680638D01*
X34303445Y-29635501D01*
X34314820Y-29598005D01*
X34333292Y-29563446D01*
X34358153Y-29533153D01*
X34388446Y-29508292D01*
X34423005Y-29489820D01*
X34460501Y-29478445D01*
X34505638Y-29474000D01*
X35244362Y-29474000D01*
X35289499Y-29478445D01*
G37*
G36*
X33539499Y-29478445D02*
G01*
X33576995Y-29489820D01*
X33611554Y-29508292D01*
X33641847Y-29533153D01*
X33666708Y-29563446D01*
X33685180Y-29598005D01*
X33696555Y-29635501D01*
X33701000Y-29680638D01*
X33701000Y-30319362D01*
X33696555Y-30364499D01*
X33685180Y-30401995D01*
X33666708Y-30436554D01*
X33641847Y-30466847D01*
X33611554Y-30491708D01*
X33576995Y-30510180D01*
X33539499Y-30521555D01*
X33494362Y-30526000D01*
X32755638Y-30526000D01*
X32710501Y-30521555D01*
X32673005Y-30510180D01*
X32638446Y-30491708D01*
X32608153Y-30466847D01*
X32583292Y-30436554D01*
X32564820Y-30401995D01*
X32553445Y-30364499D01*
X32549000Y-30319362D01*
X32549000Y-29680638D01*
X32553445Y-29635501D01*
X32564820Y-29598005D01*
X32583292Y-29563446D01*
X32608153Y-29533153D01*
X32638446Y-29508292D01*
X32673005Y-29489820D01*
X32710501Y-29478445D01*
X32755638Y-29474000D01*
X33494362Y-29474000D01*
X33539499Y-29478445D01*
G37*
G36*
X50001000Y-30451000D02*
G01*
X48999000Y-30451000D01*
X48999000Y-29549000D01*
X50001000Y-29549000D01*
X50001000Y-30451000D01*
G37*
G36*
X76351000Y-30301000D02*
G01*
X75049000Y-30301000D01*
X75049000Y-27199000D01*
X76351000Y-27199000D01*
X76351000Y-30301000D01*
G37*
G36*
X68101000Y-30076000D02*
G01*
X65599000Y-30076000D01*
X65599000Y-28524000D01*
X68101000Y-28524000D01*
X68101000Y-30076000D01*
G37*
G36*
X48126000Y-29726000D02*
G01*
X46674000Y-29726000D01*
X46674000Y-28274000D01*
X48126000Y-28274000D01*
X48126000Y-29726000D01*
G37*
G36*
X70364499Y-28553445D02*
G01*
X70401995Y-28564820D01*
X70436554Y-28583292D01*
X70466847Y-28608153D01*
X70491708Y-28638446D01*
X70510180Y-28673005D01*
X70521555Y-28710501D01*
X70526000Y-28755638D01*
X70526000Y-29494362D01*
X70521555Y-29539499D01*
X70510180Y-29576995D01*
X70491708Y-29611554D01*
X70466847Y-29641847D01*
X70436554Y-29666708D01*
X70401995Y-29685180D01*
X70364499Y-29696555D01*
X70319362Y-29701000D01*
X69680638Y-29701000D01*
X69635501Y-29696555D01*
X69598005Y-29685180D01*
X69563446Y-29666708D01*
X69533153Y-29641847D01*
X69508292Y-29611554D01*
X69489820Y-29576995D01*
X69478445Y-29539499D01*
X69474000Y-29494362D01*
X69474000Y-28755638D01*
X69478445Y-28710501D01*
X69489820Y-28673005D01*
X69508292Y-28638446D01*
X69533153Y-28608153D01*
X69563446Y-28583292D01*
X69598005Y-28564820D01*
X69635501Y-28553445D01*
X69680638Y-28549000D01*
X70319362Y-28549000D01*
X70364499Y-28553445D01*
G37*
G36*
X41681938Y-28941716D02*
G01*
X41702557Y-28947971D01*
X41721553Y-28958124D01*
X41738208Y-28971792D01*
X41751876Y-28988447D01*
X41762029Y-29007443D01*
X41768284Y-29028062D01*
X41771000Y-29055640D01*
X41771000Y-29514360D01*
X41768284Y-29541938D01*
X41762029Y-29562557D01*
X41751876Y-29581553D01*
X41738208Y-29598208D01*
X41721553Y-29611876D01*
X41702557Y-29622029D01*
X41681938Y-29628284D01*
X41654360Y-29631000D01*
X41145640Y-29631000D01*
X41118062Y-29628284D01*
X41097443Y-29622029D01*
X41078447Y-29611876D01*
X41061792Y-29598208D01*
X41048124Y-29581553D01*
X41037971Y-29562557D01*
X41031716Y-29541938D01*
X41029000Y-29514360D01*
X41029000Y-29055640D01*
X41031716Y-29028062D01*
X41037971Y-29007443D01*
X41048124Y-28988447D01*
X41061792Y-28971792D01*
X41078447Y-28958124D01*
X41097443Y-28947971D01*
X41118062Y-28941716D01*
X41145640Y-28939000D01*
X41654360Y-28939000D01*
X41681938Y-28941716D01*
G37*
G36*
X44281938Y-28941716D02*
G01*
X44302557Y-28947971D01*
X44321553Y-28958124D01*
X44338208Y-28971792D01*
X44351876Y-28988447D01*
X44362029Y-29007443D01*
X44368284Y-29028062D01*
X44371000Y-29055640D01*
X44371000Y-29514360D01*
X44368284Y-29541938D01*
X44362029Y-29562557D01*
X44351876Y-29581553D01*
X44338208Y-29598208D01*
X44321553Y-29611876D01*
X44302557Y-29622029D01*
X44281938Y-29628284D01*
X44254360Y-29631000D01*
X43745640Y-29631000D01*
X43718062Y-29628284D01*
X43697443Y-29622029D01*
X43678447Y-29611876D01*
X43661792Y-29598208D01*
X43648124Y-29581553D01*
X43637971Y-29562557D01*
X43631716Y-29541938D01*
X43629000Y-29514360D01*
X43629000Y-29055640D01*
X43631716Y-29028062D01*
X43637971Y-29007443D01*
X43648124Y-28988447D01*
X43661792Y-28971792D01*
X43678447Y-28958124D01*
X43697443Y-28947971D01*
X43718062Y-28941716D01*
X43745640Y-28939000D01*
X44254360Y-28939000D01*
X44281938Y-28941716D01*
G37*
G36*
X52001000Y-29501000D02*
G01*
X50999000Y-29501000D01*
X50999000Y-28599000D01*
X52001000Y-28599000D01*
X52001000Y-29501000D01*
G37*
G36*
X36689499Y-27903445D02*
G01*
X36726995Y-27914820D01*
X36761554Y-27933292D01*
X36791847Y-27958153D01*
X36816708Y-27988446D01*
X36835180Y-28023005D01*
X36846555Y-28060501D01*
X36851000Y-28105638D01*
X36851000Y-28844362D01*
X36846555Y-28889499D01*
X36835180Y-28926995D01*
X36816708Y-28961554D01*
X36791847Y-28991847D01*
X36761554Y-29016708D01*
X36726995Y-29035180D01*
X36689499Y-29046555D01*
X36644362Y-29051000D01*
X36005638Y-29051000D01*
X35960501Y-29046555D01*
X35923005Y-29035180D01*
X35888446Y-29016708D01*
X35858153Y-28991847D01*
X35833292Y-28961554D01*
X35814820Y-28926995D01*
X35803445Y-28889499D01*
X35799000Y-28844362D01*
X35799000Y-28105638D01*
X35803445Y-28060501D01*
X35814820Y-28023005D01*
X35833292Y-27988446D01*
X35858153Y-27958153D01*
X35888446Y-27933292D01*
X35923005Y-27914820D01*
X35960501Y-27903445D01*
X36005638Y-27899000D01*
X36644362Y-27899000D01*
X36689499Y-27903445D01*
G37*
G36*
X39064499Y-27903445D02*
G01*
X39101995Y-27914820D01*
X39136554Y-27933292D01*
X39166847Y-27958153D01*
X39191708Y-27988446D01*
X39210180Y-28023005D01*
X39221555Y-28060501D01*
X39226000Y-28105638D01*
X39226000Y-28844362D01*
X39221555Y-28889499D01*
X39210180Y-28926995D01*
X39191708Y-28961554D01*
X39166847Y-28991847D01*
X39136554Y-29016708D01*
X39101995Y-29035180D01*
X39064499Y-29046555D01*
X39019362Y-29051000D01*
X38380638Y-29051000D01*
X38335501Y-29046555D01*
X38298005Y-29035180D01*
X38263446Y-29016708D01*
X38233153Y-28991847D01*
X38208292Y-28961554D01*
X38189820Y-28926995D01*
X38178445Y-28889499D01*
X38174000Y-28844362D01*
X38174000Y-28105638D01*
X38178445Y-28060501D01*
X38189820Y-28023005D01*
X38208292Y-27988446D01*
X38233153Y-27958153D01*
X38263446Y-27933292D01*
X38298005Y-27914820D01*
X38335501Y-27903445D01*
X38380638Y-27899000D01*
X39019362Y-27899000D01*
X39064499Y-27903445D01*
G37*
G36*
X33539499Y-27978445D02*
G01*
X33576995Y-27989820D01*
X33611554Y-28008292D01*
X33641847Y-28033153D01*
X33666708Y-28063446D01*
X33685180Y-28098005D01*
X33696555Y-28135501D01*
X33701000Y-28180638D01*
X33701000Y-28819362D01*
X33696555Y-28864499D01*
X33685180Y-28901995D01*
X33666708Y-28936554D01*
X33641847Y-28966847D01*
X33611554Y-28991708D01*
X33576995Y-29010180D01*
X33539499Y-29021555D01*
X33494362Y-29026000D01*
X32755638Y-29026000D01*
X32710501Y-29021555D01*
X32673005Y-29010180D01*
X32638446Y-28991708D01*
X32608153Y-28966847D01*
X32583292Y-28936554D01*
X32564820Y-28901995D01*
X32553445Y-28864499D01*
X32549000Y-28819362D01*
X32549000Y-28180638D01*
X32553445Y-28135501D01*
X32564820Y-28098005D01*
X32583292Y-28063446D01*
X32608153Y-28033153D01*
X32638446Y-28008292D01*
X32673005Y-27989820D01*
X32710501Y-27978445D01*
X32755638Y-27974000D01*
X33494362Y-27974000D01*
X33539499Y-27978445D01*
G37*
G36*
X35289499Y-27978445D02*
G01*
X35326995Y-27989820D01*
X35361554Y-28008292D01*
X35391847Y-28033153D01*
X35416708Y-28063446D01*
X35435180Y-28098005D01*
X35446555Y-28135501D01*
X35451000Y-28180638D01*
X35451000Y-28819362D01*
X35446555Y-28864499D01*
X35435180Y-28901995D01*
X35416708Y-28936554D01*
X35391847Y-28966847D01*
X35361554Y-28991708D01*
X35326995Y-29010180D01*
X35289499Y-29021555D01*
X35244362Y-29026000D01*
X34505638Y-29026000D01*
X34460501Y-29021555D01*
X34423005Y-29010180D01*
X34388446Y-28991708D01*
X34358153Y-28966847D01*
X34333292Y-28936554D01*
X34314820Y-28901995D01*
X34303445Y-28864499D01*
X34299000Y-28819362D01*
X34299000Y-28180638D01*
X34303445Y-28135501D01*
X34314820Y-28098005D01*
X34333292Y-28063446D01*
X34358153Y-28033153D01*
X34388446Y-28008292D01*
X34423005Y-27989820D01*
X34460501Y-27978445D01*
X34505638Y-27974000D01*
X35244362Y-27974000D01*
X35289499Y-27978445D01*
G37*
G36*
X41681938Y-27971716D02*
G01*
X41702557Y-27977971D01*
X41721553Y-27988124D01*
X41738208Y-28001792D01*
X41751876Y-28018447D01*
X41762029Y-28037443D01*
X41768284Y-28058062D01*
X41771000Y-28085640D01*
X41771000Y-28544360D01*
X41768284Y-28571938D01*
X41762029Y-28592557D01*
X41751876Y-28611553D01*
X41738208Y-28628208D01*
X41721553Y-28641876D01*
X41702557Y-28652029D01*
X41681938Y-28658284D01*
X41654360Y-28661000D01*
X41145640Y-28661000D01*
X41118062Y-28658284D01*
X41097443Y-28652029D01*
X41078447Y-28641876D01*
X41061792Y-28628208D01*
X41048124Y-28611553D01*
X41037971Y-28592557D01*
X41031716Y-28571938D01*
X41029000Y-28544360D01*
X41029000Y-28085640D01*
X41031716Y-28058062D01*
X41037971Y-28037443D01*
X41048124Y-28018447D01*
X41061792Y-28001792D01*
X41078447Y-27988124D01*
X41097443Y-27977971D01*
X41118062Y-27971716D01*
X41145640Y-27969000D01*
X41654360Y-27969000D01*
X41681938Y-27971716D01*
G37*
G36*
X44281938Y-27971716D02*
G01*
X44302557Y-27977971D01*
X44321553Y-27988124D01*
X44338208Y-28001792D01*
X44351876Y-28018447D01*
X44362029Y-28037443D01*
X44368284Y-28058062D01*
X44371000Y-28085640D01*
X44371000Y-28544360D01*
X44368284Y-28571938D01*
X44362029Y-28592557D01*
X44351876Y-28611553D01*
X44338208Y-28628208D01*
X44321553Y-28641876D01*
X44302557Y-28652029D01*
X44281938Y-28658284D01*
X44254360Y-28661000D01*
X43745640Y-28661000D01*
X43718062Y-28658284D01*
X43697443Y-28652029D01*
X43678447Y-28641876D01*
X43661792Y-28628208D01*
X43648124Y-28611553D01*
X43637971Y-28592557D01*
X43631716Y-28571938D01*
X43629000Y-28544360D01*
X43629000Y-28085640D01*
X43631716Y-28058062D01*
X43637971Y-28037443D01*
X43648124Y-28018447D01*
X43661792Y-28001792D01*
X43678447Y-27988124D01*
X43697443Y-27977971D01*
X43718062Y-27971716D01*
X43745640Y-27969000D01*
X44254360Y-27969000D01*
X44281938Y-27971716D01*
G37*
G36*
X24864499Y-27303445D02*
G01*
X24901995Y-27314820D01*
X24936554Y-27333292D01*
X24966847Y-27358153D01*
X24991708Y-27388446D01*
X25010180Y-27423005D01*
X25021555Y-27460501D01*
X25026000Y-27505638D01*
X25026000Y-28244362D01*
X25021555Y-28289499D01*
X25010180Y-28326995D01*
X24991708Y-28361554D01*
X24966847Y-28391847D01*
X24936554Y-28416708D01*
X24901995Y-28435180D01*
X24864499Y-28446555D01*
X24819362Y-28451000D01*
X24180638Y-28451000D01*
X24135501Y-28446555D01*
X24098005Y-28435180D01*
X24063446Y-28416708D01*
X24033153Y-28391847D01*
X24008292Y-28361554D01*
X23989820Y-28326995D01*
X23978445Y-28289499D01*
X23974000Y-28244362D01*
X23974000Y-27505638D01*
X23978445Y-27460501D01*
X23989820Y-27423005D01*
X24008292Y-27388446D01*
X24033153Y-27358153D01*
X24063446Y-27333292D01*
X24098005Y-27314820D01*
X24135501Y-27303445D01*
X24180638Y-27299000D01*
X24819362Y-27299000D01*
X24864499Y-27303445D01*
G37*
G36*
X50039499Y-26978445D02*
G01*
X50076995Y-26989820D01*
X50111554Y-27008292D01*
X50141847Y-27033153D01*
X50166708Y-27063446D01*
X50185180Y-27098005D01*
X50196555Y-27135501D01*
X50201000Y-27180638D01*
X50201000Y-27819362D01*
X50196555Y-27864499D01*
X50185180Y-27901995D01*
X50166708Y-27936554D01*
X50141847Y-27966847D01*
X50111554Y-27991708D01*
X50076995Y-28010180D01*
X50039499Y-28021555D01*
X49994362Y-28026000D01*
X49255638Y-28026000D01*
X49210501Y-28021555D01*
X49173005Y-28010180D01*
X49138446Y-27991708D01*
X49108153Y-27966847D01*
X49083292Y-27936554D01*
X49064820Y-27901995D01*
X49053445Y-27864499D01*
X49049000Y-27819362D01*
X49049000Y-27180638D01*
X49053445Y-27135501D01*
X49064820Y-27098005D01*
X49083292Y-27063446D01*
X49108153Y-27033153D01*
X49138446Y-27008292D01*
X49173005Y-26989820D01*
X49210501Y-26978445D01*
X49255638Y-26974000D01*
X49994362Y-26974000D01*
X50039499Y-26978445D01*
G37*
G36*
X60039499Y-26978445D02*
G01*
X60076995Y-26989820D01*
X60111554Y-27008292D01*
X60141847Y-27033153D01*
X60166708Y-27063446D01*
X60185180Y-27098005D01*
X60196555Y-27135501D01*
X60201000Y-27180638D01*
X60201000Y-27819362D01*
X60196555Y-27864499D01*
X60185180Y-27901995D01*
X60166708Y-27936554D01*
X60141847Y-27966847D01*
X60111554Y-27991708D01*
X60076995Y-28010180D01*
X60039499Y-28021555D01*
X59994362Y-28026000D01*
X59255638Y-28026000D01*
X59210501Y-28021555D01*
X59173005Y-28010180D01*
X59138446Y-27991708D01*
X59108153Y-27966847D01*
X59083292Y-27936554D01*
X59064820Y-27901995D01*
X59053445Y-27864499D01*
X59049000Y-27819362D01*
X59049000Y-27180638D01*
X59053445Y-27135501D01*
X59064820Y-27098005D01*
X59083292Y-27063446D01*
X59108153Y-27033153D01*
X59138446Y-27008292D01*
X59173005Y-26989820D01*
X59210501Y-26978445D01*
X59255638Y-26974000D01*
X59994362Y-26974000D01*
X60039499Y-26978445D01*
G37*
G36*
X58289499Y-26978445D02*
G01*
X58326995Y-26989820D01*
X58361554Y-27008292D01*
X58391847Y-27033153D01*
X58416708Y-27063446D01*
X58435180Y-27098005D01*
X58446555Y-27135501D01*
X58451000Y-27180638D01*
X58451000Y-27819362D01*
X58446555Y-27864499D01*
X58435180Y-27901995D01*
X58416708Y-27936554D01*
X58391847Y-27966847D01*
X58361554Y-27991708D01*
X58326995Y-28010180D01*
X58289499Y-28021555D01*
X58244362Y-28026000D01*
X57505638Y-28026000D01*
X57460501Y-28021555D01*
X57423005Y-28010180D01*
X57388446Y-27991708D01*
X57358153Y-27966847D01*
X57333292Y-27936554D01*
X57314820Y-27901995D01*
X57303445Y-27864499D01*
X57299000Y-27819362D01*
X57299000Y-27180638D01*
X57303445Y-27135501D01*
X57314820Y-27098005D01*
X57333292Y-27063446D01*
X57358153Y-27033153D01*
X57388446Y-27008292D01*
X57423005Y-26989820D01*
X57460501Y-26978445D01*
X57505638Y-26974000D01*
X58244362Y-26974000D01*
X58289499Y-26978445D01*
G37*
G36*
X56539499Y-26978445D02*
G01*
X56576995Y-26989820D01*
X56611554Y-27008292D01*
X56641847Y-27033153D01*
X56666708Y-27063446D01*
X56685180Y-27098005D01*
X56696555Y-27135501D01*
X56701000Y-27180638D01*
X56701000Y-27819362D01*
X56696555Y-27864499D01*
X56685180Y-27901995D01*
X56666708Y-27936554D01*
X56641847Y-27966847D01*
X56611554Y-27991708D01*
X56576995Y-28010180D01*
X56539499Y-28021555D01*
X56494362Y-28026000D01*
X55755638Y-28026000D01*
X55710501Y-28021555D01*
X55673005Y-28010180D01*
X55638446Y-27991708D01*
X55608153Y-27966847D01*
X55583292Y-27936554D01*
X55564820Y-27901995D01*
X55553445Y-27864499D01*
X55549000Y-27819362D01*
X55549000Y-27180638D01*
X55553445Y-27135501D01*
X55564820Y-27098005D01*
X55583292Y-27063446D01*
X55608153Y-27033153D01*
X55638446Y-27008292D01*
X55673005Y-26989820D01*
X55710501Y-26978445D01*
X55755638Y-26974000D01*
X56494362Y-26974000D01*
X56539499Y-26978445D01*
G37*
G36*
X51789499Y-26978445D02*
G01*
X51826995Y-26989820D01*
X51861554Y-27008292D01*
X51891847Y-27033153D01*
X51916708Y-27063446D01*
X51935180Y-27098005D01*
X51946555Y-27135501D01*
X51951000Y-27180638D01*
X51951000Y-27819362D01*
X51946555Y-27864499D01*
X51935180Y-27901995D01*
X51916708Y-27936554D01*
X51891847Y-27966847D01*
X51861554Y-27991708D01*
X51826995Y-28010180D01*
X51789499Y-28021555D01*
X51744362Y-28026000D01*
X51005638Y-28026000D01*
X50960501Y-28021555D01*
X50923005Y-28010180D01*
X50888446Y-27991708D01*
X50858153Y-27966847D01*
X50833292Y-27936554D01*
X50814820Y-27901995D01*
X50803445Y-27864499D01*
X50799000Y-27819362D01*
X50799000Y-27180638D01*
X50803445Y-27135501D01*
X50814820Y-27098005D01*
X50833292Y-27063446D01*
X50858153Y-27033153D01*
X50888446Y-27008292D01*
X50923005Y-26989820D01*
X50960501Y-26978445D01*
X51005638Y-26974000D01*
X51744362Y-26974000D01*
X51789499Y-26978445D01*
G37*
G36*
X61789499Y-26978445D02*
G01*
X61826995Y-26989820D01*
X61861554Y-27008292D01*
X61891847Y-27033153D01*
X61916708Y-27063446D01*
X61935180Y-27098005D01*
X61946555Y-27135501D01*
X61951000Y-27180638D01*
X61951000Y-27819362D01*
X61946555Y-27864499D01*
X61935180Y-27901995D01*
X61916708Y-27936554D01*
X61891847Y-27966847D01*
X61861554Y-27991708D01*
X61826995Y-28010180D01*
X61789499Y-28021555D01*
X61744362Y-28026000D01*
X61005638Y-28026000D01*
X60960501Y-28021555D01*
X60923005Y-28010180D01*
X60888446Y-27991708D01*
X60858153Y-27966847D01*
X60833292Y-27936554D01*
X60814820Y-27901995D01*
X60803445Y-27864499D01*
X60799000Y-27819362D01*
X60799000Y-27180638D01*
X60803445Y-27135501D01*
X60814820Y-27098005D01*
X60833292Y-27063446D01*
X60858153Y-27033153D01*
X60888446Y-27008292D01*
X60923005Y-26989820D01*
X60960501Y-26978445D01*
X61005638Y-26974000D01*
X61744362Y-26974000D01*
X61789499Y-26978445D01*
G37*
G36*
X23364499Y-26303445D02*
G01*
X23401995Y-26314820D01*
X23436554Y-26333292D01*
X23466847Y-26358153D01*
X23491708Y-26388446D01*
X23510180Y-26423005D01*
X23521555Y-26460501D01*
X23526000Y-26505638D01*
X23526000Y-27244362D01*
X23521555Y-27289499D01*
X23510180Y-27326995D01*
X23491708Y-27361554D01*
X23466847Y-27391847D01*
X23436554Y-27416708D01*
X23401995Y-27435180D01*
X23364499Y-27446555D01*
X23319362Y-27451000D01*
X22680638Y-27451000D01*
X22635501Y-27446555D01*
X22598005Y-27435180D01*
X22563446Y-27416708D01*
X22533153Y-27391847D01*
X22508292Y-27361554D01*
X22489820Y-27326995D01*
X22478445Y-27289499D01*
X22474000Y-27244362D01*
X22474000Y-26505638D01*
X22478445Y-26460501D01*
X22489820Y-26423005D01*
X22508292Y-26388446D01*
X22533153Y-26358153D01*
X22563446Y-26333292D01*
X22598005Y-26314820D01*
X22635501Y-26303445D01*
X22680638Y-26299000D01*
X23319362Y-26299000D01*
X23364499Y-26303445D01*
G37*
G36*
X37614499Y-26153445D02*
G01*
X37651995Y-26164820D01*
X37686554Y-26183292D01*
X37716847Y-26208153D01*
X37741708Y-26238446D01*
X37760180Y-26273005D01*
X37771555Y-26310501D01*
X37776000Y-26355638D01*
X37776000Y-27094362D01*
X37771555Y-27139499D01*
X37760180Y-27176995D01*
X37741708Y-27211554D01*
X37716847Y-27241847D01*
X37686554Y-27266708D01*
X37651995Y-27285180D01*
X37614499Y-27296555D01*
X37569362Y-27301000D01*
X36930638Y-27301000D01*
X36885501Y-27296555D01*
X36848005Y-27285180D01*
X36813446Y-27266708D01*
X36783153Y-27241847D01*
X36758292Y-27211554D01*
X36739820Y-27176995D01*
X36728445Y-27139499D01*
X36724000Y-27094362D01*
X36724000Y-26355638D01*
X36728445Y-26310501D01*
X36739820Y-26273005D01*
X36758292Y-26238446D01*
X36783153Y-26208153D01*
X36813446Y-26183292D01*
X36848005Y-26164820D01*
X36885501Y-26153445D01*
X36930638Y-26149000D01*
X37569362Y-26149000D01*
X37614499Y-26153445D01*
G37*
G36*
X33864499Y-26153445D02*
G01*
X33901995Y-26164820D01*
X33936554Y-26183292D01*
X33966847Y-26208153D01*
X33991708Y-26238446D01*
X34010180Y-26273005D01*
X34021555Y-26310501D01*
X34026000Y-26355638D01*
X34026000Y-27094362D01*
X34021555Y-27139499D01*
X34010180Y-27176995D01*
X33991708Y-27211554D01*
X33966847Y-27241847D01*
X33936554Y-27266708D01*
X33901995Y-27285180D01*
X33864499Y-27296555D01*
X33819362Y-27301000D01*
X33180638Y-27301000D01*
X33135501Y-27296555D01*
X33098005Y-27285180D01*
X33063446Y-27266708D01*
X33033153Y-27241847D01*
X33008292Y-27211554D01*
X32989820Y-27176995D01*
X32978445Y-27139499D01*
X32974000Y-27094362D01*
X32974000Y-26355638D01*
X32978445Y-26310501D01*
X32989820Y-26273005D01*
X33008292Y-26238446D01*
X33033153Y-26208153D01*
X33063446Y-26183292D01*
X33098005Y-26164820D01*
X33135501Y-26153445D01*
X33180638Y-26149000D01*
X33819362Y-26149000D01*
X33864499Y-26153445D01*
G37*
G36*
X35364499Y-26153445D02*
G01*
X35401995Y-26164820D01*
X35436554Y-26183292D01*
X35466847Y-26208153D01*
X35491708Y-26238446D01*
X35510180Y-26273005D01*
X35521555Y-26310501D01*
X35526000Y-26355638D01*
X35526000Y-27094362D01*
X35521555Y-27139499D01*
X35510180Y-27176995D01*
X35491708Y-27211554D01*
X35466847Y-27241847D01*
X35436554Y-27266708D01*
X35401995Y-27285180D01*
X35364499Y-27296555D01*
X35319362Y-27301000D01*
X34680638Y-27301000D01*
X34635501Y-27296555D01*
X34598005Y-27285180D01*
X34563446Y-27266708D01*
X34533153Y-27241847D01*
X34508292Y-27211554D01*
X34489820Y-27176995D01*
X34478445Y-27139499D01*
X34474000Y-27094362D01*
X34474000Y-26355638D01*
X34478445Y-26310501D01*
X34489820Y-26273005D01*
X34508292Y-26238446D01*
X34533153Y-26208153D01*
X34563446Y-26183292D01*
X34598005Y-26164820D01*
X34635501Y-26153445D01*
X34680638Y-26149000D01*
X35319362Y-26149000D01*
X35364499Y-26153445D01*
G37*
G36*
X39864499Y-26153445D02*
G01*
X39901995Y-26164820D01*
X39936554Y-26183292D01*
X39966847Y-26208153D01*
X39991708Y-26238446D01*
X40010180Y-26273005D01*
X40021555Y-26310501D01*
X40026000Y-26355638D01*
X40026000Y-27094362D01*
X40021555Y-27139499D01*
X40010180Y-27176995D01*
X39991708Y-27211554D01*
X39966847Y-27241847D01*
X39936554Y-27266708D01*
X39901995Y-27285180D01*
X39864499Y-27296555D01*
X39819362Y-27301000D01*
X39180638Y-27301000D01*
X39135501Y-27296555D01*
X39098005Y-27285180D01*
X39063446Y-27266708D01*
X39033153Y-27241847D01*
X39008292Y-27211554D01*
X38989820Y-27176995D01*
X38978445Y-27139499D01*
X38974000Y-27094362D01*
X38974000Y-26355638D01*
X38978445Y-26310501D01*
X38989820Y-26273005D01*
X39008292Y-26238446D01*
X39033153Y-26208153D01*
X39063446Y-26183292D01*
X39098005Y-26164820D01*
X39135501Y-26153445D01*
X39180638Y-26149000D01*
X39819362Y-26149000D01*
X39864499Y-26153445D01*
G37*
G36*
X76060721Y-25820174D02*
G01*
X76160995Y-25861709D01*
X76160996Y-25861710D01*
X76251242Y-25922010D01*
X76327990Y-25998758D01*
X76327991Y-25998760D01*
X76388291Y-26089005D01*
X76429826Y-26189279D01*
X76451000Y-26295730D01*
X76451000Y-26404270D01*
X76429826Y-26510721D01*
X76388291Y-26610995D01*
X76388290Y-26610996D01*
X76327990Y-26701242D01*
X76251242Y-26777990D01*
X76205812Y-26808345D01*
X76160995Y-26838291D01*
X76060721Y-26879826D01*
X75954270Y-26901000D01*
X75845730Y-26901000D01*
X75739279Y-26879826D01*
X75639005Y-26838291D01*
X75594188Y-26808345D01*
X75548758Y-26777990D01*
X75472010Y-26701242D01*
X75411710Y-26610996D01*
X75411709Y-26610995D01*
X75370174Y-26510721D01*
X75349000Y-26404270D01*
X75349000Y-26295730D01*
X75370174Y-26189279D01*
X75411709Y-26089005D01*
X75472009Y-25998760D01*
X75472010Y-25998758D01*
X75548758Y-25922010D01*
X75639004Y-25861710D01*
X75639005Y-25861709D01*
X75739279Y-25820174D01*
X75845730Y-25799000D01*
X75954270Y-25799000D01*
X76060721Y-25820174D01*
G37*
G36*
X24864499Y-25553445D02*
G01*
X24901995Y-25564820D01*
X24936554Y-25583292D01*
X24966847Y-25608153D01*
X24991708Y-25638446D01*
X25010180Y-25673005D01*
X25021555Y-25710501D01*
X25026000Y-25755638D01*
X25026000Y-26494362D01*
X25021555Y-26539499D01*
X25010180Y-26576995D01*
X24991708Y-26611554D01*
X24966847Y-26641847D01*
X24936554Y-26666708D01*
X24901995Y-26685180D01*
X24864499Y-26696555D01*
X24819362Y-26701000D01*
X24180638Y-26701000D01*
X24135501Y-26696555D01*
X24098005Y-26685180D01*
X24063446Y-26666708D01*
X24033153Y-26641847D01*
X24008292Y-26611554D01*
X23989820Y-26576995D01*
X23978445Y-26539499D01*
X23974000Y-26494362D01*
X23974000Y-25755638D01*
X23978445Y-25710501D01*
X23989820Y-25673005D01*
X24008292Y-25638446D01*
X24033153Y-25608153D01*
X24063446Y-25583292D01*
X24098005Y-25564820D01*
X24135501Y-25553445D01*
X24180638Y-25549000D01*
X24819362Y-25549000D01*
X24864499Y-25553445D01*
G37*
G36*
X50039499Y-25478445D02*
G01*
X50076995Y-25489820D01*
X50111554Y-25508292D01*
X50141847Y-25533153D01*
X50166708Y-25563446D01*
X50185180Y-25598005D01*
X50196555Y-25635501D01*
X50201000Y-25680638D01*
X50201000Y-26319362D01*
X50196555Y-26364499D01*
X50185180Y-26401995D01*
X50166708Y-26436554D01*
X50141847Y-26466847D01*
X50111554Y-26491708D01*
X50076995Y-26510180D01*
X50039499Y-26521555D01*
X49994362Y-26526000D01*
X49255638Y-26526000D01*
X49210501Y-26521555D01*
X49173005Y-26510180D01*
X49138446Y-26491708D01*
X49108153Y-26466847D01*
X49083292Y-26436554D01*
X49064820Y-26401995D01*
X49053445Y-26364499D01*
X49049000Y-26319362D01*
X49049000Y-25680638D01*
X49053445Y-25635501D01*
X49064820Y-25598005D01*
X49083292Y-25563446D01*
X49108153Y-25533153D01*
X49138446Y-25508292D01*
X49173005Y-25489820D01*
X49210501Y-25478445D01*
X49255638Y-25474000D01*
X49994362Y-25474000D01*
X50039499Y-25478445D01*
G37*
G36*
X51789499Y-25478445D02*
G01*
X51826995Y-25489820D01*
X51861554Y-25508292D01*
X51891847Y-25533153D01*
X51916708Y-25563446D01*
X51935180Y-25598005D01*
X51946555Y-25635501D01*
X51951000Y-25680638D01*
X51951000Y-26319362D01*
X51946555Y-26364499D01*
X51935180Y-26401995D01*
X51916708Y-26436554D01*
X51891847Y-26466847D01*
X51861554Y-26491708D01*
X51826995Y-26510180D01*
X51789499Y-26521555D01*
X51744362Y-26526000D01*
X51005638Y-26526000D01*
X50960501Y-26521555D01*
X50923005Y-26510180D01*
X50888446Y-26491708D01*
X50858153Y-26466847D01*
X50833292Y-26436554D01*
X50814820Y-26401995D01*
X50803445Y-26364499D01*
X50799000Y-26319362D01*
X50799000Y-25680638D01*
X50803445Y-25635501D01*
X50814820Y-25598005D01*
X50833292Y-25563446D01*
X50858153Y-25533153D01*
X50888446Y-25508292D01*
X50923005Y-25489820D01*
X50960501Y-25478445D01*
X51005638Y-25474000D01*
X51744362Y-25474000D01*
X51789499Y-25478445D01*
G37*
G36*
X45551000Y-26301000D02*
G01*
X44449000Y-26301000D01*
X44449000Y-25199000D01*
X45551000Y-25199000D01*
X45551000Y-26301000D01*
G37*
G36*
X43051000Y-26301000D02*
G01*
X41949000Y-26301000D01*
X41949000Y-25199000D01*
X43051000Y-25199000D01*
X43051000Y-26301000D01*
G37*
G36*
X78833642Y-24379781D02*
G01*
X78962828Y-24433292D01*
X78979416Y-24440163D01*
X79110608Y-24527822D01*
X79222178Y-24639392D01*
X79309837Y-24770584D01*
X79309838Y-24770586D01*
X79370219Y-24916358D01*
X79401000Y-25071107D01*
X79401000Y-25228893D01*
X79370219Y-25383642D01*
X79324357Y-25494362D01*
X79309837Y-25529416D01*
X79222178Y-25660608D01*
X79110608Y-25772178D01*
X78979416Y-25859837D01*
X78979415Y-25859838D01*
X78979414Y-25859838D01*
X78833642Y-25920219D01*
X78678893Y-25951000D01*
X78521107Y-25951000D01*
X78366358Y-25920219D01*
X78220586Y-25859838D01*
X78220585Y-25859838D01*
X78220584Y-25859837D01*
X78089392Y-25772178D01*
X77977822Y-25660608D01*
X77890163Y-25529416D01*
X77875643Y-25494362D01*
X77829781Y-25383642D01*
X77799000Y-25228893D01*
X77799000Y-25071107D01*
X77829781Y-24916358D01*
X77890162Y-24770586D01*
X77890163Y-24770584D01*
X77977822Y-24639392D01*
X78089392Y-24527822D01*
X78220584Y-24440163D01*
X78237172Y-24433292D01*
X78366358Y-24379781D01*
X78521107Y-24349000D01*
X78678893Y-24349000D01*
X78833642Y-24379781D01*
G37*
G36*
X74418604Y-24078347D02*
G01*
X74455144Y-24089432D01*
X74488821Y-24107433D01*
X74518341Y-24131659D01*
X74542567Y-24161179D01*
X74560568Y-24194856D01*
X74571653Y-24231396D01*
X74576000Y-24275538D01*
X74576000Y-25724462D01*
X74571653Y-25768604D01*
X74560568Y-25805144D01*
X74542567Y-25838821D01*
X74518341Y-25868341D01*
X74488821Y-25892567D01*
X74455144Y-25910568D01*
X74418604Y-25921653D01*
X74374462Y-25926000D01*
X73425538Y-25926000D01*
X73381396Y-25921653D01*
X73344856Y-25910568D01*
X73311179Y-25892567D01*
X73281659Y-25868341D01*
X73257433Y-25838821D01*
X73239432Y-25805144D01*
X73228347Y-25768604D01*
X73224000Y-25724462D01*
X73224000Y-24275538D01*
X73228347Y-24231396D01*
X73239432Y-24194856D01*
X73257433Y-24161179D01*
X73281659Y-24131659D01*
X73311179Y-24107433D01*
X73344856Y-24089432D01*
X73381396Y-24078347D01*
X73425538Y-24074000D01*
X74374462Y-24074000D01*
X74418604Y-24078347D01*
G37*
G36*
X71618604Y-24078347D02*
G01*
X71655144Y-24089432D01*
X71688821Y-24107433D01*
X71718341Y-24131659D01*
X71742567Y-24161179D01*
X71760568Y-24194856D01*
X71771653Y-24231396D01*
X71776000Y-24275538D01*
X71776000Y-25724462D01*
X71771653Y-25768604D01*
X71760568Y-25805144D01*
X71742567Y-25838821D01*
X71718341Y-25868341D01*
X71688821Y-25892567D01*
X71655144Y-25910568D01*
X71618604Y-25921653D01*
X71574462Y-25926000D01*
X70625538Y-25926000D01*
X70581396Y-25921653D01*
X70544856Y-25910568D01*
X70511179Y-25892567D01*
X70481659Y-25868341D01*
X70457433Y-25838821D01*
X70439432Y-25805144D01*
X70428347Y-25768604D01*
X70424000Y-25724462D01*
X70424000Y-24275538D01*
X70428347Y-24231396D01*
X70439432Y-24194856D01*
X70457433Y-24161179D01*
X70481659Y-24131659D01*
X70511179Y-24107433D01*
X70544856Y-24089432D01*
X70581396Y-24078347D01*
X70625538Y-24074000D01*
X71574462Y-24074000D01*
X71618604Y-24078347D01*
G37*
G36*
X23364499Y-24553445D02*
G01*
X23401995Y-24564820D01*
X23436554Y-24583292D01*
X23466847Y-24608153D01*
X23491708Y-24638446D01*
X23510180Y-24673005D01*
X23521555Y-24710501D01*
X23526000Y-24755638D01*
X23526000Y-25494362D01*
X23521555Y-25539499D01*
X23510180Y-25576995D01*
X23491708Y-25611554D01*
X23466847Y-25641847D01*
X23436554Y-25666708D01*
X23401995Y-25685180D01*
X23364499Y-25696555D01*
X23319362Y-25701000D01*
X22680638Y-25701000D01*
X22635501Y-25696555D01*
X22598005Y-25685180D01*
X22563446Y-25666708D01*
X22533153Y-25641847D01*
X22508292Y-25611554D01*
X22489820Y-25576995D01*
X22478445Y-25539499D01*
X22474000Y-25494362D01*
X22474000Y-24755638D01*
X22478445Y-24710501D01*
X22489820Y-24673005D01*
X22508292Y-24638446D01*
X22533153Y-24608153D01*
X22563446Y-24583292D01*
X22598005Y-24564820D01*
X22635501Y-24553445D01*
X22680638Y-24549000D01*
X23319362Y-24549000D01*
X23364499Y-24553445D01*
G37*
G36*
X58426000Y-25681000D02*
G01*
X57674000Y-25681000D01*
X57674000Y-24519000D01*
X58426000Y-24519000D01*
X58426000Y-25681000D01*
G37*
G36*
X60326000Y-25681000D02*
G01*
X59574000Y-25681000D01*
X59574000Y-24519000D01*
X60326000Y-24519000D01*
X60326000Y-25681000D01*
G37*
G36*
X39864499Y-24403445D02*
G01*
X39901995Y-24414820D01*
X39936554Y-24433292D01*
X39966847Y-24458153D01*
X39991708Y-24488446D01*
X40010180Y-24523005D01*
X40021555Y-24560501D01*
X40026000Y-24605638D01*
X40026000Y-25344362D01*
X40021555Y-25389499D01*
X40010180Y-25426995D01*
X39991708Y-25461554D01*
X39966847Y-25491847D01*
X39936554Y-25516708D01*
X39901995Y-25535180D01*
X39864499Y-25546555D01*
X39819362Y-25551000D01*
X39180638Y-25551000D01*
X39135501Y-25546555D01*
X39098005Y-25535180D01*
X39063446Y-25516708D01*
X39033153Y-25491847D01*
X39008292Y-25461554D01*
X38989820Y-25426995D01*
X38978445Y-25389499D01*
X38974000Y-25344362D01*
X38974000Y-24605638D01*
X38978445Y-24560501D01*
X38989820Y-24523005D01*
X39008292Y-24488446D01*
X39033153Y-24458153D01*
X39063446Y-24433292D01*
X39098005Y-24414820D01*
X39135501Y-24403445D01*
X39180638Y-24399000D01*
X39819362Y-24399000D01*
X39864499Y-24403445D01*
G37*
G36*
X37614499Y-24403445D02*
G01*
X37651995Y-24414820D01*
X37686554Y-24433292D01*
X37716847Y-24458153D01*
X37741708Y-24488446D01*
X37760180Y-24523005D01*
X37771555Y-24560501D01*
X37776000Y-24605638D01*
X37776000Y-25344362D01*
X37771555Y-25389499D01*
X37760180Y-25426995D01*
X37741708Y-25461554D01*
X37716847Y-25491847D01*
X37686554Y-25516708D01*
X37651995Y-25535180D01*
X37614499Y-25546555D01*
X37569362Y-25551000D01*
X36930638Y-25551000D01*
X36885501Y-25546555D01*
X36848005Y-25535180D01*
X36813446Y-25516708D01*
X36783153Y-25491847D01*
X36758292Y-25461554D01*
X36739820Y-25426995D01*
X36728445Y-25389499D01*
X36724000Y-25344362D01*
X36724000Y-24605638D01*
X36728445Y-24560501D01*
X36739820Y-24523005D01*
X36758292Y-24488446D01*
X36783153Y-24458153D01*
X36813446Y-24433292D01*
X36848005Y-24414820D01*
X36885501Y-24403445D01*
X36930638Y-24399000D01*
X37569362Y-24399000D01*
X37614499Y-24403445D01*
G37*
G36*
X35364499Y-24403445D02*
G01*
X35401995Y-24414820D01*
X35436554Y-24433292D01*
X35466847Y-24458153D01*
X35491708Y-24488446D01*
X35510180Y-24523005D01*
X35521555Y-24560501D01*
X35526000Y-24605638D01*
X35526000Y-25344362D01*
X35521555Y-25389499D01*
X35510180Y-25426995D01*
X35491708Y-25461554D01*
X35466847Y-25491847D01*
X35436554Y-25516708D01*
X35401995Y-25535180D01*
X35364499Y-25546555D01*
X35319362Y-25551000D01*
X34680638Y-25551000D01*
X34635501Y-25546555D01*
X34598005Y-25535180D01*
X34563446Y-25516708D01*
X34533153Y-25491847D01*
X34508292Y-25461554D01*
X34489820Y-25426995D01*
X34478445Y-25389499D01*
X34474000Y-25344362D01*
X34474000Y-24605638D01*
X34478445Y-24560501D01*
X34489820Y-24523005D01*
X34508292Y-24488446D01*
X34533153Y-24458153D01*
X34563446Y-24433292D01*
X34598005Y-24414820D01*
X34635501Y-24403445D01*
X34680638Y-24399000D01*
X35319362Y-24399000D01*
X35364499Y-24403445D01*
G37*
G36*
X33864499Y-24403445D02*
G01*
X33901995Y-24414820D01*
X33936554Y-24433292D01*
X33966847Y-24458153D01*
X33991708Y-24488446D01*
X34010180Y-24523005D01*
X34021555Y-24560501D01*
X34026000Y-24605638D01*
X34026000Y-25344362D01*
X34021555Y-25389499D01*
X34010180Y-25426995D01*
X33991708Y-25461554D01*
X33966847Y-25491847D01*
X33936554Y-25516708D01*
X33901995Y-25535180D01*
X33864499Y-25546555D01*
X33819362Y-25551000D01*
X33180638Y-25551000D01*
X33135501Y-25546555D01*
X33098005Y-25535180D01*
X33063446Y-25516708D01*
X33033153Y-25491847D01*
X33008292Y-25461554D01*
X32989820Y-25426995D01*
X32978445Y-25389499D01*
X32974000Y-25344362D01*
X32974000Y-24605638D01*
X32978445Y-24560501D01*
X32989820Y-24523005D01*
X33008292Y-24488446D01*
X33033153Y-24458153D01*
X33063446Y-24433292D01*
X33098005Y-24414820D01*
X33135501Y-24403445D01*
X33180638Y-24399000D01*
X33819362Y-24399000D01*
X33864499Y-24403445D01*
G37*
G36*
X54364499Y-24303445D02*
G01*
X54401995Y-24314820D01*
X54436554Y-24333292D01*
X54466847Y-24358153D01*
X54491708Y-24388446D01*
X54510180Y-24423005D01*
X54521555Y-24460501D01*
X54526000Y-24505638D01*
X54526000Y-25244362D01*
X54521555Y-25289499D01*
X54510180Y-25326995D01*
X54491708Y-25361554D01*
X54466847Y-25391847D01*
X54436554Y-25416708D01*
X54401995Y-25435180D01*
X54364499Y-25446555D01*
X54319362Y-25451000D01*
X53680638Y-25451000D01*
X53635501Y-25446555D01*
X53598005Y-25435180D01*
X53563446Y-25416708D01*
X53533153Y-25391847D01*
X53508292Y-25361554D01*
X53489820Y-25326995D01*
X53478445Y-25289499D01*
X53474000Y-25244362D01*
X53474000Y-24505638D01*
X53478445Y-24460501D01*
X53489820Y-24423005D01*
X53508292Y-24388446D01*
X53533153Y-24358153D01*
X53563446Y-24333292D01*
X53598005Y-24314820D01*
X53635501Y-24303445D01*
X53680638Y-24299000D01*
X54319362Y-24299000D01*
X54364499Y-24303445D01*
G37*
G36*
X62364499Y-24303445D02*
G01*
X62401995Y-24314820D01*
X62436554Y-24333292D01*
X62466847Y-24358153D01*
X62491708Y-24388446D01*
X62510180Y-24423005D01*
X62521555Y-24460501D01*
X62526000Y-24505638D01*
X62526000Y-25244362D01*
X62521555Y-25289499D01*
X62510180Y-25326995D01*
X62491708Y-25361554D01*
X62466847Y-25391847D01*
X62436554Y-25416708D01*
X62401995Y-25435180D01*
X62364499Y-25446555D01*
X62319362Y-25451000D01*
X61680638Y-25451000D01*
X61635501Y-25446555D01*
X61598005Y-25435180D01*
X61563446Y-25416708D01*
X61533153Y-25391847D01*
X61508292Y-25361554D01*
X61489820Y-25326995D01*
X61478445Y-25289499D01*
X61474000Y-25244362D01*
X61474000Y-24505638D01*
X61478445Y-24460501D01*
X61489820Y-24423005D01*
X61508292Y-24388446D01*
X61533153Y-24358153D01*
X61563446Y-24333292D01*
X61598005Y-24314820D01*
X61635501Y-24303445D01*
X61680638Y-24299000D01*
X62319362Y-24299000D01*
X62364499Y-24303445D01*
G37*
G36*
X56064499Y-24303445D02*
G01*
X56101995Y-24314820D01*
X56136554Y-24333292D01*
X56166847Y-24358153D01*
X56191708Y-24388446D01*
X56210180Y-24423005D01*
X56221555Y-24460501D01*
X56226000Y-24505638D01*
X56226000Y-25244362D01*
X56221555Y-25289499D01*
X56210180Y-25326995D01*
X56191708Y-25361554D01*
X56166847Y-25391847D01*
X56136554Y-25416708D01*
X56101995Y-25435180D01*
X56064499Y-25446555D01*
X56019362Y-25451000D01*
X55380638Y-25451000D01*
X55335501Y-25446555D01*
X55298005Y-25435180D01*
X55263446Y-25416708D01*
X55233153Y-25391847D01*
X55208292Y-25361554D01*
X55189820Y-25326995D01*
X55178445Y-25289499D01*
X55174000Y-25244362D01*
X55174000Y-24505638D01*
X55178445Y-24460501D01*
X55189820Y-24423005D01*
X55208292Y-24388446D01*
X55233153Y-24358153D01*
X55263446Y-24333292D01*
X55298005Y-24314820D01*
X55335501Y-24303445D01*
X55380638Y-24299000D01*
X56019362Y-24299000D01*
X56064499Y-24303445D01*
G37*
G36*
X67231000Y-25326000D02*
G01*
X65569000Y-25326000D01*
X65569000Y-22674000D01*
X67231000Y-22674000D01*
X67231000Y-25326000D01*
G37*
G36*
X69931000Y-25326000D02*
G01*
X68269000Y-25326000D01*
X68269000Y-22674000D01*
X69931000Y-22674000D01*
X69931000Y-25326000D01*
G37*
G36*
X45551000Y-24051000D02*
G01*
X44449000Y-24051000D01*
X44449000Y-22949000D01*
X45551000Y-22949000D01*
X45551000Y-24051000D01*
G37*
G36*
X43051000Y-24051000D02*
G01*
X41949000Y-24051000D01*
X41949000Y-22949000D01*
X43051000Y-22949000D01*
X43051000Y-24051000D01*
G37*
G36*
X62364499Y-22553445D02*
G01*
X62401995Y-22564820D01*
X62436554Y-22583292D01*
X62466847Y-22608153D01*
X62491708Y-22638446D01*
X62510180Y-22673005D01*
X62521555Y-22710501D01*
X62526000Y-22755638D01*
X62526000Y-23494362D01*
X62521555Y-23539499D01*
X62510180Y-23576995D01*
X62491708Y-23611554D01*
X62466847Y-23641847D01*
X62436554Y-23666708D01*
X62401995Y-23685180D01*
X62364499Y-23696555D01*
X62319362Y-23701000D01*
X61680638Y-23701000D01*
X61635501Y-23696555D01*
X61598005Y-23685180D01*
X61563446Y-23666708D01*
X61533153Y-23641847D01*
X61508292Y-23611554D01*
X61489820Y-23576995D01*
X61478445Y-23539499D01*
X61474000Y-23494362D01*
X61474000Y-22755638D01*
X61478445Y-22710501D01*
X61489820Y-22673005D01*
X61508292Y-22638446D01*
X61533153Y-22608153D01*
X61563446Y-22583292D01*
X61598005Y-22564820D01*
X61635501Y-22553445D01*
X61680638Y-22549000D01*
X62319362Y-22549000D01*
X62364499Y-22553445D01*
G37*
G36*
X56064499Y-22553445D02*
G01*
X56101995Y-22564820D01*
X56136554Y-22583292D01*
X56166847Y-22608153D01*
X56191708Y-22638446D01*
X56210180Y-22673005D01*
X56221555Y-22710501D01*
X56226000Y-22755638D01*
X56226000Y-23494362D01*
X56221555Y-23539499D01*
X56210180Y-23576995D01*
X56191708Y-23611554D01*
X56166847Y-23641847D01*
X56136554Y-23666708D01*
X56101995Y-23685180D01*
X56064499Y-23696555D01*
X56019362Y-23701000D01*
X55380638Y-23701000D01*
X55335501Y-23696555D01*
X55298005Y-23685180D01*
X55263446Y-23666708D01*
X55233153Y-23641847D01*
X55208292Y-23611554D01*
X55189820Y-23576995D01*
X55178445Y-23539499D01*
X55174000Y-23494362D01*
X55174000Y-22755638D01*
X55178445Y-22710501D01*
X55189820Y-22673005D01*
X55208292Y-22638446D01*
X55233153Y-22608153D01*
X55263446Y-22583292D01*
X55298005Y-22564820D01*
X55335501Y-22553445D01*
X55380638Y-22549000D01*
X56019362Y-22549000D01*
X56064499Y-22553445D01*
G37*
G36*
X54364499Y-22553445D02*
G01*
X54401995Y-22564820D01*
X54436554Y-22583292D01*
X54466847Y-22608153D01*
X54491708Y-22638446D01*
X54510180Y-22673005D01*
X54521555Y-22710501D01*
X54526000Y-22755638D01*
X54526000Y-23494362D01*
X54521555Y-23539499D01*
X54510180Y-23576995D01*
X54491708Y-23611554D01*
X54466847Y-23641847D01*
X54436554Y-23666708D01*
X54401995Y-23685180D01*
X54364499Y-23696555D01*
X54319362Y-23701000D01*
X53680638Y-23701000D01*
X53635501Y-23696555D01*
X53598005Y-23685180D01*
X53563446Y-23666708D01*
X53533153Y-23641847D01*
X53508292Y-23611554D01*
X53489820Y-23576995D01*
X53478445Y-23539499D01*
X53474000Y-23494362D01*
X53474000Y-22755638D01*
X53478445Y-22710501D01*
X53489820Y-22673005D01*
X53508292Y-22638446D01*
X53533153Y-22608153D01*
X53563446Y-22583292D01*
X53598005Y-22564820D01*
X53635501Y-22553445D01*
X53680638Y-22549000D01*
X54319362Y-22549000D01*
X54364499Y-22553445D01*
G37*
G36*
X37451000Y-23551000D02*
G01*
X25549000Y-23551000D01*
X25549000Y-22149000D01*
X37451000Y-22149000D01*
X37451000Y-23551000D01*
G37*
G36*
X60326000Y-23481000D02*
G01*
X57674000Y-23481000D01*
X57674000Y-22319000D01*
X60326000Y-22319000D01*
X60326000Y-23481000D01*
G37*
G36*
X73789499Y-21978445D02*
G01*
X73826995Y-21989820D01*
X73861554Y-22008292D01*
X73891847Y-22033153D01*
X73916708Y-22063446D01*
X73935180Y-22098005D01*
X73946555Y-22135501D01*
X73951000Y-22180638D01*
X73951000Y-22819362D01*
X73946555Y-22864499D01*
X73935180Y-22901995D01*
X73916708Y-22936554D01*
X73891847Y-22966847D01*
X73861554Y-22991708D01*
X73826995Y-23010180D01*
X73789499Y-23021555D01*
X73744362Y-23026000D01*
X73005638Y-23026000D01*
X72960501Y-23021555D01*
X72923005Y-23010180D01*
X72888446Y-22991708D01*
X72858153Y-22966847D01*
X72833292Y-22936554D01*
X72814820Y-22901995D01*
X72803445Y-22864499D01*
X72799000Y-22819362D01*
X72799000Y-22180638D01*
X72803445Y-22135501D01*
X72814820Y-22098005D01*
X72833292Y-22063446D01*
X72858153Y-22033153D01*
X72888446Y-22008292D01*
X72923005Y-21989820D01*
X72960501Y-21978445D01*
X73005638Y-21974000D01*
X73744362Y-21974000D01*
X73789499Y-21978445D01*
G37*
G36*
X72039499Y-21978445D02*
G01*
X72076995Y-21989820D01*
X72111554Y-22008292D01*
X72141847Y-22033153D01*
X72166708Y-22063446D01*
X72185180Y-22098005D01*
X72196555Y-22135501D01*
X72201000Y-22180638D01*
X72201000Y-22819362D01*
X72196555Y-22864499D01*
X72185180Y-22901995D01*
X72166708Y-22936554D01*
X72141847Y-22966847D01*
X72111554Y-22991708D01*
X72076995Y-23010180D01*
X72039499Y-23021555D01*
X71994362Y-23026000D01*
X71255638Y-23026000D01*
X71210501Y-23021555D01*
X71173005Y-23010180D01*
X71138446Y-22991708D01*
X71108153Y-22966847D01*
X71083292Y-22936554D01*
X71064820Y-22901995D01*
X71053445Y-22864499D01*
X71049000Y-22819362D01*
X71049000Y-22180638D01*
X71053445Y-22135501D01*
X71064820Y-22098005D01*
X71083292Y-22063446D01*
X71108153Y-22033153D01*
X71138446Y-22008292D01*
X71173005Y-21989820D01*
X71210501Y-21978445D01*
X71255638Y-21974000D01*
X71994362Y-21974000D01*
X72039499Y-21978445D01*
G37*
G36*
X45551000Y-21801000D02*
G01*
X44449000Y-21801000D01*
X44449000Y-20699000D01*
X45551000Y-20699000D01*
X45551000Y-21801000D01*
G37*
G36*
X43051000Y-21801000D02*
G01*
X41949000Y-21801000D01*
X41949000Y-20699000D01*
X43051000Y-20699000D01*
X43051000Y-21801000D01*
G37*
G36*
X78766242Y-20353404D02*
G01*
X78803337Y-20364657D01*
X78837515Y-20382925D01*
X78867481Y-20407519D01*
X78892075Y-20437485D01*
X78910343Y-20471663D01*
X78921596Y-20508758D01*
X78926000Y-20553474D01*
X78926000Y-21446526D01*
X78921596Y-21491242D01*
X78910343Y-21528337D01*
X78892075Y-21562515D01*
X78867481Y-21592481D01*
X78837515Y-21617075D01*
X78803337Y-21635343D01*
X78766242Y-21646596D01*
X78721526Y-21651000D01*
X77278474Y-21651000D01*
X77233758Y-21646596D01*
X77196663Y-21635343D01*
X77162485Y-21617075D01*
X77132519Y-21592481D01*
X77107925Y-21562515D01*
X77089657Y-21528337D01*
X77078404Y-21491242D01*
X77074000Y-21446526D01*
X77074000Y-20553474D01*
X77078404Y-20508758D01*
X77089657Y-20471663D01*
X77107925Y-20437485D01*
X77132519Y-20407519D01*
X77162485Y-20382925D01*
X77196663Y-20364657D01*
X77233758Y-20353404D01*
X77278474Y-20349000D01*
X78721526Y-20349000D01*
X78766242Y-20353404D01*
G37*
G36*
X65768604Y-19728347D02*
G01*
X65805144Y-19739432D01*
X65838821Y-19757433D01*
X65868341Y-19781659D01*
X65892567Y-19811179D01*
X65910568Y-19844856D01*
X65921653Y-19881396D01*
X65926000Y-19925538D01*
X65926000Y-20874462D01*
X65921653Y-20918604D01*
X65910568Y-20955144D01*
X65892567Y-20988821D01*
X65868341Y-21018341D01*
X65838821Y-21042567D01*
X65805144Y-21060568D01*
X65768604Y-21071653D01*
X65724462Y-21076000D01*
X64275538Y-21076000D01*
X64231396Y-21071653D01*
X64194856Y-21060568D01*
X64161179Y-21042567D01*
X64131659Y-21018341D01*
X64107433Y-20988821D01*
X64089432Y-20955144D01*
X64078347Y-20918604D01*
X64074000Y-20874462D01*
X64074000Y-19925538D01*
X64078347Y-19881396D01*
X64089432Y-19844856D01*
X64107433Y-19811179D01*
X64131659Y-19781659D01*
X64161179Y-19757433D01*
X64194856Y-19739432D01*
X64231396Y-19728347D01*
X64275538Y-19724000D01*
X65724462Y-19724000D01*
X65768604Y-19728347D01*
G37*
G36*
X70018604Y-19728347D02*
G01*
X70055144Y-19739432D01*
X70088821Y-19757433D01*
X70118341Y-19781659D01*
X70142567Y-19811179D01*
X70160568Y-19844856D01*
X70171653Y-19881396D01*
X70176000Y-19925538D01*
X70176000Y-20874462D01*
X70171653Y-20918604D01*
X70160568Y-20955144D01*
X70142567Y-20988821D01*
X70118341Y-21018341D01*
X70088821Y-21042567D01*
X70055144Y-21060568D01*
X70018604Y-21071653D01*
X69974462Y-21076000D01*
X68525538Y-21076000D01*
X68481396Y-21071653D01*
X68444856Y-21060568D01*
X68411179Y-21042567D01*
X68381659Y-21018341D01*
X68357433Y-20988821D01*
X68339432Y-20955144D01*
X68328347Y-20918604D01*
X68324000Y-20874462D01*
X68324000Y-19925538D01*
X68328347Y-19881396D01*
X68339432Y-19844856D01*
X68357433Y-19811179D01*
X68381659Y-19781659D01*
X68411179Y-19757433D01*
X68444856Y-19739432D01*
X68481396Y-19728347D01*
X68525538Y-19724000D01*
X69974462Y-19724000D01*
X70018604Y-19728347D01*
G37*
G36*
X24801000Y-20751000D02*
G01*
X22899000Y-20751000D01*
X22899000Y-18449000D01*
X24801000Y-18449000D01*
X24801000Y-20751000D01*
G37*
G36*
X40101000Y-20751000D02*
G01*
X38199000Y-20751000D01*
X38199000Y-18449000D01*
X40101000Y-18449000D01*
X40101000Y-20751000D01*
G37*
G36*
X63364499Y-19303445D02*
G01*
X63401995Y-19314820D01*
X63436554Y-19333292D01*
X63466847Y-19358153D01*
X63491708Y-19388446D01*
X63510180Y-19423005D01*
X63521555Y-19460501D01*
X63526000Y-19505638D01*
X63526000Y-20244362D01*
X63521555Y-20289499D01*
X63510180Y-20326995D01*
X63491708Y-20361554D01*
X63466847Y-20391847D01*
X63436554Y-20416708D01*
X63401995Y-20435180D01*
X63364499Y-20446555D01*
X63319362Y-20451000D01*
X62680638Y-20451000D01*
X62635501Y-20446555D01*
X62598005Y-20435180D01*
X62563446Y-20416708D01*
X62533153Y-20391847D01*
X62508292Y-20361554D01*
X62489820Y-20326995D01*
X62478445Y-20289499D01*
X62474000Y-20244362D01*
X62474000Y-19505638D01*
X62478445Y-19460501D01*
X62489820Y-19423005D01*
X62508292Y-19388446D01*
X62533153Y-19358153D01*
X62563446Y-19333292D01*
X62598005Y-19314820D01*
X62635501Y-19303445D01*
X62680638Y-19299000D01*
X63319362Y-19299000D01*
X63364499Y-19303445D01*
G37*
G36*
X67364499Y-19303445D02*
G01*
X67401995Y-19314820D01*
X67436554Y-19333292D01*
X67466847Y-19358153D01*
X67491708Y-19388446D01*
X67510180Y-19423005D01*
X67521555Y-19460501D01*
X67526000Y-19505638D01*
X67526000Y-20244362D01*
X67521555Y-20289499D01*
X67510180Y-20326995D01*
X67491708Y-20361554D01*
X67466847Y-20391847D01*
X67436554Y-20416708D01*
X67401995Y-20435180D01*
X67364499Y-20446555D01*
X67319362Y-20451000D01*
X66680638Y-20451000D01*
X66635501Y-20446555D01*
X66598005Y-20435180D01*
X66563446Y-20416708D01*
X66533153Y-20391847D01*
X66508292Y-20361554D01*
X66489820Y-20326995D01*
X66478445Y-20289499D01*
X66474000Y-20244362D01*
X66474000Y-19505638D01*
X66478445Y-19460501D01*
X66489820Y-19423005D01*
X66508292Y-19388446D01*
X66533153Y-19358153D01*
X66563446Y-19333292D01*
X66598005Y-19314820D01*
X66635501Y-19303445D01*
X66680638Y-19299000D01*
X67319362Y-19299000D01*
X67364499Y-19303445D01*
G37*
G36*
X72026000Y-20426000D02*
G01*
X71024000Y-20426000D01*
X71024000Y-19524000D01*
X72026000Y-19524000D01*
X72026000Y-20426000D01*
G37*
G36*
X57926000Y-19801000D02*
G01*
X56224000Y-19801000D01*
X56224000Y-16199000D01*
X57926000Y-16199000D01*
X57926000Y-19801000D01*
G37*
G36*
X60326000Y-19801000D02*
G01*
X58624000Y-19801000D01*
X58624000Y-16199000D01*
X60326000Y-16199000D01*
X60326000Y-19801000D01*
G37*
G36*
X45039499Y-18728445D02*
G01*
X45076995Y-18739820D01*
X45111554Y-18758292D01*
X45141847Y-18783153D01*
X45166708Y-18813446D01*
X45185180Y-18848005D01*
X45196555Y-18885501D01*
X45201000Y-18930638D01*
X45201000Y-19569362D01*
X45196555Y-19614499D01*
X45185180Y-19651995D01*
X45166708Y-19686554D01*
X45141847Y-19716847D01*
X45111554Y-19741708D01*
X45076995Y-19760180D01*
X45039499Y-19771555D01*
X44994362Y-19776000D01*
X44255638Y-19776000D01*
X44210501Y-19771555D01*
X44173005Y-19760180D01*
X44138446Y-19741708D01*
X44108153Y-19716847D01*
X44083292Y-19686554D01*
X44064820Y-19651995D01*
X44053445Y-19614499D01*
X44049000Y-19569362D01*
X44049000Y-18930638D01*
X44053445Y-18885501D01*
X44064820Y-18848005D01*
X44083292Y-18813446D01*
X44108153Y-18783153D01*
X44138446Y-18758292D01*
X44173005Y-18739820D01*
X44210501Y-18728445D01*
X44255638Y-18724000D01*
X44994362Y-18724000D01*
X45039499Y-18728445D01*
G37*
G36*
X43289499Y-18728445D02*
G01*
X43326995Y-18739820D01*
X43361554Y-18758292D01*
X43391847Y-18783153D01*
X43416708Y-18813446D01*
X43435180Y-18848005D01*
X43446555Y-18885501D01*
X43451000Y-18930638D01*
X43451000Y-19569362D01*
X43446555Y-19614499D01*
X43435180Y-19651995D01*
X43416708Y-19686554D01*
X43391847Y-19716847D01*
X43361554Y-19741708D01*
X43326995Y-19760180D01*
X43289499Y-19771555D01*
X43244362Y-19776000D01*
X42505638Y-19776000D01*
X42460501Y-19771555D01*
X42423005Y-19760180D01*
X42388446Y-19741708D01*
X42358153Y-19716847D01*
X42333292Y-19686554D01*
X42314820Y-19651995D01*
X42303445Y-19614499D01*
X42299000Y-19569362D01*
X42299000Y-18930638D01*
X42303445Y-18885501D01*
X42314820Y-18848005D01*
X42333292Y-18813446D01*
X42358153Y-18783153D01*
X42388446Y-18758292D01*
X42423005Y-18739820D01*
X42460501Y-18728445D01*
X42505638Y-18724000D01*
X43244362Y-18724000D01*
X43289499Y-18728445D01*
G37*
G36*
X78338855Y-18352140D02*
G01*
X78402618Y-18358420D01*
X78493404Y-18385960D01*
X78525336Y-18395646D01*
X78638425Y-18456094D01*
X78737554Y-18537446D01*
X78818906Y-18636575D01*
X78879354Y-18749664D01*
X78879355Y-18749668D01*
X78916580Y-18872382D01*
X78929149Y-19000000D01*
X78916580Y-19127618D01*
X78889040Y-19218404D01*
X78879354Y-19250336D01*
X78818906Y-19363425D01*
X78737554Y-19462554D01*
X78638425Y-19543906D01*
X78525336Y-19604354D01*
X78494704Y-19613646D01*
X78402618Y-19641580D01*
X78338855Y-19647860D01*
X78306974Y-19651000D01*
X77693026Y-19651000D01*
X77661145Y-19647860D01*
X77597382Y-19641580D01*
X77505296Y-19613646D01*
X77474664Y-19604354D01*
X77361575Y-19543906D01*
X77262446Y-19462554D01*
X77181094Y-19363425D01*
X77120646Y-19250336D01*
X77110960Y-19218404D01*
X77083420Y-19127618D01*
X77070851Y-19000000D01*
X77083420Y-18872382D01*
X77120645Y-18749668D01*
X77120646Y-18749664D01*
X77181094Y-18636575D01*
X77262446Y-18537446D01*
X77361575Y-18456094D01*
X77474664Y-18395646D01*
X77506596Y-18385960D01*
X77597382Y-18358420D01*
X77661145Y-18352140D01*
X77693026Y-18349000D01*
X78306974Y-18349000D01*
X78338855Y-18352140D01*
G37*
G36*
X74026000Y-19476000D02*
G01*
X73024000Y-19476000D01*
X73024000Y-18574000D01*
X74026000Y-18574000D01*
X74026000Y-19476000D01*
G37*
G36*
X67364499Y-17553445D02*
G01*
X67401995Y-17564820D01*
X67436554Y-17583292D01*
X67466847Y-17608153D01*
X67491708Y-17638446D01*
X67510180Y-17673005D01*
X67521555Y-17710501D01*
X67526000Y-17755638D01*
X67526000Y-18494362D01*
X67521555Y-18539499D01*
X67510180Y-18576995D01*
X67491708Y-18611554D01*
X67466847Y-18641847D01*
X67436554Y-18666708D01*
X67401995Y-18685180D01*
X67364499Y-18696555D01*
X67319362Y-18701000D01*
X66680638Y-18701000D01*
X66635501Y-18696555D01*
X66598005Y-18685180D01*
X66563446Y-18666708D01*
X66533153Y-18641847D01*
X66508292Y-18611554D01*
X66489820Y-18576995D01*
X66478445Y-18539499D01*
X66474000Y-18494362D01*
X66474000Y-17755638D01*
X66478445Y-17710501D01*
X66489820Y-17673005D01*
X66508292Y-17638446D01*
X66533153Y-17608153D01*
X66563446Y-17583292D01*
X66598005Y-17564820D01*
X66635501Y-17553445D01*
X66680638Y-17549000D01*
X67319362Y-17549000D01*
X67364499Y-17553445D01*
G37*
G36*
X63364499Y-17553445D02*
G01*
X63401995Y-17564820D01*
X63436554Y-17583292D01*
X63466847Y-17608153D01*
X63491708Y-17638446D01*
X63510180Y-17673005D01*
X63521555Y-17710501D01*
X63526000Y-17755638D01*
X63526000Y-18494362D01*
X63521555Y-18539499D01*
X63510180Y-18576995D01*
X63491708Y-18611554D01*
X63466847Y-18641847D01*
X63436554Y-18666708D01*
X63401995Y-18685180D01*
X63364499Y-18696555D01*
X63319362Y-18701000D01*
X62680638Y-18701000D01*
X62635501Y-18696555D01*
X62598005Y-18685180D01*
X62563446Y-18666708D01*
X62533153Y-18641847D01*
X62508292Y-18611554D01*
X62489820Y-18576995D01*
X62478445Y-18539499D01*
X62474000Y-18494362D01*
X62474000Y-17755638D01*
X62478445Y-17710501D01*
X62489820Y-17673005D01*
X62508292Y-17638446D01*
X62533153Y-17608153D01*
X62563446Y-17583292D01*
X62598005Y-17564820D01*
X62635501Y-17553445D01*
X62680638Y-17549000D01*
X63319362Y-17549000D01*
X63364499Y-17553445D01*
G37*
G36*
X72026000Y-18526000D02*
G01*
X71024000Y-18526000D01*
X71024000Y-17624000D01*
X72026000Y-17624000D01*
X72026000Y-18526000D01*
G37*
G36*
X65768604Y-16928347D02*
G01*
X65805144Y-16939432D01*
X65838821Y-16957433D01*
X65868341Y-16981659D01*
X65892567Y-17011179D01*
X65910568Y-17044856D01*
X65921653Y-17081396D01*
X65926000Y-17125538D01*
X65926000Y-18074462D01*
X65921653Y-18118604D01*
X65910568Y-18155144D01*
X65892567Y-18188821D01*
X65868341Y-18218341D01*
X65838821Y-18242567D01*
X65805144Y-18260568D01*
X65768604Y-18271653D01*
X65724462Y-18276000D01*
X64275538Y-18276000D01*
X64231396Y-18271653D01*
X64194856Y-18260568D01*
X64161179Y-18242567D01*
X64131659Y-18218341D01*
X64107433Y-18188821D01*
X64089432Y-18155144D01*
X64078347Y-18118604D01*
X64074000Y-18074462D01*
X64074000Y-17125538D01*
X64078347Y-17081396D01*
X64089432Y-17044856D01*
X64107433Y-17011179D01*
X64131659Y-16981659D01*
X64161179Y-16957433D01*
X64194856Y-16939432D01*
X64231396Y-16928347D01*
X64275538Y-16924000D01*
X65724462Y-16924000D01*
X65768604Y-16928347D01*
G37*
G36*
X70018604Y-16928347D02*
G01*
X70055144Y-16939432D01*
X70088821Y-16957433D01*
X70118341Y-16981659D01*
X70142567Y-17011179D01*
X70160568Y-17044856D01*
X70171653Y-17081396D01*
X70176000Y-17125538D01*
X70176000Y-18074462D01*
X70171653Y-18118604D01*
X70160568Y-18155144D01*
X70142567Y-18188821D01*
X70118341Y-18218341D01*
X70088821Y-18242567D01*
X70055144Y-18260568D01*
X70018604Y-18271653D01*
X69974462Y-18276000D01*
X68525538Y-18276000D01*
X68481396Y-18271653D01*
X68444856Y-18260568D01*
X68411179Y-18242567D01*
X68381659Y-18218341D01*
X68357433Y-18188821D01*
X68339432Y-18155144D01*
X68328347Y-18118604D01*
X68324000Y-18074462D01*
X68324000Y-17125538D01*
X68328347Y-17081396D01*
X68339432Y-17044856D01*
X68357433Y-17011179D01*
X68381659Y-16981659D01*
X68411179Y-16957433D01*
X68444856Y-16939432D01*
X68481396Y-16928347D01*
X68525538Y-16924000D01*
X69974462Y-16924000D01*
X70018604Y-16928347D01*
G37*
G36*
X50301000Y-18051000D02*
G01*
X46699000Y-18051000D01*
X46699000Y-16349000D01*
X50301000Y-16349000D01*
X50301000Y-18051000D01*
G37*
G36*
X44201000Y-18001000D02*
G01*
X43299000Y-18001000D01*
X43299000Y-16999000D01*
X44201000Y-16999000D01*
X44201000Y-18001000D01*
G37*
G36*
X53801000Y-17801000D02*
G01*
X52699000Y-17801000D01*
X52699000Y-16699000D01*
X53801000Y-16699000D01*
X53801000Y-17801000D01*
G37*
G36*
X70326000Y-16381000D02*
G01*
X67674000Y-16381000D01*
X67674000Y-15219000D01*
X70326000Y-15219000D01*
X70326000Y-16381000D01*
G37*
G36*
X45151000Y-16001000D02*
G01*
X44249000Y-16001000D01*
X44249000Y-14999000D01*
X45151000Y-14999000D01*
X45151000Y-16001000D01*
G37*
G36*
X43251000Y-16001000D02*
G01*
X42349000Y-16001000D01*
X42349000Y-14999000D01*
X43251000Y-14999000D01*
X43251000Y-16001000D01*
G37*
G36*
X64389499Y-14803445D02*
G01*
X64426995Y-14814820D01*
X64461554Y-14833292D01*
X64491847Y-14858153D01*
X64516708Y-14888446D01*
X64535180Y-14923005D01*
X64546555Y-14960501D01*
X64551000Y-15005638D01*
X64551000Y-15744362D01*
X64546555Y-15789499D01*
X64535180Y-15826995D01*
X64516708Y-15861554D01*
X64491847Y-15891847D01*
X64461554Y-15916708D01*
X64426995Y-15935180D01*
X64389499Y-15946555D01*
X64344362Y-15951000D01*
X63705638Y-15951000D01*
X63660501Y-15946555D01*
X63623005Y-15935180D01*
X63588446Y-15916708D01*
X63558153Y-15891847D01*
X63533292Y-15861554D01*
X63514820Y-15826995D01*
X63503445Y-15789499D01*
X63499000Y-15744362D01*
X63499000Y-15005638D01*
X63503445Y-14960501D01*
X63514820Y-14923005D01*
X63533292Y-14888446D01*
X63558153Y-14858153D01*
X63588446Y-14833292D01*
X63623005Y-14814820D01*
X63660501Y-14803445D01*
X63705638Y-14799000D01*
X64344362Y-14799000D01*
X64389499Y-14803445D01*
G37*
G36*
X66139499Y-14803445D02*
G01*
X66176995Y-14814820D01*
X66211554Y-14833292D01*
X66241847Y-14858153D01*
X66266708Y-14888446D01*
X66285180Y-14923005D01*
X66296555Y-14960501D01*
X66301000Y-15005638D01*
X66301000Y-15744362D01*
X66296555Y-15789499D01*
X66285180Y-15826995D01*
X66266708Y-15861554D01*
X66241847Y-15891847D01*
X66211554Y-15916708D01*
X66176995Y-15935180D01*
X66139499Y-15946555D01*
X66094362Y-15951000D01*
X65455638Y-15951000D01*
X65410501Y-15946555D01*
X65373005Y-15935180D01*
X65338446Y-15916708D01*
X65308153Y-15891847D01*
X65283292Y-15861554D01*
X65264820Y-15826995D01*
X65253445Y-15789499D01*
X65249000Y-15744362D01*
X65249000Y-15005638D01*
X65253445Y-14960501D01*
X65264820Y-14923005D01*
X65283292Y-14888446D01*
X65308153Y-14858153D01*
X65338446Y-14833292D01*
X65373005Y-14814820D01*
X65410501Y-14803445D01*
X65455638Y-14799000D01*
X66094362Y-14799000D01*
X66139499Y-14803445D01*
G37*
G36*
X50301000Y-15651000D02*
G01*
X46699000Y-15651000D01*
X46699000Y-13949000D01*
X50301000Y-13949000D01*
X50301000Y-15651000D01*
G37*
G36*
X59956000Y-15351000D02*
G01*
X58794000Y-15351000D01*
X58794000Y-14599000D01*
X59956000Y-14599000D01*
X59956000Y-15351000D01*
G37*
G36*
X57756000Y-15351000D02*
G01*
X56594000Y-15351000D01*
X56594000Y-12699000D01*
X57756000Y-12699000D01*
X57756000Y-15351000D01*
G37*
G36*
X53801000Y-15301000D02*
G01*
X52699000Y-15301000D01*
X52699000Y-14199000D01*
X53801000Y-14199000D01*
X53801000Y-15301000D01*
G37*
G36*
X41364499Y-13803445D02*
G01*
X41401995Y-13814820D01*
X41436554Y-13833292D01*
X41466847Y-13858153D01*
X41491708Y-13888446D01*
X41510180Y-13923005D01*
X41521555Y-13960501D01*
X41526000Y-14005638D01*
X41526000Y-14744362D01*
X41521555Y-14789499D01*
X41510180Y-14826995D01*
X41491708Y-14861554D01*
X41466847Y-14891847D01*
X41436554Y-14916708D01*
X41401995Y-14935180D01*
X41364499Y-14946555D01*
X41319362Y-14951000D01*
X40680638Y-14951000D01*
X40635501Y-14946555D01*
X40598005Y-14935180D01*
X40563446Y-14916708D01*
X40533153Y-14891847D01*
X40508292Y-14861554D01*
X40489820Y-14826995D01*
X40478445Y-14789499D01*
X40474000Y-14744362D01*
X40474000Y-14005638D01*
X40478445Y-13960501D01*
X40489820Y-13923005D01*
X40508292Y-13888446D01*
X40533153Y-13858153D01*
X40563446Y-13833292D01*
X40598005Y-13814820D01*
X40635501Y-13803445D01*
X40680638Y-13799000D01*
X41319362Y-13799000D01*
X41364499Y-13803445D01*
G37*
G36*
X77314524Y-11634115D02*
G01*
X77408657Y-11652839D01*
X77510094Y-11694856D01*
X77663621Y-11758449D01*
X77713307Y-11791648D01*
X77893086Y-11911772D01*
X78088228Y-12106914D01*
X78127631Y-12165885D01*
X78241551Y-12336379D01*
X78250953Y-12359078D01*
X78336175Y-12564820D01*
X78347161Y-12591344D01*
X78401000Y-12862012D01*
X78401000Y-13137988D01*
X78383799Y-13224462D01*
X78347161Y-13408657D01*
X78311660Y-13494362D01*
X78241551Y-13663621D01*
X78219951Y-13695947D01*
X78088228Y-13893086D01*
X77893086Y-14088228D01*
X77754272Y-14180980D01*
X77663621Y-14241551D01*
X77514267Y-14303415D01*
X77408657Y-14347161D01*
X77318433Y-14365107D01*
X77137988Y-14401000D01*
X76862012Y-14401000D01*
X76681567Y-14365107D01*
X76591343Y-14347161D01*
X76485733Y-14303415D01*
X76336379Y-14241551D01*
X76245728Y-14180980D01*
X76106914Y-14088228D01*
X75911772Y-13893086D01*
X75780049Y-13695947D01*
X75758449Y-13663621D01*
X75688340Y-13494362D01*
X75652839Y-13408657D01*
X75616201Y-13224462D01*
X75599000Y-13137988D01*
X75599000Y-12862012D01*
X75652839Y-12591344D01*
X75663826Y-12564820D01*
X75749047Y-12359078D01*
X75758449Y-12336379D01*
X75872369Y-12165885D01*
X75911772Y-12106914D01*
X76106914Y-11911772D01*
X76286693Y-11791648D01*
X76336379Y-11758449D01*
X76489906Y-11694856D01*
X76591343Y-11652839D01*
X76685476Y-11634115D01*
X76862012Y-11599000D01*
X77137988Y-11599000D01*
X77314524Y-11634115D01*
G37*
G36*
X13314524Y-11634115D02*
G01*
X13408657Y-11652839D01*
X13510094Y-11694856D01*
X13663621Y-11758449D01*
X13713307Y-11791648D01*
X13893086Y-11911772D01*
X14088228Y-12106914D01*
X14127631Y-12165885D01*
X14241551Y-12336379D01*
X14250953Y-12359078D01*
X14336175Y-12564820D01*
X14347161Y-12591344D01*
X14401000Y-12862012D01*
X14401000Y-13137988D01*
X14383799Y-13224462D01*
X14347161Y-13408657D01*
X14311660Y-13494362D01*
X14241551Y-13663621D01*
X14219951Y-13695947D01*
X14088228Y-13893086D01*
X13893086Y-14088228D01*
X13754272Y-14180980D01*
X13663621Y-14241551D01*
X13514267Y-14303415D01*
X13408657Y-14347161D01*
X13318433Y-14365107D01*
X13137988Y-14401000D01*
X12862012Y-14401000D01*
X12681567Y-14365107D01*
X12591343Y-14347161D01*
X12485733Y-14303415D01*
X12336379Y-14241551D01*
X12245728Y-14180980D01*
X12106914Y-14088228D01*
X11911772Y-13893086D01*
X11780049Y-13695947D01*
X11758449Y-13663621D01*
X11688340Y-13494362D01*
X11652839Y-13408657D01*
X11616201Y-13224462D01*
X11599000Y-13137988D01*
X11599000Y-12862012D01*
X11652839Y-12591344D01*
X11663826Y-12564820D01*
X11749047Y-12359078D01*
X11758449Y-12336379D01*
X11872369Y-12165885D01*
X11911772Y-12106914D01*
X12106914Y-11911772D01*
X12286693Y-11791648D01*
X12336379Y-11758449D01*
X12489906Y-11694856D01*
X12591343Y-11652839D01*
X12685476Y-11634115D01*
X12862012Y-11599000D01*
X13137988Y-11599000D01*
X13314524Y-11634115D01*
G37*
G36*
X66139499Y-13053445D02*
G01*
X66176995Y-13064820D01*
X66211554Y-13083292D01*
X66241847Y-13108153D01*
X66266708Y-13138446D01*
X66285180Y-13173005D01*
X66296555Y-13210501D01*
X66301000Y-13255638D01*
X66301000Y-13994362D01*
X66296555Y-14039499D01*
X66285180Y-14076995D01*
X66266708Y-14111554D01*
X66241847Y-14141847D01*
X66211554Y-14166708D01*
X66176995Y-14185180D01*
X66139499Y-14196555D01*
X66094362Y-14201000D01*
X65455638Y-14201000D01*
X65410501Y-14196555D01*
X65373005Y-14185180D01*
X65338446Y-14166708D01*
X65308153Y-14141847D01*
X65283292Y-14111554D01*
X65264820Y-14076995D01*
X65253445Y-14039499D01*
X65249000Y-13994362D01*
X65249000Y-13255638D01*
X65253445Y-13210501D01*
X65264820Y-13173005D01*
X65283292Y-13138446D01*
X65308153Y-13108153D01*
X65338446Y-13083292D01*
X65373005Y-13064820D01*
X65410501Y-13053445D01*
X65455638Y-13049000D01*
X66094362Y-13049000D01*
X66139499Y-13053445D01*
G37*
G36*
X64389499Y-13053445D02*
G01*
X64426995Y-13064820D01*
X64461554Y-13083292D01*
X64491847Y-13108153D01*
X64516708Y-13138446D01*
X64535180Y-13173005D01*
X64546555Y-13210501D01*
X64551000Y-13255638D01*
X64551000Y-13994362D01*
X64546555Y-14039499D01*
X64535180Y-14076995D01*
X64516708Y-14111554D01*
X64491847Y-14141847D01*
X64461554Y-14166708D01*
X64426995Y-14185180D01*
X64389499Y-14196555D01*
X64344362Y-14201000D01*
X63705638Y-14201000D01*
X63660501Y-14196555D01*
X63623005Y-14185180D01*
X63588446Y-14166708D01*
X63558153Y-14141847D01*
X63533292Y-14111554D01*
X63514820Y-14076995D01*
X63503445Y-14039499D01*
X63499000Y-13994362D01*
X63499000Y-13255638D01*
X63503445Y-13210501D01*
X63514820Y-13173005D01*
X63533292Y-13138446D01*
X63558153Y-13108153D01*
X63588446Y-13083292D01*
X63623005Y-13064820D01*
X63660501Y-13053445D01*
X63705638Y-13049000D01*
X64344362Y-13049000D01*
X64389499Y-13053445D01*
G37*
G36*
X68426000Y-14181000D02*
G01*
X67674000Y-14181000D01*
X67674000Y-13019000D01*
X68426000Y-13019000D01*
X68426000Y-14181000D01*
G37*
G36*
X70326000Y-14181000D02*
G01*
X69574000Y-14181000D01*
X69574000Y-13019000D01*
X70326000Y-13019000D01*
X70326000Y-14181000D01*
G37*
G36*
X52114499Y-12553445D02*
G01*
X52151995Y-12564820D01*
X52186554Y-12583292D01*
X52216847Y-12608153D01*
X52241708Y-12638446D01*
X52260180Y-12673005D01*
X52271555Y-12710501D01*
X52276000Y-12755638D01*
X52276000Y-13494362D01*
X52271555Y-13539499D01*
X52260180Y-13576995D01*
X52241708Y-13611554D01*
X52216847Y-13641847D01*
X52186554Y-13666708D01*
X52151995Y-13685180D01*
X52114499Y-13696555D01*
X52069362Y-13701000D01*
X51430638Y-13701000D01*
X51385501Y-13696555D01*
X51348005Y-13685180D01*
X51313446Y-13666708D01*
X51283153Y-13641847D01*
X51258292Y-13611554D01*
X51239820Y-13576995D01*
X51228445Y-13539499D01*
X51224000Y-13494362D01*
X51224000Y-12755638D01*
X51228445Y-12710501D01*
X51239820Y-12673005D01*
X51258292Y-12638446D01*
X51283153Y-12608153D01*
X51313446Y-12583292D01*
X51348005Y-12564820D01*
X51385501Y-12553445D01*
X51430638Y-12549000D01*
X52069362Y-12549000D01*
X52114499Y-12553445D01*
G37*
G36*
X53614499Y-12553445D02*
G01*
X53651995Y-12564820D01*
X53686554Y-12583292D01*
X53716847Y-12608153D01*
X53741708Y-12638446D01*
X53760180Y-12673005D01*
X53771555Y-12710501D01*
X53776000Y-12755638D01*
X53776000Y-13494362D01*
X53771555Y-13539499D01*
X53760180Y-13576995D01*
X53741708Y-13611554D01*
X53716847Y-13641847D01*
X53686554Y-13666708D01*
X53651995Y-13685180D01*
X53614499Y-13696555D01*
X53569362Y-13701000D01*
X52930638Y-13701000D01*
X52885501Y-13696555D01*
X52848005Y-13685180D01*
X52813446Y-13666708D01*
X52783153Y-13641847D01*
X52758292Y-13611554D01*
X52739820Y-13576995D01*
X52728445Y-13539499D01*
X52724000Y-13494362D01*
X52724000Y-12755638D01*
X52728445Y-12710501D01*
X52739820Y-12673005D01*
X52758292Y-12638446D01*
X52783153Y-12608153D01*
X52813446Y-12583292D01*
X52848005Y-12564820D01*
X52885501Y-12553445D01*
X52930638Y-12549000D01*
X53569362Y-12549000D01*
X53614499Y-12553445D01*
G37*
G36*
X55114499Y-12553445D02*
G01*
X55151995Y-12564820D01*
X55186554Y-12583292D01*
X55216847Y-12608153D01*
X55241708Y-12638446D01*
X55260180Y-12673005D01*
X55271555Y-12710501D01*
X55276000Y-12755638D01*
X55276000Y-13494362D01*
X55271555Y-13539499D01*
X55260180Y-13576995D01*
X55241708Y-13611554D01*
X55216847Y-13641847D01*
X55186554Y-13666708D01*
X55151995Y-13685180D01*
X55114499Y-13696555D01*
X55069362Y-13701000D01*
X54430638Y-13701000D01*
X54385501Y-13696555D01*
X54348005Y-13685180D01*
X54313446Y-13666708D01*
X54283153Y-13641847D01*
X54258292Y-13611554D01*
X54239820Y-13576995D01*
X54228445Y-13539499D01*
X54224000Y-13494362D01*
X54224000Y-12755638D01*
X54228445Y-12710501D01*
X54239820Y-12673005D01*
X54258292Y-12638446D01*
X54283153Y-12608153D01*
X54313446Y-12583292D01*
X54348005Y-12564820D01*
X54385501Y-12553445D01*
X54430638Y-12549000D01*
X55069362Y-12549000D01*
X55114499Y-12553445D01*
G37*
G36*
X59956000Y-13451000D02*
G01*
X58794000Y-13451000D01*
X58794000Y-12699000D01*
X59956000Y-12699000D01*
X59956000Y-13451000D01*
G37*
G36*
X46418604Y-11578347D02*
G01*
X46455144Y-11589432D01*
X46488821Y-11607433D01*
X46518341Y-11631659D01*
X46542567Y-11661179D01*
X46560568Y-11694856D01*
X46571653Y-11731396D01*
X46576000Y-11775538D01*
X46576000Y-13224462D01*
X46571653Y-13268604D01*
X46560568Y-13305144D01*
X46542567Y-13338821D01*
X46518341Y-13368341D01*
X46488821Y-13392567D01*
X46455144Y-13410568D01*
X46418604Y-13421653D01*
X46374462Y-13426000D01*
X45425538Y-13426000D01*
X45381396Y-13421653D01*
X45344856Y-13410568D01*
X45311179Y-13392567D01*
X45281659Y-13368341D01*
X45257433Y-13338821D01*
X45239432Y-13305144D01*
X45228347Y-13268604D01*
X45224000Y-13224462D01*
X45224000Y-11775538D01*
X45228347Y-11731396D01*
X45239432Y-11694856D01*
X45257433Y-11661179D01*
X45281659Y-11631659D01*
X45311179Y-11607433D01*
X45344856Y-11589432D01*
X45381396Y-11578347D01*
X45425538Y-11574000D01*
X46374462Y-11574000D01*
X46418604Y-11578347D01*
G37*
G36*
X43618604Y-11578347D02*
G01*
X43655144Y-11589432D01*
X43688821Y-11607433D01*
X43718341Y-11631659D01*
X43742567Y-11661179D01*
X43760568Y-11694856D01*
X43771653Y-11731396D01*
X43776000Y-11775538D01*
X43776000Y-13224462D01*
X43771653Y-13268604D01*
X43760568Y-13305144D01*
X43742567Y-13338821D01*
X43718341Y-13368341D01*
X43688821Y-13392567D01*
X43655144Y-13410568D01*
X43618604Y-13421653D01*
X43574462Y-13426000D01*
X42625538Y-13426000D01*
X42581396Y-13421653D01*
X42544856Y-13410568D01*
X42511179Y-13392567D01*
X42481659Y-13368341D01*
X42457433Y-13338821D01*
X42439432Y-13305144D01*
X42428347Y-13268604D01*
X42424000Y-13224462D01*
X42424000Y-11775538D01*
X42428347Y-11731396D01*
X42439432Y-11694856D01*
X42457433Y-11661179D01*
X42481659Y-11631659D01*
X42511179Y-11607433D01*
X42544856Y-11589432D01*
X42581396Y-11578347D01*
X42625538Y-11574000D01*
X43574462Y-11574000D01*
X43618604Y-11578347D01*
G37*
G36*
X41364499Y-12053445D02*
G01*
X41401995Y-12064820D01*
X41436554Y-12083292D01*
X41466847Y-12108153D01*
X41491708Y-12138446D01*
X41510180Y-12173005D01*
X41521555Y-12210501D01*
X41526000Y-12255638D01*
X41526000Y-12994362D01*
X41521555Y-13039499D01*
X41510180Y-13076995D01*
X41491708Y-13111554D01*
X41466847Y-13141847D01*
X41436554Y-13166708D01*
X41401995Y-13185180D01*
X41364499Y-13196555D01*
X41319362Y-13201000D01*
X40680638Y-13201000D01*
X40635501Y-13196555D01*
X40598005Y-13185180D01*
X40563446Y-13166708D01*
X40533153Y-13141847D01*
X40508292Y-13111554D01*
X40489820Y-13076995D01*
X40478445Y-13039499D01*
X40474000Y-12994362D01*
X40474000Y-12255638D01*
X40478445Y-12210501D01*
X40489820Y-12173005D01*
X40508292Y-12138446D01*
X40533153Y-12108153D01*
X40563446Y-12083292D01*
X40598005Y-12064820D01*
X40635501Y-12053445D01*
X40680638Y-12049000D01*
X41319362Y-12049000D01*
X41364499Y-12053445D01*
G37*
G36*
X68118604Y-10678347D02*
G01*
X68155144Y-10689432D01*
X68188821Y-10707433D01*
X68218341Y-10731659D01*
X68242567Y-10761179D01*
X68260568Y-10794856D01*
X68271653Y-10831396D01*
X68276000Y-10875538D01*
X68276000Y-12324462D01*
X68271653Y-12368604D01*
X68260568Y-12405144D01*
X68242567Y-12438821D01*
X68218341Y-12468341D01*
X68188821Y-12492567D01*
X68155144Y-12510568D01*
X68118604Y-12521653D01*
X68074462Y-12526000D01*
X67125538Y-12526000D01*
X67081396Y-12521653D01*
X67044856Y-12510568D01*
X67011179Y-12492567D01*
X66981659Y-12468341D01*
X66957433Y-12438821D01*
X66939432Y-12405144D01*
X66928347Y-12368604D01*
X66924000Y-12324462D01*
X66924000Y-10875538D01*
X66928347Y-10831396D01*
X66939432Y-10794856D01*
X66957433Y-10761179D01*
X66981659Y-10731659D01*
X67011179Y-10707433D01*
X67044856Y-10689432D01*
X67081396Y-10678347D01*
X67125538Y-10674000D01*
X68074462Y-10674000D01*
X68118604Y-10678347D01*
G37*
G36*
X70918604Y-10678347D02*
G01*
X70955144Y-10689432D01*
X70988821Y-10707433D01*
X71018341Y-10731659D01*
X71042567Y-10761179D01*
X71060568Y-10794856D01*
X71071653Y-10831396D01*
X71076000Y-10875538D01*
X71076000Y-12324462D01*
X71071653Y-12368604D01*
X71060568Y-12405144D01*
X71042567Y-12438821D01*
X71018341Y-12468341D01*
X70988821Y-12492567D01*
X70955144Y-12510568D01*
X70918604Y-12521653D01*
X70874462Y-12526000D01*
X69925538Y-12526000D01*
X69881396Y-12521653D01*
X69844856Y-12510568D01*
X69811179Y-12492567D01*
X69781659Y-12468341D01*
X69757433Y-12438821D01*
X69739432Y-12405144D01*
X69728347Y-12368604D01*
X69724000Y-12324462D01*
X69724000Y-10875538D01*
X69728347Y-10831396D01*
X69739432Y-10794856D01*
X69757433Y-10761179D01*
X69781659Y-10731659D01*
X69811179Y-10707433D01*
X69844856Y-10689432D01*
X69881396Y-10678347D01*
X69925538Y-10674000D01*
X70874462Y-10674000D01*
X70918604Y-10678347D01*
G37*
G36*
X55114499Y-10803445D02*
G01*
X55151995Y-10814820D01*
X55186554Y-10833292D01*
X55216847Y-10858153D01*
X55241708Y-10888446D01*
X55260180Y-10923005D01*
X55271555Y-10960501D01*
X55276000Y-11005638D01*
X55276000Y-11744362D01*
X55271555Y-11789499D01*
X55260180Y-11826995D01*
X55241708Y-11861554D01*
X55216847Y-11891847D01*
X55186554Y-11916708D01*
X55151995Y-11935180D01*
X55114499Y-11946555D01*
X55069362Y-11951000D01*
X54430638Y-11951000D01*
X54385501Y-11946555D01*
X54348005Y-11935180D01*
X54313446Y-11916708D01*
X54283153Y-11891847D01*
X54258292Y-11861554D01*
X54239820Y-11826995D01*
X54228445Y-11789499D01*
X54224000Y-11744362D01*
X54224000Y-11005638D01*
X54228445Y-10960501D01*
X54239820Y-10923005D01*
X54258292Y-10888446D01*
X54283153Y-10858153D01*
X54313446Y-10833292D01*
X54348005Y-10814820D01*
X54385501Y-10803445D01*
X54430638Y-10799000D01*
X55069362Y-10799000D01*
X55114499Y-10803445D01*
G37*
G36*
X53614499Y-10803445D02*
G01*
X53651995Y-10814820D01*
X53686554Y-10833292D01*
X53716847Y-10858153D01*
X53741708Y-10888446D01*
X53760180Y-10923005D01*
X53771555Y-10960501D01*
X53776000Y-11005638D01*
X53776000Y-11744362D01*
X53771555Y-11789499D01*
X53760180Y-11826995D01*
X53741708Y-11861554D01*
X53716847Y-11891847D01*
X53686554Y-11916708D01*
X53651995Y-11935180D01*
X53614499Y-11946555D01*
X53569362Y-11951000D01*
X52930638Y-11951000D01*
X52885501Y-11946555D01*
X52848005Y-11935180D01*
X52813446Y-11916708D01*
X52783153Y-11891847D01*
X52758292Y-11861554D01*
X52739820Y-11826995D01*
X52728445Y-11789499D01*
X52724000Y-11744362D01*
X52724000Y-11005638D01*
X52728445Y-10960501D01*
X52739820Y-10923005D01*
X52758292Y-10888446D01*
X52783153Y-10858153D01*
X52813446Y-10833292D01*
X52848005Y-10814820D01*
X52885501Y-10803445D01*
X52930638Y-10799000D01*
X53569362Y-10799000D01*
X53614499Y-10803445D01*
G37*
G36*
X52114499Y-10803445D02*
G01*
X52151995Y-10814820D01*
X52186554Y-10833292D01*
X52216847Y-10858153D01*
X52241708Y-10888446D01*
X52260180Y-10923005D01*
X52271555Y-10960501D01*
X52276000Y-11005638D01*
X52276000Y-11744362D01*
X52271555Y-11789499D01*
X52260180Y-11826995D01*
X52241708Y-11861554D01*
X52216847Y-11891847D01*
X52186554Y-11916708D01*
X52151995Y-11935180D01*
X52114499Y-11946555D01*
X52069362Y-11951000D01*
X51430638Y-11951000D01*
X51385501Y-11946555D01*
X51348005Y-11935180D01*
X51313446Y-11916708D01*
X51283153Y-11891847D01*
X51258292Y-11861554D01*
X51239820Y-11826995D01*
X51228445Y-11789499D01*
X51224000Y-11744362D01*
X51224000Y-11005638D01*
X51228445Y-10960501D01*
X51239820Y-10923005D01*
X51258292Y-10888446D01*
X51283153Y-10858153D01*
X51313446Y-10833292D01*
X51348005Y-10814820D01*
X51385501Y-10803445D01*
X51430638Y-10799000D01*
X52069362Y-10799000D01*
X52114499Y-10803445D01*
G37*
G36*
X59539499Y-10703445D02*
G01*
X59576995Y-10714820D01*
X59611554Y-10733292D01*
X59641847Y-10758153D01*
X59666708Y-10788446D01*
X59685180Y-10823005D01*
X59696555Y-10860501D01*
X59701000Y-10905638D01*
X59701000Y-11544362D01*
X59696555Y-11589499D01*
X59685180Y-11626995D01*
X59666708Y-11661554D01*
X59641847Y-11691847D01*
X59611554Y-11716708D01*
X59576995Y-11735180D01*
X59539499Y-11746555D01*
X59494362Y-11751000D01*
X58755638Y-11751000D01*
X58710501Y-11746555D01*
X58673005Y-11735180D01*
X58638446Y-11716708D01*
X58608153Y-11691847D01*
X58583292Y-11661554D01*
X58564820Y-11626995D01*
X58553445Y-11589499D01*
X58549000Y-11544362D01*
X58549000Y-10905638D01*
X58553445Y-10860501D01*
X58564820Y-10823005D01*
X58583292Y-10788446D01*
X58608153Y-10758153D01*
X58638446Y-10733292D01*
X58673005Y-10714820D01*
X58710501Y-10703445D01*
X58755638Y-10699000D01*
X59494362Y-10699000D01*
X59539499Y-10703445D01*
G37*
G36*
X57789499Y-10703445D02*
G01*
X57826995Y-10714820D01*
X57861554Y-10733292D01*
X57891847Y-10758153D01*
X57916708Y-10788446D01*
X57935180Y-10823005D01*
X57946555Y-10860501D01*
X57951000Y-10905638D01*
X57951000Y-11544362D01*
X57946555Y-11589499D01*
X57935180Y-11626995D01*
X57916708Y-11661554D01*
X57891847Y-11691847D01*
X57861554Y-11716708D01*
X57826995Y-11735180D01*
X57789499Y-11746555D01*
X57744362Y-11751000D01*
X57005638Y-11751000D01*
X56960501Y-11746555D01*
X56923005Y-11735180D01*
X56888446Y-11716708D01*
X56858153Y-11691847D01*
X56833292Y-11661554D01*
X56814820Y-11626995D01*
X56803445Y-11589499D01*
X56799000Y-11544362D01*
X56799000Y-10905638D01*
X56803445Y-10860501D01*
X56814820Y-10823005D01*
X56833292Y-10788446D01*
X56858153Y-10758153D01*
X56888446Y-10733292D01*
X56923005Y-10714820D01*
X56960501Y-10703445D01*
X57005638Y-10699000D01*
X57744362Y-10699000D01*
X57789499Y-10703445D01*
G37*
M02*
