M48
; DRILL file {KiCad 5.1.5-52549c5~84~ubuntu18.04.1} date Tue Mar 10 15:08:54 2020
; FORMAT={-:-/ absolute / inch / decimal}
; #@! TF.CreationDate,2020-03-10T15:08:54+05:30
; #@! TF.GenerationSoftware,Kicad,Pcbnew,5.1.5-52549c5~84~ubuntu18.04.1
FMAT,2
INCH
T1C0.0157
T2C0.0197
T3C0.0295
T4C0.0315
T5C0.0394
T6C0.1063
%
G90
G05
T1
X1.4134Y-1.2756
X1.4764Y-1.0984
X1.4764Y-1.1535
X1.5039Y-1.7717
X1.5039Y-1.8031
X1.5354Y-1.7717
X1.5354Y-1.8031
X1.5512Y-1.3307
X1.563Y-1.189
X1.5945Y-1.0512
X1.6732Y-1.0748
X1.6929Y-1.7677
X1.6929Y-1.8031
X1.7283Y-1.6535
X1.7283Y-1.7677
X1.7283Y-1.8031
X1.7323Y-1.4567
X1.7677Y-1.2795
X1.811Y-1.5354
X1.8898Y-1.4567
X1.8898Y-1.6457
X1.9016Y-0.4488
X1.9291Y-0.5118
X1.9488Y-1.1417
X2.0079Y-0.7874
X2.0472Y-1.3593
X2.063Y-1.8031
X2.0787Y-1.3593
X2.0787Y-1.3898
X2.0945Y-1.8031
X2.1102Y-1.0354
X2.1102Y-1.1299
X2.1969Y-0.5512
X2.2953Y-0.8268
X2.3031Y-1.1811
X2.3228Y-1.2441
X2.3622Y-1.2598
X2.3858Y-0.8465
X2.4016Y-0.5709
X2.4094Y-0.6339
X2.4173Y-1.1457
X2.4409Y-0.8465
X2.4409Y-1.2756
X2.4409Y-1.4134
X2.4488Y-0.5709
X2.4685Y-0.5197
X2.4724Y-1.4724
X2.4724Y-1.6181
X2.4803Y-0.6339
X2.4803Y-0.6732
X2.5197Y-1.1614
X2.5472Y-1.0906
X2.5591Y-0.8622
X2.5866Y-0.4764
X2.6063Y-1.4724
X2.6371Y-1.2631
X2.6378Y-0.6654
X2.6693Y-0.8504
X2.7559Y-1.3622
X2.811Y-0.5787
X2.8937Y-0.6654
X2.9213Y-1.1811
X2.9331Y-0.8858
X2.9331Y-1.6929
T2
X2.9882Y-1.0374
X2.9882Y-1.2264
T3
X2.4606Y-1.7717
X2.5394Y-1.7717
X2.6181Y-1.7717
X2.6969Y-1.7717
X3.0709Y-0.748
X3.0709Y-0.8268
T4
X2.1654Y-1.6339
X2.1654Y-1.7126
X2.1654Y-1.7913
X2.2441Y-1.6339
X2.2441Y-1.7126
X2.2441Y-1.7913
X1.8661Y-1.1417
X1.8661Y-1.2205
T5
X3.0945Y-0.9902
X3.0945Y-1.2736
T6
X3.0315Y-0.5118
X3.0315Y-1.8504
X0.5118Y-0.5118
X0.5118Y-1.8504
T0
M30
