G04 #@! TF.GenerationSoftware,KiCad,Pcbnew,5.1.5-52549c5~84~ubuntu18.04.1*
G04 #@! TF.CreationDate,2020-03-07T05:05:02+05:30*
G04 #@! TF.ProjectId,tps92515_led_driver,74707339-3235-4313-955f-6c65645f6472,rev?*
G04 #@! TF.SameCoordinates,Original*
G04 #@! TF.FileFunction,Soldermask,Bot*
G04 #@! TF.FilePolarity,Negative*
%FSLAX46Y46*%
G04 Gerber Fmt 4.6, Leading zero omitted, Abs format (unit mm)*
G04 Created by KiCad (PCBNEW 5.1.5-52549c5~84~ubuntu18.04.1) date 2020-03-07 05:05:02*
%MOMM*%
%LPD*%
G04 APERTURE LIST*
%ADD10C,0.100000*%
G04 APERTURE END LIST*
D10*
G36*
X149151000Y-90151000D02*
G01*
X147349000Y-90151000D01*
X147349000Y-88349000D01*
X149151000Y-88349000D01*
X149151000Y-90151000D01*
G37*
G36*
X150903512Y-88353927D02*
G01*
X151052812Y-88383624D01*
X151216784Y-88451544D01*
X151364354Y-88550147D01*
X151489853Y-88675646D01*
X151588456Y-88823216D01*
X151656376Y-88987188D01*
X151691000Y-89161259D01*
X151691000Y-89338741D01*
X151656376Y-89512812D01*
X151588456Y-89676784D01*
X151489853Y-89824354D01*
X151364354Y-89949853D01*
X151216784Y-90048456D01*
X151052812Y-90116376D01*
X150903512Y-90146073D01*
X150878742Y-90151000D01*
X150701258Y-90151000D01*
X150676488Y-90146073D01*
X150527188Y-90116376D01*
X150363216Y-90048456D01*
X150215646Y-89949853D01*
X150090147Y-89824354D01*
X149991544Y-89676784D01*
X149923624Y-89512812D01*
X149889000Y-89338741D01*
X149889000Y-89161259D01*
X149923624Y-88987188D01*
X149991544Y-88823216D01*
X150090147Y-88675646D01*
X150215646Y-88550147D01*
X150363216Y-88451544D01*
X150527188Y-88383624D01*
X150676488Y-88353927D01*
X150701258Y-88349000D01*
X150878742Y-88349000D01*
X150903512Y-88353927D01*
G37*
G36*
X157052585Y-85903802D02*
G01*
X157202410Y-85933604D01*
X157484674Y-86050521D01*
X157738705Y-86220259D01*
X157954741Y-86436295D01*
X158124479Y-86690326D01*
X158241396Y-86972590D01*
X158301000Y-87272240D01*
X158301000Y-87577760D01*
X158241396Y-87877410D01*
X158124479Y-88159674D01*
X157954741Y-88413705D01*
X157738705Y-88629741D01*
X157484674Y-88799479D01*
X157202410Y-88916396D01*
X157052585Y-88946198D01*
X156902761Y-88976000D01*
X156597239Y-88976000D01*
X156447415Y-88946198D01*
X156297590Y-88916396D01*
X156015326Y-88799479D01*
X155761295Y-88629741D01*
X155545259Y-88413705D01*
X155375521Y-88159674D01*
X155258604Y-87877410D01*
X155199000Y-87577760D01*
X155199000Y-87272240D01*
X155258604Y-86972590D01*
X155375521Y-86690326D01*
X155545259Y-86436295D01*
X155761295Y-86220259D01*
X156015326Y-86050521D01*
X156297590Y-85933604D01*
X156447415Y-85903802D01*
X156597239Y-85874000D01*
X156902761Y-85874000D01*
X157052585Y-85903802D01*
G37*
G36*
X114251000Y-88976000D02*
G01*
X111149000Y-88976000D01*
X111149000Y-85874000D01*
X114251000Y-85874000D01*
X114251000Y-88976000D01*
G37*
G36*
X158301000Y-83896000D02*
G01*
X155199000Y-83896000D01*
X155199000Y-80794000D01*
X158301000Y-80794000D01*
X158301000Y-83896000D01*
G37*
G36*
X113002585Y-80823802D02*
G01*
X113152410Y-80853604D01*
X113434674Y-80970521D01*
X113688705Y-81140259D01*
X113904741Y-81356295D01*
X114074479Y-81610326D01*
X114191396Y-81892590D01*
X114251000Y-82192240D01*
X114251000Y-82497760D01*
X114191396Y-82797410D01*
X114074479Y-83079674D01*
X113904741Y-83333705D01*
X113688705Y-83549741D01*
X113434674Y-83719479D01*
X113152410Y-83836396D01*
X113002585Y-83866198D01*
X112852761Y-83896000D01*
X112547239Y-83896000D01*
X112397415Y-83866198D01*
X112247590Y-83836396D01*
X111965326Y-83719479D01*
X111711295Y-83549741D01*
X111495259Y-83333705D01*
X111325521Y-83079674D01*
X111208604Y-82797410D01*
X111149000Y-82497760D01*
X111149000Y-82192240D01*
X111208604Y-81892590D01*
X111325521Y-81610326D01*
X111495259Y-81356295D01*
X111711295Y-81140259D01*
X111965326Y-80970521D01*
X112247590Y-80853604D01*
X112397415Y-80823802D01*
X112547239Y-80794000D01*
X112852761Y-80794000D01*
X113002585Y-80823802D01*
G37*
G36*
X150903512Y-79853927D02*
G01*
X151052812Y-79883624D01*
X151216784Y-79951544D01*
X151364354Y-80050147D01*
X151489853Y-80175646D01*
X151588456Y-80323216D01*
X151656376Y-80487188D01*
X151691000Y-80661259D01*
X151691000Y-80838741D01*
X151656376Y-81012812D01*
X151588456Y-81176784D01*
X151489853Y-81324354D01*
X151364354Y-81449853D01*
X151216784Y-81548456D01*
X151052812Y-81616376D01*
X150903512Y-81646073D01*
X150878742Y-81651000D01*
X150701258Y-81651000D01*
X150676488Y-81646073D01*
X150527188Y-81616376D01*
X150363216Y-81548456D01*
X150215646Y-81449853D01*
X150090147Y-81324354D01*
X149991544Y-81176784D01*
X149923624Y-81012812D01*
X149889000Y-80838741D01*
X149889000Y-80661259D01*
X149923624Y-80487188D01*
X149991544Y-80323216D01*
X150090147Y-80175646D01*
X150215646Y-80050147D01*
X150363216Y-79951544D01*
X150527188Y-79883624D01*
X150676488Y-79853927D01*
X150701258Y-79849000D01*
X150878742Y-79849000D01*
X150903512Y-79853927D01*
G37*
G36*
X149151000Y-81651000D02*
G01*
X147349000Y-81651000D01*
X147349000Y-79849000D01*
X149151000Y-79849000D01*
X149151000Y-81651000D01*
G37*
G36*
X119801000Y-81201000D02*
G01*
X117999000Y-81201000D01*
X117999000Y-79399000D01*
X119801000Y-79399000D01*
X119801000Y-81201000D01*
G37*
M02*
