M48
; DRILL file {KiCad 5.1.5-52549c5~84~ubuntu18.04.1} date Sat Mar  7 05:05:06 2020
; FORMAT={-:-/ absolute / metric / decimal}
; #@! TF.CreationDate,2020-03-07T05:05:06+05:30
; #@! TF.GenerationSoftware,Kicad,Pcbnew,5.1.5-52549c5~84~ubuntu18.04.1
; #@! TF.FileFunction,Plated,1,2,PTH
FMAT,2
METRIC
T1C0.200
T2C0.400
T3C1.000
T4C1.520
%
G90
G05
T1
X136.5Y-86.35
X136.5Y-87.65
X137.6Y-86.35
X137.6Y-87.65
T2
X130.5Y-82.0
X132.8Y-84.5
X134.894Y-85.342
X136.0Y-89.0
X136.007Y-85.35
X137.0Y-89.0
X137.037Y-85.312
X138.0Y-85.25
X138.0Y-89.0
X140.6Y-86.0
X143.35Y-83.35
T3
X118.9Y-80.3
X148.25Y-80.75
X150.79Y-80.75
X148.25Y-89.25
X150.79Y-89.25
T4
X156.75Y-82.345
X156.75Y-87.425
X112.7Y-82.345
X112.7Y-87.425
T0
M30
