G04 #@! TF.GenerationSoftware,KiCad,Pcbnew,5.1.5-52549c5~84~ubuntu18.04.1*
G04 #@! TF.CreationDate,2020-03-07T05:05:02+05:30*
G04 #@! TF.ProjectId,tps92515_led_driver,74707339-3235-4313-955f-6c65645f6472,rev?*
G04 #@! TF.SameCoordinates,Original*
G04 #@! TF.FileFunction,Legend,Top*
G04 #@! TF.FilePolarity,Positive*
%FSLAX46Y46*%
G04 Gerber Fmt 4.6, Leading zero omitted, Abs format (unit mm)*
G04 Created by KiCad (PCBNEW 5.1.5-52549c5~84~ubuntu18.04.1) date 2020-03-07 05:05:02*
%MOMM*%
%LPD*%
G04 APERTURE LIST*
%ADD10C,0.200000*%
%ADD11C,0.150000*%
%ADD12C,0.120000*%
%ADD13C,0.130000*%
G04 APERTURE END LIST*
D10*
X123071428Y-78652380D02*
X123642857Y-78652380D01*
X123357142Y-79652380D02*
X123357142Y-78652380D01*
X123976190Y-79652380D02*
X123976190Y-78652380D01*
X124357142Y-78652380D01*
X124452380Y-78700000D01*
X124500000Y-78747619D01*
X124547619Y-78842857D01*
X124547619Y-78985714D01*
X124500000Y-79080952D01*
X124452380Y-79128571D01*
X124357142Y-79176190D01*
X123976190Y-79176190D01*
X124928571Y-79604761D02*
X125071428Y-79652380D01*
X125309523Y-79652380D01*
X125404761Y-79604761D01*
X125452380Y-79557142D01*
X125500000Y-79461904D01*
X125500000Y-79366666D01*
X125452380Y-79271428D01*
X125404761Y-79223809D01*
X125309523Y-79176190D01*
X125119047Y-79128571D01*
X125023809Y-79080952D01*
X124976190Y-79033333D01*
X124928571Y-78938095D01*
X124928571Y-78842857D01*
X124976190Y-78747619D01*
X125023809Y-78700000D01*
X125119047Y-78652380D01*
X125357142Y-78652380D01*
X125500000Y-78700000D01*
X125976190Y-79652380D02*
X126166666Y-79652380D01*
X126261904Y-79604761D01*
X126309523Y-79557142D01*
X126404761Y-79414285D01*
X126452380Y-79223809D01*
X126452380Y-78842857D01*
X126404761Y-78747619D01*
X126357142Y-78700000D01*
X126261904Y-78652380D01*
X126071428Y-78652380D01*
X125976190Y-78700000D01*
X125928571Y-78747619D01*
X125880952Y-78842857D01*
X125880952Y-79080952D01*
X125928571Y-79176190D01*
X125976190Y-79223809D01*
X126071428Y-79271428D01*
X126261904Y-79271428D01*
X126357142Y-79223809D01*
X126404761Y-79176190D01*
X126452380Y-79080952D01*
X126833333Y-78747619D02*
X126880952Y-78700000D01*
X126976190Y-78652380D01*
X127214285Y-78652380D01*
X127309523Y-78700000D01*
X127357142Y-78747619D01*
X127404761Y-78842857D01*
X127404761Y-78938095D01*
X127357142Y-79080952D01*
X126785714Y-79652380D01*
X127404761Y-79652380D01*
X128309523Y-78652380D02*
X127833333Y-78652380D01*
X127785714Y-79128571D01*
X127833333Y-79080952D01*
X127928571Y-79033333D01*
X128166666Y-79033333D01*
X128261904Y-79080952D01*
X128309523Y-79128571D01*
X128357142Y-79223809D01*
X128357142Y-79461904D01*
X128309523Y-79557142D01*
X128261904Y-79604761D01*
X128166666Y-79652380D01*
X127928571Y-79652380D01*
X127833333Y-79604761D01*
X127785714Y-79557142D01*
X129309523Y-79652380D02*
X128738095Y-79652380D01*
X129023809Y-79652380D02*
X129023809Y-78652380D01*
X128928571Y-78795238D01*
X128833333Y-78890476D01*
X128738095Y-78938095D01*
X130214285Y-78652380D02*
X129738095Y-78652380D01*
X129690476Y-79128571D01*
X129738095Y-79080952D01*
X129833333Y-79033333D01*
X130071428Y-79033333D01*
X130166666Y-79080952D01*
X130214285Y-79128571D01*
X130261904Y-79223809D01*
X130261904Y-79461904D01*
X130214285Y-79557142D01*
X130166666Y-79604761D01*
X130071428Y-79652380D01*
X129833333Y-79652380D01*
X129738095Y-79604761D01*
X129690476Y-79557142D01*
X131928571Y-79652380D02*
X131452380Y-79652380D01*
X131452380Y-78652380D01*
X132261904Y-79128571D02*
X132595238Y-79128571D01*
X132738095Y-79652380D02*
X132261904Y-79652380D01*
X132261904Y-78652380D01*
X132738095Y-78652380D01*
X133166666Y-79652380D02*
X133166666Y-78652380D01*
X133404761Y-78652380D01*
X133547619Y-78700000D01*
X133642857Y-78795238D01*
X133690476Y-78890476D01*
X133738095Y-79080952D01*
X133738095Y-79223809D01*
X133690476Y-79414285D01*
X133642857Y-79509523D01*
X133547619Y-79604761D01*
X133404761Y-79652380D01*
X133166666Y-79652380D01*
X134928571Y-79652380D02*
X134928571Y-78652380D01*
X135166666Y-78652380D01*
X135309523Y-78700000D01*
X135404761Y-78795238D01*
X135452380Y-78890476D01*
X135500000Y-79080952D01*
X135500000Y-79223809D01*
X135452380Y-79414285D01*
X135404761Y-79509523D01*
X135309523Y-79604761D01*
X135166666Y-79652380D01*
X134928571Y-79652380D01*
X135928571Y-79652380D02*
X135928571Y-78985714D01*
X135928571Y-79176190D02*
X135976190Y-79080952D01*
X136023809Y-79033333D01*
X136119047Y-78985714D01*
X136214285Y-78985714D01*
X136547619Y-79652380D02*
X136547619Y-78985714D01*
X136547619Y-78652380D02*
X136500000Y-78700000D01*
X136547619Y-78747619D01*
X136595238Y-78700000D01*
X136547619Y-78652380D01*
X136547619Y-78747619D01*
X136928571Y-78985714D02*
X137166666Y-79652380D01*
X137404761Y-78985714D01*
X138166666Y-79604761D02*
X138071428Y-79652380D01*
X137880952Y-79652380D01*
X137785714Y-79604761D01*
X137738095Y-79509523D01*
X137738095Y-79128571D01*
X137785714Y-79033333D01*
X137880952Y-78985714D01*
X138071428Y-78985714D01*
X138166666Y-79033333D01*
X138214285Y-79128571D01*
X138214285Y-79223809D01*
X137738095Y-79319047D01*
X138642857Y-79652380D02*
X138642857Y-78985714D01*
X138642857Y-79176190D02*
X138690476Y-79080952D01*
X138738095Y-79033333D01*
X138833333Y-78985714D01*
X138928571Y-78985714D01*
D11*
X111590476Y-79461904D02*
X111209523Y-79461904D01*
X111209523Y-78661904D01*
X111857142Y-79042857D02*
X112123809Y-79042857D01*
X112238095Y-79461904D02*
X111857142Y-79461904D01*
X111857142Y-78661904D01*
X112238095Y-78661904D01*
X112580952Y-79461904D02*
X112580952Y-78661904D01*
X112771428Y-78661904D01*
X112885714Y-78700000D01*
X112961904Y-78776190D01*
X113000000Y-78852380D01*
X113038095Y-79004761D01*
X113038095Y-79119047D01*
X113000000Y-79271428D01*
X112961904Y-79347619D01*
X112885714Y-79423809D01*
X112771428Y-79461904D01*
X112580952Y-79461904D01*
X113380952Y-79157142D02*
X113990476Y-79157142D01*
X111690476Y-91161904D02*
X111309523Y-91161904D01*
X111309523Y-90361904D01*
X111957142Y-90742857D02*
X112223809Y-90742857D01*
X112338095Y-91161904D02*
X111957142Y-91161904D01*
X111957142Y-90361904D01*
X112338095Y-90361904D01*
X112680952Y-91161904D02*
X112680952Y-90361904D01*
X112871428Y-90361904D01*
X112985714Y-90400000D01*
X113061904Y-90476190D01*
X113100000Y-90552380D01*
X113138095Y-90704761D01*
X113138095Y-90819047D01*
X113100000Y-90971428D01*
X113061904Y-91047619D01*
X112985714Y-91123809D01*
X112871428Y-91161904D01*
X112680952Y-91161904D01*
X113480952Y-90857142D02*
X114090476Y-90857142D01*
X113785714Y-91161904D02*
X113785714Y-90552380D01*
X155990476Y-78600000D02*
X155914285Y-78561904D01*
X155800000Y-78561904D01*
X155685714Y-78600000D01*
X155609523Y-78676190D01*
X155571428Y-78752380D01*
X155533333Y-78904761D01*
X155533333Y-79019047D01*
X155571428Y-79171428D01*
X155609523Y-79247619D01*
X155685714Y-79323809D01*
X155800000Y-79361904D01*
X155876190Y-79361904D01*
X155990476Y-79323809D01*
X156028571Y-79285714D01*
X156028571Y-79019047D01*
X155876190Y-79019047D01*
X156371428Y-79361904D02*
X156371428Y-78561904D01*
X156828571Y-79361904D01*
X156828571Y-78561904D01*
X157209523Y-79361904D02*
X157209523Y-78561904D01*
X157400000Y-78561904D01*
X157514285Y-78600000D01*
X157590476Y-78676190D01*
X157628571Y-78752380D01*
X157666666Y-78904761D01*
X157666666Y-79019047D01*
X157628571Y-79171428D01*
X157590476Y-79247619D01*
X157514285Y-79323809D01*
X157400000Y-79361904D01*
X157209523Y-79361904D01*
X155923809Y-90361904D02*
X156190476Y-91161904D01*
X156457142Y-90361904D01*
X156723809Y-91161904D02*
X156723809Y-90361904D01*
X157104761Y-91161904D02*
X157104761Y-90361904D01*
X157561904Y-91161904D01*
X157561904Y-90361904D01*
X150190476Y-78300000D02*
X150114285Y-78261904D01*
X150000000Y-78261904D01*
X149885714Y-78300000D01*
X149809523Y-78376190D01*
X149771428Y-78452380D01*
X149733333Y-78604761D01*
X149733333Y-78719047D01*
X149771428Y-78871428D01*
X149809523Y-78947619D01*
X149885714Y-79023809D01*
X150000000Y-79061904D01*
X150076190Y-79061904D01*
X150190476Y-79023809D01*
X150228571Y-78985714D01*
X150228571Y-78719047D01*
X150076190Y-78719047D01*
X150571428Y-79061904D02*
X150571428Y-78261904D01*
X151028571Y-79061904D01*
X151028571Y-78261904D01*
X151409523Y-79061904D02*
X151409523Y-78261904D01*
X151600000Y-78261904D01*
X151714285Y-78300000D01*
X151790476Y-78376190D01*
X151828571Y-78452380D01*
X151866666Y-78604761D01*
X151866666Y-78719047D01*
X151828571Y-78871428D01*
X151790476Y-78947619D01*
X151714285Y-79023809D01*
X151600000Y-79061904D01*
X151409523Y-79061904D01*
X147052380Y-79061904D02*
X147052380Y-78261904D01*
X147395238Y-78833333D02*
X147776190Y-78833333D01*
X147319047Y-79061904D02*
X147585714Y-78261904D01*
X147852380Y-79061904D01*
X148119047Y-79061904D02*
X148119047Y-78261904D01*
X148309523Y-78261904D01*
X148423809Y-78300000D01*
X148500000Y-78376190D01*
X148538095Y-78452380D01*
X148576190Y-78604761D01*
X148576190Y-78719047D01*
X148538095Y-78871428D01*
X148500000Y-78947619D01*
X148423809Y-79023809D01*
X148309523Y-79061904D01*
X148119047Y-79061904D01*
X149147619Y-78261904D02*
X149147619Y-78833333D01*
X149109523Y-78947619D01*
X149033333Y-79023809D01*
X148919047Y-79061904D01*
X148842857Y-79061904D01*
X150190476Y-91000000D02*
X150114285Y-90961904D01*
X150000000Y-90961904D01*
X149885714Y-91000000D01*
X149809523Y-91076190D01*
X149771428Y-91152380D01*
X149733333Y-91304761D01*
X149733333Y-91419047D01*
X149771428Y-91571428D01*
X149809523Y-91647619D01*
X149885714Y-91723809D01*
X150000000Y-91761904D01*
X150076190Y-91761904D01*
X150190476Y-91723809D01*
X150228571Y-91685714D01*
X150228571Y-91419047D01*
X150076190Y-91419047D01*
X150571428Y-91761904D02*
X150571428Y-90961904D01*
X151028571Y-91761904D01*
X151028571Y-90961904D01*
X151409523Y-91761904D02*
X151409523Y-90961904D01*
X151600000Y-90961904D01*
X151714285Y-91000000D01*
X151790476Y-91076190D01*
X151828571Y-91152380D01*
X151866666Y-91304761D01*
X151866666Y-91419047D01*
X151828571Y-91571428D01*
X151790476Y-91647619D01*
X151714285Y-91723809D01*
X151600000Y-91761904D01*
X151409523Y-91761904D01*
X146876190Y-91761904D02*
X146876190Y-90961904D01*
X147180952Y-90961904D01*
X147257142Y-91000000D01*
X147295238Y-91038095D01*
X147333333Y-91114285D01*
X147333333Y-91228571D01*
X147295238Y-91304761D01*
X147257142Y-91342857D01*
X147180952Y-91380952D01*
X146876190Y-91380952D01*
X147600000Y-90961904D02*
X147790476Y-91761904D01*
X147942857Y-91190476D01*
X148095238Y-91761904D01*
X148285714Y-90961904D01*
X148590476Y-91761904D02*
X148590476Y-90961904D01*
X148857142Y-91533333D01*
X149123809Y-90961904D01*
X149123809Y-91761904D01*
D12*
X120230000Y-78970000D02*
X120230000Y-80300000D01*
X118900000Y-78970000D02*
X120230000Y-78970000D01*
X117630000Y-78970000D02*
X117630000Y-81630000D01*
X117630000Y-81630000D02*
X117570000Y-81630000D01*
X117630000Y-78970000D02*
X117570000Y-78970000D01*
X117570000Y-78970000D02*
X117570000Y-81630000D01*
X146920000Y-82080000D02*
X146920000Y-80750000D01*
X148250000Y-82080000D02*
X146920000Y-82080000D01*
X149520000Y-82080000D02*
X149520000Y-79420000D01*
X149520000Y-79420000D02*
X152120000Y-79420000D01*
X149520000Y-82080000D02*
X152120000Y-82080000D01*
X152120000Y-82080000D02*
X152120000Y-79420000D01*
X146920000Y-90580000D02*
X146920000Y-89250000D01*
X148250000Y-90580000D02*
X146920000Y-90580000D01*
X149520000Y-90580000D02*
X149520000Y-87920000D01*
X149520000Y-87920000D02*
X152120000Y-87920000D01*
X149520000Y-90580000D02*
X152120000Y-90580000D01*
X152120000Y-90580000D02*
X152120000Y-87920000D01*
X145160000Y-89602064D02*
X145160000Y-88397936D01*
X143340000Y-89602064D02*
X143340000Y-88397936D01*
X142760000Y-89602064D02*
X142760000Y-88397936D01*
X140940000Y-89602064D02*
X140940000Y-88397936D01*
X137050000Y-85390000D02*
X134175000Y-85390000D01*
X137050000Y-85390000D02*
X138550000Y-85390000D01*
X137050000Y-88610000D02*
X135550000Y-88610000D01*
X137050000Y-88610000D02*
X138550000Y-88610000D01*
X143752064Y-79190000D02*
X142547936Y-79190000D01*
X143752064Y-81010000D02*
X142547936Y-81010000D01*
X128971267Y-81390000D02*
X128628733Y-81390000D01*
X128971267Y-82410000D02*
X128628733Y-82410000D01*
X142547936Y-83660000D02*
X143752064Y-83660000D01*
X142547936Y-81840000D02*
X143752064Y-81840000D01*
X119500000Y-82500000D02*
X121000000Y-82500000D01*
X119500000Y-89900000D02*
X121000000Y-89900000D01*
X119500000Y-82500000D02*
X119500000Y-89900000D01*
X126300000Y-89900000D02*
X124800000Y-89900000D01*
X126300000Y-82500000D02*
X124800000Y-82500000D01*
X126300000Y-89900000D02*
X126300000Y-82500000D01*
X116510000Y-89965000D02*
X116510000Y-79805000D01*
X108890000Y-89965000D02*
X116510000Y-89965000D01*
X108890000Y-79805000D02*
X108890000Y-89965000D01*
X116510000Y-79805000D02*
X108890000Y-79805000D01*
X115240000Y-79805000D02*
X115240000Y-89965000D01*
X152940000Y-79805000D02*
X152940000Y-89965000D01*
X160560000Y-79805000D02*
X152940000Y-79805000D01*
X160560000Y-89965000D02*
X160560000Y-79805000D01*
X152940000Y-89965000D02*
X160560000Y-89965000D01*
X154210000Y-89965000D02*
X154210000Y-79805000D01*
X126750000Y-90100000D02*
X126750000Y-84400000D01*
X131050000Y-90100000D02*
X131050000Y-84400000D01*
X126750000Y-90100000D02*
X131050000Y-90100000D01*
X133400000Y-85100000D02*
X133400000Y-86950000D01*
X132200000Y-85100000D02*
X132200000Y-86950000D01*
X132200000Y-86950000D02*
X133400000Y-86950000D01*
X118960000Y-85502064D02*
X118960000Y-84297936D01*
X117140000Y-85502064D02*
X117140000Y-84297936D01*
X133310000Y-88971267D02*
X133310000Y-88628733D01*
X132290000Y-88971267D02*
X132290000Y-88628733D01*
X133310000Y-82971267D02*
X133310000Y-82628733D01*
X132290000Y-82971267D02*
X132290000Y-82628733D01*
X142697936Y-86260000D02*
X143902064Y-86260000D01*
X142697936Y-84440000D02*
X143902064Y-84440000D01*
X135310000Y-83671267D02*
X135310000Y-83328733D01*
X134290000Y-83671267D02*
X134290000Y-83328733D01*
X140260000Y-83671267D02*
X140260000Y-83328733D01*
X139240000Y-83671267D02*
X139240000Y-83328733D01*
X151410000Y-85602064D02*
X151410000Y-84397936D01*
X149590000Y-85602064D02*
X149590000Y-84397936D01*
X148910000Y-85602064D02*
X148910000Y-84397936D01*
X147090000Y-85602064D02*
X147090000Y-84397936D01*
D13*
X121292857Y-79900000D02*
X121235714Y-79871428D01*
X121150000Y-79871428D01*
X121064285Y-79900000D01*
X121007142Y-79957142D01*
X120978571Y-80014285D01*
X120950000Y-80128571D01*
X120950000Y-80214285D01*
X120978571Y-80328571D01*
X121007142Y-80385714D01*
X121064285Y-80442857D01*
X121150000Y-80471428D01*
X121207142Y-80471428D01*
X121292857Y-80442857D01*
X121321428Y-80414285D01*
X121321428Y-80214285D01*
X121207142Y-80214285D01*
X121578571Y-80471428D02*
X121578571Y-79871428D01*
X121921428Y-80471428D01*
X121921428Y-79871428D01*
X122207142Y-80471428D02*
X122207142Y-79871428D01*
X122350000Y-79871428D01*
X122435714Y-79900000D01*
X122492857Y-79957142D01*
X122521428Y-80014285D01*
X122550000Y-80128571D01*
X122550000Y-80214285D01*
X122521428Y-80328571D01*
X122492857Y-80385714D01*
X122435714Y-80442857D01*
X122350000Y-80471428D01*
X122207142Y-80471428D01*
X146100000Y-79671428D02*
X146100000Y-80100000D01*
X146071428Y-80185714D01*
X146014285Y-80242857D01*
X145928571Y-80271428D01*
X145871428Y-80271428D01*
X146642857Y-79871428D02*
X146642857Y-80271428D01*
X146500000Y-79642857D02*
X146357142Y-80071428D01*
X146728571Y-80071428D01*
X146100000Y-90371428D02*
X146100000Y-90800000D01*
X146071428Y-90885714D01*
X146014285Y-90942857D01*
X145928571Y-90971428D01*
X145871428Y-90971428D01*
X146328571Y-90371428D02*
X146700000Y-90371428D01*
X146500000Y-90600000D01*
X146585714Y-90600000D01*
X146642857Y-90628571D01*
X146671428Y-90657142D01*
X146700000Y-90714285D01*
X146700000Y-90857142D01*
X146671428Y-90914285D01*
X146642857Y-90942857D01*
X146585714Y-90971428D01*
X146414285Y-90971428D01*
X146357142Y-90942857D01*
X146328571Y-90914285D01*
X145900000Y-87771428D02*
X145700000Y-87485714D01*
X145557142Y-87771428D02*
X145557142Y-87171428D01*
X145785714Y-87171428D01*
X145842857Y-87200000D01*
X145871428Y-87228571D01*
X145900000Y-87285714D01*
X145900000Y-87371428D01*
X145871428Y-87428571D01*
X145842857Y-87457142D01*
X145785714Y-87485714D01*
X145557142Y-87485714D01*
X146442857Y-87171428D02*
X146157142Y-87171428D01*
X146128571Y-87457142D01*
X146157142Y-87428571D01*
X146214285Y-87400000D01*
X146357142Y-87400000D01*
X146414285Y-87428571D01*
X146442857Y-87457142D01*
X146471428Y-87514285D01*
X146471428Y-87657142D01*
X146442857Y-87714285D01*
X146414285Y-87742857D01*
X146357142Y-87771428D01*
X146214285Y-87771428D01*
X146157142Y-87742857D01*
X146128571Y-87714285D01*
X139900000Y-91171428D02*
X139700000Y-90885714D01*
X139557142Y-91171428D02*
X139557142Y-90571428D01*
X139785714Y-90571428D01*
X139842857Y-90600000D01*
X139871428Y-90628571D01*
X139900000Y-90685714D01*
X139900000Y-90771428D01*
X139871428Y-90828571D01*
X139842857Y-90857142D01*
X139785714Y-90885714D01*
X139557142Y-90885714D01*
X140100000Y-90571428D02*
X140471428Y-90571428D01*
X140271428Y-90800000D01*
X140357142Y-90800000D01*
X140414285Y-90828571D01*
X140442857Y-90857142D01*
X140471428Y-90914285D01*
X140471428Y-91057142D01*
X140442857Y-91114285D01*
X140414285Y-91142857D01*
X140357142Y-91171428D01*
X140185714Y-91171428D01*
X140128571Y-91142857D01*
X140100000Y-91114285D01*
X136592857Y-84221428D02*
X136592857Y-84707142D01*
X136621428Y-84764285D01*
X136650000Y-84792857D01*
X136707142Y-84821428D01*
X136821428Y-84821428D01*
X136878571Y-84792857D01*
X136907142Y-84764285D01*
X136935714Y-84707142D01*
X136935714Y-84221428D01*
X137535714Y-84821428D02*
X137192857Y-84821428D01*
X137364285Y-84821428D02*
X137364285Y-84221428D01*
X137307142Y-84307142D01*
X137250000Y-84364285D01*
X137192857Y-84392857D01*
X140200000Y-79521428D02*
X140000000Y-79235714D01*
X139857142Y-79521428D02*
X139857142Y-78921428D01*
X140085714Y-78921428D01*
X140142857Y-78950000D01*
X140171428Y-78978571D01*
X140200000Y-79035714D01*
X140200000Y-79121428D01*
X140171428Y-79178571D01*
X140142857Y-79207142D01*
X140085714Y-79235714D01*
X139857142Y-79235714D01*
X140714285Y-79121428D02*
X140714285Y-79521428D01*
X140571428Y-78892857D02*
X140428571Y-79321428D01*
X140800000Y-79321428D01*
X128700000Y-80971428D02*
X128500000Y-80685714D01*
X128357142Y-80971428D02*
X128357142Y-80371428D01*
X128585714Y-80371428D01*
X128642857Y-80400000D01*
X128671428Y-80428571D01*
X128700000Y-80485714D01*
X128700000Y-80571428D01*
X128671428Y-80628571D01*
X128642857Y-80657142D01*
X128585714Y-80685714D01*
X128357142Y-80685714D01*
X128928571Y-80428571D02*
X128957142Y-80400000D01*
X129014285Y-80371428D01*
X129157142Y-80371428D01*
X129214285Y-80400000D01*
X129242857Y-80428571D01*
X129271428Y-80485714D01*
X129271428Y-80542857D01*
X129242857Y-80628571D01*
X128900000Y-80971428D01*
X129271428Y-80971428D01*
X145900000Y-83021428D02*
X145700000Y-82735714D01*
X145557142Y-83021428D02*
X145557142Y-82421428D01*
X145785714Y-82421428D01*
X145842857Y-82450000D01*
X145871428Y-82478571D01*
X145900000Y-82535714D01*
X145900000Y-82621428D01*
X145871428Y-82678571D01*
X145842857Y-82707142D01*
X145785714Y-82735714D01*
X145557142Y-82735714D01*
X146471428Y-83021428D02*
X146128571Y-83021428D01*
X146300000Y-83021428D02*
X146300000Y-82421428D01*
X146242857Y-82507142D01*
X146185714Y-82564285D01*
X146128571Y-82592857D01*
X122800000Y-91471428D02*
X122514285Y-91471428D01*
X122514285Y-90871428D01*
X123314285Y-91471428D02*
X122971428Y-91471428D01*
X123142857Y-91471428D02*
X123142857Y-90871428D01*
X123085714Y-90957142D01*
X123028571Y-91014285D01*
X122971428Y-91042857D01*
X116600000Y-90271428D02*
X116600000Y-90700000D01*
X116571428Y-90785714D01*
X116514285Y-90842857D01*
X116428571Y-90871428D01*
X116371428Y-90871428D01*
X116857142Y-90328571D02*
X116885714Y-90300000D01*
X116942857Y-90271428D01*
X117085714Y-90271428D01*
X117142857Y-90300000D01*
X117171428Y-90328571D01*
X117200000Y-90385714D01*
X117200000Y-90442857D01*
X117171428Y-90528571D01*
X116828571Y-90871428D01*
X117200000Y-90871428D01*
X153100000Y-78771428D02*
X153100000Y-79200000D01*
X153071428Y-79285714D01*
X153014285Y-79342857D01*
X152928571Y-79371428D01*
X152871428Y-79371428D01*
X153700000Y-79371428D02*
X153357142Y-79371428D01*
X153528571Y-79371428D02*
X153528571Y-78771428D01*
X153471428Y-78857142D01*
X153414285Y-78914285D01*
X153357142Y-78942857D01*
X128457142Y-90971428D02*
X128457142Y-90371428D01*
X128600000Y-90371428D01*
X128685714Y-90400000D01*
X128742857Y-90457142D01*
X128771428Y-90514285D01*
X128800000Y-90628571D01*
X128800000Y-90714285D01*
X128771428Y-90828571D01*
X128742857Y-90885714D01*
X128685714Y-90942857D01*
X128600000Y-90971428D01*
X128457142Y-90971428D01*
X129028571Y-90428571D02*
X129057142Y-90400000D01*
X129114285Y-90371428D01*
X129257142Y-90371428D01*
X129314285Y-90400000D01*
X129342857Y-90428571D01*
X129371428Y-90485714D01*
X129371428Y-90542857D01*
X129342857Y-90628571D01*
X129000000Y-90971428D01*
X129371428Y-90971428D01*
X131257142Y-86271428D02*
X131257142Y-85671428D01*
X131400000Y-85671428D01*
X131485714Y-85700000D01*
X131542857Y-85757142D01*
X131571428Y-85814285D01*
X131600000Y-85928571D01*
X131600000Y-86014285D01*
X131571428Y-86128571D01*
X131542857Y-86185714D01*
X131485714Y-86242857D01*
X131400000Y-86271428D01*
X131257142Y-86271428D01*
X132171428Y-86271428D02*
X131828571Y-86271428D01*
X132000000Y-86271428D02*
X132000000Y-85671428D01*
X131942857Y-85757142D01*
X131885714Y-85814285D01*
X131828571Y-85842857D01*
X118000000Y-88264285D02*
X117971428Y-88292857D01*
X117885714Y-88321428D01*
X117828571Y-88321428D01*
X117742857Y-88292857D01*
X117685714Y-88235714D01*
X117657142Y-88178571D01*
X117628571Y-88064285D01*
X117628571Y-87978571D01*
X117657142Y-87864285D01*
X117685714Y-87807142D01*
X117742857Y-87750000D01*
X117828571Y-87721428D01*
X117885714Y-87721428D01*
X117971428Y-87750000D01*
X118000000Y-87778571D01*
X118342857Y-87978571D02*
X118285714Y-87950000D01*
X118257142Y-87921428D01*
X118228571Y-87864285D01*
X118228571Y-87835714D01*
X118257142Y-87778571D01*
X118285714Y-87750000D01*
X118342857Y-87721428D01*
X118457142Y-87721428D01*
X118514285Y-87750000D01*
X118542857Y-87778571D01*
X118571428Y-87835714D01*
X118571428Y-87864285D01*
X118542857Y-87921428D01*
X118514285Y-87950000D01*
X118457142Y-87978571D01*
X118342857Y-87978571D01*
X118285714Y-88007142D01*
X118257142Y-88035714D01*
X118228571Y-88092857D01*
X118228571Y-88207142D01*
X118257142Y-88264285D01*
X118285714Y-88292857D01*
X118342857Y-88321428D01*
X118457142Y-88321428D01*
X118514285Y-88292857D01*
X118542857Y-88264285D01*
X118571428Y-88207142D01*
X118571428Y-88092857D01*
X118542857Y-88035714D01*
X118514285Y-88007142D01*
X118457142Y-87978571D01*
X134100000Y-90064285D02*
X134071428Y-90092857D01*
X133985714Y-90121428D01*
X133928571Y-90121428D01*
X133842857Y-90092857D01*
X133785714Y-90035714D01*
X133757142Y-89978571D01*
X133728571Y-89864285D01*
X133728571Y-89778571D01*
X133757142Y-89664285D01*
X133785714Y-89607142D01*
X133842857Y-89550000D01*
X133928571Y-89521428D01*
X133985714Y-89521428D01*
X134071428Y-89550000D01*
X134100000Y-89578571D01*
X134300000Y-89521428D02*
X134700000Y-89521428D01*
X134442857Y-90121428D01*
X132700000Y-80914285D02*
X132671428Y-80942857D01*
X132585714Y-80971428D01*
X132528571Y-80971428D01*
X132442857Y-80942857D01*
X132385714Y-80885714D01*
X132357142Y-80828571D01*
X132328571Y-80714285D01*
X132328571Y-80628571D01*
X132357142Y-80514285D01*
X132385714Y-80457142D01*
X132442857Y-80400000D01*
X132528571Y-80371428D01*
X132585714Y-80371428D01*
X132671428Y-80400000D01*
X132700000Y-80428571D01*
X133214285Y-80371428D02*
X133100000Y-80371428D01*
X133042857Y-80400000D01*
X133014285Y-80428571D01*
X132957142Y-80514285D01*
X132928571Y-80628571D01*
X132928571Y-80857142D01*
X132957142Y-80914285D01*
X132985714Y-80942857D01*
X133042857Y-80971428D01*
X133157142Y-80971428D01*
X133214285Y-80942857D01*
X133242857Y-80914285D01*
X133271428Y-80857142D01*
X133271428Y-80714285D01*
X133242857Y-80657142D01*
X133214285Y-80628571D01*
X133157142Y-80600000D01*
X133042857Y-80600000D01*
X132985714Y-80628571D01*
X132957142Y-80657142D01*
X132928571Y-80714285D01*
X140550000Y-85589285D02*
X140521428Y-85617857D01*
X140435714Y-85646428D01*
X140378571Y-85646428D01*
X140292857Y-85617857D01*
X140235714Y-85560714D01*
X140207142Y-85503571D01*
X140178571Y-85389285D01*
X140178571Y-85303571D01*
X140207142Y-85189285D01*
X140235714Y-85132142D01*
X140292857Y-85075000D01*
X140378571Y-85046428D01*
X140435714Y-85046428D01*
X140521428Y-85075000D01*
X140550000Y-85103571D01*
X141092857Y-85046428D02*
X140807142Y-85046428D01*
X140778571Y-85332142D01*
X140807142Y-85303571D01*
X140864285Y-85275000D01*
X141007142Y-85275000D01*
X141064285Y-85303571D01*
X141092857Y-85332142D01*
X141121428Y-85389285D01*
X141121428Y-85532142D01*
X141092857Y-85589285D01*
X141064285Y-85617857D01*
X141007142Y-85646428D01*
X140864285Y-85646428D01*
X140807142Y-85617857D01*
X140778571Y-85589285D01*
X134600000Y-81614285D02*
X134571428Y-81642857D01*
X134485714Y-81671428D01*
X134428571Y-81671428D01*
X134342857Y-81642857D01*
X134285714Y-81585714D01*
X134257142Y-81528571D01*
X134228571Y-81414285D01*
X134228571Y-81328571D01*
X134257142Y-81214285D01*
X134285714Y-81157142D01*
X134342857Y-81100000D01*
X134428571Y-81071428D01*
X134485714Y-81071428D01*
X134571428Y-81100000D01*
X134600000Y-81128571D01*
X135114285Y-81271428D02*
X135114285Y-81671428D01*
X134971428Y-81042857D02*
X134828571Y-81471428D01*
X135200000Y-81471428D01*
X139650000Y-81414285D02*
X139621428Y-81442857D01*
X139535714Y-81471428D01*
X139478571Y-81471428D01*
X139392857Y-81442857D01*
X139335714Y-81385714D01*
X139307142Y-81328571D01*
X139278571Y-81214285D01*
X139278571Y-81128571D01*
X139307142Y-81014285D01*
X139335714Y-80957142D01*
X139392857Y-80900000D01*
X139478571Y-80871428D01*
X139535714Y-80871428D01*
X139621428Y-80900000D01*
X139650000Y-80928571D01*
X139850000Y-80871428D02*
X140221428Y-80871428D01*
X140021428Y-81100000D01*
X140107142Y-81100000D01*
X140164285Y-81128571D01*
X140192857Y-81157142D01*
X140221428Y-81214285D01*
X140221428Y-81357142D01*
X140192857Y-81414285D01*
X140164285Y-81442857D01*
X140107142Y-81471428D01*
X139935714Y-81471428D01*
X139878571Y-81442857D01*
X139850000Y-81414285D01*
X152150000Y-85214285D02*
X152121428Y-85242857D01*
X152035714Y-85271428D01*
X151978571Y-85271428D01*
X151892857Y-85242857D01*
X151835714Y-85185714D01*
X151807142Y-85128571D01*
X151778571Y-85014285D01*
X151778571Y-84928571D01*
X151807142Y-84814285D01*
X151835714Y-84757142D01*
X151892857Y-84700000D01*
X151978571Y-84671428D01*
X152035714Y-84671428D01*
X152121428Y-84700000D01*
X152150000Y-84728571D01*
X152378571Y-84728571D02*
X152407142Y-84700000D01*
X152464285Y-84671428D01*
X152607142Y-84671428D01*
X152664285Y-84700000D01*
X152692857Y-84728571D01*
X152721428Y-84785714D01*
X152721428Y-84842857D01*
X152692857Y-84928571D01*
X152350000Y-85271428D01*
X152721428Y-85271428D01*
X146400000Y-85214285D02*
X146371428Y-85242857D01*
X146285714Y-85271428D01*
X146228571Y-85271428D01*
X146142857Y-85242857D01*
X146085714Y-85185714D01*
X146057142Y-85128571D01*
X146028571Y-85014285D01*
X146028571Y-84928571D01*
X146057142Y-84814285D01*
X146085714Y-84757142D01*
X146142857Y-84700000D01*
X146228571Y-84671428D01*
X146285714Y-84671428D01*
X146371428Y-84700000D01*
X146400000Y-84728571D01*
X146971428Y-85271428D02*
X146628571Y-85271428D01*
X146800000Y-85271428D02*
X146800000Y-84671428D01*
X146742857Y-84757142D01*
X146685714Y-84814285D01*
X146628571Y-84842857D01*
M02*
