G04 #@! TF.GenerationSoftware,KiCad,Pcbnew,5.1.5-52549c5~84~ubuntu18.04.1*
G04 #@! TF.CreationDate,2020-03-07T05:05:02+05:30*
G04 #@! TF.ProjectId,tps92515_led_driver,74707339-3235-4313-955f-6c65645f6472,rev?*
G04 #@! TF.SameCoordinates,Original*
G04 #@! TF.FileFunction,Soldermask,Top*
G04 #@! TF.FilePolarity,Negative*
%FSLAX46Y46*%
G04 Gerber Fmt 4.6, Leading zero omitted, Abs format (unit mm)*
G04 Created by KiCad (PCBNEW 5.1.5-52549c5~84~ubuntu18.04.1) date 2020-03-07 05:05:02*
%MOMM*%
%LPD*%
G04 APERTURE LIST*
%ADD10C,0.100000*%
G04 APERTURE END LIST*
D10*
G36*
X145025562Y-89728181D02*
G01*
X145060481Y-89738774D01*
X145092663Y-89755976D01*
X145120873Y-89779127D01*
X145144024Y-89807337D01*
X145161226Y-89839519D01*
X145171819Y-89874438D01*
X145176000Y-89916895D01*
X145176000Y-91058105D01*
X145171819Y-91100562D01*
X145161226Y-91135481D01*
X145144024Y-91167663D01*
X145120873Y-91195873D01*
X145092663Y-91219024D01*
X145060481Y-91236226D01*
X145025562Y-91246819D01*
X144983105Y-91251000D01*
X143516895Y-91251000D01*
X143474438Y-91246819D01*
X143439519Y-91236226D01*
X143407337Y-91219024D01*
X143379127Y-91195873D01*
X143355976Y-91167663D01*
X143338774Y-91135481D01*
X143328181Y-91100562D01*
X143324000Y-91058105D01*
X143324000Y-89916895D01*
X143328181Y-89874438D01*
X143338774Y-89839519D01*
X143355976Y-89807337D01*
X143379127Y-89779127D01*
X143407337Y-89755976D01*
X143439519Y-89738774D01*
X143474438Y-89728181D01*
X143516895Y-89724000D01*
X144983105Y-89724000D01*
X145025562Y-89728181D01*
G37*
G36*
X142625562Y-89728181D02*
G01*
X142660481Y-89738774D01*
X142692663Y-89755976D01*
X142720873Y-89779127D01*
X142744024Y-89807337D01*
X142761226Y-89839519D01*
X142771819Y-89874438D01*
X142776000Y-89916895D01*
X142776000Y-91058105D01*
X142771819Y-91100562D01*
X142761226Y-91135481D01*
X142744024Y-91167663D01*
X142720873Y-91195873D01*
X142692663Y-91219024D01*
X142660481Y-91236226D01*
X142625562Y-91246819D01*
X142583105Y-91251000D01*
X141116895Y-91251000D01*
X141074438Y-91246819D01*
X141039519Y-91236226D01*
X141007337Y-91219024D01*
X140979127Y-91195873D01*
X140955976Y-91167663D01*
X140938774Y-91135481D01*
X140928181Y-91100562D01*
X140924000Y-91058105D01*
X140924000Y-89916895D01*
X140928181Y-89874438D01*
X140938774Y-89839519D01*
X140955976Y-89807337D01*
X140979127Y-89779127D01*
X141007337Y-89755976D01*
X141039519Y-89738774D01*
X141074438Y-89728181D01*
X141116895Y-89724000D01*
X142583105Y-89724000D01*
X142625562Y-89728181D01*
G37*
G36*
X124534007Y-88002383D02*
G01*
X124561138Y-88010613D01*
X124586133Y-88023973D01*
X124608045Y-88041955D01*
X124626027Y-88063867D01*
X124639387Y-88088862D01*
X124647617Y-88115993D01*
X124651000Y-88150341D01*
X124651000Y-90299659D01*
X124647617Y-90334007D01*
X124639387Y-90361138D01*
X124626027Y-90386133D01*
X124608045Y-90408045D01*
X124586133Y-90426027D01*
X124561138Y-90439387D01*
X124534007Y-90447617D01*
X124499659Y-90451000D01*
X121300341Y-90451000D01*
X121265993Y-90447617D01*
X121238862Y-90439387D01*
X121213867Y-90426027D01*
X121191955Y-90408045D01*
X121173973Y-90386133D01*
X121160613Y-90361138D01*
X121152383Y-90334007D01*
X121149000Y-90299659D01*
X121149000Y-88150341D01*
X121152383Y-88115993D01*
X121160613Y-88088862D01*
X121173973Y-88063867D01*
X121191955Y-88041955D01*
X121213867Y-88023973D01*
X121238862Y-88010613D01*
X121265993Y-88002383D01*
X121300341Y-87999000D01*
X124499659Y-87999000D01*
X124534007Y-88002383D01*
G37*
G36*
X133164499Y-89103445D02*
G01*
X133201995Y-89114820D01*
X133236554Y-89133292D01*
X133266847Y-89158153D01*
X133291708Y-89188446D01*
X133310180Y-89223005D01*
X133321555Y-89260501D01*
X133326000Y-89305638D01*
X133326000Y-90044362D01*
X133321555Y-90089499D01*
X133310180Y-90126995D01*
X133291708Y-90161554D01*
X133266847Y-90191847D01*
X133236554Y-90216708D01*
X133201995Y-90235180D01*
X133164499Y-90246555D01*
X133119362Y-90251000D01*
X132480638Y-90251000D01*
X132435501Y-90246555D01*
X132398005Y-90235180D01*
X132363446Y-90216708D01*
X132333153Y-90191847D01*
X132308292Y-90161554D01*
X132289820Y-90126995D01*
X132278445Y-90089499D01*
X132274000Y-90044362D01*
X132274000Y-89305638D01*
X132278445Y-89260501D01*
X132289820Y-89223005D01*
X132308292Y-89188446D01*
X132333153Y-89158153D01*
X132363446Y-89133292D01*
X132398005Y-89114820D01*
X132435501Y-89103445D01*
X132480638Y-89099000D01*
X133119362Y-89099000D01*
X133164499Y-89103445D01*
G37*
G36*
X149151000Y-90151000D02*
G01*
X147349000Y-90151000D01*
X147349000Y-88349000D01*
X149151000Y-88349000D01*
X149151000Y-90151000D01*
G37*
G36*
X150903512Y-88353927D02*
G01*
X151052812Y-88383624D01*
X151216784Y-88451544D01*
X151364354Y-88550147D01*
X151489853Y-88675646D01*
X151588456Y-88823216D01*
X151656376Y-88987188D01*
X151691000Y-89161259D01*
X151691000Y-89338741D01*
X151656376Y-89512812D01*
X151588456Y-89676784D01*
X151489853Y-89824354D01*
X151364354Y-89949853D01*
X151216784Y-90048456D01*
X151052812Y-90116376D01*
X150903512Y-90146073D01*
X150878742Y-90151000D01*
X150701258Y-90151000D01*
X150676488Y-90146073D01*
X150527188Y-90116376D01*
X150363216Y-90048456D01*
X150215646Y-89949853D01*
X150090147Y-89824354D01*
X149991544Y-89676784D01*
X149923624Y-89512812D01*
X149889000Y-89338741D01*
X149889000Y-89161259D01*
X149923624Y-88987188D01*
X149991544Y-88823216D01*
X150090147Y-88675646D01*
X150215646Y-88550147D01*
X150363216Y-88451544D01*
X150527188Y-88383624D01*
X150676488Y-88353927D01*
X150701258Y-88349000D01*
X150878742Y-88349000D01*
X150903512Y-88353927D01*
G37*
G36*
X130101000Y-90001000D02*
G01*
X127699000Y-90001000D01*
X127699000Y-87399000D01*
X130101000Y-87399000D01*
X130101000Y-90001000D01*
G37*
G36*
X114251000Y-88976000D02*
G01*
X111149000Y-88976000D01*
X111149000Y-85874000D01*
X114251000Y-85874000D01*
X114251000Y-88976000D01*
G37*
G36*
X156987833Y-85890922D02*
G01*
X157202410Y-85933604D01*
X157484674Y-86050521D01*
X157738705Y-86220259D01*
X157954741Y-86436295D01*
X158124479Y-86690326D01*
X158241396Y-86972590D01*
X158246212Y-86996802D01*
X158301000Y-87272239D01*
X158301000Y-87577761D01*
X158285266Y-87656860D01*
X158241396Y-87877410D01*
X158124479Y-88159674D01*
X157954741Y-88413705D01*
X157738705Y-88629741D01*
X157484674Y-88799479D01*
X157202410Y-88916396D01*
X157052585Y-88946198D01*
X156902761Y-88976000D01*
X156597239Y-88976000D01*
X156447415Y-88946198D01*
X156297590Y-88916396D01*
X156015326Y-88799479D01*
X155761295Y-88629741D01*
X155545259Y-88413705D01*
X155375521Y-88159674D01*
X155258604Y-87877410D01*
X155214734Y-87656860D01*
X155199000Y-87577761D01*
X155199000Y-87272239D01*
X155253788Y-86996802D01*
X155258604Y-86972590D01*
X155375521Y-86690326D01*
X155545259Y-86436295D01*
X155761295Y-86220259D01*
X156015326Y-86050521D01*
X156297590Y-85933604D01*
X156512167Y-85890922D01*
X156597239Y-85874000D01*
X156902761Y-85874000D01*
X156987833Y-85890922D01*
G37*
G36*
X133164499Y-87353445D02*
G01*
X133201995Y-87364820D01*
X133236554Y-87383292D01*
X133266847Y-87408153D01*
X133291708Y-87438446D01*
X133310180Y-87473005D01*
X133321555Y-87510501D01*
X133326000Y-87555638D01*
X133326000Y-88294362D01*
X133321555Y-88339499D01*
X133310180Y-88376995D01*
X133291708Y-88411554D01*
X133266847Y-88441847D01*
X133236554Y-88466708D01*
X133201995Y-88485180D01*
X133164499Y-88496555D01*
X133119362Y-88501000D01*
X132480638Y-88501000D01*
X132435501Y-88496555D01*
X132398005Y-88485180D01*
X132363446Y-88466708D01*
X132333153Y-88441847D01*
X132308292Y-88411554D01*
X132289820Y-88376995D01*
X132278445Y-88339499D01*
X132274000Y-88294362D01*
X132274000Y-87555638D01*
X132278445Y-87510501D01*
X132289820Y-87473005D01*
X132308292Y-87438446D01*
X132333153Y-87408153D01*
X132363446Y-87383292D01*
X132398005Y-87364820D01*
X132435501Y-87353445D01*
X132480638Y-87349000D01*
X133119362Y-87349000D01*
X133164499Y-87353445D01*
G37*
G36*
X145025562Y-86753181D02*
G01*
X145060481Y-86763774D01*
X145092663Y-86780976D01*
X145120873Y-86804127D01*
X145144024Y-86832337D01*
X145161226Y-86864519D01*
X145171819Y-86899438D01*
X145176000Y-86941895D01*
X145176000Y-88083105D01*
X145171819Y-88125562D01*
X145161226Y-88160481D01*
X145144024Y-88192663D01*
X145120873Y-88220873D01*
X145092663Y-88244024D01*
X145060481Y-88261226D01*
X145025562Y-88271819D01*
X144983105Y-88276000D01*
X143516895Y-88276000D01*
X143474438Y-88271819D01*
X143439519Y-88261226D01*
X143407337Y-88244024D01*
X143379127Y-88220873D01*
X143355976Y-88192663D01*
X143338774Y-88160481D01*
X143328181Y-88125562D01*
X143324000Y-88083105D01*
X143324000Y-86941895D01*
X143328181Y-86899438D01*
X143338774Y-86864519D01*
X143355976Y-86832337D01*
X143379127Y-86804127D01*
X143407337Y-86780976D01*
X143439519Y-86763774D01*
X143474438Y-86753181D01*
X143516895Y-86749000D01*
X144983105Y-86749000D01*
X145025562Y-86753181D01*
G37*
G36*
X142625562Y-86753181D02*
G01*
X142660481Y-86763774D01*
X142692663Y-86780976D01*
X142720873Y-86804127D01*
X142744024Y-86832337D01*
X142761226Y-86864519D01*
X142771819Y-86899438D01*
X142776000Y-86941895D01*
X142776000Y-88083105D01*
X142771819Y-88125562D01*
X142761226Y-88160481D01*
X142744024Y-88192663D01*
X142720873Y-88220873D01*
X142692663Y-88244024D01*
X142660481Y-88261226D01*
X142625562Y-88271819D01*
X142583105Y-88276000D01*
X141116895Y-88276000D01*
X141074438Y-88271819D01*
X141039519Y-88261226D01*
X141007337Y-88244024D01*
X140979127Y-88220873D01*
X140955976Y-88192663D01*
X140938774Y-88160481D01*
X140928181Y-88125562D01*
X140924000Y-88083105D01*
X140924000Y-86941895D01*
X140928181Y-86899438D01*
X140938774Y-86864519D01*
X140955976Y-86832337D01*
X140979127Y-86804127D01*
X141007337Y-86780976D01*
X141039519Y-86763774D01*
X141074438Y-86753181D01*
X141116895Y-86749000D01*
X142583105Y-86749000D01*
X142625562Y-86753181D01*
G37*
G36*
X135645295Y-85800323D02*
G01*
X135652310Y-85802451D01*
X135658776Y-85805908D01*
X135664442Y-85810558D01*
X135669092Y-85816224D01*
X135672549Y-85822690D01*
X135674677Y-85829705D01*
X135676000Y-85843140D01*
X135676000Y-86156860D01*
X135674677Y-86170295D01*
X135672549Y-86177309D01*
X135665190Y-86191077D01*
X135655813Y-86213716D01*
X135651033Y-86237749D01*
X135651033Y-86262253D01*
X135655814Y-86286286D01*
X135665190Y-86308923D01*
X135672549Y-86322691D01*
X135674677Y-86329705D01*
X135676000Y-86343140D01*
X135676000Y-86656860D01*
X135674677Y-86670295D01*
X135672549Y-86677309D01*
X135665190Y-86691077D01*
X135655813Y-86713716D01*
X135651033Y-86737749D01*
X135651033Y-86762253D01*
X135655814Y-86786286D01*
X135665190Y-86808923D01*
X135672549Y-86822691D01*
X135674677Y-86829705D01*
X135676000Y-86843140D01*
X135676000Y-87156860D01*
X135674677Y-87170295D01*
X135672549Y-87177309D01*
X135665190Y-87191077D01*
X135655813Y-87213716D01*
X135651033Y-87237749D01*
X135651033Y-87262253D01*
X135655814Y-87286286D01*
X135665190Y-87308923D01*
X135672549Y-87322691D01*
X135674677Y-87329705D01*
X135676000Y-87343140D01*
X135676000Y-87656860D01*
X135674677Y-87670295D01*
X135672549Y-87677309D01*
X135665190Y-87691077D01*
X135655813Y-87713716D01*
X135651033Y-87737749D01*
X135651033Y-87762253D01*
X135655814Y-87786286D01*
X135665190Y-87808923D01*
X135672549Y-87822691D01*
X135674677Y-87829705D01*
X135676000Y-87843140D01*
X135676000Y-88156860D01*
X135674677Y-88170295D01*
X135672549Y-88177310D01*
X135669092Y-88183776D01*
X135664442Y-88189442D01*
X135658776Y-88194092D01*
X135652310Y-88197549D01*
X135645295Y-88199677D01*
X135631860Y-88201000D01*
X134168140Y-88201000D01*
X134154705Y-88199677D01*
X134147690Y-88197549D01*
X134141224Y-88194092D01*
X134135558Y-88189442D01*
X134130908Y-88183776D01*
X134127451Y-88177310D01*
X134125323Y-88170295D01*
X134124000Y-88156860D01*
X134124000Y-87843140D01*
X134125323Y-87829705D01*
X134127451Y-87822691D01*
X134134810Y-87808923D01*
X134144187Y-87786284D01*
X134148967Y-87762251D01*
X134148967Y-87737747D01*
X134144186Y-87713714D01*
X134134810Y-87691077D01*
X134127451Y-87677309D01*
X134125323Y-87670295D01*
X134124000Y-87656860D01*
X134124000Y-87343140D01*
X134125323Y-87329705D01*
X134127451Y-87322691D01*
X134134810Y-87308923D01*
X134144187Y-87286284D01*
X134148967Y-87262251D01*
X134148967Y-87237747D01*
X134144186Y-87213714D01*
X134134810Y-87191077D01*
X134127451Y-87177309D01*
X134125323Y-87170295D01*
X134124000Y-87156860D01*
X134124000Y-86843140D01*
X134125323Y-86829705D01*
X134127451Y-86822691D01*
X134134810Y-86808923D01*
X134144187Y-86786284D01*
X134148967Y-86762251D01*
X134148967Y-86737747D01*
X134144186Y-86713714D01*
X134134810Y-86691077D01*
X134127451Y-86677309D01*
X134125323Y-86670295D01*
X134124000Y-86656860D01*
X134124000Y-86343140D01*
X134125323Y-86329705D01*
X134127451Y-86322691D01*
X134134810Y-86308923D01*
X134144187Y-86286284D01*
X134148967Y-86262251D01*
X134148967Y-86237747D01*
X134144186Y-86213714D01*
X134134810Y-86191077D01*
X134127451Y-86177309D01*
X134125323Y-86170295D01*
X134124000Y-86156860D01*
X134124000Y-85843140D01*
X134125323Y-85829705D01*
X134127451Y-85822690D01*
X134130908Y-85816224D01*
X134135558Y-85810558D01*
X134141224Y-85805908D01*
X134147690Y-85802451D01*
X134154705Y-85800323D01*
X134168140Y-85799000D01*
X135631860Y-85799000D01*
X135645295Y-85800323D01*
G37*
G36*
X139945295Y-85800323D02*
G01*
X139952310Y-85802451D01*
X139958776Y-85805908D01*
X139964442Y-85810558D01*
X139969092Y-85816224D01*
X139972549Y-85822690D01*
X139974677Y-85829705D01*
X139976000Y-85843140D01*
X139976000Y-86156860D01*
X139974677Y-86170295D01*
X139972549Y-86177309D01*
X139965190Y-86191077D01*
X139955813Y-86213716D01*
X139951033Y-86237749D01*
X139951033Y-86262253D01*
X139955814Y-86286286D01*
X139965190Y-86308923D01*
X139972549Y-86322691D01*
X139974677Y-86329705D01*
X139976000Y-86343140D01*
X139976000Y-86656860D01*
X139974677Y-86670295D01*
X139972549Y-86677309D01*
X139965190Y-86691077D01*
X139955813Y-86713716D01*
X139951033Y-86737749D01*
X139951033Y-86762253D01*
X139955814Y-86786286D01*
X139965190Y-86808923D01*
X139972549Y-86822691D01*
X139974677Y-86829705D01*
X139976000Y-86843140D01*
X139976000Y-87156860D01*
X139974677Y-87170295D01*
X139972549Y-87177309D01*
X139965190Y-87191077D01*
X139955813Y-87213716D01*
X139951033Y-87237749D01*
X139951033Y-87262253D01*
X139955814Y-87286286D01*
X139965190Y-87308923D01*
X139972549Y-87322691D01*
X139974677Y-87329705D01*
X139976000Y-87343140D01*
X139976000Y-87656860D01*
X139974677Y-87670295D01*
X139972549Y-87677309D01*
X139965190Y-87691077D01*
X139955813Y-87713716D01*
X139951033Y-87737749D01*
X139951033Y-87762253D01*
X139955814Y-87786286D01*
X139965190Y-87808923D01*
X139972549Y-87822691D01*
X139974677Y-87829705D01*
X139976000Y-87843140D01*
X139976000Y-88156860D01*
X139974677Y-88170295D01*
X139972549Y-88177310D01*
X139969092Y-88183776D01*
X139964442Y-88189442D01*
X139958776Y-88194092D01*
X139952310Y-88197549D01*
X139945295Y-88199677D01*
X139931860Y-88201000D01*
X138468140Y-88201000D01*
X138454705Y-88199677D01*
X138447690Y-88197549D01*
X138441224Y-88194092D01*
X138435558Y-88189442D01*
X138430908Y-88183776D01*
X138427451Y-88177310D01*
X138425323Y-88170295D01*
X138424000Y-88156860D01*
X138424000Y-87843140D01*
X138425323Y-87829705D01*
X138427451Y-87822691D01*
X138434810Y-87808923D01*
X138444187Y-87786284D01*
X138448967Y-87762251D01*
X138448967Y-87737747D01*
X138444186Y-87713714D01*
X138434810Y-87691077D01*
X138427451Y-87677309D01*
X138425323Y-87670295D01*
X138424000Y-87656860D01*
X138424000Y-87343140D01*
X138425323Y-87329705D01*
X138427451Y-87322691D01*
X138434810Y-87308923D01*
X138444187Y-87286284D01*
X138448967Y-87262251D01*
X138448967Y-87237747D01*
X138444186Y-87213714D01*
X138434810Y-87191077D01*
X138427451Y-87177309D01*
X138425323Y-87170295D01*
X138424000Y-87156860D01*
X138424000Y-86843140D01*
X138425323Y-86829705D01*
X138427451Y-86822691D01*
X138434810Y-86808923D01*
X138444187Y-86786284D01*
X138448967Y-86762251D01*
X138448967Y-86737747D01*
X138444186Y-86713714D01*
X138434810Y-86691077D01*
X138427451Y-86677309D01*
X138425323Y-86670295D01*
X138424000Y-86656860D01*
X138424000Y-86343140D01*
X138425323Y-86329705D01*
X138427451Y-86322691D01*
X138434810Y-86308923D01*
X138444187Y-86286284D01*
X138448967Y-86262251D01*
X138448967Y-86237747D01*
X138444186Y-86213714D01*
X138434810Y-86191077D01*
X138427451Y-86177309D01*
X138425323Y-86170295D01*
X138424000Y-86156860D01*
X138424000Y-85843140D01*
X138425323Y-85829705D01*
X138427451Y-85822690D01*
X138430908Y-85816224D01*
X138435558Y-85810558D01*
X138441224Y-85805908D01*
X138447690Y-85802451D01*
X138454705Y-85800323D01*
X138468140Y-85799000D01*
X139931860Y-85799000D01*
X139945295Y-85800323D01*
G37*
G36*
X137941000Y-87991000D02*
G01*
X136159000Y-87991000D01*
X136159000Y-86009000D01*
X137941000Y-86009000D01*
X137941000Y-87991000D01*
G37*
G36*
X148768604Y-85728347D02*
G01*
X148805144Y-85739432D01*
X148838821Y-85757433D01*
X148868341Y-85781659D01*
X148892567Y-85811179D01*
X148910568Y-85844856D01*
X148921653Y-85881396D01*
X148926000Y-85925538D01*
X148926000Y-86874462D01*
X148921653Y-86918604D01*
X148910568Y-86955144D01*
X148892567Y-86988821D01*
X148868341Y-87018341D01*
X148838821Y-87042567D01*
X148805144Y-87060568D01*
X148768604Y-87071653D01*
X148724462Y-87076000D01*
X147275538Y-87076000D01*
X147231396Y-87071653D01*
X147194856Y-87060568D01*
X147161179Y-87042567D01*
X147131659Y-87018341D01*
X147107433Y-86988821D01*
X147089432Y-86955144D01*
X147078347Y-86918604D01*
X147074000Y-86874462D01*
X147074000Y-85925538D01*
X147078347Y-85881396D01*
X147089432Y-85844856D01*
X147107433Y-85811179D01*
X147131659Y-85781659D01*
X147161179Y-85757433D01*
X147194856Y-85739432D01*
X147231396Y-85728347D01*
X147275538Y-85724000D01*
X148724462Y-85724000D01*
X148768604Y-85728347D01*
G37*
G36*
X151268604Y-85728347D02*
G01*
X151305144Y-85739432D01*
X151338821Y-85757433D01*
X151368341Y-85781659D01*
X151392567Y-85811179D01*
X151410568Y-85844856D01*
X151421653Y-85881396D01*
X151426000Y-85925538D01*
X151426000Y-86874462D01*
X151421653Y-86918604D01*
X151410568Y-86955144D01*
X151392567Y-86988821D01*
X151368341Y-87018341D01*
X151338821Y-87042567D01*
X151305144Y-87060568D01*
X151268604Y-87071653D01*
X151224462Y-87076000D01*
X149775538Y-87076000D01*
X149731396Y-87071653D01*
X149694856Y-87060568D01*
X149661179Y-87042567D01*
X149631659Y-87018341D01*
X149607433Y-86988821D01*
X149589432Y-86955144D01*
X149578347Y-86918604D01*
X149574000Y-86874462D01*
X149574000Y-85925538D01*
X149578347Y-85881396D01*
X149589432Y-85844856D01*
X149607433Y-85811179D01*
X149631659Y-85781659D01*
X149661179Y-85757433D01*
X149694856Y-85739432D01*
X149731396Y-85728347D01*
X149775538Y-85724000D01*
X151224462Y-85724000D01*
X151268604Y-85728347D01*
G37*
G36*
X118818604Y-85628347D02*
G01*
X118855144Y-85639432D01*
X118888821Y-85657433D01*
X118918341Y-85681659D01*
X118942567Y-85711179D01*
X118960568Y-85744856D01*
X118971653Y-85781396D01*
X118976000Y-85825538D01*
X118976000Y-86774462D01*
X118971653Y-86818604D01*
X118960568Y-86855144D01*
X118942567Y-86888821D01*
X118918341Y-86918341D01*
X118888821Y-86942567D01*
X118855144Y-86960568D01*
X118818604Y-86971653D01*
X118774462Y-86976000D01*
X117325538Y-86976000D01*
X117281396Y-86971653D01*
X117244856Y-86960568D01*
X117211179Y-86942567D01*
X117181659Y-86918341D01*
X117157433Y-86888821D01*
X117139432Y-86855144D01*
X117128347Y-86818604D01*
X117124000Y-86774462D01*
X117124000Y-85825538D01*
X117128347Y-85781396D01*
X117139432Y-85744856D01*
X117157433Y-85711179D01*
X117181659Y-85681659D01*
X117211179Y-85657433D01*
X117244856Y-85639432D01*
X117281396Y-85628347D01*
X117325538Y-85624000D01*
X118774462Y-85624000D01*
X118818604Y-85628347D01*
G37*
G36*
X133201000Y-86851000D02*
G01*
X132399000Y-86851000D01*
X132399000Y-86149000D01*
X133201000Y-86149000D01*
X133201000Y-86851000D01*
G37*
G36*
X145218604Y-84428347D02*
G01*
X145255144Y-84439432D01*
X145288821Y-84457433D01*
X145318341Y-84481659D01*
X145342567Y-84511179D01*
X145360568Y-84544856D01*
X145371653Y-84581396D01*
X145376000Y-84625538D01*
X145376000Y-86074462D01*
X145371653Y-86118604D01*
X145360568Y-86155144D01*
X145342567Y-86188821D01*
X145318341Y-86218341D01*
X145288821Y-86242567D01*
X145255144Y-86260568D01*
X145218604Y-86271653D01*
X145174462Y-86276000D01*
X144225538Y-86276000D01*
X144181396Y-86271653D01*
X144144856Y-86260568D01*
X144111179Y-86242567D01*
X144081659Y-86218341D01*
X144057433Y-86188821D01*
X144039432Y-86155144D01*
X144028347Y-86118604D01*
X144024000Y-86074462D01*
X144024000Y-84625538D01*
X144028347Y-84581396D01*
X144039432Y-84544856D01*
X144057433Y-84511179D01*
X144081659Y-84481659D01*
X144111179Y-84457433D01*
X144144856Y-84439432D01*
X144181396Y-84428347D01*
X144225538Y-84424000D01*
X145174462Y-84424000D01*
X145218604Y-84428347D01*
G37*
G36*
X142418604Y-84428347D02*
G01*
X142455144Y-84439432D01*
X142488821Y-84457433D01*
X142518341Y-84481659D01*
X142542567Y-84511179D01*
X142560568Y-84544856D01*
X142571653Y-84581396D01*
X142576000Y-84625538D01*
X142576000Y-86074462D01*
X142571653Y-86118604D01*
X142560568Y-86155144D01*
X142542567Y-86188821D01*
X142518341Y-86218341D01*
X142488821Y-86242567D01*
X142455144Y-86260568D01*
X142418604Y-86271653D01*
X142374462Y-86276000D01*
X141425538Y-86276000D01*
X141381396Y-86271653D01*
X141344856Y-86260568D01*
X141311179Y-86242567D01*
X141281659Y-86218341D01*
X141257433Y-86188821D01*
X141239432Y-86155144D01*
X141228347Y-86118604D01*
X141224000Y-86074462D01*
X141224000Y-84625538D01*
X141228347Y-84581396D01*
X141239432Y-84544856D01*
X141257433Y-84511179D01*
X141281659Y-84481659D01*
X141311179Y-84457433D01*
X141344856Y-84439432D01*
X141381396Y-84428347D01*
X141425538Y-84424000D01*
X142374462Y-84424000D01*
X142418604Y-84428347D01*
G37*
G36*
X130101000Y-85701000D02*
G01*
X127699000Y-85701000D01*
X127699000Y-83099000D01*
X130101000Y-83099000D01*
X130101000Y-85701000D01*
G37*
G36*
X133201000Y-85451000D02*
G01*
X132399000Y-85451000D01*
X132399000Y-84749000D01*
X133201000Y-84749000D01*
X133201000Y-85451000D01*
G37*
G36*
X140114499Y-83803445D02*
G01*
X140151995Y-83814820D01*
X140186554Y-83833292D01*
X140216847Y-83858153D01*
X140241708Y-83888446D01*
X140260180Y-83923005D01*
X140271555Y-83960501D01*
X140276000Y-84005638D01*
X140276000Y-84744362D01*
X140271555Y-84789499D01*
X140260180Y-84826995D01*
X140241708Y-84861554D01*
X140216847Y-84891847D01*
X140186554Y-84916708D01*
X140151995Y-84935180D01*
X140114499Y-84946555D01*
X140069362Y-84951000D01*
X139430638Y-84951000D01*
X139385501Y-84946555D01*
X139348005Y-84935180D01*
X139313446Y-84916708D01*
X139283153Y-84891847D01*
X139258292Y-84861554D01*
X139239820Y-84826995D01*
X139228445Y-84789499D01*
X139224000Y-84744362D01*
X139224000Y-84005638D01*
X139228445Y-83960501D01*
X139239820Y-83923005D01*
X139258292Y-83888446D01*
X139283153Y-83858153D01*
X139313446Y-83833292D01*
X139348005Y-83814820D01*
X139385501Y-83803445D01*
X139430638Y-83799000D01*
X140069362Y-83799000D01*
X140114499Y-83803445D01*
G37*
G36*
X135164499Y-83803445D02*
G01*
X135201995Y-83814820D01*
X135236554Y-83833292D01*
X135266847Y-83858153D01*
X135291708Y-83888446D01*
X135310180Y-83923005D01*
X135321555Y-83960501D01*
X135326000Y-84005638D01*
X135326000Y-84744362D01*
X135321555Y-84789499D01*
X135310180Y-84826995D01*
X135291708Y-84861554D01*
X135266847Y-84891847D01*
X135236554Y-84916708D01*
X135201995Y-84935180D01*
X135164499Y-84946555D01*
X135119362Y-84951000D01*
X134480638Y-84951000D01*
X134435501Y-84946555D01*
X134398005Y-84935180D01*
X134363446Y-84916708D01*
X134333153Y-84891847D01*
X134308292Y-84861554D01*
X134289820Y-84826995D01*
X134278445Y-84789499D01*
X134274000Y-84744362D01*
X134274000Y-84005638D01*
X134278445Y-83960501D01*
X134289820Y-83923005D01*
X134308292Y-83888446D01*
X134333153Y-83858153D01*
X134363446Y-83833292D01*
X134398005Y-83814820D01*
X134435501Y-83803445D01*
X134480638Y-83799000D01*
X135119362Y-83799000D01*
X135164499Y-83803445D01*
G37*
G36*
X124534007Y-81952383D02*
G01*
X124561138Y-81960613D01*
X124586133Y-81973973D01*
X124608045Y-81991955D01*
X124626027Y-82013867D01*
X124639387Y-82038862D01*
X124647617Y-82065993D01*
X124651000Y-82100341D01*
X124651000Y-84249659D01*
X124647617Y-84284007D01*
X124639387Y-84311138D01*
X124626027Y-84336133D01*
X124608045Y-84358045D01*
X124586133Y-84376027D01*
X124561138Y-84389387D01*
X124534007Y-84397617D01*
X124499659Y-84401000D01*
X121300341Y-84401000D01*
X121265993Y-84397617D01*
X121238862Y-84389387D01*
X121213867Y-84376027D01*
X121191955Y-84358045D01*
X121173973Y-84336133D01*
X121160613Y-84311138D01*
X121152383Y-84284007D01*
X121149000Y-84249659D01*
X121149000Y-82100341D01*
X121152383Y-82065993D01*
X121160613Y-82038862D01*
X121173973Y-82013867D01*
X121191955Y-81991955D01*
X121213867Y-81973973D01*
X121238862Y-81960613D01*
X121265993Y-81952383D01*
X121300341Y-81949000D01*
X124499659Y-81949000D01*
X124534007Y-81952383D01*
G37*
G36*
X148768604Y-82928347D02*
G01*
X148805144Y-82939432D01*
X148838821Y-82957433D01*
X148868341Y-82981659D01*
X148892567Y-83011179D01*
X148910568Y-83044856D01*
X148921653Y-83081396D01*
X148926000Y-83125538D01*
X148926000Y-84074462D01*
X148921653Y-84118604D01*
X148910568Y-84155144D01*
X148892567Y-84188821D01*
X148868341Y-84218341D01*
X148838821Y-84242567D01*
X148805144Y-84260568D01*
X148768604Y-84271653D01*
X148724462Y-84276000D01*
X147275538Y-84276000D01*
X147231396Y-84271653D01*
X147194856Y-84260568D01*
X147161179Y-84242567D01*
X147131659Y-84218341D01*
X147107433Y-84188821D01*
X147089432Y-84155144D01*
X147078347Y-84118604D01*
X147074000Y-84074462D01*
X147074000Y-83125538D01*
X147078347Y-83081396D01*
X147089432Y-83044856D01*
X147107433Y-83011179D01*
X147131659Y-82981659D01*
X147161179Y-82957433D01*
X147194856Y-82939432D01*
X147231396Y-82928347D01*
X147275538Y-82924000D01*
X148724462Y-82924000D01*
X148768604Y-82928347D01*
G37*
G36*
X151268604Y-82928347D02*
G01*
X151305144Y-82939432D01*
X151338821Y-82957433D01*
X151368341Y-82981659D01*
X151392567Y-83011179D01*
X151410568Y-83044856D01*
X151421653Y-83081396D01*
X151426000Y-83125538D01*
X151426000Y-84074462D01*
X151421653Y-84118604D01*
X151410568Y-84155144D01*
X151392567Y-84188821D01*
X151368341Y-84218341D01*
X151338821Y-84242567D01*
X151305144Y-84260568D01*
X151268604Y-84271653D01*
X151224462Y-84276000D01*
X149775538Y-84276000D01*
X149731396Y-84271653D01*
X149694856Y-84260568D01*
X149661179Y-84242567D01*
X149631659Y-84218341D01*
X149607433Y-84188821D01*
X149589432Y-84155144D01*
X149578347Y-84118604D01*
X149574000Y-84074462D01*
X149574000Y-83125538D01*
X149578347Y-83081396D01*
X149589432Y-83044856D01*
X149607433Y-83011179D01*
X149631659Y-82981659D01*
X149661179Y-82957433D01*
X149694856Y-82939432D01*
X149731396Y-82928347D01*
X149775538Y-82924000D01*
X151224462Y-82924000D01*
X151268604Y-82928347D01*
G37*
G36*
X133164499Y-83103445D02*
G01*
X133201995Y-83114820D01*
X133236554Y-83133292D01*
X133266847Y-83158153D01*
X133291708Y-83188446D01*
X133310180Y-83223005D01*
X133321555Y-83260501D01*
X133326000Y-83305638D01*
X133326000Y-84044362D01*
X133321555Y-84089499D01*
X133310180Y-84126995D01*
X133291708Y-84161554D01*
X133266847Y-84191847D01*
X133236554Y-84216708D01*
X133201995Y-84235180D01*
X133164499Y-84246555D01*
X133119362Y-84251000D01*
X132480638Y-84251000D01*
X132435501Y-84246555D01*
X132398005Y-84235180D01*
X132363446Y-84216708D01*
X132333153Y-84191847D01*
X132308292Y-84161554D01*
X132289820Y-84126995D01*
X132278445Y-84089499D01*
X132274000Y-84044362D01*
X132274000Y-83305638D01*
X132278445Y-83260501D01*
X132289820Y-83223005D01*
X132308292Y-83188446D01*
X132333153Y-83158153D01*
X132363446Y-83133292D01*
X132398005Y-83114820D01*
X132435501Y-83103445D01*
X132480638Y-83099000D01*
X133119362Y-83099000D01*
X133164499Y-83103445D01*
G37*
G36*
X118818604Y-82828347D02*
G01*
X118855144Y-82839432D01*
X118888821Y-82857433D01*
X118918341Y-82881659D01*
X118942567Y-82911179D01*
X118960568Y-82944856D01*
X118971653Y-82981396D01*
X118976000Y-83025538D01*
X118976000Y-83974462D01*
X118971653Y-84018604D01*
X118960568Y-84055144D01*
X118942567Y-84088821D01*
X118918341Y-84118341D01*
X118888821Y-84142567D01*
X118855144Y-84160568D01*
X118818604Y-84171653D01*
X118774462Y-84176000D01*
X117325538Y-84176000D01*
X117281396Y-84171653D01*
X117244856Y-84160568D01*
X117211179Y-84142567D01*
X117181659Y-84118341D01*
X117157433Y-84088821D01*
X117139432Y-84055144D01*
X117128347Y-84018604D01*
X117124000Y-83974462D01*
X117124000Y-83025538D01*
X117128347Y-82981396D01*
X117139432Y-82944856D01*
X117157433Y-82911179D01*
X117181659Y-82881659D01*
X117211179Y-82857433D01*
X117244856Y-82839432D01*
X117281396Y-82828347D01*
X117325538Y-82824000D01*
X118774462Y-82824000D01*
X118818604Y-82828347D01*
G37*
G36*
X113002585Y-80823802D02*
G01*
X113152410Y-80853604D01*
X113434674Y-80970521D01*
X113688705Y-81140259D01*
X113904741Y-81356295D01*
X114074479Y-81610326D01*
X114191396Y-81892590D01*
X114206329Y-81967665D01*
X114231539Y-82094400D01*
X114251000Y-82192240D01*
X114251000Y-82497760D01*
X114191396Y-82797410D01*
X114074479Y-83079674D01*
X113904741Y-83333705D01*
X113688705Y-83549741D01*
X113434674Y-83719479D01*
X113152410Y-83836396D01*
X113043030Y-83858153D01*
X112852761Y-83896000D01*
X112547239Y-83896000D01*
X112356970Y-83858153D01*
X112247590Y-83836396D01*
X111965326Y-83719479D01*
X111711295Y-83549741D01*
X111495259Y-83333705D01*
X111325521Y-83079674D01*
X111208604Y-82797410D01*
X111149000Y-82497760D01*
X111149000Y-82192240D01*
X111168462Y-82094400D01*
X111193671Y-81967665D01*
X111208604Y-81892590D01*
X111325521Y-81610326D01*
X111495259Y-81356295D01*
X111711295Y-81140259D01*
X111965326Y-80970521D01*
X112247590Y-80853604D01*
X112397415Y-80823802D01*
X112547239Y-80794000D01*
X112852761Y-80794000D01*
X113002585Y-80823802D01*
G37*
G36*
X158301000Y-83896000D02*
G01*
X155199000Y-83896000D01*
X155199000Y-80794000D01*
X158301000Y-80794000D01*
X158301000Y-83896000D01*
G37*
G36*
X145068604Y-81828347D02*
G01*
X145105144Y-81839432D01*
X145138821Y-81857433D01*
X145168341Y-81881659D01*
X145192567Y-81911179D01*
X145210568Y-81944856D01*
X145221653Y-81981396D01*
X145226000Y-82025538D01*
X145226000Y-83474462D01*
X145221653Y-83518604D01*
X145210568Y-83555144D01*
X145192567Y-83588821D01*
X145168341Y-83618341D01*
X145138821Y-83642567D01*
X145105144Y-83660568D01*
X145068604Y-83671653D01*
X145024462Y-83676000D01*
X144075538Y-83676000D01*
X144031396Y-83671653D01*
X143994856Y-83660568D01*
X143961179Y-83642567D01*
X143931659Y-83618341D01*
X143907433Y-83588821D01*
X143889432Y-83555144D01*
X143878347Y-83518604D01*
X143874000Y-83474462D01*
X143874000Y-82025538D01*
X143878347Y-81981396D01*
X143889432Y-81944856D01*
X143907433Y-81911179D01*
X143931659Y-81881659D01*
X143961179Y-81857433D01*
X143994856Y-81839432D01*
X144031396Y-81828347D01*
X144075538Y-81824000D01*
X145024462Y-81824000D01*
X145068604Y-81828347D01*
G37*
G36*
X142268604Y-81828347D02*
G01*
X142305144Y-81839432D01*
X142338821Y-81857433D01*
X142368341Y-81881659D01*
X142392567Y-81911179D01*
X142410568Y-81944856D01*
X142421653Y-81981396D01*
X142426000Y-82025538D01*
X142426000Y-83474462D01*
X142421653Y-83518604D01*
X142410568Y-83555144D01*
X142392567Y-83588821D01*
X142368341Y-83618341D01*
X142338821Y-83642567D01*
X142305144Y-83660568D01*
X142268604Y-83671653D01*
X142224462Y-83676000D01*
X141275538Y-83676000D01*
X141231396Y-83671653D01*
X141194856Y-83660568D01*
X141161179Y-83642567D01*
X141131659Y-83618341D01*
X141107433Y-83588821D01*
X141089432Y-83555144D01*
X141078347Y-83518604D01*
X141074000Y-83474462D01*
X141074000Y-82025538D01*
X141078347Y-81981396D01*
X141089432Y-81944856D01*
X141107433Y-81911179D01*
X141131659Y-81881659D01*
X141161179Y-81857433D01*
X141194856Y-81839432D01*
X141231396Y-81828347D01*
X141275538Y-81824000D01*
X142224462Y-81824000D01*
X142268604Y-81828347D01*
G37*
G36*
X140114499Y-82053445D02*
G01*
X140151995Y-82064820D01*
X140186554Y-82083292D01*
X140216847Y-82108153D01*
X140241708Y-82138446D01*
X140260180Y-82173005D01*
X140271555Y-82210501D01*
X140276000Y-82255638D01*
X140276000Y-82994362D01*
X140271555Y-83039499D01*
X140260180Y-83076995D01*
X140241708Y-83111554D01*
X140216847Y-83141847D01*
X140186554Y-83166708D01*
X140151995Y-83185180D01*
X140114499Y-83196555D01*
X140069362Y-83201000D01*
X139430638Y-83201000D01*
X139385501Y-83196555D01*
X139348005Y-83185180D01*
X139313446Y-83166708D01*
X139283153Y-83141847D01*
X139258292Y-83111554D01*
X139239820Y-83076995D01*
X139228445Y-83039499D01*
X139224000Y-82994362D01*
X139224000Y-82255638D01*
X139228445Y-82210501D01*
X139239820Y-82173005D01*
X139258292Y-82138446D01*
X139283153Y-82108153D01*
X139313446Y-82083292D01*
X139348005Y-82064820D01*
X139385501Y-82053445D01*
X139430638Y-82049000D01*
X140069362Y-82049000D01*
X140114499Y-82053445D01*
G37*
G36*
X135164499Y-82053445D02*
G01*
X135201995Y-82064820D01*
X135236554Y-82083292D01*
X135266847Y-82108153D01*
X135291708Y-82138446D01*
X135310180Y-82173005D01*
X135321555Y-82210501D01*
X135326000Y-82255638D01*
X135326000Y-82994362D01*
X135321555Y-83039499D01*
X135310180Y-83076995D01*
X135291708Y-83111554D01*
X135266847Y-83141847D01*
X135236554Y-83166708D01*
X135201995Y-83185180D01*
X135164499Y-83196555D01*
X135119362Y-83201000D01*
X134480638Y-83201000D01*
X134435501Y-83196555D01*
X134398005Y-83185180D01*
X134363446Y-83166708D01*
X134333153Y-83141847D01*
X134308292Y-83111554D01*
X134289820Y-83076995D01*
X134278445Y-83039499D01*
X134274000Y-82994362D01*
X134274000Y-82255638D01*
X134278445Y-82210501D01*
X134289820Y-82173005D01*
X134308292Y-82138446D01*
X134333153Y-82108153D01*
X134363446Y-82083292D01*
X134398005Y-82064820D01*
X134435501Y-82053445D01*
X134480638Y-82049000D01*
X135119362Y-82049000D01*
X135164499Y-82053445D01*
G37*
G36*
X133164499Y-81353445D02*
G01*
X133201995Y-81364820D01*
X133236554Y-81383292D01*
X133266847Y-81408153D01*
X133291708Y-81438446D01*
X133310180Y-81473005D01*
X133321555Y-81510501D01*
X133326000Y-81555638D01*
X133326000Y-82294362D01*
X133321555Y-82339499D01*
X133310180Y-82376995D01*
X133291708Y-82411554D01*
X133266847Y-82441847D01*
X133236554Y-82466708D01*
X133201995Y-82485180D01*
X133164499Y-82496555D01*
X133119362Y-82501000D01*
X132480638Y-82501000D01*
X132435501Y-82496555D01*
X132398005Y-82485180D01*
X132363446Y-82466708D01*
X132333153Y-82441847D01*
X132308292Y-82411554D01*
X132289820Y-82376995D01*
X132278445Y-82339499D01*
X132274000Y-82294362D01*
X132274000Y-81555638D01*
X132278445Y-81510501D01*
X132289820Y-81473005D01*
X132308292Y-81438446D01*
X132333153Y-81408153D01*
X132363446Y-81383292D01*
X132398005Y-81364820D01*
X132435501Y-81353445D01*
X132480638Y-81349000D01*
X133119362Y-81349000D01*
X133164499Y-81353445D01*
G37*
G36*
X128339499Y-81378445D02*
G01*
X128376995Y-81389820D01*
X128411554Y-81408292D01*
X128441847Y-81433153D01*
X128466708Y-81463446D01*
X128485180Y-81498005D01*
X128496555Y-81535501D01*
X128501000Y-81580638D01*
X128501000Y-82219362D01*
X128496555Y-82264499D01*
X128485180Y-82301995D01*
X128466708Y-82336554D01*
X128441847Y-82366847D01*
X128411554Y-82391708D01*
X128376995Y-82410180D01*
X128339499Y-82421555D01*
X128294362Y-82426000D01*
X127555638Y-82426000D01*
X127510501Y-82421555D01*
X127473005Y-82410180D01*
X127438446Y-82391708D01*
X127408153Y-82366847D01*
X127383292Y-82336554D01*
X127364820Y-82301995D01*
X127353445Y-82264499D01*
X127349000Y-82219362D01*
X127349000Y-81580638D01*
X127353445Y-81535501D01*
X127364820Y-81498005D01*
X127383292Y-81463446D01*
X127408153Y-81433153D01*
X127438446Y-81408292D01*
X127473005Y-81389820D01*
X127510501Y-81378445D01*
X127555638Y-81374000D01*
X128294362Y-81374000D01*
X128339499Y-81378445D01*
G37*
G36*
X130089499Y-81378445D02*
G01*
X130126995Y-81389820D01*
X130161554Y-81408292D01*
X130191847Y-81433153D01*
X130216708Y-81463446D01*
X130235180Y-81498005D01*
X130246555Y-81535501D01*
X130251000Y-81580638D01*
X130251000Y-82219362D01*
X130246555Y-82264499D01*
X130235180Y-82301995D01*
X130216708Y-82336554D01*
X130191847Y-82366847D01*
X130161554Y-82391708D01*
X130126995Y-82410180D01*
X130089499Y-82421555D01*
X130044362Y-82426000D01*
X129305638Y-82426000D01*
X129260501Y-82421555D01*
X129223005Y-82410180D01*
X129188446Y-82391708D01*
X129158153Y-82366847D01*
X129133292Y-82336554D01*
X129114820Y-82301995D01*
X129103445Y-82264499D01*
X129099000Y-82219362D01*
X129099000Y-81580638D01*
X129103445Y-81535501D01*
X129114820Y-81498005D01*
X129133292Y-81463446D01*
X129158153Y-81433153D01*
X129188446Y-81408292D01*
X129223005Y-81389820D01*
X129260501Y-81378445D01*
X129305638Y-81374000D01*
X130044362Y-81374000D01*
X130089499Y-81378445D01*
G37*
G36*
X150903512Y-79853927D02*
G01*
X151052812Y-79883624D01*
X151216784Y-79951544D01*
X151364354Y-80050147D01*
X151489853Y-80175646D01*
X151588456Y-80323216D01*
X151656376Y-80487188D01*
X151691000Y-80661259D01*
X151691000Y-80838741D01*
X151656376Y-81012812D01*
X151588456Y-81176784D01*
X151489853Y-81324354D01*
X151364354Y-81449853D01*
X151216784Y-81548456D01*
X151052812Y-81616376D01*
X150903512Y-81646073D01*
X150878742Y-81651000D01*
X150701258Y-81651000D01*
X150676488Y-81646073D01*
X150527188Y-81616376D01*
X150363216Y-81548456D01*
X150215646Y-81449853D01*
X150090147Y-81324354D01*
X149991544Y-81176784D01*
X149923624Y-81012812D01*
X149889000Y-80838741D01*
X149889000Y-80661259D01*
X149923624Y-80487188D01*
X149991544Y-80323216D01*
X150090147Y-80175646D01*
X150215646Y-80050147D01*
X150363216Y-79951544D01*
X150527188Y-79883624D01*
X150676488Y-79853927D01*
X150701258Y-79849000D01*
X150878742Y-79849000D01*
X150903512Y-79853927D01*
G37*
G36*
X149151000Y-81651000D02*
G01*
X147349000Y-81651000D01*
X147349000Y-79849000D01*
X149151000Y-79849000D01*
X149151000Y-81651000D01*
G37*
G36*
X119801000Y-81201000D02*
G01*
X117999000Y-81201000D01*
X117999000Y-79399000D01*
X119801000Y-79399000D01*
X119801000Y-81201000D01*
G37*
G36*
X145068604Y-79178347D02*
G01*
X145105144Y-79189432D01*
X145138821Y-79207433D01*
X145168341Y-79231659D01*
X145192567Y-79261179D01*
X145210568Y-79294856D01*
X145221653Y-79331396D01*
X145226000Y-79375538D01*
X145226000Y-80824462D01*
X145221653Y-80868604D01*
X145210568Y-80905144D01*
X145192567Y-80938821D01*
X145168341Y-80968341D01*
X145138821Y-80992567D01*
X145105144Y-81010568D01*
X145068604Y-81021653D01*
X145024462Y-81026000D01*
X144075538Y-81026000D01*
X144031396Y-81021653D01*
X143994856Y-81010568D01*
X143961179Y-80992567D01*
X143931659Y-80968341D01*
X143907433Y-80938821D01*
X143889432Y-80905144D01*
X143878347Y-80868604D01*
X143874000Y-80824462D01*
X143874000Y-79375538D01*
X143878347Y-79331396D01*
X143889432Y-79294856D01*
X143907433Y-79261179D01*
X143931659Y-79231659D01*
X143961179Y-79207433D01*
X143994856Y-79189432D01*
X144031396Y-79178347D01*
X144075538Y-79174000D01*
X145024462Y-79174000D01*
X145068604Y-79178347D01*
G37*
G36*
X142268604Y-79178347D02*
G01*
X142305144Y-79189432D01*
X142338821Y-79207433D01*
X142368341Y-79231659D01*
X142392567Y-79261179D01*
X142410568Y-79294856D01*
X142421653Y-79331396D01*
X142426000Y-79375538D01*
X142426000Y-80824462D01*
X142421653Y-80868604D01*
X142410568Y-80905144D01*
X142392567Y-80938821D01*
X142368341Y-80968341D01*
X142338821Y-80992567D01*
X142305144Y-81010568D01*
X142268604Y-81021653D01*
X142224462Y-81026000D01*
X141275538Y-81026000D01*
X141231396Y-81021653D01*
X141194856Y-81010568D01*
X141161179Y-80992567D01*
X141131659Y-80968341D01*
X141107433Y-80938821D01*
X141089432Y-80905144D01*
X141078347Y-80868604D01*
X141074000Y-80824462D01*
X141074000Y-79375538D01*
X141078347Y-79331396D01*
X141089432Y-79294856D01*
X141107433Y-79261179D01*
X141131659Y-79231659D01*
X141161179Y-79207433D01*
X141194856Y-79189432D01*
X141231396Y-79178347D01*
X141275538Y-79174000D01*
X142224462Y-79174000D01*
X142268604Y-79178347D01*
G37*
M02*
